<svg width="56" height="56" viewBox="0 0 56 56" fill="none" xmlns="http://www.w3.org/2000/svg">
<path d="M47.5 52H4V6.99988H44.5V9.99978H7V48.9986H47.5V52Z" fill="#3F87F5"/>
<path d="M40 45.9987H10V12.9998H40V45.9987ZM13 42.9988H37V15.9997H13V42.9988Z" fill="#3F87F5"/>
<path d="M29.5 14.4996H26.5V30.9991H29.5V14.4996Z" fill="#3F87F5"/>
<path d="M38.5 21.9994H28V24.9993H38.5V21.9994Z" fill="#3F87F5"/>
<path d="M23.5 21.9994H20.5V30.9991H23.5V21.9994Z" fill="#3F87F5"/>
<path d="M22 24.9994H11.5V27.9993H22V24.9994Z" fill="#3F87F5"/>
<path d="M29.5 33.999H26.5V44.4987H29.5V33.999Z" fill="#3F87F5"/>
<path d="M23.5 39.9989H20.5V44.4988H23.5V39.9989Z" fill="#3F87F5"/>
<path d="M19 35.499H11.5V38.4989H19V35.499Z" fill="#3F87F5"/>
<path d="M23.5 39.9989H20.5C20.5 39.1709 19.828 38.4989 19 38.4989V35.499C21.481 35.499 23.5 37.518 23.5 39.9989Z" fill="#3F87F5"/>
<path d="M47.5 52V49.0001C48.328 49.0001 49 48.3281 49 47.5001H52C52 49.981 49.981 52 47.5 52Z" fill="#3F87F5"/>
<path d="M52 47.4986H49C49 46.6707 48.328 45.9987 47.5 45.9987V42.9988C49.981 42.9988 52 45.0177 52 47.4986Z" fill="#3F87F5"/>
<path d="M52 8.49986H49C49 7.67188 48.328 6.99991 47.5 6.99991V4C49.981 4 52 6.01894 52 8.49986Z" fill="#3F87F5"/>
<path d="M46 8.49986H43C43 6.01894 45.019 4 47.5 4V6.99991C46.672 6.99991 46 7.67338 46 8.49986Z" fill="#3F87F5"/>
<path d="M52 8.49988H49V47.4986H52V8.49988Z" fill="#3F87F5"/>
<path d="M47.5 45.9987H43V8.49988H46V42.9988H47.5V45.9987Z" fill="#3F87F5"/>
</svg>
