<svg width="56" height="56" viewBox="0 0 56 56" fill="none" xmlns="http://www.w3.org/2000/svg">
<path d="M50.4 47.6H5.59998V50.4H50.4V47.6Z" fill="#3F87F5"/>
<path d="M50.4 28H47.6C47.6 17.192 38.808 8.39998 28 8.39998C17.192 8.39998 8.39998 17.192 8.39998 28H5.59998C5.59998 15.6492 15.6492 5.59998 28 5.59998C40.3508 5.59998 50.4 15.6492 50.4 28Z" fill="#3F87F5"/>
<path d="M50.4 26.6H5.59998V29.4H50.4V26.6Z" fill="#3F87F5"/>
<path d="M28 42C20.2804 42 14 35.7196 14 28H16.8C16.8 34.1754 21.8246 39.2 28 39.2C34.1754 39.2 39.2 34.1754 39.2 28H42C42 35.7196 35.7196 42 28 42Z" fill="#3F87F5"/>
<path d="M27.9999 34.9999C24.9115 34.9999 22.3999 32.4883 22.3999 29.3999H25.1999C25.1999 30.9441 26.4557 32.1999 27.9999 32.1999C29.5441 32.1999 30.7999 30.9441 30.7999 29.3999H33.5999C33.5999 32.4883 31.0883 34.9999 27.9999 34.9999Z" fill="#3F87F5"/>
<path d="M15.2712 22.155L12.7288 20.986C14.7868 16.5046 18.6844 13.1684 23.4206 11.8314L24.1807 14.5264C20.2341 15.6394 16.9876 18.4198 15.2712 22.155Z" fill="#3F87F5"/>
<path d="M43.266 35.1803L39.6284 33.0807L38.2287 35.5058L41.8663 37.6053L43.266 35.1803Z" fill="#3F87F5"/>
<path d="M37.632 41.8586L35.5316 38.2214L33.1068 39.6217L35.2072 43.2589L37.632 41.8586Z" fill="#3F87F5"/>
<path d="M29.4 40.6H26.6V44.8H29.4V40.6Z" fill="#3F87F5"/>
<path d="M22.9292 39.605L20.5042 38.2053L18.4046 41.8429L20.8297 43.2427L22.9292 39.605Z" fill="#3F87F5"/>
<path d="M17.7753 35.5243L16.3756 33.0992L12.738 35.1988L14.1377 37.6239L17.7753 35.5243Z" fill="#3F87F5"/>
<path d="M44.8 26.6H40.6V29.4H44.8V26.6Z" fill="#3F87F5"/>
<path d="M15.4 26.6H11.2V29.4H15.4V26.6Z" fill="#3F87F5"/>
</svg>
