<svg width="56" height="56" viewBox="0 0 56 56" fill="none" xmlns="http://www.w3.org/2000/svg">
<path d="M8.5 52C6.019 52 4 49.981 4 47.5H7C7 48.328 7.672 49 8.5 49C9.328 49 10 48.328 10 47.5H13C13 49.981 10.981 52 8.5 52Z" fill="#3F87F5"/>
<path d="M19 8.5H16C16 7.672 15.328 7 14.5 7C13.672 7 13 7.672 13 8.5H10C10 6.019 12.019 4 14.5 4C16.981 4 19 6.0175 19 8.5Z" fill="#3F87F5"/>
<path d="M13 8.5H10V47.5H13V8.5Z" fill="#3F87F5"/>
<path d="M52 13H16V8.5H19V10H49V8.5H52V13Z" fill="#3F87F5"/>
<path d="M52 8.5H49C49 7.672 48.328 7 47.5 7V4C49.981 4 52 6.0175 52 8.5Z" fill="#3F87F5"/>
<path d="M47.5 4H14.5V7H47.5V4Z" fill="#3F87F5"/>
<path d="M7 47.5H4V43H11.5V46H7V47.5Z" fill="#3F87F5"/>
<path d="M49 11.5H46V47.5H49V11.5Z" fill="#3F87F5"/>
<path d="M44.5 52V49C45.328 49 46 48.328 46 47.5H49C49 49.981 46.981 52 44.5 52Z" fill="#3F87F5"/>
<path d="M44.5 49H8.5V52H44.5V49Z" fill="#3F87F5"/>
<path d="M25 16H16V19H25V16Z" fill="#3F87F5"/>
<path d="M43 22H16V25H43V22Z" fill="#3F87F5"/>
<path d="M31 28H16V31H31V28Z" fill="#3F87F5"/>
<path d="M31 43H16V46H31V43Z" fill="#3F87F5"/>
<path d="M38.5 37C36.019 37 34 34.981 34 32.5C34 30.019 36.019 28 38.5 28C40.981 28 43 30.019 43 32.5C43 34.981 40.981 37 38.5 37ZM38.5 31C37.672 31 37 31.672 37 32.5C37 33.328 37.672 34 38.5 34C39.328 34 40 33.328 40 32.5C40 31.672 39.328 31 38.5 31Z" fill="#3F87F5"/>
<path d="M43 46.927L38.5 44.677L34 46.927V32.5H37V42.073L38.5 41.323L40 42.073V32.5H43V46.927Z" fill="#3F87F5"/>
<path d="M31 16H28V19H31V16Z" fill="#3F87F5"/>
<path d="M37 16H34V19H37V16Z" fill="#3F87F5"/>
<path d="M43 16H40V19H43V16Z" fill="#3F87F5"/>
</svg>
