<svg width="56" height="56" viewBox="0 0 56 56" fill="none" xmlns="http://www.w3.org/2000/svg">
<path d="M11.4985 40.682L4.957 30.971C4.309 29.8475 4 28.6805 4 27.5C4 23.3645 7.3645 20 11.5 20C15.6355 20 19 23.3645 19 27.5C19 28.718 18.6295 30.0725 18.058 30.953C17.662 31.559 12.7435 38.84 12.7435 38.84L11.4985 40.682ZM11.5 23C9.019 23 7 25.019 7 27.5C7 28.16 7.17403 28.814 7.50253 29.3915L11.5015 35.3195C12.9775 33.131 15.2785 29.723 15.5425 29.3165C15.766 28.9715 16 28.1975 16 27.5C16 25.0175 13.981 23 11.5 23Z" fill="#3F87F5"/>
<path d="M11.5 29C12.3284 29 13 28.3284 13 27.5C13 26.6716 12.3284 26 11.5 26C10.6716 26 10 26.6716 10 27.5C10 28.3284 10.6716 29 11.5 29Z" fill="#3F87F5"/>
<path d="M44.4985 28.682L37.957 18.971C37.309 17.8475 37 16.6805 37 15.5C37 11.3645 40.3645 8 44.5 8C48.6355 8 52 11.3645 52 15.5C52 16.718 51.6295 18.0725 51.058 18.953C50.662 19.559 45.7435 26.84 45.7435 26.84L44.4985 28.682ZM44.5 11C42.019 11 40 13.019 40 15.5C40 16.16 40.174 16.814 40.5025 17.3915L44.5015 23.3195C45.9775 21.131 48.2785 17.723 48.5425 17.3165C48.766 16.9715 49 16.1975 49 15.5C49 13.0175 46.981 11 44.5 11Z" fill="#3F87F5"/>
<path d="M44.5 17C45.3284 17 46 16.3284 46 15.5C46 14.6716 45.3284 14 44.5 14C43.6716 14 43 14.6716 43 15.5C43 16.3284 43.6716 17 44.5 17Z" fill="#3F87F5"/>
<path d="M47.5 44H16V47H47.5V44Z" fill="#3F87F5"/>
<path d="M47.5 47V44C48.328 44 49 43.328 49 42.5C49 41.672 48.328 41 47.5 41V38C49.981 38 52 40.019 52 42.5C52 44.981 49.981 47 47.5 47Z" fill="#3F87F5"/>
<path d="M47.5 38H25V41H47.5V38Z" fill="#3F87F5"/>
<path d="M25 41C22.519 41 20.5 38.981 20.5 36.5C20.5 34.019 22.519 32 25 32V35C24.172 35 23.5 35.672 23.5 36.5C23.5 37.328 24.172 38 25 38V41Z" fill="#3F87F5"/>
<path d="M40 32H25V35H40V32Z" fill="#3F87F5"/>
<path d="M44.5 35C45.3284 35 46 34.3284 46 33.5C46 32.6716 45.3284 32 44.5 32C43.6716 32 43 32.6716 43 33.5C43 34.3284 43.6716 35 44.5 35Z" fill="#3F87F5"/>
<path d="M11.5 47C12.3284 47 13 46.3284 13 45.5C13 44.6716 12.3284 44 11.5 44C10.6716 44 10 44.6716 10 45.5C10 46.3284 10.6716 47 11.5 47Z" fill="#3F87F5"/>
</svg>
