<svg width="125" height="158" viewBox="0 0 125 158" fill="none" xmlns="http://www.w3.org/2000/svg">
<path d="M3.1156 156.953C3.1156 157.479 3.54092 157.904 4.07055 157.904C4.59617 157.904 5.02148 157.479 5.02148 156.953C5.02148 156.426 4.59617 156 4.07055 156C3.54092 155.999 3.1156 156.426 3.1156 156.953Z" fill="white"/>
<path d="M3.11511 144.953C3.11511 145.48 3.54043 145.904 4.07007 145.904C4.59569 145.904 5.021 145.48 5.021 144.953C5.021 144.43 4.59569 144 4.07007 144C3.54043 144 3.11511 144.431 3.11511 144.953Z" fill="white"/>
<path d="M3.11511 132.954C3.11511 133.479 3.54043 133.904 4.07007 133.904C4.59569 133.904 5.021 133.479 5.021 132.954C5.021 132.426 4.59569 132 4.07007 132C3.54043 132.001 3.11511 132.426 3.11511 132.954Z" fill="white"/>
<path d="M3.11511 120.953C3.11511 121.48 3.54043 121.904 4.07007 121.904C4.59569 121.904 5.021 121.48 5.021 120.953C5.021 120.427 4.59569 120 4.07007 120C3.54043 119.999 3.11511 120.427 3.11511 120.953Z" fill="white"/>
<path d="M3.11511 108.954C3.11511 109.479 3.54043 109.904 4.07007 109.904C4.59569 109.904 5.021 109.479 5.021 108.954C5.021 108.425 4.59569 108 4.07007 108C3.54043 108 3.11511 108.425 3.11511 108.954Z" fill="white"/>
<path d="M3.11511 96.954C3.11511 97.4778 3.54042 97.9041 4.06604 97.9041C4.59568 97.9041 5.021 97.4778 5.021 96.954C5.021 96.4249 4.59568 95.9999 4.06604 95.9999C3.54042 95.9999 3.11511 96.4249 3.11511 96.954Z" fill="white"/>
<path d="M3.11511 84.9515C3.11511 85.4773 3.54042 85.9042 4.06604 85.9042C4.59568 85.9042 5.021 85.476 5.021 84.9515C5.021 84.4256 4.59568 84.0001 4.06604 84.0001C3.54042 84.0001 3.11511 84.4269 3.11511 84.9515Z" fill="white"/>
<path d="M3.1156 72.9521C3.1156 73.4776 3.54091 73.9042 4.06653 73.9042C4.59617 73.9042 5.02148 73.4776 5.02148 72.9521C5.02148 72.4239 4.59617 72.0001 4.06653 72.0001C3.54091 72.0001 3.1156 72.4239 3.1156 72.9521Z" fill="white"/>
<path d="M3.1156 60.9528C3.1156 61.4787 3.54091 61.9042 4.06653 61.9042C4.59617 61.9042 5.02148 61.4787 5.02148 60.9528C5.02148 60.4269 4.59617 60.0001 4.06653 60.0001C3.54091 60.0001 3.1156 60.4269 3.1156 60.9528Z" fill="white"/>
<path d="M3.1156 48.9528C3.1156 49.4813 3.54091 49.9042 4.06653 49.9042C4.59617 49.9042 5.02148 49.4813 5.02148 48.9528C5.02148 48.4256 4.59617 48.0001 4.06653 48.0001C3.54091 48.0001 3.1156 48.4269 3.1156 48.9528Z" fill="white"/>
<path d="M3.1156 36.9508C3.1156 37.4756 3.54091 37.9042 4.06653 37.9042C4.59617 37.9042 5.02148 37.4742 5.02148 36.9508C5.02148 36.4247 4.59617 36.0001 4.06653 36.0001C3.54091 36.0001 3.1156 36.4247 3.1156 36.9508Z" fill="white"/>
<path d="M3.1156 24.9514C3.1156 25.4752 3.54091 25.9042 4.06653 25.9042C4.59617 25.9042 5.02148 25.4739 5.02148 24.9514C5.02148 24.425 4.59617 24.0001 4.06653 24.0001C3.54091 24.0001 3.1156 24.425 3.1156 24.9514Z" fill="white"/>
<path d="M3.1156 12.9507C3.1156 13.4788 3.54091 13.9041 4.06653 13.9041C4.59617 13.9041 5.02148 13.4788 5.02148 12.9507C5.02148 12.4252 4.59617 11.9999 4.06653 11.9999C3.54091 11.9999 3.1156 12.4265 3.1156 12.9507Z" fill="white"/>
<path d="M3.1156 0.947994C3.1156 1.4741 3.54091 1.90405 4.06653 1.90405C4.59617 1.90405 5.02148 1.4741 5.02148 0.947994C5.02148 0.424563 4.59617 -5.69449e-05 4.06653 -5.68986e-05C3.54091 -5.68526e-05 3.1156 0.425898 3.1156 0.947994Z" fill="white"/>
<path d="M15.0214 156.953C15.0214 157.479 15.448 157.904 15.975 157.904C16.5006 157.904 16.9272 157.479 16.9272 156.953C16.9272 156.426 16.5006 156 15.975 156C15.448 155.999 15.0214 156.426 15.0214 156.953Z" fill="white"/>
<path d="M15.0209 144.953C15.0209 145.479 15.4465 145.904 15.9738 145.904C16.4998 145.904 16.9268 145.479 16.9268 144.953C16.9268 144.43 16.4998 144 15.9738 144C15.4478 144 15.0209 144.431 15.0209 144.953Z" fill="white"/>
<path d="M15.0209 132.954C15.0209 133.478 15.4465 133.904 15.9738 133.904C16.4998 133.904 16.9268 133.478 16.9268 132.954C16.9268 132.426 16.4998 132 15.9738 132C15.4478 132.001 15.0209 132.426 15.0209 132.954Z" fill="white"/>
<path d="M15.0209 120.953C15.0209 121.48 15.4465 121.904 15.9738 121.904C16.4998 121.904 16.9268 121.48 16.9268 120.953C16.9268 120.427 16.4998 120 15.9738 120C15.4478 119.999 15.0209 120.427 15.0209 120.953Z" fill="white"/>
<path d="M15.0209 108.954C15.0209 109.479 15.4465 109.904 15.9738 109.904C16.4998 109.904 16.9268 109.479 16.9268 108.954C16.9268 108.425 16.4998 108 15.9738 108C15.4478 108 15.0209 108.425 15.0209 108.954Z" fill="white"/>
<path d="M15.0209 96.9541C15.0209 97.4779 15.4465 97.9042 15.9711 97.9042C16.4985 97.9042 16.9268 97.4779 16.9268 96.9541C16.9268 96.425 16.4971 96.0001 15.9711 96.0001C15.4478 96.0001 15.0209 96.425 15.0209 96.9541Z" fill="white"/>
<path d="M15.0209 84.9515C15.0209 85.4773 15.4465 85.9042 15.9711 85.9042C16.4985 85.9042 16.9268 85.476 16.9268 84.9515C16.9268 84.4256 16.4971 84.0001 15.9711 84.0001C15.4478 84.0001 15.0209 84.4269 15.0209 84.9515Z" fill="white"/>
<path d="M15.0214 72.9521C15.0214 73.4776 15.447 73.9042 15.9716 73.9042C16.499 73.9042 16.9272 73.4776 16.9272 72.9521C16.9272 72.4239 16.4976 72.0001 15.9716 72.0001C15.4483 72.0001 15.0214 72.4239 15.0214 72.9521Z" fill="white"/>
<path d="M15.0214 60.9528C15.0214 61.4787 15.447 61.9042 15.9716 61.9042C16.499 61.9042 16.9272 61.4787 16.9272 60.9528C16.9272 60.4269 16.4976 60.0001 15.9716 60.0001C15.4483 60.0001 15.0214 60.4269 15.0214 60.9528Z" fill="white"/>
<path d="M15.0214 48.9528C15.0214 49.4813 15.447 49.9042 15.9716 49.9042C16.499 49.9042 16.9272 49.4813 16.9272 48.9528C16.9272 48.4256 16.4976 48.0001 15.9716 48.0001C15.4483 48.0001 15.0214 48.4269 15.0214 48.9528Z" fill="white"/>
<path d="M15.0214 36.9508C15.0214 37.4756 15.447 37.9042 15.9716 37.9042C16.499 37.9042 16.9272 37.4742 16.9272 36.9508C16.9272 36.4247 16.4976 36.0001 15.9716 36.0001C15.4483 36.0001 15.0214 36.4247 15.0214 36.9508Z" fill="white"/>
<path d="M15.0214 24.9514C15.0214 25.4752 15.447 25.9042 15.9716 25.9042C16.499 25.9042 16.9272 25.4739 16.9272 24.9514C16.9272 24.425 16.4976 24.0001 15.9716 24.0001C15.4483 24.0001 15.0214 24.425 15.0214 24.9514Z" fill="white"/>
<path d="M15.0214 12.9507C15.0214 13.4788 15.447 13.9041 15.9716 13.9041C16.499 13.9041 16.9272 13.4788 16.9272 12.9507C16.9272 12.4252 16.4976 11.9999 15.9716 11.9999C15.4483 11.9999 15.0214 12.4265 15.0214 12.9507Z" fill="white"/>
<path d="M15.0214 0.947994C15.0214 1.4741 15.447 1.90405 15.9716 1.90405C16.499 1.90405 16.9272 1.4741 16.9272 0.947994C16.9272 0.424563 16.4976 -5.69445e-05 15.9716 -5.68985e-05C15.4483 -5.68527e-05 15.0214 0.425898 15.0214 0.947994Z" fill="white"/>
<path d="M26.9271 156.953C26.9271 157.479 27.3527 157.904 27.8814 157.904C28.4061 157.904 28.833 157.479 28.833 156.953C28.833 156.426 28.4047 156 27.8814 156C27.3527 155.999 26.9271 156.426 26.9271 156.953Z" fill="white"/>
<path d="M26.9266 144.953C26.9266 145.48 27.3522 145.904 27.8809 145.904C28.4056 145.904 28.8325 145.48 28.8325 144.953C28.8325 144.43 28.4042 144 27.8809 144C27.3522 144 26.9266 144.431 26.9266 144.953Z" fill="white"/>
<path d="M26.9266 132.954C26.9266 133.479 27.3522 133.904 27.8809 133.904C28.4056 133.904 28.8325 133.479 28.8325 132.954C28.8325 132.426 28.4042 132 27.8809 132C27.3522 132.001 26.9266 132.426 26.9266 132.954Z" fill="white"/>
<path d="M26.9266 120.953C26.9266 121.48 27.3522 121.904 27.8809 121.904C28.4056 121.904 28.8325 121.48 28.8325 120.953C28.8325 120.427 28.4042 120 27.8809 120C27.3522 119.999 26.9266 120.427 26.9266 120.953Z" fill="white"/>
<path d="M26.9266 108.954C26.9266 109.479 27.3522 109.904 27.8809 109.904C28.4056 109.904 28.8325 109.479 28.8325 108.954C28.8325 108.425 28.4042 108 27.8809 108C27.3522 108 26.9266 108.425 26.9266 108.954Z" fill="white"/>
<path d="M26.9266 96.9541C26.9266 97.4779 27.3522 97.9042 27.8782 97.9042C28.4042 97.9042 28.8325 97.4779 28.8325 96.9541C28.8325 96.425 28.4029 96.0001 27.8782 96.0001C27.3522 96.0001 26.9266 96.425 26.9266 96.9541Z" fill="white"/>
<path d="M26.9266 84.9515C26.9266 85.4773 27.3522 85.9042 27.8782 85.9042C28.4042 85.9042 28.8325 85.476 28.8325 84.9515C28.8325 84.4256 28.4029 84.0001 27.8782 84.0001C27.3522 84.0001 26.9266 84.4269 26.9266 84.9515Z" fill="white"/>
<path d="M26.9271 72.9521C26.9271 73.4776 27.3527 73.9042 27.8787 73.9042C28.4047 73.9042 28.833 73.4776 28.833 72.9521C28.833 72.4239 28.4034 72.0001 27.8787 72.0001C27.3527 72.0001 26.9271 72.4239 26.9271 72.9521Z" fill="white"/>
<path d="M26.9271 60.9528C26.9271 61.4787 27.3527 61.9042 27.8787 61.9042C28.4047 61.9042 28.833 61.4787 28.833 60.9528C28.833 60.4269 28.4034 60.0001 27.8787 60.0001C27.3527 60.0001 26.9271 60.4269 26.9271 60.9528Z" fill="white"/>
<path d="M26.9271 48.9528C26.9271 49.4813 27.3527 49.9042 27.8787 49.9042C28.4047 49.9042 28.833 49.4813 28.833 48.9528C28.833 48.4256 28.4034 48.0001 27.8787 48.0001C27.3527 48.0001 26.9271 48.4269 26.9271 48.9528Z" fill="white"/>
<path d="M26.9271 36.9508C26.9271 37.4756 27.3527 37.9042 27.8787 37.9042C28.4047 37.9042 28.833 37.4742 28.833 36.9508C28.833 36.4247 28.4034 36.0001 27.8787 36.0001C27.3527 36.0001 26.9271 36.4247 26.9271 36.9508Z" fill="white"/>
<path d="M26.9271 24.9514C26.9271 25.4752 27.3527 25.9042 27.8787 25.9042C28.4047 25.9042 28.833 25.4739 28.833 24.9514C28.833 24.425 28.4034 24.0001 27.8787 24.0001C27.3527 24.0001 26.9271 24.425 26.9271 24.9514Z" fill="white"/>
<path d="M26.9271 12.9507C26.9271 13.4788 27.3527 13.9041 27.8787 13.9041C28.4047 13.9041 28.833 13.4788 28.833 12.9507C28.833 12.4252 28.4034 11.9999 27.8787 11.9999C27.3527 11.9999 26.9271 12.4265 26.9271 12.9507Z" fill="white"/>
<path d="M26.9271 0.947994C26.9271 1.4741 27.3527 1.90405 27.8787 1.90405C28.4047 1.90405 28.833 1.4741 28.833 0.947994C28.833 0.424563 28.4034 -5.69445e-05 27.8787 -5.68986e-05C27.3527 -5.68526e-05 26.9271 0.425898 26.9271 0.947994Z" fill="white"/>
<path d="M38.8329 156.953C38.8329 157.479 39.2579 157.904 39.7845 157.904C40.3097 157.904 40.7388 157.479 40.7388 156.953C40.7388 156.426 40.3084 156 39.7845 156C39.2579 155.999 38.8329 156.426 38.8329 156.953Z" fill="white"/>
<path d="M38.8324 144.953C38.8324 145.48 39.2574 145.904 39.784 145.904C40.3093 145.904 40.7383 145.48 40.7383 144.953C40.7383 144.43 40.3079 144 39.784 144C39.2574 144 38.8324 144.431 38.8324 144.953Z" fill="white"/>
<path d="M38.8324 132.954C38.8324 133.478 39.2574 133.904 39.784 133.904C40.3093 133.904 40.7383 133.478 40.7383 132.954C40.7383 132.426 40.3079 132 39.784 132C39.2574 132.001 38.8324 132.426 38.8324 132.954Z" fill="white"/>
<path d="M38.8324 120.953C38.8324 121.479 39.2574 121.904 39.784 121.904C40.3093 121.904 40.7383 121.479 40.7383 120.953C40.7383 120.427 40.3079 120 39.784 120C39.2574 119.999 38.8324 120.427 38.8324 120.953Z" fill="white"/>
<path d="M38.8324 108.954C38.8324 109.479 39.2574 109.904 39.784 109.904C40.3093 109.904 40.7383 109.479 40.7383 108.954C40.7383 108.425 40.3079 108 39.784 108C39.2574 108 38.8324 108.425 38.8324 108.954Z" fill="white"/>
<path d="M38.8324 96.954C38.8324 97.4778 39.2574 97.9041 39.784 97.9041C40.3079 97.9041 40.7383 97.4778 40.7383 96.954C40.7383 96.4249 40.3066 95.9999 39.784 95.9999C39.2574 95.9999 38.8324 96.4249 38.8324 96.954Z" fill="white"/>
<path d="M38.8324 84.9513C38.8324 85.4772 39.2574 85.9041 39.784 85.9041C40.3079 85.9041 40.7383 85.4759 40.7383 84.9513C40.7383 84.4255 40.3066 83.9999 39.784 83.9999C39.2574 83.9999 38.8324 84.4268 38.8324 84.9513Z" fill="white"/>
<path d="M38.8329 72.952C38.8329 73.4775 39.2579 73.9041 39.7845 73.9041C40.3084 73.9041 40.7388 73.4775 40.7388 72.952C40.7388 72.4238 40.3071 71.9999 39.7845 71.9999C39.2579 71.9999 38.8329 72.4238 38.8329 72.952Z" fill="white"/>
<path d="M38.8329 60.9527C38.8329 61.4785 39.2579 61.9041 39.7845 61.9041C40.3084 61.9041 40.7388 61.4785 40.7388 60.9527C40.7388 60.4268 40.3071 59.9999 39.7845 59.9999C39.2579 59.9999 38.8329 60.4268 38.8329 60.9527Z" fill="white"/>
<path d="M38.8329 48.9527C38.8329 49.4812 39.2579 49.9041 39.7845 49.9041C40.3084 49.9041 40.7388 49.4812 40.7388 48.9527C40.7388 48.4255 40.3071 47.9999 39.7845 47.9999C39.2579 47.9999 38.8329 48.4268 38.8329 48.9527Z" fill="white"/>
<path d="M38.8329 36.9507C38.8329 37.4754 39.2579 37.9041 39.7845 37.9041C40.3084 37.9041 40.7388 37.4741 40.7388 36.9507C40.7388 36.4246 40.3071 35.9999 39.7845 35.9999C39.2579 35.9999 38.8329 36.4246 38.8329 36.9507Z" fill="white"/>
<path d="M38.8329 24.9513C38.8329 25.4751 39.2579 25.9041 39.7845 25.9041C40.3084 25.9041 40.7388 25.4738 40.7388 24.9513C40.7388 24.4249 40.3071 23.9999 39.7845 23.9999C39.2579 23.9999 38.8329 24.4249 38.8329 24.9513Z" fill="white"/>
<path d="M38.8329 12.9508C38.8329 13.479 39.2579 13.9042 39.7845 13.9042C40.3084 13.9042 40.7388 13.479 40.7388 12.9508C40.7388 12.4253 40.3071 12.0001 39.7845 12.0001C39.2579 12.0001 38.8329 12.4266 38.8329 12.9508Z" fill="white"/>
<path d="M38.8329 0.947994C38.8329 1.4741 39.2579 1.90405 39.7845 1.90405C40.3084 1.90405 40.7388 1.4741 40.7388 0.947994C40.7388 0.424563 40.3071 -5.69443e-05 39.7845 -5.68986e-05C39.2579 -5.68526e-05 38.8329 0.425898 38.8329 0.947994Z" fill="white"/>
<path d="M50.7386 156.953C50.7386 157.479 51.1663 157.904 51.6929 157.904C52.2182 157.904 52.6445 157.479 52.6445 156.953C52.6445 156.426 52.2182 156 51.6929 156C51.1663 155.999 50.7386 156.426 50.7386 156.953Z" fill="white"/>
<path d="M50.7382 144.953C50.7382 145.48 51.1662 145.904 51.6918 145.904C52.2174 145.904 52.644 145.48 52.644 144.953C52.644 144.43 52.2174 144 51.6918 144C51.1662 144 50.7382 144.431 50.7382 144.953Z" fill="white"/>
<path d="M50.7382 132.954C50.7382 133.479 51.1662 133.904 51.6918 133.904C52.2174 133.904 52.644 133.479 52.644 132.954C52.644 132.426 52.2174 132 51.6918 132C51.1662 132.001 50.7382 132.426 50.7382 132.954Z" fill="white"/>
<path d="M50.7382 120.953C50.7382 121.48 51.1662 121.904 51.6918 121.904C52.2174 121.904 52.644 121.48 52.644 120.953C52.644 120.427 52.2174 120 51.6918 120C51.1662 119.999 50.7382 120.427 50.7382 120.953Z" fill="white"/>
<path d="M50.7382 108.954C50.7382 109.479 51.1662 109.904 51.6918 109.904C52.2174 109.904 52.644 109.479 52.644 108.954C52.644 108.425 52.2174 108 51.6918 108C51.1662 108 50.7382 108.425 50.7382 108.954Z" fill="white"/>
<path d="M50.7382 96.954C50.7382 97.4778 51.1641 97.9041 51.6918 97.9041C52.2168 97.9041 52.644 97.4778 52.644 96.954C52.644 96.4249 52.2155 95.9999 51.6918 95.9999C51.1654 95.9999 50.7382 96.4249 50.7382 96.954Z" fill="white"/>
<path d="M50.7382 84.9513C50.7382 85.4772 51.1641 85.9041 51.6918 85.9041C52.2168 85.9041 52.644 85.4759 52.644 84.9513C52.644 84.4255 52.2155 83.9999 51.6918 83.9999C51.1654 83.9999 50.7382 84.4268 50.7382 84.9513Z" fill="white"/>
<path d="M50.7386 72.952C50.7386 73.4775 51.1646 73.9041 51.6923 73.9041C52.2173 73.9041 52.6445 73.4775 52.6445 72.952C52.6445 72.4238 52.2159 71.9999 51.6923 71.9999C51.1659 71.9999 50.7386 72.4238 50.7386 72.952Z" fill="white"/>
<path d="M50.7386 60.9527C50.7386 61.4785 51.1646 61.9041 51.6923 61.9041C52.2173 61.9041 52.6445 61.4785 52.6445 60.9527C52.6445 60.4268 52.2159 59.9999 51.6923 59.9999C51.1659 59.9999 50.7386 60.4268 50.7386 60.9527Z" fill="white"/>
<path d="M50.7386 48.9527C50.7386 49.4812 51.1646 49.9041 51.6923 49.9041C52.2173 49.9041 52.6445 49.4812 52.6445 48.9527C52.6445 48.4255 52.2159 47.9999 51.6923 47.9999C51.1659 47.9999 50.7386 48.4268 50.7386 48.9527Z" fill="white"/>
<path d="M50.7386 36.9507C50.7386 37.4754 51.1646 37.9041 51.6923 37.9041C52.2173 37.9041 52.6445 37.4741 52.6445 36.9507C52.6445 36.4246 52.2159 35.9999 51.6923 35.9999C51.1659 35.9999 50.7386 36.4246 50.7386 36.9507Z" fill="white"/>
<path d="M50.7386 24.9513C50.7386 25.4751 51.1646 25.9041 51.6923 25.9041C52.2173 25.9041 52.6445 25.4738 52.6445 24.9513C52.6445 24.4249 52.2159 23.9999 51.6923 23.9999C51.1659 23.9999 50.7386 24.4249 50.7386 24.9513Z" fill="white"/>
<path d="M50.7386 12.9508C50.7386 13.479 51.1646 13.9042 51.6923 13.9042C52.2173 13.9042 52.6445 13.479 52.6445 12.9508C52.6445 12.4253 52.2159 12.0001 51.6923 12.0001C51.1659 12.0001 50.7386 12.4266 50.7386 12.9508Z" fill="white"/>
<path d="M50.7386 0.947994C50.7386 1.4741 51.1646 1.90405 51.6923 1.90405C52.2173 1.90405 52.6445 1.4741 52.6445 0.947994C52.6445 0.424563 52.2159 -5.69446e-05 51.6923 -5.68988e-05C51.1659 -5.68528e-05 50.7386 0.425898 50.7386 0.947994Z" fill="white"/>
<path d="M62.6444 156.953C62.6444 157.479 63.0714 157.904 63.5973 157.904C64.122 157.904 64.5503 157.479 64.5503 156.953C64.5503 156.426 64.1207 156 63.5973 156C63.0714 155.999 62.6444 156.426 62.6444 156.953Z" fill="white"/>
<path d="M62.6439 144.953C62.6439 145.48 63.0695 145.904 63.5969 145.904C64.1215 145.904 64.5498 145.48 64.5498 144.953C64.5498 144.43 64.1202 144 63.5969 144C63.0709 144 62.6439 144.431 62.6439 144.953Z" fill="white"/>
<path d="M62.6439 132.954C62.6439 133.478 63.0695 133.904 63.5969 133.904C64.1215 133.904 64.5498 133.478 64.5498 132.954C64.5498 132.426 64.1202 132 63.5969 132C63.0709 132.001 62.6439 132.426 62.6439 132.954Z" fill="white"/>
<path d="M62.6439 120.953C62.6439 121.48 63.0695 121.904 63.5969 121.904C64.1215 121.904 64.5498 121.48 64.5498 120.953C64.5498 120.427 64.1202 120 63.5969 120C63.0709 119.999 62.6439 120.427 62.6439 120.953Z" fill="white"/>
<path d="M62.6439 108.954C62.6439 109.479 63.0695 109.904 63.5969 109.904C64.1215 109.904 64.5498 109.479 64.5498 108.954C64.5498 108.425 64.1202 108 63.5969 108C63.0709 108 62.6439 108.425 62.6439 108.954Z" fill="white"/>
<path d="M62.6439 96.9541C62.6439 97.4779 63.0695 97.9042 63.5969 97.9042C64.1215 97.9042 64.5498 97.4779 64.5498 96.9541C64.5498 96.425 64.1202 96.0001 63.5969 96.0001C63.0709 96.0001 62.6439 96.425 62.6439 96.9541Z" fill="white"/>
<path d="M62.6439 84.9515C62.6439 85.4773 63.0695 85.9042 63.5969 85.9042C64.1215 85.9042 64.5498 85.476 64.5498 84.9515C64.5498 84.4256 64.1202 84.0001 63.5969 84.0001C63.0709 84.0001 62.6439 84.4269 62.6439 84.9515Z" fill="white"/>
<path d="M62.6444 72.952C62.6444 73.4775 63.07 73.9041 63.5973 73.9041C64.122 73.9041 64.5503 73.4775 64.5503 72.952C64.5503 72.4238 64.1207 71.9999 63.5973 71.9999C63.0714 71.9999 62.6444 72.4238 62.6444 72.952Z" fill="white"/>
<path d="M62.6444 60.9527C62.6444 61.4785 63.07 61.9041 63.5973 61.9041C64.122 61.9041 64.5503 61.4785 64.5503 60.9527C64.5503 60.4268 64.1207 59.9999 63.5973 59.9999C63.0714 59.9999 62.6444 60.4268 62.6444 60.9527Z" fill="white"/>
<path d="M62.6444 48.9527C62.6444 49.4812 63.07 49.9041 63.5973 49.9041C64.122 49.9041 64.5503 49.4812 64.5503 48.9527C64.5503 48.4255 64.1207 47.9999 63.5973 47.9999C63.0714 47.9999 62.6444 48.4268 62.6444 48.9527Z" fill="white"/>
<path d="M62.6444 36.9507C62.6444 37.4754 63.07 37.9041 63.5973 37.9041C64.122 37.9041 64.5503 37.4741 64.5503 36.9507C64.5503 36.4246 64.1207 35.9999 63.5973 35.9999C63.0714 35.9999 62.6444 36.4246 62.6444 36.9507Z" fill="white"/>
<path d="M62.6444 24.9513C62.6444 25.4751 63.07 25.9041 63.5973 25.9041C64.122 25.9041 64.5503 25.4738 64.5503 24.9513C64.5503 24.4249 64.1207 23.9999 63.5973 23.9999C63.0714 23.9999 62.6444 24.4249 62.6444 24.9513Z" fill="white"/>
<path d="M62.6444 12.9508C62.6444 13.479 63.07 13.9042 63.5973 13.9042C64.122 13.9042 64.5503 13.479 64.5503 12.9508C64.5503 12.4253 64.1207 12.0001 63.5973 12.0001C63.0714 12.0001 62.6444 12.4266 62.6444 12.9508Z" fill="white"/>
<path d="M62.6444 0.947994C62.6444 1.4741 63.07 1.90405 63.5973 1.90405C64.122 1.90405 64.5503 1.4741 64.5503 0.947994C64.5503 0.424563 64.1207 -5.69445e-05 63.5973 -5.68987e-05C63.0714 -5.68527e-05 62.6444 0.425898 62.6444 0.947994Z" fill="white"/>
<path d="M74.5502 156.953C74.5502 157.479 74.9731 157.904 75.5031 157.904C76.0291 157.904 76.4561 157.479 76.4561 156.953C76.4561 156.426 76.0291 156 75.5031 156C74.9731 155.999 74.5502 156.426 74.5502 156.953Z" fill="white"/>
<path d="M74.5497 144.953C74.5497 145.48 74.9726 145.904 75.5026 145.904C76.0286 145.904 76.4556 145.48 76.4556 144.953C76.4556 144.43 76.0286 144 75.5026 144C74.9726 144 74.5497 144.431 74.5497 144.953Z" fill="white"/>
<path d="M74.5497 132.954C74.5497 133.479 74.9726 133.904 75.5026 133.904C76.0286 133.904 76.4556 133.479 76.4556 132.954C76.4556 132.426 76.0286 132 75.5026 132C74.9726 132.001 74.5497 132.426 74.5497 132.954Z" fill="white"/>
<path d="M74.5497 120.953C74.5497 121.48 74.9726 121.904 75.5026 121.904C76.0286 121.904 76.4556 121.48 76.4556 120.953C76.4556 120.427 76.0286 120 75.5026 120C74.9726 119.999 74.5497 120.427 74.5497 120.953Z" fill="white"/>
<path d="M74.5497 108.954C74.5497 109.479 74.9726 109.904 75.5026 109.904C76.0286 109.904 76.4556 109.479 76.4556 108.954C76.4556 108.425 76.0286 108 75.5026 108C74.9726 108 74.5497 108.425 74.5497 108.954Z" fill="white"/>
<path d="M74.5497 96.9541C74.5497 97.4779 74.9726 97.9042 75.5026 97.9042C76.0286 97.9042 76.4556 97.4779 76.4556 96.9541C76.4556 96.425 76.0286 96.0001 75.5026 96.0001C74.9726 96.0001 74.5497 96.425 74.5497 96.9541Z" fill="white"/>
<path d="M74.5497 84.9515C74.5497 85.4773 74.9726 85.9042 75.5026 85.9042C76.0286 85.9042 76.4556 85.476 76.4556 84.9515C76.4556 84.4256 76.0286 84.0001 75.5026 84.0001C74.9726 84.0001 74.5497 84.4269 74.5497 84.9515Z" fill="white"/>
<path d="M74.5502 72.952C74.5502 73.4775 74.9731 73.9041 75.5031 73.9041C76.0291 73.9041 76.4561 73.4775 76.4561 72.952C76.4561 72.4238 76.0291 71.9999 75.5031 71.9999C74.9731 71.9999 74.5502 72.4238 74.5502 72.952Z" fill="white"/>
<path d="M74.5502 60.9527C74.5502 61.4785 74.9731 61.9041 75.5031 61.9041C76.0291 61.9041 76.4561 61.4785 76.4561 60.9527C76.4561 60.4268 76.0291 59.9999 75.5031 59.9999C74.9731 59.9999 74.5502 60.4268 74.5502 60.9527Z" fill="white"/>
<path d="M74.5502 48.9527C74.5502 49.4812 74.9731 49.9041 75.5031 49.9041C76.0291 49.9041 76.4561 49.4812 76.4561 48.9527C76.4561 48.4255 76.0291 47.9999 75.5031 47.9999C74.9731 47.9999 74.5502 48.4268 74.5502 48.9527Z" fill="white"/>
<path d="M74.5502 36.9507C74.5502 37.4754 74.9731 37.9041 75.5031 37.9041C76.0291 37.9041 76.4561 37.4741 76.4561 36.9507C76.4561 36.4246 76.0291 35.9999 75.5031 35.9999C74.9731 35.9999 74.5502 36.4246 74.5502 36.9507Z" fill="white"/>
<path d="M74.5502 24.9513C74.5502 25.4751 74.9731 25.9041 75.5031 25.9041C76.0291 25.9041 76.4561 25.4738 76.4561 24.9513C76.4561 24.4249 76.0291 23.9999 75.5031 23.9999C74.9731 23.9999 74.5502 24.4249 74.5502 24.9513Z" fill="white"/>
<path d="M74.5502 12.9508C74.5502 13.479 74.9731 13.9042 75.5031 13.9042C76.0291 13.9042 76.4561 13.479 76.4561 12.9508C76.4561 12.4253 76.0291 12.0001 75.5031 12.0001C74.9731 12.0001 74.5502 12.4266 74.5502 12.9508Z" fill="white"/>
<path d="M74.5502 0.947994C74.5502 1.4741 74.9731 1.90405 75.5031 1.90405C76.0291 1.90405 76.4561 1.4741 76.4561 0.947994C76.4561 0.424563 76.0291 -5.69447e-05 75.5031 -5.68987e-05C74.9731 -5.68524e-05 74.5502 0.425898 74.5502 0.947994Z" fill="white"/>
<path d="M86.4559 156.953C86.4559 157.479 86.8812 157.904 87.4082 157.904C87.9338 157.904 88.3618 157.479 88.3618 156.953C88.3618 156.426 87.9325 156 87.4082 156C86.8812 155.999 86.4559 156.426 86.4559 156.953Z" fill="white"/>
<path d="M86.4554 144.953C86.4554 145.48 86.8808 145.904 87.4077 145.904C87.9333 145.904 88.3613 145.48 88.3613 144.953C88.3613 144.43 87.932 144 87.4077 144C86.8808 144 86.4554 144.431 86.4554 144.953Z" fill="white"/>
<path d="M86.4554 132.954C86.4554 133.478 86.8808 133.904 87.4077 133.904C87.9333 133.904 88.3613 133.478 88.3613 132.954C88.3613 132.426 87.932 132 87.4077 132C86.8808 132.001 86.4554 132.426 86.4554 132.954Z" fill="white"/>
<path d="M86.4554 120.953C86.4554 121.479 86.8808 121.904 87.4077 121.904C87.9333 121.904 88.3613 121.479 88.3613 120.953C88.3613 120.427 87.932 120 87.4077 120C86.8808 119.999 86.4554 120.427 86.4554 120.953Z" fill="white"/>
<path d="M86.4554 108.954C86.4554 109.479 86.8808 109.904 87.4077 109.904C87.9333 109.904 88.3613 109.479 88.3613 108.954C88.3613 108.425 87.932 108 87.4077 108C86.8808 108 86.4554 108.425 86.4554 108.954Z" fill="white"/>
<path d="M86.4554 96.954C86.4554 97.4778 86.8808 97.9041 87.4077 97.9041C87.9333 97.9041 88.3613 97.4778 88.3613 96.954C88.3613 96.4249 87.932 95.9999 87.4077 95.9999C86.8808 95.9999 86.4554 96.4249 86.4554 96.954Z" fill="white"/>
<path d="M86.4554 84.9515C86.4554 85.4773 86.8808 85.9042 87.4077 85.9042C87.9333 85.9042 88.3613 85.476 88.3613 84.9515C88.3613 84.4256 87.932 84.0001 87.4077 84.0001C86.8808 84.0001 86.4554 84.4269 86.4554 84.9515Z" fill="white"/>
<path d="M86.4559 72.9521C86.4559 73.4776 86.8812 73.9042 87.4082 73.9042C87.9338 73.9042 88.3618 73.4776 88.3618 72.9521C88.3618 72.4239 87.9325 72.0001 87.4082 72.0001C86.8812 72.0001 86.4559 72.4239 86.4559 72.9521Z" fill="white"/>
<path d="M86.4559 60.9528C86.4559 61.4787 86.8812 61.9042 87.4082 61.9042C87.9338 61.9042 88.3618 61.4787 88.3618 60.9528C88.3618 60.4269 87.9325 60.0001 87.4082 60.0001C86.8812 60.0001 86.4559 60.4269 86.4559 60.9528Z" fill="white"/>
<path d="M86.4559 48.9528C86.4559 49.4813 86.8812 49.9042 87.4082 49.9042C87.9338 49.9042 88.3618 49.4813 88.3618 48.9528C88.3618 48.4256 87.9325 48.0001 87.4082 48.0001C86.8812 48.0001 86.4559 48.4269 86.4559 48.9528Z" fill="white"/>
<path d="M86.4559 36.9508C86.4559 37.4756 86.8812 37.9042 87.4082 37.9042C87.9338 37.9042 88.3618 37.4742 88.3618 36.9508C88.3618 36.4247 87.9325 36.0001 87.4082 36.0001C86.8812 36.0001 86.4559 36.4247 86.4559 36.9508Z" fill="white"/>
<path d="M86.4559 24.9514C86.4559 25.4752 86.8812 25.9042 87.4082 25.9042C87.9338 25.9042 88.3618 25.4739 88.3618 24.9514C88.3618 24.425 87.9325 24.0001 87.4082 24.0001C86.8812 24.0001 86.4559 24.425 86.4559 24.9514Z" fill="white"/>
<path d="M86.4559 12.9508C86.4559 13.479 86.8812 13.9042 87.4082 13.9042C87.9338 13.9042 88.3618 13.479 88.3618 12.9508C88.3618 12.4253 87.9325 12.0001 87.4082 12.0001C86.8812 12.0001 86.4559 12.4266 86.4559 12.9508Z" fill="white"/>
<path d="M86.4559 0.947994C86.4559 1.4741 86.8812 1.90405 87.4082 1.90405C87.9338 1.90405 88.3618 1.4741 88.3618 0.947994C88.3618 0.424563 87.9325 -5.69445e-05 87.4082 -5.68987e-05C86.8812 -5.68526e-05 86.4559 0.425898 86.4559 0.947994Z" fill="white"/>
<path d="M98.3617 156.953C98.3617 157.479 98.7846 157.904 99.3133 157.904C99.8406 157.904 100.268 157.479 100.268 156.953C100.268 156.426 99.8393 156 99.3133 156C98.7846 155.999 98.3617 156.426 98.3617 156.953Z" fill="white"/>
<path d="M98.3612 144.953C98.3612 145.48 98.7841 145.904 99.3128 145.904C99.8401 145.904 100.267 145.48 100.267 144.953C100.267 144.43 99.8388 144 99.3128 144C98.7841 144 98.3612 144.431 98.3612 144.953Z" fill="white"/>
<path d="M98.3612 132.954C98.3612 133.479 98.7841 133.904 99.3128 133.904C99.8401 133.904 100.267 133.479 100.267 132.954C100.267 132.426 99.8388 132 99.3128 132C98.7841 132.001 98.3612 132.426 98.3612 132.954Z" fill="white"/>
<path d="M98.3612 120.953C98.3612 121.48 98.7841 121.904 99.3128 121.904C99.8401 121.904 100.267 121.48 100.267 120.953C100.267 120.427 99.8388 120 99.3128 120C98.7841 119.999 98.3612 120.427 98.3612 120.953Z" fill="white"/>
<path d="M98.3612 108.954C98.3612 109.479 98.7841 109.904 99.3128 109.904C99.8401 109.904 100.267 109.479 100.267 108.954C100.267 108.425 99.8388 108 99.3128 108C98.7841 108 98.3612 108.425 98.3612 108.954Z" fill="white"/>
<path d="M98.3612 96.954C98.3612 97.4778 98.7841 97.9041 99.3128 97.9041C99.8401 97.9041 100.267 97.4778 100.267 96.954C100.267 96.4249 99.8388 95.9999 99.3128 95.9999C98.7841 95.9999 98.3612 96.4249 98.3612 96.954Z" fill="white"/>
<path d="M98.3612 84.9515C98.3612 85.4773 98.7841 85.9042 99.3128 85.9042C99.8401 85.9042 100.267 85.476 100.267 84.9515C100.267 84.4256 99.8388 84.0001 99.3128 84.0001C98.7841 84.0001 98.3612 84.4269 98.3612 84.9515Z" fill="white"/>
<path d="M98.3617 72.9521C98.3617 73.4776 98.7846 73.9042 99.3133 73.9042C99.8406 73.9042 100.268 73.4776 100.268 72.9521C100.268 72.4239 99.8393 72.0001 99.3133 72.0001C98.7846 72.0001 98.3617 72.4239 98.3617 72.9521Z" fill="white"/>
<path d="M98.3617 60.9528C98.3617 61.4787 98.7846 61.9042 99.3133 61.9042C99.8406 61.9042 100.268 61.4787 100.268 60.9528C100.268 60.4269 99.8393 60.0001 99.3133 60.0001C98.7846 60.0001 98.3617 60.4269 98.3617 60.9528Z" fill="white"/>
<path d="M98.3617 48.9528C98.3617 49.4813 98.7846 49.9042 99.3133 49.9042C99.8406 49.9042 100.268 49.4813 100.268 48.9528C100.268 48.4256 99.8393 48.0001 99.3133 48.0001C98.7846 48.0001 98.3617 48.4269 98.3617 48.9528Z" fill="white"/>
<path d="M98.3617 36.9508C98.3617 37.4756 98.7846 37.9042 99.3133 37.9042C99.8406 37.9042 100.268 37.4742 100.268 36.9508C100.268 36.4247 99.8393 36.0001 99.3133 36.0001C98.7846 36.0001 98.3617 36.4247 98.3617 36.9508Z" fill="white"/>
<path d="M98.3617 24.9514C98.3617 25.4752 98.7846 25.9042 99.3133 25.9042C99.8406 25.9042 100.268 25.4739 100.268 24.9514C100.268 24.425 99.8393 24.0001 99.3133 24.0001C98.7846 24.0001 98.3617 24.425 98.3617 24.9514Z" fill="white"/>
<path d="M98.3617 12.9508C98.3617 13.479 98.7846 13.9042 99.3133 13.9042C99.8406 13.9042 100.268 13.479 100.268 12.9508C100.268 12.4253 99.8393 12.0001 99.3133 12.0001C98.7846 12.0001 98.3617 12.4266 98.3617 12.9508Z" fill="white"/>
<path d="M98.3617 0.947994C98.3617 1.4741 98.7846 1.90405 99.3133 1.90405C99.8406 1.90405 100.268 1.4741 100.268 0.947994C100.268 0.424563 99.8393 -5.69446e-05 99.3133 -5.68986e-05C98.7846 -5.68524e-05 98.3617 0.425898 98.3617 0.947994Z" fill="white"/>
<path d="M110.267 156.953C110.267 157.48 110.693 157.904 111.22 157.904C111.747 157.904 112.173 157.48 112.173 156.953C112.173 156.427 111.747 156 111.22 156C110.693 156 110.267 156.427 110.267 156.953Z" fill="white"/>
<path d="M110.267 144.953C110.267 145.48 110.692 145.904 111.219 145.904C111.746 145.904 112.173 145.48 112.173 144.953C112.173 144.43 111.746 144 111.219 144C110.692 144 110.267 144.431 110.267 144.953Z" fill="white"/>
<path d="M110.267 132.954C110.267 133.478 110.692 133.904 111.219 133.904C111.746 133.904 112.173 133.478 112.173 132.954C112.173 132.426 111.746 132 111.219 132C110.692 132 110.267 132.426 110.267 132.954Z" fill="white"/>
<path d="M110.267 120.953C110.267 121.48 110.692 121.904 111.219 121.904C111.746 121.904 112.173 121.48 112.173 120.953C112.173 120.427 111.746 120 111.219 120C110.692 120 110.267 120.427 110.267 120.953Z" fill="white"/>
<path d="M110.267 108.954C110.267 109.479 110.692 109.904 111.219 109.904C111.746 109.904 112.173 109.479 112.173 108.954C112.173 108.425 111.746 108 111.219 108C110.692 108 110.267 108.425 110.267 108.954Z" fill="white"/>
<path d="M110.267 96.9541C110.267 97.4779 110.692 97.9042 111.219 97.9042C111.746 97.9042 112.173 97.4779 112.173 96.9541C112.173 96.425 111.746 96.0001 111.219 96.0001C110.692 96.0001 110.267 96.425 110.267 96.9541Z" fill="white"/>
<path d="M110.267 84.9515C110.267 85.4773 110.692 85.9042 111.219 85.9042C111.746 85.9042 112.173 85.476 112.173 84.9515C112.173 84.4256 111.746 84.0001 111.219 84.0001C110.692 84.0001 110.267 84.4269 110.267 84.9515Z" fill="white"/>
<path d="M110.267 72.9521C110.267 73.4776 110.693 73.9042 111.22 73.9042C111.747 73.9042 112.173 73.4776 112.173 72.9521C112.173 72.4239 111.747 72.0001 111.22 72.0001C110.693 72.0001 110.267 72.4239 110.267 72.9521Z" fill="white"/>
<path d="M110.267 60.9528C110.267 61.4787 110.693 61.9042 111.22 61.9042C111.747 61.9042 112.173 61.4787 112.173 60.9528C112.173 60.4269 111.747 60.0001 111.22 60.0001C110.693 60.0001 110.267 60.4269 110.267 60.9528Z" fill="white"/>
<path d="M110.267 48.9528C110.267 49.4813 110.693 49.9042 111.22 49.9042C111.747 49.9042 112.173 49.4813 112.173 48.9528C112.173 48.4256 111.747 48.0001 111.22 48.0001C110.693 48.0001 110.267 48.4269 110.267 48.9528Z" fill="white"/>
<path d="M110.267 36.9508C110.267 37.4756 110.693 37.9042 111.22 37.9042C111.747 37.9042 112.173 37.4742 112.173 36.9508C112.173 36.4247 111.747 36.0001 111.22 36.0001C110.693 36.0001 110.267 36.4247 110.267 36.9508Z" fill="white"/>
<path d="M110.267 24.9514C110.267 25.4752 110.693 25.9042 111.22 25.9042C111.747 25.9042 112.173 25.4739 112.173 24.9514C112.173 24.425 111.747 24.0001 111.22 24.0001C110.693 24.0001 110.267 24.425 110.267 24.9514Z" fill="white"/>
<path d="M110.267 12.9508C110.267 13.479 110.693 13.9042 111.22 13.9042C111.747 13.9042 112.173 13.479 112.173 12.9508C112.173 12.4253 111.747 12.0001 111.22 12.0001C110.693 12.0001 110.267 12.4266 110.267 12.9508Z" fill="white"/>
<path d="M110.267 0.947994C110.267 1.4741 110.693 1.90405 111.22 1.90405C111.747 1.90405 112.173 1.4741 112.173 0.947994C112.173 0.424563 111.747 -5.69447e-05 111.22 -5.68987e-05C110.693 -5.68526e-05 110.267 0.425898 110.267 0.947994Z" fill="white"/>
<path d="M122.173 156.953C122.173 157.479 122.599 157.904 123.127 157.904C123.652 157.904 124.079 157.479 124.079 156.953C124.079 156.426 123.652 156 123.127 156C122.599 155.999 122.173 156.426 122.173 156.953Z" fill="white"/>
<path d="M122.173 144.953C122.173 145.48 122.598 145.904 123.126 145.904C123.652 145.904 124.079 145.48 124.079 144.953C124.079 144.43 123.652 144 123.126 144C122.598 144 122.173 144.431 122.173 144.953Z" fill="white"/>
<path d="M122.173 132.954C122.173 133.479 122.598 133.904 123.126 133.904C123.652 133.906 124.079 133.479 124.079 132.954C124.079 132.426 123.652 132 123.126 132C122.598 132.001 122.173 132.426 122.173 132.954Z" fill="white"/>
<path d="M122.173 120.953C122.173 121.48 122.598 121.904 123.126 121.904C123.652 121.904 124.079 121.48 124.079 120.953C124.079 120.427 123.652 120 123.126 120C122.598 119.999 122.173 120.427 122.173 120.953Z" fill="white"/>
<path d="M122.173 108.954C122.173 109.479 122.598 109.904 123.126 109.904C123.652 109.904 124.079 109.479 124.079 108.954C124.079 108.425 123.652 108 123.126 108C122.598 108 122.173 108.425 122.173 108.954Z" fill="white"/>
<path d="M122.173 96.9541C122.173 97.4779 122.598 97.9042 123.126 97.9042C123.652 97.9042 124.079 97.4779 124.079 96.9541C124.079 96.425 123.652 96.0001 123.126 96.0001C122.598 96.0001 122.173 96.425 122.173 96.9541Z" fill="white"/>
<path d="M122.173 84.9515C122.173 85.4773 122.598 85.9042 123.126 85.9042C123.652 85.9055 124.079 85.4773 124.079 84.9515C124.079 84.4256 123.652 84.0001 123.126 84.0001C122.598 84.0001 122.173 84.4269 122.173 84.9515Z" fill="white"/>
<path d="M122.173 72.9521C122.173 73.4776 122.599 73.9042 123.127 73.9042C123.652 73.9042 124.079 73.4776 124.079 72.9521C124.079 72.4239 123.652 72.0001 123.127 72.0001C122.599 72.0001 122.173 72.4239 122.173 72.9521Z" fill="white"/>
<path d="M122.173 60.9528C122.173 61.4787 122.599 61.9042 123.127 61.9042C123.652 61.9042 124.079 61.4787 124.079 60.9528C124.079 60.4269 123.652 60.0001 123.127 60.0001C122.599 60.0001 122.173 60.4269 122.173 60.9528Z" fill="white"/>
<path d="M122.173 48.9528C122.173 49.4813 122.599 49.9042 123.127 49.9042C123.652 49.9055 124.079 49.4813 124.079 48.9528C124.079 48.4256 123.652 48.0001 123.127 48.0001C122.599 48.0001 122.173 48.4269 122.173 48.9528Z" fill="white"/>
<path d="M122.173 36.9508C122.173 37.4756 122.599 37.9042 123.127 37.9042C123.652 37.9042 124.079 37.4756 124.079 36.9508C124.079 36.4247 123.652 36.0001 123.127 36.0001C122.599 36.0001 122.173 36.4247 122.173 36.9508Z" fill="white"/>
<path d="M122.173 24.9513C122.173 25.4751 122.599 25.9041 123.127 25.9041C123.652 25.9041 124.079 25.4751 124.079 24.9513C124.079 24.4249 123.652 23.9999 123.127 23.9999C122.599 23.9999 122.173 24.4249 122.173 24.9513Z" fill="white"/>
<path d="M122.173 12.9507C122.173 13.4788 122.599 13.904 123.127 13.904C123.652 13.9054 124.079 13.4788 124.079 12.9507C124.079 12.4252 123.652 11.9999 123.127 11.9999C122.599 11.9999 122.173 12.4265 122.173 12.9507Z" fill="white"/>
<path d="M122.173 0.947994C122.173 1.4741 122.599 1.90405 123.127 1.90405C123.652 1.90405 124.079 1.4741 124.079 0.947994C124.079 0.424563 123.652 -5.69447e-05 123.127 -5.68988e-05C122.599 -5.68526e-05 122.173 0.425898 122.173 0.947994Z" fill="white"/>
</svg>
