<svg width="980" height="631" viewBox="0 0 980 631" fill="none" xmlns="http://www.w3.org/2000/svg">
    <path fill-rule="evenodd" clip-rule="evenodd" d="M43.0908 597.512C28.983 608.757 14.6834 620.093 0 631L1.69744e-07 616.766C12.1779 607.539 24.1412 598.065 35.9579 588.646C51.8602 576.036 68.2817 562.952 84.8386 550.917C144.249 507.718 218.151 453.961 297.674 477.32C330.822 487.065 360.189 505.597 388.596 523.554C426.292 547.319 461.866 569.787 506.176 574.299C634.794 587.439 735.616 479.35 816.654 392.5L823.183 385.507C873.014 332.145 916.097 282.629 938.813 216.792C948.805 187.815 953.819 156.808 958.669 126.851C959.645 120.816 960.624 114.793 961.629 108.781C961.987 106.616 962.444 104.157 962.924 101.461C966.837 79.8951 974.125 39.7523 961.174 21.3783C957.565 16.2801 952.633 13.2573 946.09 12.1293C926.223 8.74554 901.34 17.1373 879.394 24.5816C874.146 26.3637 869.186 28.0443 864.474 29.5106C833.13 39.1769 801.525 50.851 767.827 65.1982C711.783 89.0426 653.119 118.888 583.24 159.143C566.377 168.9 548.827 180.055 530.261 191.898C442.352 247.843 342.718 311.267 242.53 268.992C184.203 244.403 128.765 200.865 86.9943 165.708C53.7902 137.758 24.683 108.646 6.58531e-06 78.7672L6.8024e-06 60.5625C26.0374 93.7799 57.6162 126.106 94.398 157.057C135.536 191.695 190.094 234.545 247.022 258.559C341.645 298.487 438.56 236.778 524.087 182.311C542.766 170.445 560.395 159.211 577.51 149.353C647.801 108.838 706.822 78.801 763.307 54.7536C797.366 40.2711 829.357 28.4617 861.071 18.66C865.646 17.2501 870.52 15.6033 875.7 13.8325C898.946 5.95959 925.286 -2.9624 948.032 0.951538C957.608 2.59827 965.183 7.27924 970.544 14.8815C986.222 37.1354 978.685 78.6544 974.195 103.469C973.713 106.119 973.271 108.533 972.912 110.654C971.908 116.632 970.928 122.632 969.966 128.644C965.032 159.098 959.95 190.567 949.642 220.446C926.196 288.415 882.301 338.912 831.575 393.222L825.043 400.215C742.284 488.915 639.286 599.305 504.991 585.59C458.006 580.807 419.599 556.568 382.479 533.107C354.737 515.613 326.025 497.499 294.424 488.216C220.352 466.436 148.956 518.343 91.5878 560.099C75.2453 571.987 58.9141 584.958 43.0908 597.512Z" fill="#3DD598"/>
    <path fill-rule="evenodd" clip-rule="evenodd" d="M832.986 232.796C832.986 275.572 808.228 317.457 781.459 356.318C699.937 474.696 615.198 532.418 529.486 527.895C476.23 521.318 421.091 487.612 389.178 442.028C378.349 426.551 367.249 408.073 367.249 388.219C367.249 383.583 367.881 378.992 369.065 374.559C375.901 349.459 397.842 331.343 417.211 315.313C506.383 241.561 613.049 164.425 729.27 150.29C766.834 145.722 815.498 157.171 829.074 204.516C831.678 213.574 832.986 223.084 832.986 232.796Z" fill="black" fill-opacity="0.1"/>
    <path opacity="0.1" fill-rule="evenodd" clip-rule="evenodd" d="M706.438 303.39C706.438 329.279 691.758 356.984 685.424 367.667C657.166 415.587 601.48 459.299 540.867 448.909C509 439.468 491.368 418.317 491.368 389.348C491.368 364.226 505.447 336.33 528.087 316.498C587.49 264.563 637.367 245.499 676.307 259.87C696.302 267.259 706.438 281.912 706.438 303.39Z" fill="#3DD598"/>
</svg>