<svg width="28" height="28" viewBox="0 0 28 28" fill="none" xmlns="http://www.w3.org/2000/svg">
<path fill-rule="evenodd" clip-rule="evenodd" d="M6.40438 3.33056C6.40441 3.33054 6.40473 3.33089 6.40527 3.3317L6.40438 3.33056ZM6.46179 3.42161L9.13814 7.68004C8.81474 7.98666 8.46198 8.29036 8.08232 8.61721C7.75602 8.89812 7.40986 9.19614 7.0454 9.5278C6.14209 10.3498 5.96761 11.6719 6.55223 12.7008C9.6437 18.1416 13.8602 20.6173 15.747 21.5062C16.8836 22.0417 18.1186 21.6191 18.806 20.744L20.6581 18.3865C20.6592 18.3851 20.6591 18.3855 20.6584 18.3859C20.6583 18.386 20.6596 18.3852 20.6624 18.3847C20.6652 18.3842 20.668 18.3843 20.6703 18.3847C20.672 18.385 20.6743 18.3857 20.6782 18.388C21.7574 19.0541 23.263 19.9592 24.646 20.7256C24.3976 22.2251 23.827 23.0987 23.1979 23.6327C22.5374 24.1935 21.6831 24.4887 20.7302 24.5952C18.8278 24.808 16.8965 24.2308 16.4681 24.0902C15.9955 23.8486 13.4041 22.4845 10.6356 20.2741C7.7808 17.9948 4.91825 14.9571 3.82346 11.4732C3.02336 8.92706 3.32505 7.13534 3.95392 5.89945C4.56185 4.7047 5.54564 3.89379 6.46179 3.42161ZM5.49363 0.901286C6.75488 0.303081 8.05904 0.926793 8.66651 1.89336L11.4664 6.3483C12.0324 7.24894 12.0712 8.56553 11.151 9.46744C10.7566 9.85397 10.2079 10.3291 9.69737 10.7711C9.4171 11.0138 9.14832 11.2465 8.92284 11.4492C11.5835 16.0822 15.1407 18.2257 16.7585 19.0095L18.5595 16.717C19.4098 15.6347 20.9238 15.3817 22.0768 16.0933C23.1433 16.7515 24.6178 17.6375 25.954 18.3772C26.8451 18.8706 27.4826 19.8992 27.302 21.0605C26.9776 23.1462 26.1303 24.6653 24.9228 25.6903C23.7356 26.6982 22.3213 27.1258 21.0257 27.2707C18.4774 27.5557 16.04 26.7841 15.5949 26.635C15.4822 26.5973 15.3887 26.5574 15.2882 26.5064C14.8104 26.2637 11.9944 24.7954 8.9729 22.3829C5.9828 19.9956 2.61069 16.5422 1.27287 12.2849C0.290163 9.15764 0.580865 6.62201 1.57283 4.67253C2.54741 2.75721 4.12569 1.5501 5.49363 0.901286Z" fill="#1C1E20"/>
</svg>
