<svg width="89" height="89" viewBox="0 0 89 89" fill="none" xmlns="http://www.w3.org/2000/svg">
    <g opacity="0.89" clip-path="url(#clip0)">
        <path d="M41.7091 89.0004C43.7872 88.9981 45.5496 87.4718 45.8497 85.4148C46.1498 83.3585 44.8972 81.3926 42.9064 80.7963V69.7744C42.9064 69.1127 42.3701 68.5771 41.7091 68.5771C41.0473 68.5771 40.5118 69.1127 40.5118 69.7744V80.7963C38.5202 81.3926 37.2676 83.3585 37.5677 85.4148C37.8678 87.4718 39.6302 88.9981 41.7091 89.0004ZM41.7091 83.014C42.7006 83.014 43.505 83.8184 43.505 84.8099C43.505 85.8022 42.7006 86.6058 41.7091 86.6058C40.7168 86.6058 39.9132 85.8022 39.9132 84.8099C39.9139 83.8184 40.7176 83.0155 41.7091 83.014Z" fill="white"/>
        <path d="M40.5118 8.2064V13.2419C40.5118 13.9029 41.0473 14.4391 41.7091 14.4391C42.3701 14.4391 42.9064 13.9029 42.9064 13.2419V8.2064C44.9003 7.61165 46.156 5.64424 45.8552 3.58562C45.5551 1.52701 43.7895 0 41.7091 0C39.6279 0 37.8623 1.52701 37.5622 3.58562C37.2621 5.64424 38.5179 7.61165 40.5118 8.2064ZM41.7091 2.39613C42.7006 2.39613 43.505 3.20056 43.505 4.19206C43.505 5.18434 42.7006 5.98799 41.7091 5.98799C40.7168 5.98799 39.9132 5.18434 39.9132 4.19206C39.9139 3.20056 40.7176 2.39769 41.7091 2.39613Z" fill="white"/>
        <path d="M67.9795 40.3096C67.3185 40.3096 66.7822 40.8459 66.7822 41.5069C66.7822 42.1687 67.3185 42.7042 67.9795 42.7042H79.0014C79.5962 44.6981 81.5636 45.9538 83.6222 45.6537C85.6808 45.3536 87.2078 43.5873 87.2078 41.5069C87.2078 39.4264 85.6808 37.6609 83.6222 37.3608C81.5636 37.0599 79.5962 38.3157 79.0014 40.3096H67.9795ZM83.0158 39.7109C84.0073 39.7109 84.8117 40.5154 84.8117 41.5069C84.8117 42.4992 84.0073 43.3028 83.0158 43.3028C82.0235 43.3028 81.2198 42.4992 81.2198 41.5069C81.2206 40.5154 82.0243 39.7125 83.0158 39.7109Z" fill="white"/>
        <path d="M6.18984 45.6981C8.04111 45.6958 9.67257 44.479 10.2034 42.7049H15.2389C15.8999 42.7049 16.4361 42.1694 16.4361 41.5076C16.4361 40.8466 15.8999 40.3103 15.2389 40.3103H10.2034C9.58683 38.2424 7.50015 36.9804 5.38229 37.3951C3.26444 37.8097 1.80758 39.7655 2.01649 41.9129C2.22539 44.0612 4.03145 45.6989 6.18984 45.6981ZM6.18984 39.7117C7.18134 39.7117 7.98577 40.5161 7.98577 41.5076C7.98577 42.4999 7.18134 43.3035 6.18984 43.3035C5.19756 43.3035 4.39391 42.4999 4.39391 41.5076C4.39469 40.5161 5.19834 39.7132 6.18984 39.7117Z" fill="white"/>
        <path d="M7.46285 10.5515C8.15815 10.5515 8.84331 10.3784 9.45443 10.0479L21.2394 21.8329C21.7079 22.2936 22.4609 22.2905 22.9255 21.8259C23.3908 21.3606 23.3939 20.6084 22.9325 20.1391L11.1498 8.35724C12.0493 6.69694 11.7297 4.64066 10.368 3.33269C9.007 2.02472 6.93903 1.78775 5.31693 2.75353C3.69483 3.72009 2.91768 5.65009 3.41889 7.47097C3.91932 9.29106 5.57494 10.5523 7.46285 10.5523V10.5515ZM6.19307 5.09354C6.79951 4.48788 7.74892 4.39435 8.46137 4.87061C9.17303 5.34609 9.45053 6.25965 9.12237 7.05082C8.7942 7.84278 7.95314 8.29176 7.11286 8.12495C6.27258 7.95736 5.66692 7.21997 5.66692 6.36332C5.66614 5.88706 5.85555 5.4295 6.19307 5.09354Z" fill="white"/>
        <path d="M68.6013 69.6378C70.1268 71.164 72.5626 71.2825 74.2284 69.9114C75.8949 68.5403 76.2473 66.1278 75.043 64.3373C73.8387 62.546 71.4714 61.963 69.5733 62.9896L66.0127 59.4289C65.545 58.9612 64.7865 58.9612 64.3196 59.4289C63.8519 59.8966 63.8519 60.6542 64.3188 61.1219L67.878 64.681C66.9971 66.3117 67.2918 68.3267 68.6013 69.6378ZM72.8347 65.4044C73.4419 66.0108 73.5362 66.961 73.0607 67.675C72.5845 68.3891 71.6701 68.6665 70.8774 68.3384C70.0847 68.011 69.6341 67.1684 69.8009 66.3273C69.9685 65.4855 70.7067 64.879 71.5649 64.879C72.0412 64.8775 72.4987 65.0669 72.8347 65.4044Z" fill="white"/>
        <path d="M20.9362 61.1828C20.4685 60.7151 19.7109 60.7151 19.2432 61.1828L11.4499 68.9753C9.62359 67.9916 7.3514 68.4975 6.11358 70.1632C4.87654 71.8282 5.04803 74.1495 6.51657 75.6149C7.98512 77.0811 10.3072 77.2472 11.9698 76.0054C13.6325 74.7645 14.1329 72.4915 13.1453 70.6668L20.9362 62.8751C21.4031 62.4074 21.4031 61.6505 20.9362 61.1828ZM10.7289 73.9305C10.1225 74.5361 9.17305 74.6289 8.4606 74.1534C7.74816 73.6771 7.47144 72.7644 7.7996 71.9724C8.12776 71.1812 8.96883 70.7315 9.80911 70.8983C10.6494 71.0659 11.2551 71.8033 11.2551 72.6599C11.2558 73.1369 11.0664 73.5945 10.7281 73.9305H10.7289Z" fill="white"/>
        <path d="M63.3704 23.9371C63.6876 23.9379 63.9924 23.8116 64.2169 23.5864L67.7776 20.0265C69.6047 21.0086 71.8761 20.5027 73.1132 18.837C74.351 17.1712 74.1787 14.8499 72.7094 13.3845C71.2401 11.919 68.9187 11.7538 67.2561 12.9947C65.5935 14.2365 65.093 16.5094 66.0814 18.3342L62.5223 21.8933C62.1801 22.2363 62.078 22.7507 62.2627 23.1982C62.4483 23.6456 62.8848 23.9371 63.3688 23.9371H63.3704ZM68.4986 15.0713C69.1043 14.4656 70.0537 14.3721 70.7661 14.8483C71.4786 15.3238 71.7553 16.2374 71.4271 17.0286C71.099 17.8205 70.2579 18.2695 69.4176 18.1027C68.5773 17.9351 67.9725 17.1977 67.9725 16.3411C67.9709 15.864 68.1611 15.4072 68.4994 15.0713H68.4986Z" fill="white"/>
        <path d="M41.7096 58.3825C51.0299 58.3825 58.5854 50.827 58.5854 41.5067C58.5854 32.1864 51.0299 24.6309 41.7096 24.6309C32.3893 24.6309 24.833 32.1864 24.833 41.5067C24.8439 50.8231 32.3932 58.3723 41.7096 58.3825ZM41.7096 27.0254C49.7071 27.0254 56.1909 33.5092 56.1909 41.5067C56.1909 49.5049 49.7071 55.9879 41.7096 55.9879C33.7113 55.9879 27.2276 49.5049 27.2276 41.5067C27.2369 33.5131 33.7152 27.0348 41.7096 27.0254Z" fill="#3DD598"/>
        <path d="M25.2629 57.7798C25.3081 57.8492 25.3674 57.9084 25.4368 57.9544C34.4453 66.8896 48.9733 66.8896 57.981 57.9544C58.0145 57.9302 58.0465 57.9037 58.0769 57.8757C58.1049 57.8453 58.1306 57.8133 58.1556 57.7798C67.09 48.7721 67.09 34.2449 58.1556 25.2364C58.1306 25.2028 58.1049 25.1709 58.0769 25.1405C58.0465 25.1124 58.0145 25.0867 57.981 25.0618C48.9725 16.1265 34.4453 16.1265 25.4368 25.0618C25.4032 25.0867 25.3713 25.1124 25.3409 25.1405C25.3128 25.1709 25.2871 25.2028 25.2629 25.2364C16.3277 34.2449 16.3277 48.7721 25.2629 57.7798ZM22.039 40.3108H20.9914C21.2587 35.6409 23.1014 31.1994 26.2194 27.712L26.9536 28.4463C27.2545 28.7557 27.6988 28.8789 28.1166 28.769C28.5336 28.6591 28.8595 28.3333 28.9694 27.9155C29.0793 27.4984 28.9561 27.0541 28.6467 26.7532L27.9124 26.019C31.3998 22.901 35.8413 21.0583 40.5112 20.791V21.8394C40.5112 22.5004 41.0475 23.0367 41.7085 23.0367C42.3703 23.0367 42.9058 22.5004 42.9058 21.8394V20.791C47.5764 21.0583 52.0179 22.901 55.5046 26.019L54.7711 26.7532C54.4616 27.0541 54.3377 27.4984 54.4476 27.9155C54.5575 28.3333 54.8833 28.6591 55.3011 28.769C55.7181 28.8789 56.1624 28.7557 56.4633 28.4463L57.1976 27.712C60.3163 31.1994 62.159 35.6409 62.4264 40.3108H61.3787C60.717 40.3108 60.1815 40.8471 60.1815 41.5081C60.1815 42.1699 60.717 42.7054 61.3787 42.7054H62.4264C62.1598 47.376 60.3163 51.8175 57.1984 55.3042L56.4641 54.5699C56.1632 54.2612 55.7189 54.1373 55.3011 54.2472C54.8841 54.3571 54.5583 54.6837 54.4484 55.1007C54.3384 55.5185 54.4616 55.962 54.7711 56.2637L55.5053 56.9972C52.0179 60.1151 47.5764 61.9586 42.9065 62.2252V61.1776C42.9065 60.5166 42.3703 59.9803 41.7093 59.9803C41.0483 59.9803 40.512 60.5166 40.512 61.1776V62.2252C35.8413 61.9586 31.3998 60.1151 27.9132 56.9972L28.6475 56.2637C28.9561 55.962 29.0801 55.5185 28.9702 55.1007C28.8603 54.6837 28.5344 54.3571 28.1166 54.2472C27.6996 54.1373 27.2553 54.2612 26.9544 54.5699L26.2201 55.3042C23.1014 51.8175 21.2587 47.376 20.9914 42.7054H22.039C22.7008 42.7054 23.2363 42.1699 23.2363 41.5081C23.2363 40.8471 22.7008 40.3108 22.039 40.3108Z" fill="#3DD598"/>
        <path d="M37.1196 49.8207H38.5344V50.9533C38.5344 51.6143 39.0707 52.1506 39.7317 52.1506C40.3935 52.1506 40.929 51.6143 40.929 50.9533V49.8207H41.8768V50.9533C41.8768 51.6143 42.4131 52.1506 43.0741 52.1506C43.7351 52.1506 44.2714 51.6143 44.2714 50.9533V49.5744C45.8701 49.0389 47.0627 47.6919 47.4003 46.0402C47.737 44.3885 47.1687 42.6814 45.9075 41.5629C47.1687 40.4435 47.737 38.7365 47.4003 37.0847C47.0627 35.433 45.8701 34.0861 44.2714 33.5506V32.0625C44.2714 31.4007 43.7351 30.8652 43.0741 30.8652C42.4131 30.8652 41.8768 31.4007 41.8768 32.0625V33.3042H40.929V32.0625C40.929 31.4007 40.3935 30.8652 39.7317 30.8652C39.0707 30.8652 38.5344 31.4007 38.5344 32.0625V33.3042H37.1196C36.4579 33.3042 35.9224 33.8405 35.9224 34.5015V48.6234C35.9224 49.2844 36.4579 49.8207 37.1196 49.8207ZM45.1016 45.0932C45.1 46.3809 44.0563 47.4246 42.7678 47.4261H38.3169V42.7602H42.7678C44.0563 42.7609 45.1 43.8047 45.1016 45.0932ZM38.3169 35.6988H42.7678C44.0485 35.7105 45.0797 36.7519 45.0797 38.0318C45.0797 39.3125 44.0485 40.3531 42.7678 40.3656H38.3169V35.6988Z" fill="#3DD598"/>
    </g>
    <defs>
        <clipPath id="clip0">
            <rect width="89" height="89" fill="white"/>
        </clipPath>
    </defs>
</svg>