<svg width="89" height="89" viewBox="0 0 89 89" fill="none" xmlns="http://www.w3.org/2000/svg">
    <g clip-path="url(#clip0)">
        <path d="M44.5004 65.5301C56.0897 65.5301 65.4842 56.1356 65.4842 44.5463C65.4842 32.9577 56.0897 23.5625 44.5004 23.5625C32.9111 23.5625 23.5166 32.9577 23.5166 44.5463C23.5293 56.1299 32.9168 65.5173 44.5004 65.5301ZM44.5004 25.7332C54.8905 25.7332 63.3134 34.1561 63.3134 44.5463C63.3134 54.9364 54.8905 63.3593 44.5004 63.3593C34.1102 63.3593 25.6873 54.9364 25.6873 44.5463C25.6994 34.1611 34.1152 25.7452 44.5004 25.7332Z" fill="#3DD598"/>
        <path d="M38.1684 55.4481H40.932V57.5764C40.932 58.1757 41.4174 58.6618 42.0173 58.6618C42.6165 58.6618 43.1027 58.1757 43.1027 57.5764V55.4481H43.8538V57.5764C43.8538 58.1757 44.34 58.6618 44.9392 58.6618C45.5391 58.6618 46.0246 58.1757 46.0246 57.5764V55.4481H46.6563C49.5598 55.4446 51.9128 53.0922 51.9164 50.1887V48.7974C51.9164 47.1602 51.1525 45.6169 49.8509 44.6234C51.1525 43.6292 51.9164 42.0852 51.9164 40.448V39.0566C51.9128 36.1524 49.5598 33.8001 46.6563 33.7966H46.0246V31.517C46.0246 30.9178 45.5391 30.4316 44.9392 30.4316C44.34 30.4316 43.8538 30.9178 43.8538 31.517V33.7966H43.1027V31.517C43.1027 30.9178 42.6165 30.4316 42.0173 30.4316C41.4174 30.4316 40.932 30.9178 40.932 31.517V33.7966H38.1684C37.5692 33.7966 37.083 34.2827 37.083 34.8819V54.3627C37.083 54.962 37.5692 55.4481 38.1684 55.4481ZM49.7456 48.7974V50.1894C49.7428 51.8945 48.3614 53.276 46.6563 53.2781H39.2537V45.7074H46.6563C48.3621 45.7102 49.7435 47.0923 49.7456 48.7974ZM39.2537 35.968H46.6563C48.3614 35.9701 49.7428 37.3516 49.7456 39.0566V40.448C49.7435 42.1531 48.3614 43.5345 46.6563 43.5366H39.2537V35.968Z" fill="#3DD598"/>
        <path d="M79.0968 33.9777C78.8962 33.6717 78.5549 33.4873 78.1888 33.4873C77.8228 33.4873 77.4822 33.6717 77.2815 33.9777L67.5549 48.8075C67.3366 49.1411 67.3182 49.5679 67.5076 49.919C67.6969 50.2695 68.0637 50.4886 68.4622 50.4886H76.76C75.616 58.7666 71.4767 66.3374 65.1255 71.7691C59.1228 76.9162 51.5825 79.8677 44.4378 79.8677C39.7777 79.8677 34.9041 78.6113 30.3471 76.235C25.6142 73.7632 21.5094 70.2421 18.3459 65.9409C17.9919 65.4569 17.3121 65.3523 16.8288 65.7063C16.3454 66.0604 16.2402 66.7394 16.5949 67.2235C19.9549 71.7932 24.3161 75.534 29.3437 78.1598C34.2102 80.6973 39.4293 82.0385 44.4378 82.0385C52.0926 82.0385 60.1481 78.8961 66.5381 73.417C73.3704 67.5732 77.7924 59.404 78.9485 50.4886H87.9155C88.314 50.4886 88.6807 50.2695 88.8701 49.919C89.0595 49.5679 89.0418 49.1411 88.8228 48.8075L79.0968 33.9777ZM70.4725 48.3178L78.1888 36.5512L85.9058 48.3171L70.4725 48.3178Z" fill="white"/>
        <path d="M21.4934 39.1741C21.304 38.8236 20.9373 38.6046 20.538 38.6046H12.2409C13.3849 30.3265 17.5243 22.7551 23.8754 17.324C29.8782 12.177 37.4185 9.22542 44.5631 9.22542C49.2233 9.22542 54.0954 10.4818 58.6531 12.8582C63.3868 15.3292 67.4915 18.851 70.6551 23.1522C71.0091 23.6362 71.6882 23.7408 72.1722 23.3868C72.6555 23.0328 72.7601 22.353 72.4061 21.8697C69.0461 17.3 64.6848 13.5591 59.6572 10.9333C54.7907 8.39585 49.5717 7.05469 44.5631 7.05469C36.9076 7.05469 28.8521 10.197 22.4622 15.6762C15.6306 21.5199 11.2085 29.6891 10.0518 38.6046H1.0855C0.686964 38.6046 0.320228 38.8236 0.130147 39.1741C-0.0592272 39.5253 -0.0408549 39.9514 0.178197 40.2849L9.90412 55.1154C10.1048 55.4214 10.4461 55.6058 10.8121 55.6058C11.1774 55.6058 11.5187 55.4214 11.7194 55.1154L21.4461 40.2849C21.6644 39.9514 21.6828 39.5253 21.4934 39.1741ZM10.8114 52.5426L3.09513 40.776H18.5284L10.8114 52.5426Z" fill="white"/>
    </g>
    <defs>
        <clipPath id="clip0">
            <rect width="89" height="89" fill="white"/>
        </clipPath>
    </defs>
</svg>