<svg width="89" height="89" viewBox="0 0 89 89" fill="none" xmlns="http://www.w3.org/2000/svg">
    <g clip-path="url(#clip0)">
        <path d="M62.4824 32.807C62.5394 33.1906 62.7977 33.5144 63.1589 33.6552C63.52 33.796 63.9297 33.7327 64.231 33.4891C64.533 33.2448 64.6809 32.8583 64.6189 32.4754C62.6063 19.6153 51.5287 10.1364 38.5123 10.1357C23.9438 10.1357 12.0918 21.9877 12.0918 36.5556C12.0918 51.1227 23.9438 62.9747 38.5123 62.9747C43.3141 62.9782 48.0257 61.671 52.1397 59.193C52.6508 58.8847 52.8155 58.2201 52.5072 57.709C52.1981 57.1973 51.5336 57.0332 51.0225 57.3416C47.2457 59.6154 42.9199 60.8156 38.5116 60.8121C25.1356 60.8121 14.2537 49.9302 14.2537 36.5556C14.2537 23.1802 25.1356 12.2983 38.5116 12.2983C50.4614 12.299 60.6323 21.0007 62.4817 32.807H62.4824Z" fill="white"/>
        <path d="M12.6627 62.4052C12.7091 62.4502 12.7591 62.491 12.8126 62.5276C24.5569 74.167 42.6544 76.4669 56.9372 68.1361C57.4525 67.8348 57.6264 67.1724 57.3244 66.6571C57.0231 66.1411 56.3606 65.9679 55.8453 66.2692C50.9014 69.1527 45.3147 70.7556 39.5936 70.9316V68.3452C39.5936 67.7483 39.1093 67.2639 38.5123 67.2639C37.9146 67.2639 37.431 67.7483 37.431 68.3452V70.9309C29.0608 70.6732 21.0751 67.3597 14.9815 61.616L16.7985 59.7991C17.0751 59.5266 17.1849 59.1268 17.085 58.7516C16.9857 58.3757 16.6929 58.0828 16.317 57.9828C15.9417 57.8836 15.5419 57.9927 15.2695 58.2694L13.4525 60.0863C7.70816 53.9935 4.39459 46.0077 4.13624 37.6375H6.72331C7.32027 37.6375 7.8046 37.1532 7.8046 36.5562C7.8046 35.9593 7.32027 35.4749 6.72331 35.4749H4.13624C4.39459 27.1048 7.70886 19.119 13.4525 13.0255L15.2695 14.8424C15.6925 15.2592 16.3726 15.2563 16.7921 14.8361C17.2124 14.4165 17.2145 13.7365 16.7985 13.3134L14.9815 11.4965C21.0751 5.75281 29.0608 2.43924 37.431 2.18089V4.76726C37.431 5.36422 37.9146 5.84855 38.5123 5.84855C39.1093 5.84855 39.5936 5.36422 39.5936 4.76726V2.18089C47.9687 2.42235 55.9629 5.7331 62.055 11.4845L60.2261 13.3134C59.9488 13.5858 59.8396 13.9857 59.9389 14.3609C60.0382 14.7361 60.3317 15.0297 60.7069 15.1289C61.0821 15.2289 61.4827 15.1191 61.7551 14.8424L63.5833 13.0142C69.4917 19.2725 72.8208 27.5314 72.9031 36.1381C72.9102 36.7301 73.3924 37.2067 73.9844 37.206H73.9971C74.5948 37.199 75.0728 36.7097 75.0657 36.112C74.9735 26.5733 71.1334 17.4541 64.3739 10.7228C64.369 10.7179 64.3661 10.7115 64.3612 10.7066C64.3563 10.7024 64.3521 10.6996 64.3471 10.6961C64.3028 10.651 64.2598 10.606 64.2148 10.5616C49.9743 -3.52968 27.0405 -3.51912 12.8126 10.5848C12.7049 10.6559 12.612 10.7489 12.5409 10.8566C-1.57222 25.083 -1.57222 48.0288 12.5409 62.2552C12.5768 62.3087 12.6176 62.3587 12.6627 62.4052Z" fill="white"/>
        <path d="M48.4619 30.4234V29.2555C48.457 25.635 45.8101 22.5608 42.2311 22.0174V18.3039C42.2311 17.7063 41.7468 17.2227 41.1498 17.2227C40.5522 17.2227 40.0685 17.7063 40.0685 18.3039V21.9364H35.7729V18.3039C35.7729 17.7063 35.2886 17.2227 34.6917 17.2227C34.094 17.2227 33.6104 17.7063 33.6104 18.3039V21.9364H29.6428C29.0459 21.9364 28.5615 22.4207 28.5615 23.0177V50.3055C28.5615 50.9025 29.0459 51.3868 29.6428 51.3868H33.6104V54.8074C33.6104 55.4051 34.094 55.8887 34.6917 55.8887C35.2886 55.8887 35.7729 55.4051 35.7729 54.8074V51.3875H40.0685V54.8074C40.0685 55.4051 40.5522 55.8887 41.1498 55.8887C41.7468 55.8887 42.2311 55.4051 42.2311 54.8074V51.3052C45.8108 50.7624 48.4577 47.6875 48.4619 44.067V42.8991C48.4605 40.3536 47.1363 37.9911 44.966 36.6613C47.1363 35.3308 48.4605 32.969 48.4619 30.4234ZM46.2993 42.8998V44.0677C46.2958 46.9145 43.9889 49.2214 41.1421 49.2242H30.7241V37.7426H41.1421C43.9889 37.7461 46.2958 40.053 46.2993 42.8998ZM46.2993 30.4234C46.2958 33.2703 43.9889 35.5772 41.1421 35.58H30.7241V24.099H41.1421C43.9889 24.1025 46.2958 26.4094 46.2993 29.2563V30.4234Z" fill="white"/>
        <path d="M86.7529 82.5587C86.0201 79.9562 84.0236 77.8992 81.4436 77.0896L72.3969 74.1562V70.1985C75.6499 68.2239 77.9153 64.9652 78.6348 61.2286L79.1444 59.4743C81.3 58.7224 82.5312 56.4564 81.9892 54.2389C81.7132 53.083 80.8804 52.1411 79.7667 51.7264V51.3301C82.0673 51.164 83.849 49.2506 83.8519 46.9444C83.8519 46.3474 83.3682 45.8631 82.7706 45.8631C81.1247 45.8525 79.6942 44.7283 79.2951 43.131C77.5514 36.3504 71.7077 31.4297 65.4002 31.4297C57.4595 31.4388 51.0252 37.8745 51.0168 45.8152V51.7342C49.9101 52.1509 49.083 53.09 48.8084 54.2403C48.2664 56.4571 49.4976 58.7231 51.6524 59.475L52.1628 61.2293C52.8816 64.9659 55.1469 68.2239 58.3993 70.1985V74.1562L49.3526 77.0896C46.7726 77.8992 44.7754 79.9569 44.0426 82.5594C44.0151 82.6601 43.9891 82.7615 43.9665 82.8614C43.837 83.4316 43.7737 84.0152 43.7786 84.6002V87.9187C43.7786 88.5157 44.2629 89 44.8599 89H85.9363C86.5333 89 87.0176 88.5157 87.0176 87.9187V84.6002C87.0225 84.0152 86.9592 83.4316 86.8296 82.8607C86.8064 82.7594 86.7811 82.6594 86.7529 82.5587ZM53.1793 45.8152C53.1871 39.0684 58.6548 33.6014 65.4009 33.5937C70.7356 33.5937 75.6985 37.8323 77.2008 43.6709C77.7323 45.7631 79.3838 47.3858 81.4844 47.8807C81.1191 48.6726 80.3264 49.1809 79.4542 49.1816H71.3783C67.3938 49.1746 63.5241 47.8448 60.3767 45.4006C60.1289 45.2077 59.81 45.1324 59.5024 45.1936C59.194 45.2549 58.9279 45.4464 58.7731 45.7195L57.0927 48.6719C56.2599 50.1327 54.8301 51.1562 53.1793 51.4737V45.8152ZM54.2789 60.7766C54.2726 60.7428 54.2642 60.7083 54.2543 60.6752L53.5912 58.393C53.5095 57.9481 53.1596 57.6003 52.714 57.5222C52.0974 57.4131 51.5539 57.0533 51.2125 56.5289C50.8703 56.0044 50.7612 55.3617 50.9098 54.7542C51.0245 54.2544 51.4039 53.858 51.8981 53.7208C51.9643 53.7334 52.0319 53.7398 52.0995 53.7405C54.9421 53.737 57.5651 52.2115 58.973 49.7419L60.0543 47.8412C63.3932 50.1172 67.3389 51.3371 71.379 51.3442H77.6056V52.5796C77.6056 53.1386 78.0308 53.6053 78.5869 53.656C79.2141 53.6975 79.7414 54.1424 79.8885 54.7535C79.9315 54.9302 79.9533 55.1118 79.9533 55.2941C79.9554 56.3923 79.1663 57.3335 78.0843 57.5222C77.6386 57.5996 77.2881 57.9474 77.2071 58.393L76.5433 60.6745C76.5341 60.7083 76.5257 60.7421 76.5193 60.7766C75.5134 66.1253 70.8419 70.0007 65.3988 70.0007C59.9564 70.0007 55.2842 66.1253 54.2789 60.7766ZM65.3981 72.164C67.0517 72.164 68.6912 71.8584 70.2336 71.2629V74.2871C67.1672 75.7112 63.629 75.7112 60.5625 74.2871V71.2629C62.1056 71.8577 63.7445 72.1633 65.3981 72.1626V72.164ZM84.855 86.8374H45.9412V84.6002C45.9369 84.18 45.9806 83.7611 46.0728 83.3514C46.0911 83.2775 46.1087 83.2036 46.1284 83.131C46.6698 81.2317 48.1326 79.733 50.0192 79.1466L59.3721 76.1139C63.1714 77.9844 67.6233 77.9844 71.4219 76.1139L80.7748 79.1466C82.6614 79.7323 84.1243 81.2303 84.6656 83.1303C84.6861 83.2043 84.7051 83.2789 84.722 83.3528C84.8142 83.7625 84.8578 84.1807 84.8536 84.6002L84.855 86.8374Z" fill="#3DD598"/>
    </g>
    <defs>
        <clipPath id="clip0">
            <rect width="89" height="89" fill="white"/>
        </clipPath>
    </defs>
</svg>