<svg width="89" height="89" viewBox="0 0 89 89" fill="none" xmlns="http://www.w3.org/2000/svg">
    <g clip-path="url(#clip0)">
        <path d="M82.7012 3.90335H60.9664C59.8047 1.51569 57.3824 0 54.7269 0C52.0715 0 49.6492 1.51569 48.4875 3.90335H26.752C24.3573 3.90618 22.4169 5.84655 22.4141 8.24198V46.4664H24.5848V8.24198C24.5869 7.04567 25.5557 6.0762 26.752 6.07408H47.8431C47.8063 6.36167 47.7873 6.65067 47.7865 6.94039V8.78254H38.1377C37.5378 8.78254 37.0523 9.26869 37.0523 9.8679V12.8618H32.6699C31.1733 12.8632 29.96 14.0765 29.9579 15.5731V48.2803H32.1286V15.5738C32.1293 15.2749 32.371 15.0333 32.6699 15.0326H37.0523V17.6746C37.0523 18.2745 37.5378 18.76 38.1377 18.76H71.3169C71.9161 18.76 72.4022 18.2745 72.4022 17.6746V15.0326H76.784C77.0829 15.0326 77.3252 15.2749 77.3252 15.5731V59.7642H72.1789C69.7842 59.767 67.8431 61.7074 67.8403 64.1021V69.1106H43.9574V71.2814H68.2961C68.4261 71.2799 68.5561 71.2708 68.6854 71.2538C69.0677 71.3414 69.4684 71.2149 69.7305 70.9231C69.9927 70.7818 70.2329 70.603 70.4435 70.3917L78.6063 62.2289C79.178 61.6608 79.4981 60.8877 79.496 60.0815V15.5738C79.4945 14.0765 78.2813 12.8632 76.784 12.8618H72.4022V9.8679C72.4022 9.26869 71.9161 8.78254 71.3169 8.78254H61.6673V6.94039C61.6666 6.65067 61.6482 6.36167 61.6115 6.07408H82.7012C83.8975 6.0762 84.867 7.04567 84.8684 8.24198V75.9012C84.867 77.0982 83.8975 78.0677 82.7012 78.0691H40.0759V80.2398H82.7012C85.0959 80.237 87.037 78.2966 87.0391 75.9012V8.24198C87.037 5.84655 85.0959 3.90618 82.7012 3.90335ZM70.011 67.7546V64.1021C70.0132 62.9058 70.9826 61.9371 72.1789 61.9349H75.8307L70.011 67.7546ZM70.2315 10.954V16.5899H39.2231V10.9533H48.8719C49.4711 10.9533 49.9573 10.4678 49.9573 9.8679V6.94039C49.9573 4.30612 52.0927 2.17073 54.7269 2.17073C57.3612 2.17073 59.4966 4.30612 59.4966 6.94039V9.8679C59.4966 10.4678 59.9827 10.9533 60.582 10.9533L70.2315 10.954Z" fill="white"/>
        <path d="M71.3166 29.036C71.9158 29.036 72.402 28.5498 72.402 27.9506C72.402 27.3507 71.9158 26.8652 71.3166 26.8652H70.0942C69.4942 26.8652 69.0088 27.3507 69.0088 27.9506C69.0088 28.5498 69.4942 29.036 70.0942 29.036H71.3166Z" fill="white"/>
        <path d="M66.2857 26.8652H48.3588C47.7596 26.8652 47.2734 27.3507 47.2734 27.9506C47.2734 28.5498 47.7596 29.036 48.3588 29.036H66.2857C66.8849 29.036 67.3711 28.5498 67.3711 27.9506C67.3711 27.3507 66.8849 26.8652 66.2857 26.8652Z" fill="white"/>
        <path d="M38.1381 29.036H44.475C45.075 29.036 45.5604 28.5498 45.5604 27.9506C45.5604 27.3507 45.075 26.8652 44.475 26.8652H38.1381C37.5382 26.8652 37.0527 27.3507 37.0527 27.9506C37.0527 28.5498 37.5382 29.036 38.1381 29.036Z" fill="white"/>
        <path d="M66.8057 36.7211C66.8057 37.3203 67.2911 37.8065 67.891 37.8065H71.3174C71.9166 37.8065 72.4028 37.3203 72.4028 36.7211C72.4028 36.1219 71.9166 35.6357 71.3174 35.6357H67.891C67.2911 35.6357 66.8057 36.1219 66.8057 36.7211Z" fill="white"/>
        <path d="M65.2658 36.7211C65.2658 36.1219 64.7797 35.6357 64.1805 35.6357H59.5111C58.9112 35.6357 58.4258 36.1219 58.4258 36.7211C58.4258 37.3203 58.9112 37.8065 59.5111 37.8065H64.1812C64.7804 37.8065 65.2658 37.3203 65.2658 36.7211Z" fill="white"/>
        <path d="M38.1381 37.8065H56.2501C56.8494 37.8065 57.3355 37.3203 57.3355 36.7211C57.3355 36.1219 56.8494 35.6357 56.2501 35.6357H38.1381C37.5382 35.6357 37.0527 36.1219 37.0527 36.7211C37.0527 37.3203 37.5382 37.8065 38.1381 37.8065Z" fill="white"/>
        <path d="M71.317 44.9521H64.0346C63.4354 44.9521 62.9492 45.4383 62.9492 46.0375C62.9492 46.6367 63.4354 47.1229 64.0346 47.1229H71.317C71.9162 47.1229 72.4024 46.6367 72.4024 46.0375C72.4024 45.4383 71.9162 44.9521 71.317 44.9521Z" fill="white"/>
        <path d="M61.4106 46.0375C61.4106 45.4383 60.9244 44.9521 60.3252 44.9521H38.1381C37.5382 44.9521 37.0527 45.4383 37.0527 46.0375C37.0527 46.6367 37.5382 47.1229 38.1381 47.1229H60.3252C60.9244 47.1229 61.4106 46.6367 61.4106 46.0375Z" fill="white"/>
        <path d="M71.3174 53.5635H50.7738C50.1746 53.5635 49.6885 54.0489 49.6885 54.6488C49.6885 55.2481 50.1746 55.7342 50.7738 55.7342H71.3174C71.9166 55.7342 72.4027 55.2481 72.4027 54.6488C72.4027 54.0489 71.9166 53.5635 71.3174 53.5635Z" fill="white"/>
        <path d="M41.4711 53.5635C40.8719 53.5635 40.3857 54.0489 40.3857 54.6488C40.3857 55.2481 40.8719 55.7342 41.4711 55.7342H47.0633C47.6625 55.7342 48.1487 55.2481 48.1487 54.6488C48.1487 54.0489 47.6625 53.5635 47.0633 53.5635H41.4711Z" fill="white"/>
        <path d="M23.5598 51.4014C14.8083 51.4014 7.71387 58.4958 7.71387 67.248C7.71387 75.9995 14.8083 83.0939 23.5598 83.0939C32.312 83.0939 39.4064 75.9995 39.4064 67.248C39.3965 58.5001 32.3077 51.4113 23.5598 51.4014ZM23.5598 80.9253C16.0074 80.9253 9.8846 74.8024 9.8846 67.2494C9.8846 59.6971 16.0067 53.5742 23.5591 53.5735C31.1121 53.5735 37.235 59.6957 37.2357 67.2487C37.2272 74.7982 31.1093 80.9161 23.5598 80.9253Z" fill="#3DD598"/>
        <path d="M39.0135 51.957C38.9908 51.9252 38.9668 51.8955 38.9407 51.8672C38.9124 51.8418 38.8827 51.8171 38.8516 51.7952C30.3864 43.3977 16.7331 43.3977 8.2685 51.7952C8.23741 51.8171 8.20702 51.8418 8.17876 51.8672C8.15332 51.8955 8.12929 51.9252 8.10668 51.957C-0.290769 60.4216 -0.290769 74.0741 8.10668 82.5394C8.12929 82.5712 8.15332 82.6009 8.17876 82.6299C8.20773 82.6553 8.23741 82.68 8.2685 82.7026C16.7331 91.0994 30.3864 91.0994 38.8516 82.7026C38.9159 82.6595 38.9718 82.6044 39.0142 82.5394C47.4116 74.0741 47.4116 60.4216 39.0142 51.957H39.0135ZM42.0788 68.3336H43.1097C42.8659 72.7711 41.1142 76.9925 38.1443 80.298L37.4214 79.5759C36.9968 79.1575 36.3142 79.1604 35.893 79.5822C35.4719 80.0034 35.4691 80.6859 35.8867 81.1106L36.6088 81.8328C33.3033 84.8034 29.0819 86.5551 24.6444 86.7989V85.7672C24.6444 85.168 24.1582 84.6819 23.559 84.6819C22.9598 84.6819 22.4736 85.168 22.4736 85.7672V86.7989C18.0361 86.5551 13.8147 84.8034 10.5092 81.8328L11.2313 81.1106C11.6553 80.6867 11.6553 79.9998 11.2313 79.5759C10.8074 79.1519 10.1205 79.1519 9.69657 79.5759L8.97441 80.2987C6.00449 76.9932 4.25208 72.7718 4.009 68.3343H5.03996C5.63917 68.3343 6.12532 67.8481 6.12532 67.2489C6.12532 66.6497 5.63917 66.1635 5.03996 66.1635H4.009C4.25208 61.726 6.00449 57.5046 8.97441 54.1991L9.69657 54.9212C10.1205 55.3452 10.8074 55.3452 11.2313 54.9212C11.6553 54.4973 11.6553 53.8104 11.2313 53.3865L10.5092 52.6636C13.8155 49.6937 18.0368 47.942 22.4736 47.6982V48.7291C22.4736 49.3291 22.9598 49.8145 23.559 49.8145C24.1589 49.8145 24.6444 49.3291 24.6444 48.7291V47.6982C29.0819 47.942 33.3033 49.6937 36.6095 52.6636L35.8867 53.3865C35.609 53.6599 35.4994 54.0613 35.5991 54.4379C35.6987 54.8152 35.9934 55.1092 36.37 55.2095C36.7473 55.3092 37.1487 55.1989 37.4222 54.9212L38.1443 54.1991C41.1142 57.5046 42.8659 61.726 43.1097 66.1635H42.0788C41.4796 66.1635 40.9934 66.6497 40.9934 67.2489C40.9934 67.8481 41.4796 68.3343 42.0788 68.3343V68.3336Z" fill="#3DD598"/>
        <path d="M25.9629 59.517V58.1342C25.9629 57.535 25.4767 57.0488 24.8775 57.0488C24.2776 57.0488 23.7921 57.535 23.7921 58.1342V59.4026H22.7378V58.1342C22.7378 57.535 22.2517 57.0488 21.6525 57.0488C21.0526 57.0488 20.5671 57.535 20.5671 58.1342V59.4026H19.1313C18.5321 59.4026 18.0459 59.888 18.0459 60.4879V74.1144C18.0459 74.7136 18.5321 75.1997 19.1313 75.1997H20.5671V76.3621C20.5671 76.9613 21.0526 77.4475 21.6525 77.4475C22.2517 77.4475 22.7378 76.9613 22.7378 76.3621V75.1997H23.7921V76.3621C23.7921 76.9613 24.2776 77.4475 24.8775 77.4475C25.4767 77.4475 25.9629 76.9613 25.9629 76.3621V75.0853C27.7866 74.6415 29.0713 73.0092 29.0741 71.1324V70.2824C29.0741 69.1497 28.6007 68.0685 27.769 67.3004C28.6014 66.5324 29.0741 65.4512 29.0741 64.3185V63.4685C29.0706 61.5917 27.7859 59.9601 25.9629 59.517ZM26.9034 70.2831V71.1331C26.9012 72.1796 26.0533 73.0276 25.0068 73.0297H20.2166V68.3865H25.0068C26.0533 68.3879 26.9012 69.2359 26.9034 70.2831ZM20.2166 66.2158V61.5733H25.0068C26.0533 61.5747 26.9012 62.4227 26.9034 63.4699V64.3199C26.9012 65.3664 26.0533 66.2144 25.0068 66.2165L20.2166 66.2158Z" fill="#3DD598"/>
    </g>
    <defs>
        <clipPath id="clip0">
            <rect width="89" height="89" fill="white"/>
        </clipPath>
    </defs>
</svg>