<svg width="1843" height="1807" viewBox="0 0 1843 1807" fill="none" xmlns="http://www.w3.org/2000/svg">
    <path fill-rule="evenodd" clip-rule="evenodd" d="M430.97 882.848C414.465 912.913 428.705 941.195 447.559 957.663C452.991 962.408 459.079 966.487 465.645 969.816C491.814 983.013 542.156 992.184 567.051 969.993C574.611 963.26 578.49 954.708 578.595 944.573C578.872 918.636 555.058 889.856 542.417 878.28C541.758 877.683 541.106 877.092 540.445 876.515C522.921 861.209 502.72 853.152 481.998 853.219C459.73 853.28 446.887 866.476 432.022 881.761L430.97 882.848Z" fill="black" fill-opacity="0.1"/>
    <path fill-rule="evenodd" clip-rule="evenodd" d="M1295.69 965.336C1283.99 983.432 1271.13 1001.14 1258.69 1018.26C1244.91 1037.2 1230.67 1056.79 1218.07 1076.86C1205.63 1096.67 1188.44 1134.94 1213.02 1168.67C1217.09 1174.25 1221.92 1179.52 1227.39 1184.3C1268.97 1220.61 1347.32 1228.53 1398.48 1201.59C1465.23 1166.44 1457.43 1068.01 1442.29 1015.39C1435.94 993.305 1423.36 962.601 1399.45 941.718C1390.54 933.935 1380.64 928.123 1370.07 924.458C1340.06 914.06 1315.94 940.063 1295.69 965.336Z" fill="black" fill-opacity="0.1"/>
    <path fill-rule="evenodd" clip-rule="evenodd" d="M656.08 734.776C648.715 728.343 641.25 722.259 633.87 716.735C583.637 678.987 527.53 652.132 479.265 630.845C463.928 624.087 448.364 616.647 433.306 609.466C397.078 592.155 359.605 574.27 320.912 563.42C288.636 554.379 243.644 552.485 212.59 594.834C165.144 670.276 117.356 784.63 159.351 900.757C181.506 962.006 210.8 1011.09 246.398 1046.68C249.006 1049.28 251.732 1051.84 254.51 1054.27C287.382 1082.98 331.526 1099.13 393.434 1105.09C406.557 1106.34 419.865 1107.45 432.713 1108.55C476.784 1112.26 522.349 1116.09 566.662 1126.2C590.282 1131.61 614.065 1138.66 637.053 1145.49C669.69 1155.18 703.426 1165.21 737.333 1170.63C752.548 1173.07 768.278 1174.68 783.472 1176.25C822.479 1180.24 862.811 1184.37 898.884 1202.85C917.382 1212.32 935.307 1224.85 955.243 1242.26C970.588 1255.66 985.279 1270.36 999.486 1284.6C1009.87 1294.97 1020.57 1305.71 1031.35 1315.71C1035.93 1319.97 1040.25 1323.87 1044.54 1327.61C1073.1 1352.56 1117.47 1386.23 1172.74 1390.67C1208.91 1393.57 1245.23 1386.25 1280.37 1379.16C1293.93 1376.42 1307.96 1373.6 1321.75 1371.41C1336.11 1369.14 1350.8 1367.15 1365.01 1365.23C1404.98 1359.84 1446.33 1354.27 1485.34 1341.43C1536.93 1324.42 1575.04 1286.4 1598.58 1228.42C1619.81 1176.14 1637.88 1117.74 1652.29 1054.83C1664.32 1002.26 1660.5 955.8 1640.91 916.703C1624.33 883.612 1599.98 853.679 1564.28 822.494C1541.02 802.183 1515.3 783.371 1490.42 765.172C1465.64 747.045 1440.02 728.304 1416.95 708.16C1408.65 700.907 1401.22 693.973 1394.22 686.931C1373.65 666.223 1358.84 646.075 1348.99 625.354C1341.52 609.637 1337.31 592.619 1333.24 576.156C1330.61 565.538 1327.89 554.549 1324.32 544.036C1317.39 523.588 1308.54 508.872 1297.28 499.039C1292.52 494.882 1287.26 491.553 1281.62 489.157C1258.59 479.343 1235.23 487.488 1223.51 509.446C1209.04 536.513 1220.4 570.02 1230.45 599.587C1232.54 605.774 1234.52 611.613 1236.2 617.213C1248.11 656.826 1239.91 702.431 1211.14 756.637C1186.73 802.651 1151.84 860.211 1098.31 897.305C1052.4 929.111 997.353 948.804 947.296 951.317C900.566 953.676 854.883 934.77 807.641 893.508C779.997 869.363 755.17 840.73 735.202 817.726C710.77 789.566 685.485 760.459 656.08 734.776ZM253.206 1055.78C253.206 1055.78 253.206 1055.78 253.199 1055.77C250.386 1053.31 247.619 1050.74 244.98 1048.1C209.169 1012.31 179.733 962.966 157.476 901.451C115.205 784.567 163.217 669.591 210.943 593.71C242.719 550.375 288.584 552.28 321.466 561.493C360.321 572.381 397.869 590.308 434.176 607.665C449.221 614.83 464.775 622.265 480.079 629.016C528.437 650.36 584.684 677.26 635.083 715.127C642.485 720.697 649.999 726.797 657.401 733.262C686.908 759.034 712.233 788.203 736.725 816.415C756.634 839.366 781.42 867.938 808.963 891.995C855.799 932.903 901.01 951.653 947.206 949.316C996.908 946.824 1051.57 927.272 1097.18 895.665C1150.35 858.823 1185.08 801.527 1209.38 755.716C1237.88 701.996 1246.04 656.882 1234.29 617.8C1232.61 612.232 1230.64 606.409 1228.56 600.24C1218.39 570.289 1206.87 536.344 1221.74 508.508C1234 485.59 1258.38 477.07 1282.42 487.316C1288.25 489.799 1293.69 493.233 1298.6 497.525C1310.13 507.592 1319.16 522.595 1326.21 543.377C1329.82 553.975 1332.54 565.007 1335.17 575.664C1339.22 592.031 1343.41 608.94 1350.79 624.474C1360.55 645 1375.21 664.956 1395.63 685.513C1402.59 692.515 1410.01 699.439 1418.27 706.655C1441.27 726.747 1466.87 745.461 1491.62 763.567C1516.52 781.777 1542.28 800.618 1565.6 820.981C1601.5 852.342 1626 882.469 1642.69 915.801C1662.49 955.306 1666.37 1002.24 1654.24 1055.28C1639.81 1118.29 1621.71 1176.79 1600.43 1229.17C1576.65 1287.72 1538.14 1326.13 1485.95 1343.32C1446.78 1356.22 1405.34 1361.82 1365.26 1367.22C1351.07 1369.13 1336.38 1371.11 1322.04 1373.39C1308.3 1375.56 1294.29 1378.39 1280.75 1381.13C1245.47 1388.24 1209.02 1395.6 1172.57 1392.65C1116.7 1388.18 1071.99 1354.23 1043.23 1329.11C1038.93 1325.35 1034.59 1321.45 1029.99 1317.18C1019.2 1307.14 1008.46 1296.4 998.079 1286.01C983.887 1271.81 969.206 1257.12 953.922 1243.77C934.105 1226.46 916.326 1214.03 897.967 1204.61C862.214 1186.31 822.084 1182.2 783.253 1178.23C768.025 1176.67 752.273 1175.06 736.997 1172.62C702.969 1167.15 669.17 1157.11 636.465 1147.41C613.506 1140.59 589.774 1133.55 566.2 1128.16C522.012 1118.07 476.531 1114.24 432.544 1110.53C419.665 1109.46 406.36 1108.32 393.232 1107.06C330.896 1101.07 286.399 1084.77 253.206 1055.78Z" fill="black" fill-opacity="0.15"/>
    <path fill-rule="evenodd" clip-rule="evenodd" d="M254.01 661.546C205.182 747.154 196.249 858.334 231.296 944.831C244.477 977.334 264.376 1005.84 288.865 1027.23C304.076 1040.52 321.084 1051.18 339.415 1058.88C380.144 1076.05 425.946 1080.64 470.242 1085.11C483.007 1086.39 496.213 1087.72 508.966 1089.32C549.188 1094.38 589.659 1102.05 628.802 1109.47C650.269 1113.53 672.464 1117.74 694.305 1121.46C720.4 1125.89 747.593 1126.52 775.129 1123.34C790.246 1121.6 805.39 1117.78 820.039 1114.09C833.453 1110.7 847.325 1107.22 861.378 1105.23C885.597 1101.82 908.138 1109.57 930.278 1128.91C944.908 1141.68 957.491 1157.62 969.657 1173.02C974.205 1178.78 978.518 1184.21 982.831 1189.4C1009.19 1220.92 1036.42 1253.53 1067.68 1280.83C1083 1294.21 1097.93 1305.17 1113.31 1314.36C1138.24 1329.23 1163.89 1338.9 1189.58 1343.08C1207.81 1346.06 1226.6 1345.21 1244.74 1344.4C1253.84 1343.99 1263.24 1343.58 1272.54 1343.63C1288.89 1343.71 1305.64 1341.18 1321.85 1338.73C1330.85 1337.39 1340.15 1335.98 1349.31 1335.03C1352.74 1334.7 1356.17 1334.33 1359.61 1333.98C1385.14 1331.41 1411.55 1328.74 1436.92 1323.12C1475.81 1314.51 1528.4 1293.18 1558.14 1240.44C1580.31 1201.11 1590.24 1154.96 1599.84 1110.33C1601.66 1101.88 1603.54 1093.13 1605.47 1084.67C1615.58 1040.01 1623.38 988.083 1604.38 941.398C1589.94 905.882 1565.02 873.914 1523.61 837.74C1516.57 831.591 1508.77 825.061 1499.73 817.757L1494.91 813.859C1452.14 779.265 1407.91 743.483 1355.83 725.418C1302.23 706.808 1269.05 747.095 1239.64 789.95C1233.88 798.33 1228.03 807.15 1222.35 815.666C1196.32 854.783 1169.4 895.227 1134.19 925.24C1099.16 955.106 1056.22 975.672 1014.69 995.539C1007.47 999.004 1000.27 1002.45 993.174 1005.92C989.978 1007.49 986.762 1009.09 983.51 1010.71C965.685 1019.63 947.258 1028.83 927.722 1032.79C900.617 1038.29 878.654 1025.52 860.751 1012.29C855.069 1008.1 849.31 1003.45 843.621 998.483C818.038 976.137 795.962 949.114 774.625 922.99C768.419 915.391 762.002 907.531 755.659 900.017C745.164 887.543 734.672 874.585 724.521 862.078C698.707 830.199 672.013 797.271 642.355 768.573C637.932 764.274 633.299 760.023 628.609 755.926C593.969 725.671 552.828 700.862 502.858 680.058C448.662 657.514 400.392 642.014 355.286 632.663C308.212 622.898 274.137 632.618 254.01 661.546ZM283.601 1033.28L283.594 1033.27C258.175 1011.07 237.532 981.528 223.893 947.879C205.852 903.328 198.676 852.328 203.175 800.362C207.548 749.61 222.768 700.193 247.187 657.457L247.373 657.157C269.481 625.223 306.354 614.356 356.955 624.842C402.558 634.295 451.3 649.948 505.958 672.691C556.737 693.819 598.585 719.064 633.88 749.891C638.672 754.077 643.393 758.43 647.931 762.805C677.92 791.843 704.772 824.963 730.748 857.006C740.861 869.507 751.331 882.419 761.791 894.836C768.162 902.402 774.585 910.293 780.814 917.912C801.953 943.783 823.809 970.539 848.893 992.448C854.42 997.276 860.013 1001.78 865.521 1005.85C882.018 1018.05 902.144 1029.83 926.183 1024.96C944.689 1021.21 962.631 1012.24 979.977 1003.58C983.249 1001.95 986.495 1000.32 989.716 998.749C996.827 995.272 1004.03 991.821 1011.29 988.344C1052.35 968.688 1094.81 948.367 1129.03 919.172C1163.38 889.879 1189.98 849.918 1215.71 811.261C1221.4 802.723 1227.28 793.882 1233.07 785.457C1262.86 742.025 1299.57 697.41 1358.49 717.856C1411.88 736.39 1456.64 772.603 1499.94 807.629L1504.77 811.521C1513.88 818.886 1521.76 825.495 1528.88 831.707C1571.27 868.734 1596.84 901.615 1611.78 938.343C1631.6 987.068 1623.65 1040.52 1613.25 1086.38C1611.35 1094.82 1609.47 1103.53 1607.65 1111.97C1597.92 1157.18 1587.86 1203.94 1565.09 1244.34C1540.4 1288.14 1496.64 1318.07 1438.58 1330.92C1412.76 1336.64 1386.13 1339.32 1360.35 1341.93C1356.94 1342.29 1353.51 1342.64 1350.08 1342.99C1341.11 1343.92 1331.9 1345.31 1322.99 1346.65C1306.49 1349.13 1289.41 1351.7 1272.45 1351.63C1263.34 1351.57 1254.04 1351.98 1245.05 1352.38C1226.48 1353.21 1207.28 1354.06 1188.26 1350.98C1161.58 1346.62 1134.96 1336.63 1109.19 1321.25C1093.38 1311.79 1078.07 1300.56 1062.41 1286.87C1030.67 1259.16 1003.24 1226.32 976.694 1194.55C972.302 1189.27 967.975 1183.8 963.385 1178C951.429 1162.89 939.072 1147.25 924.996 1134.95C904.411 1116.97 884.527 1110.04 862.434 1113.16C848.803 1115.07 835.135 1118.52 821.925 1121.85C807.034 1125.6 791.63 1129.48 775.979 1131.29C747.693 1134.56 719.752 1133.89 692.92 1129.33C670.994 1125.6 648.765 1121.39 627.264 1117.33C588.235 1109.93 547.878 1102.29 507.915 1097.25C495.264 1095.66 482.098 1094.34 469.394 1093.05C424.507 1088.54 378.102 1083.87 336.268 1066.26C317.168 1058.21 299.446 1047.11 283.601 1033.28Z" fill="black" fill-opacity="0.1"/>
    <path fill-rule="evenodd" clip-rule="evenodd" d="M1480.95 847.281C1469.29 837.105 1456.45 826.949 1441.7 816.244C1402.02 787.454 1366.84 776.312 1334.13 782.193C1293.98 789.426 1266.03 822.63 1246.16 850.74C1240.95 858.157 1235.76 865.679 1230.75 872.966C1209.51 903.895 1189.44 933.087 1162.04 958.799C1148.36 971.651 1133.28 983.454 1118.7 994.863C1092.08 1015.68 1064.56 1037.23 1044.75 1065.76C1002.94 1144.66 1082.13 1222.83 1107.4 1244.9C1110.37 1247.49 1113.4 1250.03 1116.42 1252.47C1199.16 1319.07 1313.2 1312.1 1391.78 1301.08C1458.46 1291.71 1501.55 1266.87 1527.39 1222.9C1553.28 1178.87 1563.62 1120.75 1570.32 1069.7C1577.5 1015.02 1568.16 963.297 1543.34 920.16C1529.03 895.288 1508.62 871.452 1480.95 847.281Z" fill="black" fill-opacity="0.1"/>
    <path fill-rule="evenodd" clip-rule="evenodd" d="M1446.24 873.048C1421.59 851.519 1396.28 838.756 1370.98 835.105C1337.71 830.324 1306.7 846.101 1278.81 882C1275.48 886.754 1272.12 891.53 1268.78 896.315C1236.83 941.943 1203.78 989.142 1163.02 1029.63C1122.29 1070.06 1106.52 1107.41 1114.8 1143.79C1121.29 1172.35 1135.78 1196.59 1157.85 1215.87C1223.47 1273.19 1331.85 1269.17 1363.52 1266.58C1426.78 1261.39 1467.39 1241.55 1491.31 1204.16C1515.31 1166.64 1528.41 1110.69 1527.27 1050.65C1526.25 995.971 1509.08 946.031 1477.65 906.237C1467.89 893.895 1457.32 882.725 1446.24 873.048Z" fill="black" fill-opacity="0.1"/>
    <path fill-rule="evenodd" clip-rule="evenodd" d="M601.466 778.726C600.201 777.62 598.931 776.534 597.654 775.445C557.237 741.117 505.876 717.974 445.009 706.648C375.518 693.709 329.352 707.045 307.806 746.242C282.383 805.564 249.526 916.577 315.581 992.711C319.75 997.508 324.309 1002.08 329.122 1006.28C364.519 1037.2 412.675 1047.85 459.447 1054.77C474.915 1057.05 490.675 1059.68 505.897 1062.24C545.032 1068.8 585.478 1075.6 625.613 1077.05C628.36 1077.14 631.21 1077.27 634.167 1077.39C670.843 1078.92 721.078 1081.03 745.253 1052.09C776.138 1015.09 740.456 959.777 716.854 923.165C714.805 920.017 712.867 917.018 711.096 914.213C687.09 876.199 649.624 820.788 601.466 778.726Z" fill="black" fill-opacity="0.1"/>
    <path fill-rule="evenodd" clip-rule="evenodd" d="M580.296 816.375C539.892 781.085 476.163 749.189 418.481 765.508C398.118 771.285 380.05 784.634 367.643 803.094C342.753 841.775 333.856 886.434 343.237 925.594C348.611 948.087 360.353 967.341 378.109 982.85C378.115 982.856 378.115 982.856 378.115 982.856C393.727 996.492 413.732 1007.06 437.558 1014.29C482.919 1028.01 539.539 1035.27 592.937 1034.18C642.159 1033.15 669.942 1018.7 675.54 991.217C681.123 963.762 667.29 934.143 653.011 908.809C638.399 882.847 620.233 857.9 599.011 834.646C593.308 828.381 587.008 822.237 580.296 816.375Z" fill="black" fill-opacity="0.1"/>
</svg>