<svg width="23" height="23" viewBox="0 0 23 23" fill="none" xmlns="http://www.w3.org/2000/svg">
    <path d="M14.3749 3.83325H8.62492C5.97896 3.83325 3.83325 5.97896 3.83325 8.62492V14.3749C3.83325 17.0209 5.97896 19.1666 8.62492 19.1666H14.3749C17.0209 19.1666 19.1666 17.0209 19.1666 14.3749V8.62492C19.1666 5.97896 17.0209 3.83325 14.3749 3.83325ZM17.7291 14.3749C17.7291 16.2245 16.2245 17.7291 14.3749 17.7291H8.62492C6.77533 17.7291 5.27075 16.2245 5.27075 14.3749V8.62492C5.27075 6.77533 6.77533 5.27075 8.62492 5.27075H14.3749C16.2245 5.27075 17.7291 6.77533 17.7291 8.62492V14.3749Z" fill="white"/>
    <path d="M11.4998 7.6665C9.38288 7.6665 7.6665 9.38288 7.6665 11.4998C7.6665 13.6168 9.38288 15.3332 11.4998 15.3332C13.6168 15.3332 15.3332 13.6168 15.3332 11.4998C15.3332 9.38288 13.6168 7.6665 11.4998 7.6665ZM11.4998 13.8957C10.1793 13.8957 9.104 12.8204 9.104 11.4998C9.104 10.1783 10.1793 9.104 11.4998 9.104C12.8204 9.104 13.8957 10.1783 13.8957 11.4998C13.8957 12.8204 12.8204 13.8957 11.4998 13.8957Z" fill="white"/>
    <path d="M15.6207 7.88999C15.9028 7.88999 16.1314 7.6613 16.1314 7.3792C16.1314 7.0971 15.9028 6.86841 15.6207 6.86841C15.3386 6.86841 15.1099 7.0971 15.1099 7.3792C15.1099 7.6613 15.3386 7.88999 15.6207 7.88999Z" fill="white"/>
</svg>