<svg width="618" height="837" viewBox="0 0 618 837" fill="none" xmlns="http://www.w3.org/2000/svg">
    <path fill-rule="evenodd" clip-rule="evenodd" d="M188.999 111.892C221.951 111.892 261.133 129.57 305.453 164.429C371.484 216.366 441.785 261.371 507.913 302.273C511.889 304.733 515.92 307.195 519.961 309.654C546.037 325.512 572.984 341.927 593.194 364.817C621.546 396.951 628.62 438.619 629.551 467.917C629.801 476.017 629.732 484.873 629.314 494.989C617.445 570.333 598.946 647.192 544.562 697.809C525.008 715.989 502.06 725.217 476.363 725.217H476.349C428.996 725.217 380.354 694.53 347.87 671.443C239.005 594.087 155.738 469.166 113.418 319.73C98.5748 267.305 83.4832 192.058 123.62 144.013C141.439 122.705 163.427 111.892 188.999 111.892ZM476.349 728.094H476.363C502.812 728.094 526.411 718.617 546.496 699.92C601.534 648.706 620.197 571.293 632.163 495.268C632.596 484.912 632.664 475.989 632.414 467.817C631.455 438.046 624.256 395.672 595.334 362.899C574.848 339.689 547.691 323.163 521.436 307.18C517.405 304.72 513.389 302.273 509.413 299.814C443.353 258.951 373.138 214.003 307.204 162.151C262.382 126.889 222.606 109.002 188.999 109.002C162.55 109.002 139.813 120.163 121.426 142.149C80.4113 191.253 95.6429 267.459 110.666 320.521C153.154 470.584 236.81 596.059 346.217 673.805C379.004 697.114 428.191 728.094 476.349 728.094Z" fill="#3DD598" fill-opacity="0.1"/>
    <path fill-rule="evenodd" clip-rule="evenodd" d="M127.589 4.1413C172.119 4.1413 225.067 28.0313 284.961 75.1375C374.193 145.324 469.194 206.143 558.558 261.416C563.931 264.741 569.378 268.067 574.84 271.39C610.077 292.82 646.493 315.002 673.803 345.936C712.118 389.36 721.677 445.669 722.936 485.262C723.273 496.208 723.181 508.175 722.616 521.846C706.576 623.663 681.577 727.527 608.085 795.929C581.659 820.498 550.648 832.968 515.922 832.968H515.903C451.913 832.968 386.179 791.498 342.282 760.3C195.164 655.763 82.6412 486.95 25.451 285.007C5.39221 214.162 -15.0021 112.475 39.237 47.5486C63.3178 18.7535 93.0315 4.1413 127.589 4.1413ZM515.904 836.856H515.922C551.665 836.856 583.556 824.049 610.697 798.783C685.074 729.574 710.295 624.96 726.466 522.223C727.05 508.229 727.143 496.171 726.804 485.127C725.509 444.895 715.78 387.633 676.696 343.344C649.012 311.979 612.313 289.646 576.833 268.047C571.386 264.724 565.958 261.416 560.585 258.094C471.315 202.873 376.428 142.132 287.327 72.0603C226.755 24.4079 173.004 0.236328 127.589 0.236328C91.8468 0.236328 61.1207 15.3193 36.2722 45.0299C-19.1533 111.387 1.43036 214.37 21.7323 286.077C79.1487 488.866 192.198 658.428 340.048 763.492C384.355 794.991 450.825 836.856 515.904 836.856Z" fill="#3DD598" fill-opacity="0.03"/>
    <path fill-rule="evenodd" clip-rule="evenodd" d="M560.115 523.54C554.61 557.464 538.573 616.853 492.847 636.562C480.239 641.996 466.69 644.748 452.555 644.748C414.252 644.748 370.582 624.955 322.757 585.903C245.301 522.677 185.147 413.629 169.486 308.085C164.579 275.036 164.372 232.325 191.236 216.425C199.605 211.478 209.262 208.962 219.965 208.962C256.518 208.962 299.812 237.87 328.456 256.994C331.68 259.15 334.752 261.193 337.644 263.098C354.238 273.994 371.387 284.568 387.982 294.783C421.59 315.48 456.322 336.881 487.634 361.831C510.109 379.732 528.789 401.149 546.439 429.196C562.257 454.354 561.283 485.831 560.337 516.271C560.269 518.702 560.183 521.135 560.115 523.54ZM452.555 656.296H452.57C468.245 656.283 483.325 653.226 497.363 647.165C548.289 625.219 565.675 561.204 571.498 524.997L571.567 524.235C571.637 521.718 571.706 519.189 571.789 516.631C572.747 485.945 573.818 451.17 556.124 423.026C537.765 393.838 518.267 371.516 494.75 352.782C462.897 327.404 427.858 305.819 393.974 284.943C377.448 274.756 360.352 264.236 343.912 253.436C341.033 251.547 337.991 249.517 334.794 247.377C304.996 227.488 259.979 197.426 219.965 197.426C207.193 197.426 195.574 200.47 185.426 206.474C159.436 221.859 150.265 256.618 158.144 309.781C174.212 418.022 235.99 529.933 315.544 594.865C365.453 635.629 411.553 656.296 452.555 656.296Z" fill="#3DD598"/>
    <path fill-rule="evenodd" clip-rule="evenodd" d="M297.407 339.203C325.441 339.203 363.771 358.841 378.214 366.236C412.556 383.829 491.333 433.157 480.963 510.987C470.539 549.041 443.729 557.062 423.076 557.062C403.356 557.076 379.964 549.556 358.882 536.436C331.652 519.495 308.275 494.782 291.28 464.955C282.521 449.584 254.919 396.48 267.247 358.329C271.348 345.639 281.493 339.203 297.407 339.203Z" fill="#3DD598" fill-opacity="0.29"/>
</svg>