<svg width="555" height="497" viewBox="0 0 555 497" fill="none" xmlns="http://www.w3.org/2000/svg">
    <path fill-rule="evenodd" clip-rule="evenodd" d="M281.465 427.272C253.034 403.769 223.629 379.468 188.894 366.256C138.005 346.897 82.0263 359.817 29.1185 376.664C19.6396 379.684 9.89664 382.796 -1.68722e-05 385.99L-1.64871e-05 377.18C9.0137 374.276 17.8954 371.448 26.5544 368.694C80.9216 351.381 138.582 338.153 191.905 358.436C227.941 372.147 257.88 396.897 286.838 420.833C292.85 425.8 299.076 430.941 305.201 435.85C353.565 474.652 394.569 492.032 427.064 487.539C447.516 484.702 465.147 473.047 479.472 452.888C515.599 402.047 524.664 332.836 532.654 271.768L533.354 266.477C534.54 257.448 535.848 248.218 537.115 239.299C541.768 206.537 546.586 172.667 546.586 139.449C546.586 124.449 545.632 110.738 543.675 97.524C538.838 64.8247 527.382 41.4541 509.617 28.0604C491.509 14.4012 467.742 10.9469 442.922 8.38867C388.343 10.2772 336.339 20.8597 283.948 40.7353C278.777 42.7045 273.626 44.6746 268.487 46.6438C224.361 63.5434 178.734 81.0221 129.853 87.3184C93.6357 91.9898 56.7386 92.4266 21.06 92.8534C14.1145 92.9449 7.06595 93.0356 -4.07166e-06 93.1487L-3.70582e-06 84.7792C7.03771 84.6586 14.0439 84.5671 20.9578 84.4855C56.3939 84.0596 93.0485 83.622 128.779 79.0112C176.655 72.8464 219.788 56.3237 265.465 38.8259C270.615 36.8542 275.767 34.8741 280.948 32.9148C334.32 12.6641 387.298 1.89938 442.922 0.0100029L443.206 1.93732e-05L443.489 0.029138C469.659 2.71055 494.783 6.36701 514.697 21.388C534.286 36.1445 546.828 61.3612 551.999 96.306C554.017 109.925 555 124.041 555 139.449C555 173.258 550.144 207.43 545.45 240.467C544.181 249.363 542.875 258.576 541.697 267.563L541.008 272.843C532.887 334.875 523.68 405.184 486.348 457.722C470.623 479.844 451.064 492.664 428.221 495.826C392.844 500.726 350.868 483.255 299.919 442.372C293.743 437.414 287.497 432.256 281.465 427.272Z" fill="#3DD598"/>
    <path fill-rule="evenodd" clip-rule="evenodd" d="M282.009 380.365C247.772 353.338 212.379 325.396 169.092 316.85C125.381 308.238 81.9411 321.743 39.9317 334.791C26.801 338.876 13.2826 343.028 -1.33452e-05 346.448L-1.32506e-05 344.285C13.0718 340.907 26.3752 336.813 39.3034 332.794C81.5684 319.655 125.269 306.075 169.508 314.804C213.28 323.432 248.887 351.541 283.316 378.726C291.605 385.266 300.167 392.031 308.598 398.305C363.243 438.953 407.625 446.035 440.513 419.332C472.775 393.146 484.276 346.049 492.676 311.642C502.111 273.004 511.745 227.355 511.745 181.738L511.745 181.728C511.745 164.989 510.419 148.87 507.805 133.846C498.25 78.9953 461.701 48.5137 399.264 43.2298C348.348 43.1191 300.735 62.8966 254.681 82.0117C249.739 84.0736 244.803 86.1264 239.869 88.1468C185.578 110.401 136.059 121.14 84.0287 121.921L75.4874 122.042C51.2106 122.388 25.3816 122.753 -3.66927e-06 125.09L-3.57689e-06 122.976C25.3816 120.661 51.1899 120.295 75.4667 119.95L83.9997 119.829C135.756 119.047 185.031 108.36 239.068 86.208C243.992 84.1859 248.927 82.1348 253.873 80.0812C300.117 60.8845 347.933 41.0264 399.355 41.147C462.958 46.5116 500.145 77.5832 509.882 133.48C512.517 148.634 513.853 164.867 513.853 181.728L513.853 181.738C513.853 227.58 504.177 273.379 494.712 312.141C486.252 346.831 474.65 394.328 441.841 420.955C408.11 448.348 362.857 441.283 307.341 399.986C298.88 393.687 290.308 386.922 282.009 380.365Z" fill="#3DD598" fill-opacity="0.1"/>
    <path fill-rule="evenodd" clip-rule="evenodd" d="M263.474 308.273C251.365 297.211 238.84 285.778 225.962 276.072C201.309 257.479 179.97 248.139 158.811 246.667C135.577 245.053 113.732 254.443 92.5929 263.53C87.4364 265.755 82.0965 268.049 76.8778 270.11C59.095 277.157 29.0511 289.026 -8.76923e-06 292.478L-8.67725e-06 290.374C28.685 286.924 58.4874 275.136 76.0975 268.172C81.2855 266.111 86.6146 263.826 91.7628 261.613C113.123 252.424 135.212 242.929 158.964 244.575C180.546 246.078 202.241 255.552 227.228 274.396C240.188 284.162 252.743 295.639 264.891 306.734C289.779 329.458 315.516 352.963 347.079 364.483C394.206 381.684 428.213 348.505 444.333 311.717C457.981 280.559 465.816 243.427 465.816 209.851C465.816 174.293 456.371 112.084 393.275 94.9361C357.912 90.8646 319.933 99.2113 280.394 119.731C268.225 126.045 256.075 133.6 244.332 140.891C222.708 154.323 200.345 168.214 176.068 175.726C146.185 184.975 114.439 181.21 83.7467 177.564C60.3302 174.793 36.1126 171.918 12.8886 174.843C8.7756 175.36 4.43926 176.184 -3.73285e-06 177.259L-3.63923e-06 175.117C4.34712 174.071 8.58302 173.268 12.6255 172.761C36.1126 169.807 60.453 172.7 84.0015 175.493C114.47 179.107 145.994 182.844 175.44 173.726C199.464 166.294 221.706 152.474 243.217 139.112C254.992 131.803 267.182 124.228 279.421 117.873C319.346 97.1502 357.729 88.7328 393.669 92.8958C458.276 110.429 467.922 173.705 467.922 209.851L467.922 209.861C467.922 243.711 460.03 281.137 446.259 312.548C429.763 350.21 394.846 384.154 346.359 366.446C314.401 354.776 288.511 331.138 263.474 308.273Z" fill="#3DD598" fill-opacity="0.29"/>
    <path fill-rule="evenodd" clip-rule="evenodd" d="M293.277 220.71C293.277 204.301 301.338 188.135 315.396 176.339C330.214 163.906 349.707 158.278 367.526 161.269C394.929 169.17 407.252 199.991 407.252 227.018C407.252 227.029 407.252 227.029 407.252 227.029C407.252 254.726 395.224 277.547 375.852 286.583C365.173 291.559 353.571 291.551 341.38 286.533C319.21 277.424 302.566 255.275 296.472 238.54C294.351 232.72 293.277 226.715 293.277 220.71Z" fill="#3DD598" fill-opacity="0.29"/>
</svg>