<svg width="44" height="50" viewBox="0 0 44 50" fill="none" xmlns="http://www.w3.org/2000/svg">
    <path d="M0 19.4382C0 26.2881 9.91647 31.8612 22 31.8612C34.0835 31.8612 44 26.2881 44 19.4382C44 19.0102 43.961 18.5865 43.8859 18.1699C43.8107 17.7534 43.6981 17.3413 43.5507 16.9377C43.2921 16.2301 42.928 15.5456 42.4657 14.8869C42.1363 14.4171 41.7564 13.9603 41.3316 13.5207C41.0759 13.257 40.8057 12.999 40.5183 12.7468C40.3261 12.5782 40.1282 12.4139 39.923 12.251C39.8205 12.1703 39.7164 12.0896 39.611 12.0089C39.3986 11.8489 39.1805 11.6933 38.9565 11.5391C38.7239 11.3806 38.4841 11.2249 38.2371 11.0721L42.2317 4.17034L38.4783 2.00857L34.3364 9.16402C34.3147 9.15537 34.293 9.14673 34.2713 9.13952C33.9781 9.02711 33.6805 8.92046 33.3785 8.8167C33.0766 8.71293 32.7688 8.61349 32.4568 8.51693C31.5221 8.23014 30.5469 7.97937 29.537 7.7704C29.2004 7.70122 28.8609 7.63493 28.5171 7.5744C27.0984 7.32364 25.619 7.15502 24.0963 7.07143V0.181152H21.9292H19.7621V7.08008C16.0059 7.29625 12.5198 8.05287 9.55385 9.2087L5.38731 2.00568L1.63396 4.16745L5.66614 11.1356C2.14972 13.3377 0 16.2489 0 19.4382ZM19.7636 11.6111V11.7783H21.9307H24.0977V11.6011C32.1303 12.1213 38.8438 15.5614 38.8438 19.4382C38.8438 23.6493 30.9268 27.3431 22 27.3431C13.0732 27.3431 5.15616 23.6493 5.15616 19.4382C5.15616 15.583 11.7917 12.1617 19.7636 11.6111Z" fill="#3DD598"/>
    <path fill-rule="evenodd" clip-rule="evenodd" d="M16.6227 32.1541V39.4875H21.9144L27.077 39.4875C29.0495 39.4875 30.4616 37.5456 30.4616 35.5387C30.4616 33.5319 29.0495 32.1541 27.077 32.1541H21.4359L16.6227 32.1541ZM21.7953 26.7951L21.7973 26.7918H27.0567C29.0292 26.7918 30.6334 25.1596 30.6334 23.1528C30.6334 21.1459 29.0292 19.5138 27.0567 19.5138H21.9128V19.519H16.6227V26.7951H21.7953ZM21.9128 2.37933e-05V0H19.4962V14.6668H11.791V44.0003H19.4977V49.6414L21.4359 49.6414H24.3365V44.0004H27.077C31.7143 44.0004 35.4683 40.0662 35.4683 35.3482C35.4683 32.9635 34.5026 30.8039 32.9505 29.2505C34.5026 27.6971 35.4683 25.5375 35.4683 23.1528C35.4683 18.4348 31.694 14.6668 27.0567 14.6668H24.2565V2.37933e-05H21.9128Z" fill="white"/>
</svg>