<svg width="131" height="44" viewBox="0 0 131 44" fill="none" xmlns="http://www.w3.org/2000/svg">
    <path d="M40.5866 37.6579C40.5866 37.6359 40.5866 37.6359 40.5866 37.614C40.5646 37.3067 40.4986 36.9995 40.4107 36.7142C40.3887 36.6484 40.3667 36.5825 40.3227 36.5167C40.2348 36.3411 40.1248 36.1656 40.0149 35.99C39.9709 35.9461 39.927 35.8803 39.883 35.8364C39.7951 35.7267 39.7071 35.6389 39.5972 35.5511C39.5532 35.5072 39.4872 35.4633 39.4433 35.4194C38.9596 35.0464 38.344 34.8489 37.7064 34.8489C37.6624 34.8489 37.6184 34.8489 37.5744 34.8489C37.1787 34.8708 36.8049 34.9586 36.4531 35.1122C36.2773 35.2 36.1234 35.2878 35.9695 35.3975C35.9035 35.4414 35.8155 35.5072 35.7496 35.5731C35.3319 35.9461 35.024 36.4289 34.8921 36.9776C34.8262 37.2409 34.7822 37.5481 34.8042 37.8334C34.8042 37.9212 34.8262 37.987 34.8262 38.0529C34.8262 38.0748 34.8262 38.0968 34.8262 38.1187C34.8262 38.1845 34.8482 38.2284 34.8482 38.2943C34.8482 38.3162 34.8482 38.3382 34.8701 38.3601C34.8921 38.4259 34.8921 38.4918 34.9141 38.5357C34.9141 38.5357 34.9141 38.5576 34.9141 38.5796C34.9141 38.6015 34.9361 38.6454 34.9581 38.6673C34.9801 38.7332 35.0021 38.7771 35.024 38.8429C35.068 38.9307 35.112 39.0185 35.156 39.1062C35.156 39.1062 35.156 39.1062 35.156 39.1282C35.5517 39.8304 36.2553 40.3352 37.0468 40.5107C37.0248 40.5107 36.9368 40.5546 36.9149 40.5766C36.8049 40.6204 36.651 40.6424 36.5191 40.6424C36.0354 40.6424 35.4418 40.4449 35.112 40.2474C34.7382 40.0279 34.4304 39.7207 34.1666 39.3696C34.1006 39.2818 34.0567 39.194 33.9907 39.1062C33.9907 39.0843 33.9687 39.0623 33.9687 39.0623C33.9247 38.9746 33.8808 38.8648 33.8368 38.7771C33.7928 38.6673 33.7488 38.5357 33.7049 38.4259C33.7049 38.382 33.6829 38.3601 33.6829 38.3162C33.6609 38.2504 33.6389 38.1845 33.6169 38.1187C33.5949 38.0529 33.5949 37.987 33.573 37.9212C33.551 37.8554 33.551 37.8115 33.529 37.7456C33.507 37.6798 33.507 37.614 33.507 37.5262C33.507 37.4823 33.485 37.4384 33.485 37.3726C33.485 37.2848 33.463 37.219 33.463 37.1312C33.463 37.0873 33.463 37.0434 33.441 36.9995C33.441 36.9117 33.441 36.8459 33.441 36.7581C33.441 36.7142 33.441 36.6703 33.441 36.6264C33.441 36.5387 33.441 36.4728 33.441 36.385C33.441 36.3411 33.441 36.2973 33.441 36.2534V36.2314C33.441 36.1656 33.441 36.0998 33.441 36.0339C33.441 36.012 33.441 36.012 33.441 35.99C33.441 35.9461 33.441 35.9022 33.441 35.8803C33.441 35.8584 33.441 35.8364 33.441 35.8364C33.441 35.7925 33.441 35.7486 33.441 35.7047C33.441 35.6828 33.441 35.6608 33.441 35.6389C33.441 35.595 33.441 35.5511 33.463 35.5292C33.463 35.4853 33.463 35.4414 33.485 35.4194C33.485 35.3975 33.485 35.3975 33.485 35.3756C33.485 35.3317 33.485 35.3097 33.485 35.2658C33.485 35.2219 33.485 35.1781 33.507 35.1342C33.507 35.0464 33.529 34.9586 33.529 34.8928C33.529 34.8489 33.551 34.805 33.551 34.7611C33.573 34.6733 33.573 34.6075 33.5949 34.5197C33.5949 34.4758 33.6169 34.4319 33.6169 34.388C33.6389 34.3002 33.6389 34.2344 33.6609 34.1466C33.6609 34.1027 33.6829 34.0589 33.6829 34.015C33.7269 33.7955 33.7708 33.5761 33.8148 33.3786C33.8588 33.1372 33.9027 32.9177 33.9467 32.6763C33.9467 32.6544 33.9467 32.6544 33.9467 32.6324C34.0127 32.2813 34.0786 31.9302 34.1666 31.5791C34.1666 31.5571 34.1666 31.5352 34.1886 31.5132C34.2545 31.1402 34.3425 30.789 34.4304 30.4379C34.4744 30.2623 34.5184 30.0648 34.5403 29.8893C34.5843 29.6698 34.6283 29.4504 34.6723 29.2309C34.7602 28.8579 34.8262 28.4848 34.8921 28.1117C34.9141 28.002 34.9361 27.8703 34.9581 27.7606C34.9801 27.6728 35.0021 27.585 35.0021 27.4973C35.0021 27.4753 35.0021 27.4534 35.024 27.4314C35.024 27.3875 35.046 27.3436 35.046 27.2998C35.046 27.2559 35.068 27.2339 35.068 27.212C35.068 27.19 35.09 27.1461 35.09 27.1242C35.09 27.0803 35.112 27.0364 35.112 26.9925C35.112 26.9706 35.112 26.9486 35.112 26.9486C35.156 26.6195 35.1999 26.3122 35.2219 25.983C35.2219 25.9172 35.2219 25.8514 35.2219 25.8075C35.2219 25.7855 35.2219 25.7855 35.2219 25.7636C35.2219 25.7197 35.2219 25.6539 35.2219 25.61C35.2219 25.588 35.2219 25.5661 35.2219 25.5661C35.2219 25.5222 35.2219 25.4783 35.2219 25.4125C35.2219 25.3905 35.2219 25.3686 35.2219 25.3466C35.2219 25.3027 35.2219 25.2589 35.1999 25.215C35.1999 25.193 35.1999 25.1491 35.1999 25.1272C35.1999 25.0833 35.1999 25.0394 35.1779 25.0175C35.1779 24.9736 35.156 24.9516 35.156 24.9077C35.156 24.8858 35.156 24.8419 35.134 24.82C35.112 24.7541 35.112 24.6883 35.09 24.6224C35.09 24.6224 35.09 24.6224 35.09 24.6005C35.09 24.5786 35.09 24.5786 35.09 24.5566C35.068 24.4908 35.068 24.4469 35.046 24.381C35.024 24.3372 35.0021 24.2713 34.9801 24.2274C34.9801 24.2055 34.9801 24.2055 34.9581 24.1835C34.9361 24.1177 34.8921 24.0738 34.8701 24.008C34.8482 23.986 34.8262 23.9421 34.8042 23.9202C34.7822 23.8763 34.7382 23.8324 34.7162 23.8105C34.6942 23.7885 34.6723 23.7666 34.6723 23.7446C34.6503 23.7227 34.6503 23.7007 34.6283 23.6788L34.6063 23.6569C34.5843 23.613 34.5403 23.5691 34.4964 23.5471C34.4964 23.5471 34.4964 23.5471 34.4744 23.5252C34.4304 23.4813 34.3864 23.4374 34.3425 23.3935L34.3205 23.3716C34.2985 23.3716 34.2985 23.3496 34.2765 23.3496C34.2545 23.3277 34.2325 23.3057 34.2106 23.2838C34.1886 23.2618 34.1666 23.2399 34.1226 23.218C33.7708 22.9546 33.419 22.7571 33.0453 22.5815C33.0453 22.5815 33.0233 22.5815 33.0233 22.5596C32.9793 22.5377 32.9354 22.5157 32.8914 22.4938H32.8694C32.6935 22.406 32.5176 22.3401 32.3417 22.2963C32.4517 22.2304 32.5396 22.1646 32.6495 22.0988C32.6935 22.0768 32.7155 22.0549 32.7595 22.011C32.8474 21.9451 32.9134 21.9012 33.0013 21.8354C33.0233 21.8135 33.0453 21.7915 33.0673 21.7696C33.1552 21.7037 33.2432 21.616 33.3091 21.5501C33.3311 21.5282 33.3531 21.5062 33.3531 21.5062C33.441 21.4185 33.529 21.3307 33.5949 21.2429C33.6169 21.2209 33.6169 21.199 33.6389 21.199C33.7269 21.1112 33.8148 21.0015 33.8808 20.9137C33.9027 20.8918 33.9027 20.8698 33.9247 20.8698C34.0127 20.7601 34.0786 20.6723 34.1446 20.5626C34.1666 20.5406 34.1666 20.5187 34.1886 20.4968C34.2545 20.387 34.3205 20.2773 34.3864 20.1676C34.4084 20.1456 34.4084 20.1237 34.4304 20.0798C34.4964 19.9701 34.5623 19.8603 34.6063 19.7506C34.6283 19.7067 34.6503 19.6848 34.6503 19.6409C34.6943 19.5312 34.7602 19.4214 34.8042 19.3117C34.8262 19.2678 34.8482 19.2239 34.8701 19.18C34.9141 19.0703 34.9581 18.9606 35.0021 18.8509C35.024 18.807 35.046 18.7411 35.068 18.6973C35.112 18.5875 35.134 18.4778 35.1779 18.3681C35.1999 18.3022 35.2219 18.2584 35.2439 18.1925C35.2659 18.0828 35.3099 17.9731 35.3318 17.8633C35.3538 17.7975 35.3758 17.7317 35.3758 17.6658C35.3978 17.5561 35.4198 17.4464 35.4418 17.3367C35.4638 17.2708 35.4858 17.205 35.4858 17.1172C35.5077 17.0075 35.5297 16.8978 35.5517 16.788C35.5737 16.7222 35.5737 16.6344 35.5957 16.5686C35.6177 16.4369 35.6397 16.3052 35.6397 16.1955C35.6397 16.1297 35.6616 16.0638 35.6616 15.998C35.6836 15.8005 35.7056 15.603 35.7276 15.4055C35.7496 15.0105 35.7716 14.5935 35.7716 14.1985C35.7716 13.3865 35.7056 12.5746 35.5517 11.7626C35.4858 11.3456 35.3978 10.9506 35.3099 10.5556C35.156 9.96309 34.9801 9.37057 34.7602 8.77806C34.6063 8.40499 34.4524 8.03192 34.2765 7.6808C33.7488 6.58354 33.0673 5.57406 32.2538 4.65237C32.2098 4.60848 32.1878 4.58653 32.1438 4.54264C32.0119 4.41097 31.902 4.2793 31.7701 4.14763C31.6162 3.99401 31.4623 3.8404 31.2864 3.70873C31.1984 3.62095 31.1105 3.53317 31.0006 3.44539C30.9346 3.4015 30.8906 3.35761 30.8247 3.31372C30.6488 3.18204 30.4729 3.02843 30.297 2.89676C30.1871 2.80898 30.0552 2.7212 29.9452 2.65536C29.7693 2.54564 29.6154 2.43591 29.4395 2.32618C29.3516 2.26035 29.2637 2.21646 29.1757 2.15062C29.0878 2.10673 29.0218 2.06284 28.9339 2.01895C28.758 1.93117 28.5821 1.82145 28.4062 1.73367C28.3182 1.68978 28.2303 1.64589 28.1424 1.60199C27.9885 1.53616 27.8565 1.47032 27.7026 1.40449C27.5707 1.33865 27.4388 1.27282 27.2849 1.22893H27.2629C27.2409 1.22893 27.2409 1.20698 27.2189 1.20698C27.131 1.16309 27.0211 1.14115 26.8891 1.09726C26.4494 0.943641 26.0097 0.81197 25.548 0.702244C25.0863 0.592519 24.6465 0.482793 24.1848 0.395012C23.7231 0.307232 23.2614 0.241397 22.7997 0.175561C22.25 0.0658354 21.5465 0.0219451 20.8429 0C20.3812 0 19.8975 0 19.4358 0.0219451C18.2486 0.0658354 17.0613 0.197506 15.918 0.416958C15.6762 0.460848 15.4343 0.504738 15.1925 0.570574C15.1265 0.592519 15.0606 0.592519 14.9946 0.614464C14.8187 0.658354 14.6208 0.702244 14.4449 0.746135C14.379 0.76808 14.335 0.76808 14.2691 0.790025C14.0492 0.85586 13.8293 0.921696 13.6315 0.987531H13.6095C13.4116 1.03142 13.2137 1.09726 13.0158 1.18504C12.9059 1.22893 12.818 1.25087 12.708 1.29476C12.686 1.31671 12.6421 1.31671 12.6201 1.33865C12.5761 1.3606 12.5541 1.3606 12.5102 1.38254C12.3782 1.44838 12.2463 1.49227 12.1144 1.5581H12.0924C11.8945 1.64589 11.7187 1.73367 11.5428 1.82145C11.2789 1.95312 11.0371 2.08479 10.7952 2.21646C10.7732 2.2384 10.7293 2.26035 10.7073 2.28229C10.6193 2.32618 10.5534 2.37007 10.4654 2.43591C10.3555 2.50175 10.2456 2.56758 10.1576 2.63342C10.0257 2.7212 9.8938 2.83092 9.76188 2.9187C9.54202 3.07232 9.34414 3.24788 9.14627 3.4015C9.10229 3.44539 9.03633 3.48928 8.99236 3.55511L8.97038 3.57706C8.9264 3.62095 8.88243 3.66484 8.81647 3.70873C8.81647 3.70873 8.81647 3.70873 8.79449 3.70873C8.68456 3.81845 8.59661 3.90623 8.48668 4.01596C8.48668 4.01596 8.48668 4.01596 8.46469 4.03791C8.42072 4.0818 8.37675 4.12569 8.33278 4.19152C8.22285 4.30125 8.1349 4.41097 8.04696 4.5207C8.02497 4.56459 7.981 4.58653 7.95901 4.63042C7.89305 4.7182 7.82709 4.78404 7.76113 4.87182C7.69518 4.9596 7.6512 5.02544 7.58524 5.09127C7.47531 5.24489 7.38737 5.37656 7.29942 5.50823C7.21148 5.6399 7.14552 5.77157 7.07956 5.8813C7.0136 5.99102 6.96963 6.10075 6.92566 6.18853C6.90367 6.23242 6.88169 6.25436 6.88169 6.29825C6.88169 6.3202 6.8597 6.3202 6.8597 6.34214C6.8597 6.36409 6.83771 6.38603 6.83771 6.40798C6.81573 6.42993 6.81573 6.45187 6.81573 6.47382C6.79374 6.49576 6.77175 6.49576 6.74977 6.51771L6.72778 6.53965C6.7058 6.5616 6.7058 6.5616 6.68381 6.58354C5.84833 7.30773 2.79225 10.4239 2.77026 16.4369V16.4589V16.5247L2.81424 16.6125C2.81424 16.6125 2.83622 16.6564 2.85821 16.7222C2.85821 16.7441 2.88019 16.7661 2.88019 16.81C2.88019 16.8319 2.90218 16.8758 2.90218 16.9197C2.90218 16.9416 2.92417 16.9636 2.92417 16.9855C2.94615 17.0514 2.96814 17.0953 2.99013 17.183C2.99013 17.205 3.01211 17.2489 3.01211 17.2928C3.07807 17.5122 3.12204 17.7536 3.188 18.017C3.20999 18.1925 3.25396 18.3681 3.25396 18.5656C3.27595 18.7411 3.27595 18.9387 3.27595 19.1142C3.27595 19.202 3.27595 19.2898 3.25396 19.3776C3.25396 19.4214 3.23197 19.4873 3.23197 19.5312C3.20999 19.619 3.188 19.7067 3.14403 19.7945C3.10006 19.9042 3.0341 20.014 2.96814 20.1237C2.83622 20.3651 2.68232 20.5845 2.5504 20.804C2.50643 20.8698 2.46246 20.9576 2.3965 21.0234C2.35252 21.0893 2.30855 21.1551 2.26458 21.2209C2.22061 21.2868 2.17664 21.3526 2.15465 21.4404C1.89081 21.9451 1.64897 22.4499 1.40712 22.9546C1.34116 23.0863 1.29719 23.218 1.23123 23.3277C0.945407 23.9641 0.659586 24.6005 0.417738 25.2589C0.329793 25.5222 0.241848 25.7855 0.153904 26.0489C0.131917 26.1147 0.109931 26.2025 0.0879449 26.2683C0.0659586 26.3342 0.0439724 26.4219 0.0219862 26.4878C0 26.5536 0 26.5975 0 26.6633C0 26.6633 0 26.6633 0 26.6853C0 26.7072 0 26.7072 0 26.7072C0 26.7292 0 26.7292 0 26.7292C0 26.795 0 26.8389 0 26.8828C0 26.9267 0 26.9925 0.0219862 27.0364C0.0439724 27.1242 0.0659586 27.212 0.0879449 27.2778C0.0879449 27.2778 0.0879449 27.2778 0.0879449 27.2998C0.0879449 27.2998 0.0879449 27.2997 0.0879449 27.3217C0.109931 27.3436 0.109931 27.3875 0.131917 27.4095C0.17589 27.4753 0.219862 27.5411 0.263835 27.585C0.285821 27.607 0.307807 27.6289 0.329793 27.6509C0.351779 27.6728 0.373766 27.6948 0.395752 27.7167L0.417738 27.7387L0.439724 27.7606C0.461711 27.7825 0.505683 27.8045 0.527669 27.8264C0.549655 27.8264 0.549655 27.8484 0.571642 27.8484C0.593628 27.8484 0.593628 27.8703 0.615614 27.8703C0.6376 27.8703 0.6376 27.8923 0.659586 27.8923C0.681573 27.8923 0.681573 27.9142 0.703559 27.9142C0.747531 27.9362 0.769518 27.9362 0.81349 27.9581C0.835476 27.9581 0.879449 27.98 0.901435 27.98C0.945407 28.002 0.98938 28.002 1.03335 28.0239C1.05534 28.0239 1.07732 28.0459 1.1213 28.0459C1.14328 28.0459 1.16527 28.0459 1.20924 28.0678C1.23123 28.0678 1.25321 28.0678 1.29719 28.0898C1.31917 28.0898 1.31917 28.0898 1.34116 28.0898C1.36315 28.0898 1.36315 28.0898 1.38513 28.0898C1.45109 28.0898 1.51705 28.1117 1.56102 28.1117C1.58301 28.1117 1.60499 28.1117 1.62698 28.1117C1.67095 28.1117 1.71492 28.1117 1.7589 28.1117C1.80287 28.1117 1.84684 28.1117 1.89081 28.1117C1.9128 28.1117 1.95677 28.1117 1.97876 28.1117C2.00075 28.1117 2.04472 28.1117 2.0667 28.1117C2.26458 28.1117 2.46246 28.0898 2.66033 28.0898C2.85821 28.0898 3.0341 28.0678 3.20999 28.0459C3.29793 28.0239 3.36389 28.0239 3.45184 28.0239C3.51779 28.0239 3.58375 28.002 3.62773 28.002C3.62773 28.0239 3.62773 28.0678 3.62773 28.0898C3.62773 28.1337 3.62773 28.1556 3.62773 28.1995C3.62773 28.2434 3.62773 28.3092 3.62773 28.3531C3.62773 28.3751 3.62773 28.397 3.62773 28.419C3.62773 28.4628 3.62773 28.5067 3.62773 28.5506C3.62773 28.5726 3.62773 28.5726 3.62773 28.5945C3.62773 28.6603 3.60574 28.7262 3.60574 28.7701C3.60574 28.792 3.60574 28.792 3.60574 28.814C3.60574 28.8798 3.58375 28.9456 3.58375 29.0115C3.56177 29.2529 3.51779 29.5382 3.49581 29.8234C3.49581 29.8673 3.49581 29.9112 3.49581 29.9551C3.49581 30.0209 3.49581 30.0648 3.49581 30.1307V30.1526L3.45184 30.3062L3.23197 30.8988V30.9426L3.25396 31.0304C3.25396 31.0304 3.25396 31.0304 3.25396 31.0524C3.25396 31.0743 3.25396 31.0743 3.25396 31.0963V31.1182C3.25396 31.1402 3.25396 31.1621 3.27595 31.184V31.206C3.27595 31.2279 3.29793 31.2499 3.29793 31.2718C3.29793 31.2938 3.29793 31.3157 3.31992 31.3157C3.31992 31.3377 3.3419 31.3596 3.3419 31.3815C3.3419 31.4035 3.36389 31.4254 3.36389 31.4474C3.36389 31.4693 3.38588 31.4913 3.38588 31.5132C3.38588 31.5352 3.40786 31.5571 3.42985 31.601C3.42985 31.6229 3.45184 31.6449 3.45184 31.6668C3.47382 31.6888 3.47382 31.7327 3.49581 31.7546C3.51779 31.7766 3.51779 31.7985 3.53978 31.8424C3.56177 31.8863 3.58375 31.9302 3.60574 31.9741C3.58375 32.018 3.58375 32.0399 3.56177 32.0838C3.56177 32.1057 3.53978 32.1277 3.51779 32.1716C3.51779 32.1935 3.49581 32.2155 3.49581 32.2374C3.47382 32.2593 3.47382 32.3032 3.47382 32.3252C3.47382 32.3471 3.45184 32.3691 3.45184 32.391C3.42985 32.413 3.42985 32.4569 3.42985 32.4788C3.42985 32.5007 3.42985 32.5227 3.40786 32.5666C3.40786 32.5885 3.38588 32.6324 3.38588 32.6763C3.38588 32.6983 3.38588 32.7202 3.36389 32.7641C3.36389 32.786 3.3419 32.8299 3.3419 32.8519C3.3419 32.8738 3.3419 32.8958 3.3419 32.9397C3.3419 32.9616 3.3419 33.0055 3.3419 33.0274C3.3419 33.0713 3.3419 33.0933 3.3419 33.1152C3.3419 33.1372 3.3419 33.1591 3.3419 33.181C3.3419 33.2469 3.36389 33.2908 3.38588 33.3347C3.45184 33.4883 3.56177 33.6419 3.69368 33.7297C3.69368 33.7297 3.71567 33.7516 3.73766 33.7516C3.78163 33.7736 3.80362 33.7955 3.86957 33.8175C3.89156 33.8175 3.93553 33.8394 3.95752 33.8613C3.95752 33.8613 3.97951 33.8613 3.97951 33.8833C4.00149 33.9052 4.02348 33.9272 4.04546 33.9272L4.06745 33.9491C4.08944 33.9711 4.11142 33.993 4.13341 34.015C4.15539 34.0369 4.1554 34.0369 4.17738 34.0589C4.19937 34.0808 4.19937 34.0808 4.22135 34.1027C4.24334 34.1247 4.24334 34.1466 4.26533 34.1686C4.26533 34.1905 4.28731 34.1905 4.28731 34.2125C4.3093 34.2344 4.3093 34.2564 4.33128 34.2783C4.33128 34.3002 4.35327 34.3002 4.35327 34.3222C4.35327 34.3441 4.37526 34.3441 4.37526 34.3661C4.39724 34.388 4.39724 34.4319 4.41923 34.4539C4.41923 34.4758 4.44122 34.4978 4.44122 34.5197C4.44122 34.5416 4.41923 34.5636 4.39724 34.6075C4.39724 34.6294 4.37526 34.6514 4.37526 34.6733C4.37526 34.6953 4.35327 34.7172 4.35327 34.7392C4.33128 34.7611 4.33128 34.783 4.33128 34.805C4.33128 34.8269 4.3093 34.8489 4.3093 34.8708C4.3093 34.8928 4.28731 34.9367 4.26533 34.9586C4.26533 34.9805 4.24334 35.0025 4.24334 35.0244C4.22135 35.0683 4.22135 35.1122 4.19937 35.1342C4.19937 35.1561 4.19937 35.1781 4.17738 35.1781C4.1554 35.2219 4.15539 35.2658 4.13341 35.3097C4.13341 35.3317 4.13341 35.3317 4.11142 35.3536C4.08944 35.3975 4.08944 35.4633 4.06745 35.5072C4.06745 35.5292 4.06745 35.5292 4.06745 35.5511C4.04546 35.595 4.04546 35.6608 4.02348 35.7267C4.02348 35.7486 4.02348 35.7486 4.02348 35.7706C4.00149 35.8364 4.00149 35.8803 4.00149 35.9461C4.00149 35.9681 4.00149 35.9681 4.00149 35.99C4.00149 36.0559 3.97951 36.1217 3.97951 36.1656C3.97951 36.1875 3.97951 36.1875 3.97951 36.2095C3.97951 36.2753 3.97951 36.3411 3.95752 36.385C3.95752 36.407 3.95752 36.4289 3.95752 36.4289C3.95752 36.4948 3.95752 36.5387 3.95752 36.6045C3.95752 36.6264 3.95752 36.6484 3.95752 36.6703C3.95752 36.7362 3.95752 36.78 3.95752 36.8459C3.95752 36.8678 3.95752 36.8898 3.95752 36.9117C3.95752 36.9556 3.95752 37.0214 3.97951 37.0653C3.97951 37.0873 4.00149 37.1312 4.00149 37.1531C4.00149 37.197 4.02348 37.2409 4.02348 37.2848C4.04546 37.3287 4.04546 37.3726 4.06745 37.4165C4.06745 37.4384 4.08944 37.4823 4.08944 37.5042C4.11142 37.5701 4.1554 37.6579 4.17738 37.7237C4.17738 37.7456 4.19937 37.7456 4.19937 37.7676C4.22135 37.8334 4.26533 37.8773 4.28731 37.9212C4.3093 37.9651 4.35327 38.0309 4.39724 38.0748C4.39724 38.0968 4.41923 38.0968 4.41923 38.1187C4.70505 38.4918 5.12279 38.7332 5.65046 38.8868C5.78237 38.9087 5.89231 38.9526 6.00224 38.9746C6.04621 38.9965 6.09018 38.9965 6.15614 39.0185C6.2221 39.0404 6.28806 39.0404 6.33203 39.0623C6.39799 39.0843 6.46395 39.0843 6.50792 39.1062C6.55189 39.1062 6.59586 39.1282 6.61785 39.1282C6.68381 39.1501 6.72778 39.1501 6.79374 39.1721C6.83771 39.1721 6.8597 39.194 6.90367 39.194C6.94764 39.194 6.99162 39.216 7.05758 39.216C7.10155 39.216 7.12353 39.2379 7.14552 39.2379C7.18949 39.2379 7.23347 39.2598 7.25545 39.2598C7.29942 39.2598 7.32141 39.2818 7.36538 39.2818C7.38737 39.2818 7.40936 39.2818 7.45333 39.3037C7.4973 39.3037 7.51929 39.3037 7.56326 39.3257C7.58525 39.3257 7.60723 39.3257 7.62922 39.3257C7.67319 39.3257 7.71716 39.3257 7.73915 39.3476C7.76113 39.3696 7.78312 39.3915 7.80511 39.4135C7.82709 39.4354 7.82709 39.4574 7.84908 39.4574C7.87107 39.4793 7.89305 39.5012 7.91504 39.5232C7.93702 39.5451 7.95901 39.5671 7.95901 39.5671C7.981 39.589 8.00298 39.611 8.02497 39.6329C8.04696 39.6549 8.06894 39.6768 8.09093 39.6987C8.11291 39.7207 8.1349 39.7426 8.15689 39.7646C8.17887 39.7865 8.20086 39.8085 8.22285 39.8304C8.24483 39.8524 8.2888 39.8743 8.31079 39.8963C8.33278 39.9182 8.35476 39.9402 8.37675 39.9621C8.42072 39.984 8.44271 40.006 8.48668 40.0499C8.50867 40.0718 8.53065 40.0938 8.57462 40.1157C8.6186 40.1377 8.66257 40.1815 8.70654 40.2035C8.72853 40.2254 8.75051 40.2474 8.7725 40.2474C8.83846 40.2913 8.90442 40.3352 8.99236 40.3791C9.05832 40.4229 9.10229 40.4449 9.16825 40.4668C9.16825 40.4668 9.16825 40.4668 9.19024 40.4668C9.2562 40.4888 9.32215 40.5327 9.36613 40.5546C9.52003 40.6204 9.69592 40.6863 9.87181 40.7302C9.8938 40.7302 9.91578 40.7521 9.95976 40.7521C10.0037 40.7741 10.0477 40.796 10.0917 40.796C10.1576 40.818 10.2016 40.8399 10.2456 40.8618C10.3115 40.8838 10.3555 40.9057 10.4215 40.9277C10.5094 40.9716 10.5974 40.9935 10.6633 41.0374C10.6853 41.0374 10.6853 41.0594 10.7073 41.0594C10.7952 41.1032 10.8612 41.1252 10.9271 41.1691C10.9491 41.1691 10.9491 41.191 10.9711 41.191C11.0371 41.2349 11.103 41.2788 11.169 41.3227C11.169 41.3227 11.191 41.3227 11.191 41.3446C11.2569 41.3885 11.3229 41.4324 11.3889 41.4983C11.4108 41.5202 11.4328 41.5421 11.4768 41.586V41.608C11.4768 41.608 11.4768 41.6299 11.4988 41.6299C11.4988 41.6519 11.5208 41.6519 11.5208 41.6738C11.5208 41.6958 11.5428 41.7177 11.5428 41.7616V41.7835C11.5428 41.8055 11.5647 41.8494 11.5647 41.8933C11.5647 41.9152 11.5647 41.9152 11.5647 41.9152C11.5647 41.9591 11.5867 41.981 11.5867 42.0249C11.5867 42.0469 11.5867 42.0469 11.5867 42.0688C11.5867 42.1127 11.6087 42.1566 11.6087 42.2005C11.6087 42.2224 11.6087 42.2444 11.6087 42.2444C11.6087 42.2883 11.6087 42.3322 11.6307 42.3761C11.6307 42.398 11.6307 42.4199 11.6307 42.4419C11.6307 42.4858 11.6307 42.5516 11.6527 42.5955C11.6527 42.6175 11.6527 42.6394 11.6527 42.6613C11.6527 42.7491 11.6527 42.815 11.6747 42.8808V42.9247C11.8066 42.9466 11.9385 42.9905 12.0704 43.0125C12.4662 43.1003 12.8619 43.188 13.2577 43.2539C13.5875 43.3197 13.9393 43.3855 14.2691 43.4294C14.423 43.4514 14.5769 43.4733 14.7528 43.4953C14.9506 43.5172 15.1485 43.5611 15.3684 43.583C15.5223 43.605 15.6982 43.6269 15.874 43.6489C16.0719 43.6708 16.2698 43.6928 16.4677 43.7147C16.6436 43.7367 16.7975 43.7586 16.9734 43.7586C17.1712 43.7805 17.3911 43.8025 17.589 43.8244C17.7429 43.8464 17.9188 43.8464 18.0727 43.8683C18.2925 43.8903 18.5124 43.8903 18.7323 43.9122C18.8862 43.9122 19.0401 43.9342 19.194 43.9342C19.4358 43.9561 19.6777 43.9561 19.9195 43.9561C20.0514 43.9561 20.1614 43.9561 20.2933 43.9781C20.667 43.9781 21.0408 44 21.4146 44C21.9422 44 22.4699 43.9781 22.9976 43.9781C23.1075 43.9781 23.2174 43.9781 23.3054 43.9561C23.8331 43.9342 24.3607 43.9122 24.8884 43.8683C24.9104 43.8683 24.9104 43.8683 24.9324 43.8683C25.482 43.8244 26.0317 43.7586 26.5593 43.7147C26.5813 43.7147 26.6253 43.7147 26.6473 43.6928C26.8672 43.6708 27.109 43.6269 27.3289 43.605C27.3728 43.605 27.3948 43.605 27.4388 43.605C27.7246 43.5611 28.0104 43.5172 28.2963 43.4733C28.2963 43.4733 28.2963 43.4733 28.3182 43.4733C28.6261 43.4294 28.9339 43.3636 29.2417 43.3197C29.5495 43.2539 29.8793 43.21 30.1871 43.1441H30.2091L30.341 43.1222C30.341 43.1222 30.341 43.1222 30.363 43.1222C30.8027 43.0344 31.1105 42.6394 31.1325 42.2005C31.1325 42.1127 31.1325 42.0249 31.1545 41.9372C31.1545 41.9152 31.1545 41.8713 31.1545 41.8494C31.1545 41.6519 31.1765 41.4544 31.1984 41.2569C31.1984 41.2349 31.1984 41.191 31.1984 41.1691C31.2204 40.8838 31.2424 40.6643 31.2644 40.4668C31.2644 40.4449 31.2644 40.4229 31.2644 40.401C31.2644 40.3132 31.2864 40.2254 31.2864 40.1377V40.1157C31.2864 40.0718 31.2864 40.0279 31.2864 39.984C31.2864 39.9621 31.2864 39.9401 31.2864 39.9182C31.2864 39.8743 31.2864 39.8524 31.2644 39.8085C31.2644 39.7865 31.2644 39.7646 31.2424 39.7426C31.2424 39.6988 31.2204 39.6768 31.2204 39.6329C31.2204 39.611 31.1984 39.5671 31.1984 39.5451C31.1984 39.5012 31.1765 39.4793 31.1545 39.4354C31.1545 39.4135 31.1325 39.3696 31.1105 39.3476C31.0885 39.3037 31.0885 39.2818 31.0665 39.2379C31.0665 39.2379 31.0665 39.216 31.0445 39.216V39.1721C30.9786 39.0404 30.9346 38.9307 30.8906 38.799C30.8686 38.7551 30.8467 38.6893 30.8247 38.6454C30.6928 38.2943 30.5828 37.8993 30.4949 37.5262C30.4729 37.3945 30.4289 37.2628 30.4069 37.1312C30.385 37.0434 30.385 36.9556 30.363 36.8898C30.341 36.7801 30.319 36.6703 30.319 36.5606C30.319 36.5387 30.319 36.5167 30.319 36.4948C30.297 36.2534 30.275 36.012 30.275 35.7706C30.253 35.5511 30.253 35.3536 30.253 35.1342C30.253 35.0464 30.253 34.9586 30.253 34.8489C30.253 34.8269 30.253 34.8269 30.253 34.805C30.253 34.6294 30.275 34.4539 30.275 34.2564V34.2344C30.275 34.0808 30.297 33.9491 30.297 33.7955C30.297 33.7736 30.297 33.7736 30.297 33.7736V33.7955C30.297 33.7516 30.297 33.7297 30.297 33.6858V33.6638C30.297 33.598 30.319 33.5541 30.319 33.4883V33.4663C30.319 33.4224 30.319 33.4005 30.319 33.3566C30.319 33.3347 30.319 33.3127 30.319 33.3127C30.341 33.1591 30.363 33.0055 30.385 32.8519C30.4069 32.6983 30.4289 32.5446 30.4509 32.3691C30.4509 32.3032 30.4729 32.2593 30.4729 32.1935C30.4949 32.0399 30.5389 31.8863 30.5608 31.7327C30.7147 30.9426 30.9126 30.1087 31.0885 29.3187V29.2748V29.2309C31.1325 29.0773 31.1545 28.9456 31.1984 28.792C31.1984 28.7481 31.2204 28.7042 31.2424 28.6384C31.2864 28.4628 31.3304 28.2653 31.3743 28.0898C31.5942 27.2339 31.8141 26.4 31.88 25.7416C31.902 25.6539 31.902 25.5661 31.902 25.4564C31.902 25.3905 31.902 25.3466 31.902 25.3027C31.902 25.2808 31.902 25.2369 31.902 25.215C31.902 25.193 31.902 25.1711 31.902 25.1491C31.902 25.1272 31.902 25.1052 31.902 25.0613C31.902 25.0394 31.902 25.0394 31.902 25.0175C31.902 24.9955 31.902 24.9736 31.902 24.9516C31.902 24.9297 31.902 24.9077 31.902 24.9077C31.902 24.8858 31.902 24.8858 31.902 24.8638C31.902 24.8419 31.902 24.82 31.88 24.798V24.7761C31.88 24.7541 31.858 24.7322 31.858 24.7322C31.858 24.7102 31.858 24.7102 31.836 24.7102C31.8141 24.6883 31.8141 24.6663 31.7921 24.6444C31.6162 24.5127 31.4183 24.4249 31.2204 24.381C31.1545 24.3591 31.0885 24.3372 31.0226 24.3372C30.8906 24.3152 30.7807 24.2933 30.6708 24.2933C30.5608 24.2933 30.4729 24.2713 30.385 24.2713C30.275 24.2713 30.1651 24.2713 30.0771 24.2933H30.0112H29.9672L28.9778 24.3372L28.736 23.4155L28.4941 22.4279L28.2743 21.5501L28.3842 21.4843L28.758 21.2648L29.0438 21.0893C29.2417 20.9796 29.3956 20.8698 29.5715 20.7601C29.8793 20.5626 30.1651 20.3651 30.385 20.1456C30.4729 20.0798 30.5389 20.014 30.6048 19.9262C30.6928 19.8384 30.7807 19.7287 30.8686 19.6409C31.0665 19.3776 31.2424 19.0923 31.3963 18.7631C31.4403 18.6753 31.4623 18.5875 31.5062 18.4998C31.6162 18.2364 31.7041 17.9292 31.8141 17.6C31.902 17.2708 31.9899 16.9416 32.0559 16.5905C32.0779 16.415 32.1219 16.2613 32.1438 16.0858C32.1878 15.7347 32.2318 15.4055 32.2538 15.0544C32.2538 14.8788 32.2758 14.7032 32.2758 14.5277C32.2758 14.1766 32.2758 13.8254 32.2538 13.4743C32.2318 13.1232 32.1878 12.7721 32.1438 12.4209C31.9899 11.3676 31.7041 10.3362 31.3304 9.37057C31.2424 9.15112 31.1545 8.95362 31.0445 8.73416C30.9786 8.60249 30.8906 8.47082 30.8247 8.31721C30.8247 8.29526 30.8027 8.27332 30.8027 8.25137C30.7587 8.18554 30.7367 8.09776 30.6928 8.03192C30.6048 7.8783 30.5389 7.74663 30.4509 7.61496C30.363 7.48329 30.297 7.37357 30.2091 7.2419C30.1871 7.198 30.1431 7.15411 30.1211 7.11022C30.0991 7.06633 30.0552 7.02244 30.0332 6.97855C29.9232 6.84688 29.8353 6.71521 29.7254 6.5616L29.7034 6.53965C29.6154 6.42992 29.5275 6.3202 29.4395 6.21047C29.4176 6.18853 29.3956 6.16658 29.3956 6.14464C29.3076 6.05686 29.2417 5.96908 29.1537 5.8813C29.1317 5.85935 29.1317 5.85935 29.1097 5.83741C29.0218 5.74963 28.9339 5.6399 28.8459 5.55212L28.8239 5.53017C28.8019 5.50823 28.758 5.46434 28.714 5.44239C28.5161 5.24489 28.3182 5.04738 28.0984 4.87182C28.0764 4.84988 28.0544 4.82793 28.0324 4.80598C27.9665 4.76209 27.9225 4.7182 27.8565 4.65237C27.8345 4.65237 27.8345 4.63042 27.8126 4.63042C27.7686 4.58653 27.7026 4.54264 27.6367 4.49875C27.6147 4.47681 27.6147 4.47681 27.5927 4.45486C27.5267 4.41097 27.4828 4.36708 27.4168 4.32319C27.3948 4.30125 27.3948 4.30125 27.3728 4.30125C27.3069 4.25736 27.2629 4.21347 27.1969 4.16958C27.175 4.16958 27.175 4.14763 27.153 4.14763C27.087 4.10374 27.0211 4.05985 26.9771 4.01596L26.9551 3.99401C26.9331 3.97207 26.8891 3.95012 26.8452 3.92818H26.8232C26.8012 3.90623 26.7792 3.88429 26.7352 3.88429C26.7352 3.88429 26.7133 3.88429 26.7133 3.86234C26.6473 3.81845 26.5813 3.77456 26.4934 3.73067C26.4934 3.73067 26.4934 3.73067 26.4714 3.73067C26.4274 3.70873 26.3835 3.68678 26.3395 3.64289C26.3395 3.64289 26.3175 3.64289 26.3175 3.62095C26.2955 3.599 26.2735 3.599 26.2735 3.599C26.2076 3.55511 26.1416 3.53317 26.0976 3.51122C25.9877 3.44539 25.8778 3.37955 25.7459 3.33566C25.6799 3.29177 25.6139 3.26983 25.548 3.24788C25.4161 3.18204 25.2841 3.13815 25.1522 3.07232C25.1083 3.05037 25.0643 3.02843 25.0423 3.02843C24.9763 3.00648 24.8884 2.96259 24.8005 2.94065C24.7565 2.9187 24.7345 2.9187 24.6905 2.89676C24.6685 2.87481 24.6246 2.87481 24.6026 2.85287C24.5806 2.85287 24.5586 2.83092 24.5366 2.83092C24.4926 2.80898 24.4487 2.80898 24.4047 2.78703C24.3387 2.76509 24.2508 2.74314 24.1848 2.7212H24.1629C24.0089 2.67731 23.855 2.63342 23.6792 2.58953C23.6572 2.58953 23.6352 2.58953 23.6352 2.56758C23.4593 2.52369 23.2834 2.4798 23.0855 2.43591H23.0635C23.0635 2.43591 23.0416 2.43591 23.0196 2.43591H22.9976C22.8217 2.39202 22.6238 2.37007 22.4479 2.34813H22.4259C22.294 2.32618 22.1621 2.32618 22.0302 2.30424C21.9862 2.30424 21.9422 2.28229 21.8983 2.28229C21.8983 2.28229 21.8983 2.28229 21.8763 2.28229C21.7664 2.26035 21.6784 2.26035 21.5685 2.2384C21.5465 1.99701 21.4585 1.97506 21.3706 1.97506C21.3706 1.97506 21.3706 1.97506 21.3486 1.97506C21.3046 1.97506 21.2387 1.95312 21.1947 1.95312C21.1727 1.95312 21.1727 1.95312 21.1507 1.95312C21.0408 1.93117 20.9309 1.93117 20.8209 1.90923C20.777 1.90923 20.755 1.90923 20.711 1.90923C20.689 1.90923 20.6451 1.90923 20.6231 1.90923C20.6011 1.90923 20.5571 1.90923 20.5351 1.90923C20.4912 1.90923 20.4692 1.90923 20.4252 1.90923C20.3812 1.90923 20.3592 1.90923 20.3153 1.90923C20.1833 1.90923 20.0734 1.90923 19.9635 1.90923C19.8096 1.90923 19.6557 1.90923 19.5238 1.90923C19.4798 1.90923 19.4358 1.90923 19.4138 1.90923C19.2819 1.90923 19.15 1.90923 19.0181 1.90923C18.9961 1.90923 18.9741 1.90923 18.9521 1.90923C18.7982 1.90923 18.6443 1.93117 18.4904 1.93117C18.4684 1.93117 18.4684 1.93117 18.4464 1.93117C18.2266 1.95312 18.0067 1.95312 17.7868 1.97506C17.7429 1.97506 17.6989 1.97506 17.6549 1.97506C17.501 1.95312 17.3251 1.97506 17.1492 1.99701C17.1273 1.99701 17.1273 1.99701 17.1053 1.99701C17.0173 1.99701 16.9074 2.01895 16.8195 2.01895C16.7095 2.01895 16.6216 2.0409 16.5116 2.0409C16.4677 2.0409 16.4237 2.0409 16.4017 2.06284C16.2478 2.08479 16.0939 2.10673 15.962 2.12868C15.874 2.15062 15.7861 2.15062 15.6982 2.17257C15.5223 2.19451 15.3684 2.21646 15.2145 2.26035C15.1265 2.28229 15.0606 2.28229 14.9726 2.30424C14.8407 2.32618 14.7088 2.34813 14.5549 2.37007C14.4889 2.39202 14.423 2.39202 14.357 2.41396C14.313 2.41396 14.2691 2.43591 14.2251 2.43591C14.1371 2.45786 14.0492 2.4798 13.9612 2.50175C13.7854 2.54564 13.6315 2.58953 13.4776 2.61147C13.4336 2.63342 13.3896 2.63342 13.3456 2.65536C13.2797 2.67731 13.1917 2.69925 13.1258 2.7212C13.0818 2.7212 13.0598 2.74314 13.0378 2.74314C12.4442 2.9187 11.8945 3.11621 11.3889 3.33566C11.3889 3.33566 11.4768 3.11621 12.1364 2.74314C12.2903 2.65536 12.4442 2.58953 12.6201 2.50175C12.708 2.45786 12.818 2.41396 12.9059 2.39202C12.9939 2.34813 13.0818 2.32618 13.1697 2.28229C13.2357 2.26035 13.3017 2.2384 13.3676 2.19451C13.4776 2.15062 13.5875 2.10673 13.6974 2.06284C13.9173 1.97506 14.1591 1.90923 14.379 1.84339C14.401 1.84339 14.401 1.84339 14.423 1.82145C14.5769 1.77756 14.7528 1.73367 14.9067 1.68978C14.9726 1.66783 15.0386 1.66783 15.1045 1.64589C15.5443 1.53616 15.984 1.44838 16.4677 1.38254C16.4897 1.38254 16.5116 1.38254 16.5336 1.38254C16.9514 1.31671 17.3911 1.27282 17.8308 1.22893C17.8528 1.22893 17.8528 1.22893 17.8748 1.22893C18.0067 1.22893 18.1386 1.20698 18.2705 1.20698C18.2925 1.20698 18.2925 1.20698 18.3145 1.20698C18.4464 1.20698 18.5784 1.18504 18.7323 1.18504C18.7542 1.18504 18.7982 1.18504 18.8202 1.18504C18.9521 1.18504 19.084 1.18504 19.216 1.16309C19.2599 1.16309 19.2819 1.16309 19.3259 1.16309C19.4798 1.16309 19.6557 1.16309 19.8316 1.16309C20.0294 1.16309 20.2273 1.16309 20.4472 1.16309C20.4912 1.16309 20.5571 1.16309 20.6011 1.16309C20.755 1.16309 20.9089 1.18504 21.0628 1.18504C21.1288 1.18504 21.1947 1.18504 21.2607 1.20698C21.3046 1.20698 21.3266 1.20698 21.3706 1.20698C21.4585 1.20698 21.5465 1.22893 21.6344 1.22893C21.6564 1.22893 21.6784 1.22893 21.7004 1.22893C21.7444 1.22893 21.7883 1.22893 21.8323 1.22893C21.9862 1.25087 22.1621 1.25087 22.316 1.27282C22.272 1.27282 22.2501 1.27282 22.2281 1.27282C22.272 1.27282 22.316 1.27282 22.382 1.29476C22.4479 1.31671 22.5359 1.31671 22.6018 1.31671C22.5359 1.29476 22.4479 1.29476 22.382 1.29476C22.4699 1.31671 22.5798 1.31671 22.6678 1.33865C22.7777 1.3606 22.9096 1.38254 23.0196 1.40449C23.1735 1.42643 23.3054 1.44838 23.4373 1.49227C23.5033 1.51421 23.5692 1.51421 23.6352 1.53616C25.3721 1.90923 26.9551 2.56758 28.3182 3.46733C28.4502 3.55511 28.5821 3.64289 28.714 3.73067L28.736 3.75262C28.8459 3.8404 28.9558 3.92818 29.0658 4.01596C29.0878 4.03791 29.1097 4.03791 29.1097 4.05985C29.2197 4.14763 29.3076 4.21347 29.4176 4.30125C29.4395 4.32319 29.4615 4.34514 29.4835 4.36708C29.5934 4.47681 29.7034 4.56459 29.8133 4.67431L29.8353 4.69626L29.8573 4.7182C29.9892 4.82793 30.0991 4.9596 30.231 5.09127C30.253 5.11322 30.297 5.15711 30.319 5.17905C30.4289 5.28878 30.5389 5.42045 30.6488 5.55212C30.6928 5.59601 30.7147 5.61795 30.7587 5.66185C30.8906 5.81546 31.0226 5.99102 31.1545 6.16658C31.1984 6.21047 31.2204 6.25436 31.2424 6.29825C31.3743 6.47382 31.5062 6.67132 31.6162 6.86883C31.6382 6.89077 31.6382 6.91272 31.6602 6.93466C31.7701 7.08828 31.858 7.26384 31.946 7.4394C31.9899 7.50524 32.0119 7.57107 32.0559 7.63691C32.1219 7.76858 32.1878 7.8783 32.2318 8.00997C32.2978 8.14165 32.3417 8.25137 32.4077 8.38304C32.4297 8.44888 32.4736 8.51471 32.4956 8.58055C32.5616 8.75611 32.6495 8.95362 32.7155 9.12918C32.7155 9.15112 32.7155 9.15112 32.7375 9.17307C32.7595 9.2389 32.7814 9.30474 32.8034 9.34863C32.8254 9.41446 32.8474 9.4803 32.8694 9.52419C32.9134 9.61197 32.9354 9.7217 32.9573 9.80948C33.0673 10.1387 33.1552 10.4678 33.2212 10.797C33.2432 10.8628 33.2651 10.9506 33.2651 11.0165C33.3091 11.214 33.3531 11.4334 33.3971 11.6309C33.419 11.7187 33.419 11.7845 33.441 11.8723C33.507 12.2454 33.551 12.6185 33.573 12.9915C33.6609 14.001 33.6389 15.0105 33.507 15.9761C33.419 16.5905 33.3091 17.183 33.1332 17.7756C32.9793 18.3022 32.8254 18.7631 32.6275 19.1581C32.5836 19.2678 32.5396 19.3556 32.4956 19.4434C32.3857 19.6409 32.2978 19.8165 32.1658 19.9701C32.0999 20.0579 32.0559 20.1456 31.9899 20.2115C31.4843 20.8479 30.8027 21.3746 29.8353 21.9451L30.0771 22.9327C30.0771 22.9327 30.0771 22.9327 30.0991 22.9327V22.9546C30.1211 22.9546 30.1431 22.9546 30.1871 22.9327H30.2091C30.231 22.9327 30.275 22.9327 30.297 22.9327H30.319C30.341 22.9327 30.385 22.9327 30.4069 22.9327H30.4289C30.4729 22.9327 30.4949 22.9327 30.5389 22.9327C30.6048 22.9327 30.6708 22.9327 30.7587 22.9327C30.8247 22.9327 30.8686 22.9327 30.9346 22.9546C30.9566 22.9546 30.9566 22.9546 30.9786 22.9546C31.0665 22.9546 31.1545 22.9766 31.2204 22.9985C31.3523 23.0204 31.4843 23.0424 31.6162 23.0863C31.7481 23.1302 31.902 23.1741 32.0339 23.2399C32.0339 23.2399 32.0339 23.2399 32.0559 23.2399C32.1438 23.2838 32.2318 23.3057 32.3197 23.3716C32.3197 23.3716 32.3417 23.3716 32.3417 23.3935C32.4297 23.4374 32.5176 23.5032 32.6275 23.5691C32.6935 23.613 32.7375 23.6569 32.8034 23.7227C32.8034 23.7227 32.8254 23.7227 32.8254 23.7446C32.8694 23.7885 32.8914 23.8324 32.9354 23.8763C32.9573 23.9202 32.9793 23.9421 33.0013 23.986C33.0453 24.0519 33.0893 24.1397 33.1332 24.2274C33.1772 24.3152 33.1772 24.403 33.2212 24.4908C33.2651 24.7102 33.2871 24.9516 33.2871 25.215C33.2651 25.9172 33.0893 26.7292 32.8694 27.6289C32.8474 27.7387 32.8034 27.8484 32.7814 27.9581C32.7155 28.1776 32.6715 28.419 32.6056 28.6384C32.5396 28.8579 32.4956 29.0993 32.4297 29.3187C32.3637 29.5601 32.3197 29.8015 32.2538 30.0429C32.1438 30.5257 32.0339 31.0085 31.924 31.4913C31.88 31.7327 31.836 31.9521 31.7921 32.1935C31.6162 33.203 31.5502 34.1466 31.5722 35.0025C31.5722 35.2219 31.5722 35.4414 31.5942 35.6389C31.5942 35.7047 31.5942 35.7486 31.5942 35.8145C31.5942 35.8364 31.5942 35.8584 31.5942 35.8803C31.5942 36.012 31.6162 36.1436 31.6382 36.2534C31.6382 36.2534 31.6382 36.2534 31.6382 36.2753C31.6382 36.2973 31.6382 36.3192 31.6382 36.3411C31.6602 36.4509 31.6602 36.5387 31.6821 36.6484C31.6821 36.6703 31.6821 36.6923 31.6821 36.7142C31.6821 36.78 31.7041 36.8678 31.7261 36.9337C31.7261 36.9556 31.7261 36.9556 31.7261 36.9776C31.7261 37.0214 31.7481 37.0434 31.7481 37.0873C31.7921 37.2409 31.8141 37.4165 31.858 37.5701V37.592C31.858 37.614 31.88 37.6359 31.88 37.6579C31.902 37.7456 31.946 37.8554 31.968 37.9431C31.9899 38.009 32.0119 38.0748 32.0339 38.1406C32.0339 38.1626 32.0559 38.1845 32.0559 38.2065C32.0779 38.2723 32.0999 38.3162 32.1219 38.382C32.1219 38.404 32.1438 38.4259 32.1438 38.4479C32.1438 38.4698 32.1658 38.4918 32.1658 38.5137C32.1878 38.5576 32.2098 38.5796 32.2098 38.6234C32.2758 38.7771 32.3417 38.9087 32.4077 39.0623C32.4736 39.1721 32.5176 39.2598 32.5836 39.3696C32.6275 39.4354 32.6715 39.5012 32.7155 39.5451C32.7375 39.5671 32.7375 39.589 32.7595 39.611C32.7814 39.6549 32.8034 39.6768 32.8254 39.7207C32.8474 39.7426 32.8694 39.7646 32.8694 39.7865C32.8914 39.8304 32.9134 39.8524 32.9573 39.8963C32.9793 39.9182 32.9793 39.9402 33.0013 39.9621C33.0453 40.006 33.0893 40.0718 33.1332 40.1157C33.1552 40.1596 33.1992 40.1815 33.2212 40.2254C33.2212 40.2254 33.2212 40.2474 33.2432 40.2474C33.3531 40.3571 33.463 40.4668 33.573 40.5766C33.5949 40.5985 33.6389 40.6204 33.6609 40.6643C33.6829 40.6643 33.6829 40.6863 33.7049 40.6863C33.7049 40.6863 33.7269 40.7082 33.7488 40.7082C33.7708 40.7302 33.8148 40.7521 33.8368 40.7741C33.8368 40.7741 33.8588 40.7741 33.8588 40.796L33.8808 40.818C33.9027 40.8399 33.9247 40.8399 33.9467 40.8618C33.9687 40.8838 34.0127 40.9057 34.0347 40.9277C34.0347 40.9277 34.0347 40.9277 34.0566 40.9496C34.0786 40.9716 34.1226 40.9935 34.1666 41.0155C34.1886 41.0374 34.2325 41.0594 34.2545 41.0594C34.2765 41.0813 34.2985 41.0813 34.2985 41.0813C34.3205 41.1032 34.3425 41.1032 34.3645 41.1252C34.3864 41.1471 34.4304 41.1471 34.4524 41.1691C34.4744 41.1691 34.4744 41.191 34.4964 41.191C34.5184 41.191 34.5403 41.213 34.5623 41.213C34.6063 41.2349 34.6503 41.2569 34.6942 41.2788C34.7162 41.3007 34.7602 41.3007 34.7822 41.3227C34.8482 41.3446 34.8921 41.3666 34.9581 41.3885C34.9801 41.3885 35.0021 41.4105 35.024 41.4105C35.112 41.4324 35.1999 41.4544 35.2659 41.4983C35.2879 41.4983 35.3099 41.4983 35.3318 41.5202C35.3978 41.5421 35.4638 41.5641 35.5297 41.5641C35.5517 41.5641 35.5517 41.5641 35.5737 41.5641C35.6616 41.586 35.7716 41.608 35.8595 41.6299C35.9255 41.6519 35.9914 41.6519 36.0574 41.6519C36.0794 41.6519 36.1014 41.6519 36.1453 41.6738C36.2333 41.6738 36.2992 41.6958 36.3872 41.6958C36.4092 41.6958 36.4092 41.6958 36.4312 41.6958C36.5191 41.6958 36.5851 41.6958 36.673 41.6958C36.695 41.6958 36.695 41.6958 36.717 41.6958C36.8929 41.6958 37.0688 41.6958 37.2666 41.6738C37.3546 41.6738 37.4205 41.6519 37.5085 41.6519H37.5305C37.6184 41.6299 37.6844 41.6299 37.7723 41.608C37.7723 41.608 37.7723 41.608 37.7943 41.608C37.8383 41.608 37.8822 41.586 37.9042 41.586C37.9702 41.5641 38.0362 41.5421 38.1021 41.5202C38.1241 41.5202 38.1241 41.5202 38.1461 41.4983C38.1901 41.4763 38.256 41.4544 38.3 41.4324H38.322C38.6738 41.2788 39.0035 41.0593 39.3114 40.818C39.3553 40.7741 39.3993 40.7302 39.4433 40.6863C39.4653 40.6643 39.4653 40.6643 39.4872 40.6424C39.5092 40.6204 39.5532 40.5766 39.5752 40.5546C39.5972 40.5327 39.5972 40.5107 39.6192 40.5107C39.6411 40.4888 39.6631 40.4449 39.6851 40.4229C39.7071 40.401 39.7071 40.3791 39.7291 40.3791C39.7511 40.3571 39.7731 40.3132 39.7951 40.2913C39.817 40.2693 39.817 40.2474 39.839 40.2254C39.861 40.2035 39.883 40.1596 39.905 40.1377C39.927 40.1157 39.927 40.0938 39.949 40.0718C39.9709 40.0499 39.9929 40.006 40.0149 39.984C40.0369 39.9621 40.0369 39.9401 40.0589 39.9182C40.0809 39.8743 40.1029 39.8524 40.1248 39.8085C40.1248 39.7865 40.1468 39.7646 40.1468 39.7646C40.1688 39.7207 40.2128 39.6549 40.2348 39.611C40.2568 39.5451 40.3007 39.4793 40.3227 39.4135C40.3447 39.3476 40.3667 39.2818 40.3887 39.216V39.194C40.4107 39.1062 40.4546 39.0185 40.4766 38.9087C40.4766 38.8868 40.4986 38.8648 40.4986 38.8429C40.4986 38.799 40.5206 38.7771 40.5206 38.7332C40.5206 38.6893 40.5426 38.6673 40.5426 38.6234C40.5426 38.6015 40.5426 38.5796 40.5646 38.5576C40.5646 38.5357 40.5646 38.5137 40.5646 38.4918C40.5646 38.4698 40.5646 38.4479 40.5646 38.4259C40.5646 38.382 40.5646 38.3382 40.5866 38.2943V38.2723C40.5866 38.1845 40.5866 38.0968 40.5866 38.009C40.5866 37.9431 40.5866 37.8773 40.5866 37.8334C40.5866 37.7017 40.5866 37.6798 40.5866 37.6579Z" fill="white"/>
    <path d="M76.6648 10.4023H70.9484C70.7945 10.4023 70.6846 10.534 70.6846 10.6657V11.6752C70.6846 11.8068 70.7725 11.9166 70.9044 11.9385L72.6413 12.2238V25.9395L70.9044 26.2248C70.7725 26.2467 70.6846 26.3565 70.6846 26.4881V27.4976C70.6846 27.6512 70.8165 27.7609 70.9484 27.7609H76.6648C76.8187 27.7609 76.9287 27.6293 76.9287 27.4976V26.4881C76.9287 26.3565 76.8407 26.2467 76.7088 26.2248L74.9719 25.9395V12.2457L76.7088 11.9604C76.8407 11.9385 76.9287 11.8288 76.9287 11.6971V10.6876C76.9287 10.5121 76.7967 10.4023 76.6648 10.4023Z" fill="white"/>
    <path d="M92.868 18.5435C93.6814 18.2582 94.319 17.7973 94.8247 17.1829C95.3304 16.5684 95.5503 15.8881 95.5503 15.0981C95.5503 13.518 95.0446 12.3549 94.0112 11.5649C92.9999 10.7749 91.5488 10.3799 89.7459 10.3799H84.0515H82.3805C82.2266 10.3799 82.1167 10.5116 82.1167 10.6432V11.6527C82.1167 11.7844 82.2046 11.8941 82.3366 11.916L84.0735 12.2013V25.917L82.3366 26.2023C82.2046 26.2243 82.1167 26.334 82.1167 26.4657V27.4751C82.1167 27.6288 82.2486 27.7385 82.3805 27.7385H90.4934C92.2523 27.7385 93.6814 27.3215 94.7148 26.4876C95.7701 25.6318 96.2758 24.4467 96.2758 22.8447C96.2758 21.7914 95.968 20.8258 95.3524 20.0357C94.7588 19.2896 93.9233 18.7629 92.868 18.5435ZM92.4062 17.0512C91.8786 17.534 91.197 17.7754 90.3615 17.7973H86.404V12.2452H89.7459C90.8672 12.2452 91.7247 12.4866 92.3183 12.9475C92.9119 13.4083 93.1978 14.1325 93.1978 15.0542C93.1978 15.9101 92.9339 16.5684 92.4062 17.0512ZM92.9999 25.1709C92.4062 25.6976 91.5708 25.9609 90.4934 25.9609H86.404V19.6407H90.8452C91.8786 19.6407 92.6481 19.926 93.1318 20.5185C93.6375 21.0891 93.8793 21.9011 93.8793 22.9325C93.9013 23.8761 93.5935 24.6442 92.9999 25.1709Z" fill="white"/>
    <path d="M115.514 26.0489L114.459 25.8953L108.544 10.3362C108.5 10.2265 108.391 10.1606 108.281 10.1606H106.632C106.522 10.1606 106.412 10.2265 106.39 10.3362L100.366 25.8953L99.3102 26.0489C99.1783 26.0709 99.0684 26.1806 99.0684 26.3123V27.2998C99.0684 27.4534 99.2003 27.5631 99.3322 27.5631H103.773C103.927 27.5631 104.037 27.4315 104.037 27.2998V26.2903C104.037 26.1586 103.949 26.0489 103.817 26.027L102.718 25.8295L103.905 22.6255H110.897L112.04 25.8295L110.941 26.027C110.809 26.0489 110.721 26.1586 110.721 26.2903V27.2998C110.721 27.4534 110.853 27.5631 110.985 27.5631H115.448C115.602 27.5631 115.712 27.4315 115.712 27.2998V26.3342C115.756 26.2025 115.646 26.0709 115.514 26.0489ZM104.653 20.6943L107.401 13.211H107.467L110.171 20.6943H104.653Z" fill="white"/>
    <path d="M129.454 19.9264C128.508 19.0486 127.101 18.3683 125.254 17.9075C123.715 17.5125 122.638 17.0955 121.934 16.5688C121.253 16.0641 120.901 15.4277 120.901 14.6816C120.901 13.8257 121.231 13.1235 121.912 12.5968C122.572 12.0701 123.561 11.8067 124.792 11.8067C125.584 11.8067 126.288 11.9165 126.881 12.114C127.475 12.3115 127.958 12.5748 128.31 12.8601L128.706 15.1205C128.728 15.2521 128.838 15.3399 128.97 15.3399H130.245C130.399 15.3399 130.509 15.2082 130.509 15.0766V12.2237C130.509 12.1579 130.487 12.0701 130.421 12.0262C129.827 11.4556 129.036 10.9728 128.09 10.5778C127.101 10.1609 125.98 9.94141 124.748 9.94141C122.902 9.94141 121.385 10.4023 120.241 11.302C119.076 12.2237 118.504 13.321 118.504 14.7035C118.504 15.9983 119.01 17.0516 120.065 17.9294C121.099 18.7853 122.55 19.4217 124.397 19.8606C125.936 20.2337 126.969 20.6726 127.563 21.2212C128.156 21.7479 128.464 22.4282 128.464 23.2182C128.464 24.0741 128.112 24.7544 127.431 25.2591C126.749 25.7639 125.804 26.0052 124.617 26.0052C123.737 26.0052 122.99 25.8955 122.352 25.6541C121.714 25.4127 121.165 25.1055 120.725 24.7324L120.307 22.4501C120.285 22.3185 120.175 22.2307 120.043 22.2307H118.768C118.614 22.2307 118.504 22.3624 118.504 22.494V25.3469C118.504 25.4127 118.526 25.4786 118.57 25.5444C119.208 26.2028 120.043 26.7733 121.033 27.1903C122.066 27.6292 123.275 27.8486 124.617 27.8486C126.463 27.8486 127.98 27.4097 129.124 26.5758C130.289 25.72 130.839 24.6008 130.839 23.1963C130.883 21.9015 130.399 20.8262 129.454 19.9264Z" fill="white"/>
    <path d="M66.7049 34.0149L66.3751 33.971C66.0673 33.9271 65.8474 33.7735 65.6935 33.5101C65.5616 33.2468 65.4956 32.8518 65.4956 32.3251V23.152C65.4956 22.1206 65.2758 21.2647 64.858 20.5625C64.4403 19.8602 63.7367 19.3555 62.7913 19.0483C63.6708 18.6752 64.3523 18.1485 64.8141 17.5121C65.2758 16.8538 65.5176 16.1076 65.5176 15.2737C65.5176 13.7156 65.0119 12.5306 64.0006 11.6966C62.9892 10.8627 61.5161 10.4238 59.6253 10.4238H53.9309H52.2599C52.106 10.4238 51.9961 10.5555 51.9961 10.6872V11.6966C51.9961 11.8283 52.084 11.938 52.216 11.96L53.9309 12.2453V25.961L52.216 26.2463C52.084 26.2682 51.9961 26.3779 51.9961 26.5096V27.5191C51.9961 27.6727 52.128 27.7824 52.2599 27.7824H57.9763C58.1303 27.7824 58.2402 27.6508 58.2402 27.5191V26.5096C58.2402 26.3779 58.1522 26.2682 58.0203 26.2463L56.2834 25.961V21.4403V20.0358V18.1924V17.2488V12.2453H59.6253C60.8346 12.2453 61.736 12.5086 62.2856 13.0572C62.8573 13.5839 63.1431 14.3301 63.1431 15.2298C63.1431 16.1954 62.8353 16.9196 62.2417 17.4243C61.648 17.9291 60.6806 18.1705 59.3615 18.1705H58.8998C58.7459 18.1705 58.6359 18.3021 58.6359 18.4338V19.7505C58.6359 19.9041 58.7678 20.0139 58.8998 20.0139H60.043C60.9665 20.0139 61.714 20.2991 62.2637 20.8697C62.8133 21.4403 63.0991 22.2084 63.0991 23.152V32.2812C63.0991 33.1809 63.297 33.971 63.6708 34.6074C64.0445 35.2438 64.7041 35.573 65.6275 35.573H66.6169C66.7708 35.573 66.8808 35.4413 66.8808 35.3096V34.2782C66.9467 34.1465 66.8368 34.0368 66.7049 34.0149Z" fill="white"/>
    <path d="M70.9946 33.5765V33.0938H72.9954V33.5765L72.3578 33.6863V35.6174H75.0621V33.6863L74.4245 33.5765V33.0938H75.0621H75.8096H76.4472V33.5765L75.8096 33.6863V38.0972L76.4472 38.207V38.6898H74.4465V38.185L75.0841 38.0753V36.21H72.3798V38.0972L73.0174 38.207V38.6898H71.0166V38.185L71.6542 38.0753V33.6643L70.9946 33.5765Z" fill="white"/>
    <path d="M82.0319 35.9246C82.0319 36.7365 81.79 37.4168 81.3283 37.9435C80.8666 38.4702 80.251 38.7555 79.5035 38.7555C78.7779 38.7555 78.1843 38.4921 77.7446 37.9435C77.2829 37.4168 77.063 36.7365 77.063 35.9246V35.8368C77.063 35.0248 77.2829 34.3445 77.7446 33.8178C78.2063 33.2692 78.7779 33.0059 79.5035 33.0059C80.251 33.0059 80.8446 33.2692 81.3283 33.8178C81.79 34.3665 82.0319 35.0248 82.0319 35.8368V35.9246ZM81.2843 35.8368C81.2843 35.1784 81.1304 34.6517 80.8226 34.2567C80.5148 33.8398 80.0751 33.6423 79.5254 33.6423C78.9978 33.6423 78.58 33.8398 78.2942 34.2567C78.0084 34.6737 77.8545 35.2004 77.8545 35.8368V35.9246C77.8545 36.5829 78.0084 37.1096 78.2942 37.5266C78.58 37.9435 78.9978 38.141 79.5254 38.141C80.0751 38.141 80.5148 37.9435 80.8226 37.5266C81.1304 37.1096 81.2843 36.5829 81.2843 35.9246V35.8368Z" fill="white"/>
    <path d="M87.0224 33.0715V34.3005H86.3848L86.3188 33.6641H85.0876V38.075L85.7252 38.1848V38.6675H83.7244V38.1848L84.362 38.075V33.6641H83.1088L83.0649 34.3005H82.4053V33.0715H87.0224Z" fill="white"/>
    <path d="M87.4399 38.6675V38.1848L88.0775 38.075V33.6641L87.4399 33.5543V33.0715H91.7492V34.4102H91.0897L91.0237 33.6641H88.8251V35.4636H90.9577V36.0561H88.8251V38.0531H91.0677L91.1336 37.3069H91.7712V38.6456H87.4399V38.6675Z" fill="white"/>
    <path d="M92.4536 38.6675V38.1848L93.0912 38.075V33.6641L92.4536 33.5543V33.0715H93.0912H93.8387H94.4763V33.5543L93.8387 33.6641V38.075H95.7735L95.8395 37.4386H96.4771V38.6675H92.4536Z" fill="white"/>
    <path d="M101.116 34.7393H100.544L100.413 33.9493C100.303 33.8615 100.149 33.7738 99.9509 33.7079C99.753 33.6421 99.5331 33.6201 99.2913 33.6201C98.8955 33.6201 98.5877 33.7079 98.3679 33.8835C98.148 34.059 98.0381 34.2785 98.0381 34.5418C98.0381 34.7832 98.148 34.9807 98.3679 35.1563C98.5877 35.3099 98.9395 35.4635 99.4232 35.5952C100.017 35.7488 100.457 35.9463 100.764 36.2316C101.072 36.5169 101.226 36.868 101.226 37.285C101.226 37.7458 101.05 38.0969 100.676 38.3822C100.303 38.6456 99.819 38.7992 99.2253 38.7992C98.7856 38.7992 98.4118 38.7334 98.082 38.5797C97.7523 38.4481 97.4664 38.2506 97.2686 38.0311V36.9997H97.8402L97.9941 37.8117C98.148 37.9214 98.3239 38.0311 98.5218 38.0969C98.7196 38.1628 98.9615 38.2067 99.2473 38.2067C99.6211 38.2067 99.9289 38.1189 100.149 37.9653C100.369 37.8117 100.479 37.5922 100.479 37.3069C100.479 37.0436 100.391 36.8461 100.193 36.6705C99.9948 36.4949 99.6651 36.3633 99.1814 36.2316C98.5877 36.0999 98.126 35.8805 97.7962 35.6171C97.4664 35.3319 97.2905 35.0027 97.2905 34.5857C97.2905 34.1468 97.4664 33.7738 97.8402 33.4885C98.214 33.2032 98.6977 33.0496 99.2913 33.0496C99.687 33.0496 100.039 33.1154 100.369 33.2471C100.698 33.3787 100.94 33.5543 101.138 33.7299V34.7393H101.116Z" fill="white"/>
    <path d="M108.283 38.0313C108.129 38.2068 107.887 38.3604 107.557 38.5141C107.227 38.6677 106.809 38.7335 106.304 38.7335C105.556 38.7335 104.941 38.4702 104.479 37.9435C103.995 37.4168 103.775 36.7365 103.775 35.9026V35.8148C103.775 34.9809 104.017 34.3006 104.479 33.7739C104.941 33.2472 105.578 32.9839 106.348 32.9839C106.766 32.9839 107.117 33.0497 107.447 33.1814C107.755 33.3131 108.019 33.4886 108.239 33.6861V34.6956H107.711L107.535 33.9275C107.403 33.8178 107.249 33.73 107.073 33.6642C106.897 33.5983 106.678 33.5545 106.436 33.5545C105.82 33.5545 105.358 33.752 105.029 34.1689C104.699 34.5859 104.545 35.1126 104.545 35.7709V35.8806C104.545 36.539 104.699 37.0876 105.029 37.5046C105.336 37.9215 105.776 38.119 106.348 38.119C106.656 38.119 106.897 38.0971 107.095 38.0313C107.293 37.9654 107.447 37.8996 107.557 37.8118V36.5829L106.634 36.539V35.9904H108.305V38.0313H108.283Z" fill="white"/>
    <path d="M111.625 33.0935C112.241 33.0935 112.702 33.2252 113.032 33.4885C113.362 33.7518 113.516 34.1468 113.516 34.6296C113.516 34.893 113.45 35.1344 113.296 35.3538C113.142 35.5733 112.922 35.7269 112.636 35.8586C112.944 35.9683 113.164 36.1219 113.296 36.3414C113.428 36.5608 113.494 36.8461 113.494 37.1753V37.6142C113.494 37.7897 113.516 37.9214 113.56 37.9872C113.604 38.075 113.67 38.1189 113.78 38.1409L113.956 38.1628V38.6675H113.538C113.252 38.6675 113.032 38.5578 112.9 38.3603C112.768 38.1628 112.724 37.8995 112.724 37.6142V37.1753C112.724 36.868 112.636 36.6266 112.461 36.4511C112.285 36.2755 112.043 36.1658 111.757 36.1658H110.548V38.075L111.185 38.1848V38.6675H109.185V38.1848L109.822 38.075V33.6641L109.185 33.5543V33.0715H109.822H111.625V33.0935ZM110.548 35.5733H111.537C111.955 35.5733 112.263 35.4855 112.461 35.3319C112.658 35.1783 112.746 34.9369 112.746 34.6296C112.746 34.3444 112.658 34.103 112.461 33.9274C112.285 33.7518 111.999 33.6641 111.603 33.6641H110.526V35.5733H110.548Z" fill="white"/>
    <path d="M119.474 35.9246C119.474 36.7365 119.232 37.4168 118.77 37.9435C118.309 38.4702 117.693 38.7555 116.945 38.7555C116.22 38.7555 115.626 38.4921 115.186 37.9435C114.725 37.4168 114.505 36.7365 114.505 35.9246V35.8368C114.505 35.0248 114.725 34.3445 115.186 33.8178C115.648 33.2692 116.22 33.0059 116.945 33.0059C117.693 33.0059 118.287 33.2692 118.77 33.8178C119.232 34.3665 119.474 35.0248 119.474 35.8368V35.9246ZM118.726 35.8368C118.726 35.1784 118.572 34.6517 118.265 34.2567C117.957 33.8398 117.517 33.6423 116.967 33.6423C116.44 33.6423 116.022 33.8398 115.736 34.2567C115.45 34.6737 115.296 35.2004 115.296 35.8368V35.9246C115.296 36.5829 115.45 37.1096 115.736 37.5266C116.022 37.9435 116.44 38.141 116.967 38.141C117.517 38.141 117.957 37.9435 118.265 37.5266C118.572 37.1096 118.726 36.5829 118.726 35.9246V35.8368Z" fill="white"/>
    <path d="M122.003 33.0715V33.5543L121.366 33.6641V36.868C121.366 37.285 121.476 37.6142 121.717 37.8336C121.959 38.0531 122.267 38.1628 122.663 38.1628C123.081 38.1628 123.41 38.0531 123.674 37.8336C123.938 37.6142 124.048 37.285 124.048 36.868V33.6641L123.41 33.5543V33.0715H124.795H125.433V33.5543L124.795 33.6641V36.868C124.795 37.4825 124.598 37.9434 124.202 38.2725C123.806 38.6017 123.3 38.7553 122.663 38.7553C122.047 38.7553 121.541 38.6017 121.168 38.2725C120.794 37.9434 120.596 37.4825 120.596 36.868V33.6641L119.958 33.5543V33.0715H120.596H122.003Z" fill="white"/>
    <path d="M128.533 33.0715C129.126 33.0715 129.588 33.2251 129.918 33.5324C130.248 33.8396 130.424 34.2346 130.424 34.7394C130.424 35.2441 130.248 35.6611 129.918 35.9463C129.588 36.2536 129.126 36.4072 128.533 36.4072H127.346V38.0531L127.983 38.1628V38.6456H125.982V38.1848L126.62 38.075V33.6641L125.982 33.5543V33.0715H126.62H128.533ZM127.346 35.8366H128.533C128.907 35.8366 129.192 35.7269 129.39 35.5294C129.588 35.3319 129.676 35.0685 129.676 34.7613C129.676 34.4541 129.588 34.1907 129.39 33.9932C129.192 33.7957 128.929 33.686 128.533 33.686H127.346V35.8366Z" fill="white"/>
</svg>