<svg width="40" height="40" viewBox="0 0 40 40" fill="none" xmlns="http://www.w3.org/2000/svg">
<path d="M20 28H4V6H36V19H34V8H6V26H20V28Z" fill="#3F87F5"/>
<path d="M20 19.2408L4.409 7.80685L5.592 6.19385L20 16.7598L34.409 6.19385L35.592 7.80685L20 19.2408Z" fill="#3F87F5"/>
<path d="M29 30C27.346 30 26 28.654 26 27C26 25.346 27.346 24 29 24C30.654 24 32 25.346 32 27C32 28.654 30.655 30 29 30ZM29 26C28.448 26 28 26.449 28 27C28 27.551 28.448 28 29 28C29.552 28 30 27.551 30 27C30 26.449 29.552 26 29 26Z" fill="#3F87F5"/>
<path d="M33 30C31.346 30 30 28.654 30 27H32C32 27.551 32.448 28 33 28V30Z" fill="#3F87F5"/>
<path d="M33 30V28C33.552 28 34 27.551 34 27H36C36 28.655 34.655 30 33 30Z" fill="#3F87F5"/>
<path d="M36 27H34C34 24.243 31.757 22 29 22V20C32.86 20 36 23.141 36 27Z" fill="#3F87F5"/>
<path d="M24 27H22C22 23.141 25.141 20 29 20V22C26.244 22 24 24.244 24 27Z" fill="#3F87F5"/>
<path d="M29 34C25.141 34 22 30.859 22 27H24C24 29.757 26.243 32 29 32V34Z" fill="#3F87F5"/>
</svg>
