<svg width="1049" height="1176" viewBox="0 0 1049 1176" fill="none" xmlns="http://www.w3.org/2000/svg">
    <path fill-rule="evenodd" clip-rule="evenodd" d="M1190.38 913.683C1182.59 949.235 1151.46 961.9 1124.9 961.9C1117.24 961.9 1109.53 960.91 1101.96 958.988C1071.83 951.266 1025.19 923.452 1020.78 888.336C1019.44 877.677 1022.31 868.134 1029.3 859.959C1047.19 839.036 1086.31 832.657 1104.5 832.229C1105.44 832.212 1106.37 832.195 1107.3 832.195C1132 832.195 1153.77 839.858 1170.28 854.378C1188.04 869.972 1189.09 889.486 1190.3 912.08L1190.38 913.683ZM1124.9 964.032C1152.31 964.032 1184.47 950.897 1192.48 913.993L1192.51 913.85L1192.41 911.962C1191.22 889.847 1190.11 868.973 1171.67 852.766C1154.77 837.928 1132.51 830.063 1107.3 830.063C1106.35 830.063 1105.4 830.08 1104.45 830.105C1085.93 830.55 1046.07 837.063 1027.7 858.566C1020.3 867.227 1017.27 877.333 1018.68 888.604C1023.22 924.702 1070.74 953.171 1101.43 961.036C1109.18 963.025 1117.07 964.032 1124.9 964.032Z" fill="black" fill-opacity="0.1"/>
    <path fill-rule="evenodd" clip-rule="evenodd" d="M441.65 375.948C438.369 398.58 436.279 421.705 434.273 444.07C432.065 468.833 429.766 494.437 425.829 519.271C421.944 543.789 408.968 586.377 365.769 596.182C358.627 597.802 351.082 598.641 343.377 598.641C284.794 598.641 216.643 550.273 194.553 493.023C165.749 418.325 240.698 345.101 289.528 313.606C310.023 300.392 341.514 284.634 375.203 284.634C387.759 284.634 399.727 286.897 410.731 291.344C441.978 303.985 443.102 341.607 441.65 375.948Z" fill="black" fill-opacity="0.1"/>
    <path opacity="0.1" fill-rule="evenodd" clip-rule="evenodd" d="M1113.83 638.181C1124.21 638.181 1134.42 638.529 1144.18 639.266C1210.68 644.163 1274.27 661.868 1327.71 678.548C1344.69 683.854 1362.32 688.772 1379.37 693.545C1420.41 705 1462.85 716.865 1501.35 735.204C1533.46 750.51 1570.74 780.406 1565.99 835.934C1551.25 929.356 1509.62 1054.12 1394.98 1117.62C1334.51 1151.11 1276.83 1169.89 1223.54 1173.48C1219.63 1173.74 1215.67 1173.88 1211.75 1173.88C1165.44 1173.88 1118.88 1155.97 1065.24 1117.52C1053.87 1109.36 1042.46 1100.96 1031.42 1092.87C993.612 1065.06 954.518 1036.32 912.041 1013.46C889.388 1001.29 865.452 990.331 842.312 979.739C809.462 964.699 775.496 949.163 744.61 929.826C730.745 921.156 717.047 911.462 703.812 902.104C669.845 878.067 634.729 853.207 592.991 842.799C571.598 837.453 548.525 834.952 520.434 834.952C498.814 834.952 476.807 836.446 455.515 837.906C439.979 838.947 423.924 840.055 408.329 840.525C401.691 840.735 395.522 840.836 389.479 840.836C349.235 840.836 290.257 836.773 242.988 801.741C212.052 778.803 188.132 747.6 165.001 717.396C156.071 705.738 146.83 693.69 137.338 682.318C127.442 670.474 117.094 658.63 107.073 647.176C78.8807 614.964 49.7236 581.647 27.5074 544.149C-1.85107 494.54 -5.77063 437.546 15.8916 374.773C35.422 318.158 61.7507 258.868 94.1475 198.534C121.232 148.116 156.717 113.641 199.672 96.0699C236.022 81.1933 276.384 74.2691 326.691 74.2691C359.457 74.2691 393.147 77.1882 425.745 80.0166C458.2 82.8232 491.764 85.7323 524.261 85.7323C535.961 85.7323 546.738 85.3747 557.254 84.637C588.148 82.4439 614.049 76.6762 636.391 66.995C653.337 59.6486 668.578 48.9837 683.325 38.6662C692.842 32.0173 702.687 25.1326 712.876 19.2198C732.692 7.71554 750.04 2.1317 765.903 2.1317C772.609 2.1317 779.139 3.14473 785.316 5.16408C810.579 13.4018 823.562 36.218 817.603 61.9525C810.268 93.6837 777.796 112.534 749.125 129.153C743.133 132.636 737.476 135.924 732.222 139.225C695.05 162.573 669.77 204.752 654.923 268.161C642.308 321.979 630.013 392.344 646.899 459.359C661.394 516.834 691.642 571.002 729.897 607.956C765.601 642.464 815.312 659.246 881.877 659.246C920.828 659.246 960.661 653.692 992.681 649.245C1031.87 643.794 1072.4 638.181 1113.83 638.181ZM1211.74 1176C1211.74 1176 1211.74 1176 1211.75 1176C1215.72 1176 1219.73 1175.87 1223.68 1175.61C1277.28 1172 1335.26 1153.11 1395.99 1119.48C1511.38 1055.57 1553.27 930.154 1568.1 836.186C1572.95 779.366 1534.96 748.87 1502.25 733.278C1463.59 714.856 1421.07 702.971 1379.93 691.498C1362.9 686.722 1345.28 681.806 1328.33 676.518C1274.78 659.819 1211.05 642.053 1144.33 637.134C1134.52 636.419 1124.26 636.049 1113.83 636.049C1072.25 636.049 1031.65 641.683 992.378 647.135C960.443 651.58 920.686 657.114 881.877 657.114C815.883 657.114 766.658 640.538 731.366 606.42C693.379 569.731 663.341 515.944 648.947 458.837C632.169 392.272 644.415 322.235 656.97 268.653C671.692 205.818 696.669 164.068 733.338 141.027C738.567 137.749 744.207 134.47 750.183 130.997C779.214 114.153 812.123 95.067 819.668 62.4352C825.87 35.561 812.333 11.7308 785.962 3.13477C779.575 1.05499 772.827 0 765.903 0C749.662 0 731.97 5.68623 711.827 17.3751C701.546 23.3282 691.667 30.244 682.124 36.9248C667.462 47.1793 652.312 57.7729 635.568 65.037C613.436 74.6276 587.787 80.3432 557.111 82.5153C546.662 83.2539 535.902 83.6123 524.261 83.6123C491.847 83.6123 458.326 80.7025 425.904 77.895C393.289 75.0666 359.541 72.1375 326.691 72.1375C276.098 72.1375 235.485 79.1137 198.875 94.1035C155.474 111.86 119.611 146.663 92.2755 197.52C59.8199 257.957 33.4493 317.359 13.8854 374.076C-7.97839 437.474 -4.00854 495.063 25.7025 545.236C48.0027 582.897 77.2186 616.296 105.478 648.589C115.49 660.025 125.847 671.867 135.718 683.69C145.185 695.021 154.409 707.07 163.322 718.708C186.554 749.015 210.549 780.348 241.737 803.437C289.518 838.863 348.949 842.942 389.479 842.942C395.538 842.942 401.732 842.858 408.388 842.657C424.024 842.162 440.105 841.079 455.657 840.013C476.908 838.578 498.898 837.084 520.434 837.084C548.357 837.084 571.245 839.56 592.496 844.847C633.848 855.179 668.796 879.905 702.603 903.842C715.864 913.225 729.578 922.936 743.493 931.647C774.505 951.035 808.531 966.604 841.439 981.686C864.554 992.261 888.44 1003.2 911.042 1015.35C953.401 1038.14 992.429 1066.82 1030.18 1094.56C1041.22 1102.7 1052.65 1111.08 1064.02 1119.24C1118.03 1157.96 1164.97 1176 1211.74 1176Z" fill="#3DD598"/>
    <path fill-rule="evenodd" clip-rule="evenodd" d="M1486.32 860.342C1465.58 962.853 1395.1 1057.95 1306.71 1102.62C1273.48 1119.4 1237.67 1128.3 1203.17 1128.3C1181.73 1128.3 1160.7 1124.94 1140.67 1118.3C1096.13 1103.59 1056.32 1075.29 1017.79 1047.93C1006.7 1040.04 995.215 1031.89 983.902 1024.26C948.223 1000.23 910.522 978.103 874.055 956.71C854.063 944.968 833.382 932.84 813.332 920.561C789.378 905.89 767.204 887.409 747.413 865.646C736.544 853.703 727.111 840.073 717.979 826.896C709.62 814.827 700.967 802.355 691.122 790.957C674.143 771.326 650.718 761.781 619.522 761.781C598.908 761.781 577.725 765.736 557.254 769.547C549.591 770.982 542.357 772.308 535.29 773.441C492.217 780.239 447.684 787.289 403.638 787.289C382.06 787.289 362.47 785.628 343.763 782.228C313.456 776.714 286.204 766.534 262.745 751.944C246.102 741.598 231.675 727.806 217.742 714.489C210.751 707.808 203.525 700.923 196.063 694.47C182.928 683.118 171.312 669.408 160.066 656.131C153.813 648.774 147.359 641.153 140.703 634C138.194 631.338 135.701 628.652 133.2 625.968C114.593 606.094 95.3478 585.52 78.9983 563.319C53.9202 529.294 26.7689 475.526 39.8199 412.611C49.5558 365.697 73.8367 321.877 97.3202 279.503C101.768 271.482 106.376 263.172 110.74 255.069C133.838 212.316 163.851 165.361 211.632 141.315C247.965 123.005 290.199 114.85 348.555 114.85C358.475 114.85 369.269 115.076 381.589 115.546L388.161 115.794C446.501 118.006 506.829 120.28 561.065 142.197C616.903 164.746 615.3 220.11 608.888 274.893C607.637 285.609 606.16 296.746 604.75 307.514C598.254 356.957 591.531 408.072 598.724 456.645C605.875 504.971 625.833 551.382 645.162 596.257C648.511 604.065 651.86 611.851 655.108 619.575C656.568 623.058 658.02 626.583 659.489 630.148C667.512 649.718 675.813 669.941 688.663 686.744C706.489 710.062 732.961 715.185 756.503 717.112C763.973 717.727 771.82 718.033 779.835 718.033C815.883 718.033 852.393 711.845 887.685 705.861C897.949 704.119 908.567 702.317 918.881 700.739C935.978 698.096 953.41 695.063 970.255 692.154C1013.14 684.694 1057.47 677.01 1101.21 674.778C1107.74 674.429 1114.41 674.266 1121.02 674.266C1169.83 674.266 1220.03 683.158 1274.5 701.414C1333.55 721.23 1382.95 742.54 1425.53 766.555C1469.98 791.612 1490.43 823.169 1486.32 860.342ZM1203.16 1136.8H1203.17C1238.98 1136.8 1276.1 1127.6 1310.5 1110.22C1356.02 1087.21 1397.36 1051.46 1430.04 1006.78C1461.98 963.164 1484.31 913.041 1494.63 861.836L1494.69 861.466C1499.31 820.509 1477.42 786.081 1429.66 759.137C1386.61 734.857 1336.72 713.341 1277.16 693.361C1221.83 674.798 1170.75 665.762 1121.02 665.762C1114.27 665.762 1107.46 665.946 1100.78 666.274C1056.53 668.548 1011.95 676.274 968.82 683.751C952.008 686.683 934.627 689.693 917.597 692.316C907.224 693.916 896.581 695.739 886.283 697.48C851.327 703.402 815.178 709.528 779.835 709.528C772.047 709.528 764.434 709.222 757.191 708.629C735.487 706.865 711.172 702.235 695.36 681.559C683.19 665.638 675.108 645.948 667.294 626.911C665.817 623.324 664.357 619.759 662.879 616.255C659.623 608.511 656.274 600.724 652.9 592.877C633.806 548.504 614.049 502.614 607.083 455.394C600.075 407.999 606.714 357.49 613.134 308.631C614.544 297.831 616.022 286.664 617.272 275.885C623.785 220.377 625.59 159.089 564.22 134.296C508.609 111.839 447.55 109.533 388.489 107.3L381.917 107.044C369.495 106.572 358.576 106.348 348.555 106.348C288.822 106.348 245.431 114.778 207.847 133.703C157.993 158.814 127.031 207.088 103.321 251C98.9567 259.074 94.374 267.351 89.9426 275.363C66.157 318.291 41.5488 362.685 31.5444 410.869C20.7091 463.12 34.7841 517.594 72.2167 568.391C88.8599 590.991 108.281 611.728 127.056 631.808C129.532 634.472 132.033 637.156 134.534 639.821C141.047 646.829 147.443 654.367 153.628 661.663C165.085 675.166 176.944 689.142 190.549 700.923C197.868 707.236 205.019 714.059 211.926 720.656C226.186 734.281 240.94 748.358 258.297 759.179C282.662 774.322 310.912 784.914 342.243 790.613C361.488 794.096 381.564 795.8 403.638 795.8C448.347 795.8 493.199 788.708 536.599 781.842C543.792 780.692 551.068 779.341 558.79 777.906C578.891 774.179 599.689 770.302 619.521 770.302C648.528 770.302 669.258 778.644 684.743 796.555C694.303 807.6 702.822 819.896 711.055 831.78C720.338 845.175 729.939 859.032 741.186 871.403C761.513 893.762 784.309 912.739 808.942 927.821C829.068 940.15 849.774 952.303 869.799 964.062C906.158 985.397 943.75 1007.46 979.21 1031.33C990.431 1038.89 1001.87 1047.03 1012.92 1054.87C1051.95 1082.6 1092.3 1111.27 1138.04 1126.39C1158.92 1133.3 1180.83 1136.8 1203.16 1136.8Z" fill="#3DD598"/>
    <path opacity="0.1" fill-rule="evenodd" clip-rule="evenodd" d="M390.117 146C406.534 146 423.89 146.85 443.152 148.591C494.97 153.283 530.867 168.938 552.898 196.467C579.94 230.278 579.101 276.33 575.358 312.669C574.351 322.239 573.243 331.87 572.16 341.192C567.544 380.74 563.205 418.083 567.158 457.765C569.122 477.589 572.932 497.547 576.625 516.849C583.365 552.072 590.314 588.504 586.235 625.141C564.573 717.39 446.711 724.583 411.099 724.583C406.92 724.583 402.723 724.501 398.602 724.336C285.986 719.807 199.698 634.629 144.581 570.955C97.8238 516.92 80.7274 466.984 90.7737 413.801C100.812 360.537 133.125 306.862 163.406 261.382C195.845 212.665 239.413 177.84 289.368 160.692C318.173 150.805 351.123 146 390.117 146Z" fill="#3DD598"/>
    <path fill-rule="evenodd" clip-rule="evenodd" d="M385.744 197.079C420.474 197.079 449.614 204.547 472.385 219.291C502.314 238.696 516.087 272.956 513.317 321.119C512.662 327.245 512.008 333.403 511.336 339.56C505.025 398.338 498.487 459.132 502.809 519.95C507.131 580.704 493.669 621.563 461.642 644.86C436.521 663.159 408.019 672.42 376.915 672.42C284.458 672.42 200.637 593.551 177.129 569.363C130.187 521.056 111.58 476.848 118.571 430.263C125.579 383.522 154.166 329.653 196.986 282.463C235.98 239.474 284.567 211.544 337.468 201.678C353.884 198.626 370.133 197.079 385.744 197.079Z" fill="#3DD598" fill-opacity="0.1"/>
    <path fill-rule="evenodd" clip-rule="evenodd" d="M1126.8 711.436C1128.58 711.436 1130.35 711.454 1132.14 711.475C1188.41 712.253 1245.61 729.611 1302.17 763.05C1366.74 801.221 1394.33 844.109 1384.19 890.48C1363.1 955.643 1311.86 1067.31 1205.91 1082.05C1199.23 1082.97 1192.4 1083.44 1185.62 1083.44C1135.74 1083.44 1089.82 1058.34 1047.6 1031.21C1033.65 1022.24 1019.21 1013.34 1005.26 1004.76C969.399 982.685 932.327 959.882 899.234 933.024C896.976 931.178 894.609 929.289 892.158 927.325C861.776 902.944 820.155 869.557 821.036 829.547C822.178 778.418 889.313 759.115 933.737 746.33C937.573 745.244 941.215 744.199 944.589 743.194C990.314 729.569 1058.94 711.436 1126.8 711.436ZM1185.62 1085.57C1185.62 1085.57 1185.61 1085.57 1185.62 1085.57C1192.5 1085.57 1199.43 1085.1 1206.2 1084.16C1313.28 1069.27 1364.95 956.768 1386.22 891.059C1396.62 843.555 1368.69 799.912 1303.24 761.205C1246.36 727.581 1188.8 710.124 1132.17 709.345C1062.38 708.383 991.044 727.131 943.993 741.147C940.619 742.149 936.985 743.194 933.167 744.303C888.138 757.252 820.097 776.823 818.93 829.505C818.015 870.564 860.114 904.329 890.849 928.979C893.292 930.951 895.642 932.84 897.899 934.678C931.102 961.627 968.232 984.473 1004.15 1006.58C1018.11 1015.17 1032.52 1024.04 1046.46 1032.99C1088.94 1060.31 1135.2 1085.57 1185.62 1085.57Z" fill="black" fill-opacity="0.1"/>
    <path fill-rule="evenodd" clip-rule="evenodd" d="M1117.44 756.307C1174.37 756.307 1247.57 775.303 1282.28 828.615C1294.52 847.449 1299.65 870.731 1296.68 894.147C1289.57 942.44 1265.5 984.346 1230.66 1009.1C1210.67 1023.32 1187.84 1030.52 1162.82 1030.52C1162.81 1030.52 1162.81 1030.52 1162.81 1030.52C1140.81 1030.52 1117.44 1025 1093.36 1014.14C1047.52 993.444 997.195 959.721 955.281 921.567C916.656 886.384 904.537 855.439 919.25 829.563C933.954 803.721 965.688 789.705 994.787 779.424C1024.59 768.874 1056.53 761.617 1089.72 757.846C1098.65 756.82 1107.98 756.307 1117.44 756.307ZM1162.81 1032.65C1162.81 1032.65 1162.81 1032.65 1162.82 1032.65C1188.29 1032.65 1211.53 1025.31 1231.88 1010.84C1267.19 985.765 1291.57 943.33 1298.77 894.432C1301.8 870.479 1296.57 846.71 1284.04 827.448C1248.87 773.44 1174.92 754.178 1117.44 754.178C1107.9 754.178 1098.49 754.69 1089.48 755.714C1056.14 759.506 1024.04 766.798 994.09 777.409C964.614 787.842 932.469 802.06 917.412 828.514C902.355 854.994 914.97 887.71 953.871 923.145C995.937 961.442 1046.45 995.307 1092.49 1016.07C1116.86 1027.07 1140.52 1032.65 1162.81 1032.65Z" fill="black" fill-opacity="0.1"/>
</svg>