<svg width="805" height="861" viewBox="0 0 805 861" fill="none" xmlns="http://www.w3.org/2000/svg">
    <path fill-rule="evenodd" clip-rule="evenodd" d="M639.736 633.414C612.287 643.262 574.365 640.245 527.028 624.453C456.502 600.922 384.492 584.442 317.182 570.133C313.135 569.272 309.042 568.426 304.94 567.585C278.48 562.168 251.127 556.548 227.451 543.52C194.23 525.225 175.885 492.63 166.353 468.502C163.725 461.829 161.135 454.432 158.46 445.88C145.831 379.571 138.271 310.019 168.446 251.602C179.302 230.613 195.66 216.068 217.066 208.388L217.077 208.384C256.523 194.233 306.213 205.259 340.172 214.782C453.976 246.686 560.67 325.861 640.583 437.695C668.615 476.929 703.674 535.101 684.599 587.118C676.123 610.193 661.038 625.771 639.736 633.414ZM216.218 205.987L216.206 205.992C194.173 213.896 177.347 228.844 166.205 250.42C135.663 309.53 143.252 379.594 156.004 446.499C158.738 455.255 161.348 462.708 163.999 469.441C173.695 493.954 192.355 527.1 226.242 545.757C250.243 558.969 277.804 564.619 304.451 570.087C308.544 570.931 312.621 571.77 316.668 572.629C383.908 586.926 455.83 603.384 526.25 626.873C574.126 642.851 612.605 645.864 640.6 635.821C662.632 627.916 678.237 611.824 686.983 588.014C706.474 534.853 671.011 475.925 642.639 436.213C562.399 323.908 455.215 244.387 340.843 212.32C306.565 202.702 256.333 191.595 216.218 205.987Z" fill="black" fill-opacity="0.1"/>
    <path fill-rule="evenodd" clip-rule="evenodd" d="M704.289 688.708C669.37 701.235 621.13 697.398 560.913 677.309C471.197 647.375 379.592 626.411 293.968 608.209C288.819 607.113 283.613 606.037 278.395 604.968C244.735 598.077 209.939 590.927 179.821 574.354C137.561 551.082 114.224 509.617 102.098 478.924C98.7549 470.436 95.4606 461.026 92.0575 450.147C75.9916 365.795 66.3754 277.317 104.761 203.005C118.57 176.305 139.379 157.803 166.61 148.033L166.624 148.028C216.803 130.026 280.014 144.052 323.213 156.167C467.983 196.751 603.709 297.47 705.366 439.734C741.025 489.644 785.624 563.644 761.358 629.815C750.576 659.169 731.387 678.986 704.289 688.708ZM165.53 144.979L165.516 144.984C137.488 155.04 116.084 174.054 101.909 201.502C63.0572 276.696 72.7105 365.823 88.9328 450.934C92.4111 462.072 95.7309 471.553 99.1033 480.118C111.437 511.301 135.175 553.466 178.282 577.2C208.814 594.006 243.875 601.194 277.773 608.15C282.979 609.224 288.166 610.29 293.313 611.384C378.849 629.571 470.342 650.508 559.923 680.388C620.826 700.714 669.775 704.546 705.387 691.77C733.414 681.715 753.265 661.244 764.391 630.956C789.185 563.329 744.073 488.367 707.981 437.849C605.909 294.985 469.559 193.827 324.066 153.035C280.461 140.8 216.562 126.671 165.53 144.979Z" fill="black" fill-opacity="0.05"/>
    <path fill-rule="evenodd" clip-rule="evenodd" d="M207.572 401.418C202.019 371.514 197.629 317.249 229.83 287.167C238.708 278.872 249.172 272.53 260.947 268.306C292.854 256.859 335.146 260.296 386.656 278.534C470.072 308.053 552.77 380.914 597.358 464.153C611.323 490.217 624.26 525.733 606.633 547.007C601.141 553.628 593.848 558.611 584.933 561.809C554.483 572.733 509.78 561.591 480.204 554.221C476.874 553.389 473.704 552.604 470.726 551.882C453.647 547.765 436.201 544.082 419.325 540.532C385.144 533.335 349.816 525.887 316.276 514.462C292.204 506.267 270.244 494.009 247.16 475.92C226.465 459.691 217.868 433.179 209.559 407.54C208.89 405.494 208.234 403.442 207.572 401.418Z" fill="black" fill-opacity="0.1"/>
    <path fill-rule="evenodd" clip-rule="evenodd" d="M481.499 476.46C458.147 484.838 420.349 479.934 406.108 478.091C372.243 473.699 291.88 456.151 277.258 388.219C274.569 353.404 294.504 338.71 311.709 332.538C328.131 326.633 349.864 325.907 371.347 330.535C399.093 336.509 425.952 350.109 449.023 369.876C460.912 380.063 499.776 416.05 500.908 451.515C501.284 463.31 494.757 471.704 481.499 476.46Z" fill="black" fill-opacity="0.1"/>
</svg>