<svg width="109" height="37" viewBox="0 0 109 37" fill="none" xmlns="http://www.w3.org/2000/svg">
<path d="M69.1981 6.31763C72.4344 6.31763 75.462 5.47367 77.7169 3.95198C79.45 2.77555 81.7676 2.13619 84.2522 2.13619C86.716 2.13619 89.0336 2.77555 90.7875 3.95198C93.0424 5.47367 96.0909 6.31763 99.3272 6.31763C102.564 6.31763 105.591 5.47367 107.846 3.95198C108.347 3.60673 108.305 3.08245 107.762 2.77555C107.22 2.46866 106.343 2.49423 105.842 2.8267C104.109 3.99034 101.791 4.6425 99.3272 4.6425C96.8634 4.6425 94.5458 4.00313 92.7919 2.8267C90.5369 1.30502 87.5094 0.461059 84.2522 0.461059C81.0159 0.461059 77.9883 1.30502 75.7125 2.8267C73.9795 4.00313 71.6619 4.6425 69.1981 4.6425C66.7343 4.6425 64.4167 4.00313 62.6628 2.8267C60.4078 1.30502 57.3803 0.461059 54.1231 0.461059C50.8868 0.461059 47.8593 1.30502 45.5834 2.8267C42.0966 5.17956 36.0207 5.17956 32.5129 2.8267C30.2579 1.30502 27.2095 0.461059 23.9732 0.461059C20.7369 0.461059 17.7094 1.30502 15.4335 2.8267C13.7005 4.00313 11.362 4.6425 8.89822 4.6425C6.43444 4.6425 4.11681 4.00313 2.36294 2.8267C1.86183 2.49423 1.00578 2.46866 0.442031 2.77555C-0.121715 3.08245 -0.14258 3.60673 0.358527 3.95198C2.65527 5.47367 5.68279 6.31763 8.93999 6.31763C12.1763 6.31763 15.2038 5.47367 17.4797 3.95198C19.2127 2.77555 21.5303 2.13619 24.015 2.13619C26.4787 2.13619 28.7964 2.77555 30.5502 3.95198C35.0811 6.99535 43.0988 6.99535 47.6296 3.95198C49.3835 2.77555 51.7011 2.13619 54.1649 2.13619C56.6287 2.13619 58.9463 2.77555 60.7002 3.95198C62.9343 5.47367 65.9618 6.31763 69.1981 6.31763Z" fill="white"/>
<path d="M69.1981 16.4615C72.4344 16.4615 75.462 15.6176 77.7169 14.0959C79.45 12.9194 81.7676 12.28 84.2522 12.28C86.716 12.28 89.0336 12.9194 90.7875 14.0959C93.0424 15.6176 96.0909 16.4615 99.3272 16.4615C102.564 16.4615 105.591 15.6176 107.846 14.0959C108.347 13.7506 108.305 13.2263 107.762 12.9194C107.22 12.6125 106.343 12.6381 105.842 12.9706C104.109 14.1342 101.791 14.7864 99.3272 14.7864C96.8634 14.7864 94.5458 14.147 92.7919 12.9706C90.5369 11.4488 87.5094 10.6049 84.2522 10.6049C81.0159 10.6049 77.9883 11.4488 75.7125 12.9706C73.9795 14.147 71.6619 14.7864 69.1981 14.7864C66.7343 14.7864 64.4167 14.147 62.6628 12.9706C60.4078 11.4488 57.3803 10.6049 54.1231 10.6049C50.8868 10.6049 47.8593 11.4488 45.5834 12.9706C42.0966 15.3235 36.0207 15.3235 32.5129 12.9706C30.2579 11.4488 27.2095 10.6049 23.9732 10.6049C20.7369 10.6049 17.7094 11.4488 15.4335 12.9706C13.7005 14.147 11.362 14.7864 8.89822 14.7864C6.43444 14.7864 4.11681 14.147 2.36294 12.9706C1.86183 12.6381 1.00578 12.6125 0.442031 12.9194C-0.121715 13.2263 -0.14258 13.7506 0.358527 14.0959C2.65527 15.6176 5.68279 16.4615 8.93999 16.4615C12.1763 16.4615 15.2038 15.6176 17.4797 14.0959C19.2127 12.9194 21.5303 12.28 24.015 12.28C26.4787 12.28 28.7964 12.9194 30.5502 14.0959C35.0811 17.1393 43.0988 17.1393 47.6296 14.0959C49.3835 12.9194 51.7011 12.28 54.1649 12.28C56.6287 12.28 58.9463 12.9194 60.7002 14.0959C62.9343 15.6176 65.9618 16.4615 69.1981 16.4615Z" fill="white"/>
<path d="M69.1981 26.6053C72.4344 26.6053 75.462 25.7614 77.7169 24.2398C79.45 23.0633 81.7676 22.424 84.2522 22.424C86.716 22.424 89.0336 23.0633 90.7875 24.2398C93.0424 25.7614 96.0909 26.6053 99.3272 26.6053C102.564 26.6053 105.591 25.7614 107.846 24.2398C108.347 23.8945 108.305 23.3702 107.762 23.0633C107.22 22.7565 106.343 22.782 105.842 23.1145C104.109 24.2781 101.791 24.9302 99.3272 24.9302C96.8634 24.9302 94.5458 24.2909 92.7919 23.1145C90.5369 21.5928 87.5094 20.7489 84.2522 20.7489C81.0159 20.7489 77.9883 21.5928 75.7125 23.1145C73.9795 24.2909 71.6619 24.9302 69.1981 24.9302C66.7343 24.9302 64.4167 24.2909 62.6628 23.1145C60.4078 21.5928 57.3803 20.7489 54.1231 20.7489C50.8868 20.7489 47.8593 21.5928 45.5834 23.1145C42.0966 25.4673 36.0207 25.4673 32.5129 23.1145C30.2579 21.5928 27.2095 20.7489 23.9732 20.7489C20.7369 20.7489 17.7094 21.5928 15.4335 23.1145C13.7005 24.2909 11.362 24.9302 8.89822 24.9302C6.43444 24.9302 4.11681 24.2909 2.36294 23.1145C1.86183 22.782 1.00578 22.7565 0.442031 23.0633C-0.121715 23.3702 -0.14258 23.8945 0.358527 24.2398C2.65527 25.7614 5.68279 26.6053 8.93999 26.6053C12.1763 26.6053 15.2038 25.7614 17.4797 24.2398C19.2127 23.0633 21.5303 22.424 24.015 22.424C26.4787 22.424 28.7964 23.0633 30.5502 24.2398C35.0811 27.2831 43.0988 27.2831 47.6296 24.2398C49.3835 23.0633 51.7011 22.424 54.1649 22.424C56.6287 22.424 58.9463 23.0633 60.7002 24.2398C62.9343 25.7614 65.9618 26.6053 69.1981 26.6053Z" fill="white"/>
<path d="M69.1981 36.7493C72.4344 36.7493 75.462 35.9053 77.7169 34.3835C79.45 33.207 81.7676 32.5677 84.2522 32.5677C86.716 32.5677 89.0336 33.207 90.7875 34.3835C93.0424 35.9053 96.0909 36.7493 99.3272 36.7493C102.564 36.7493 105.591 35.9053 107.846 34.3835C108.347 34.0383 108.305 33.514 107.762 33.207C107.22 32.9001 106.343 32.9257 105.842 33.2582C104.109 34.4219 101.791 35.0741 99.3272 35.0741C96.8634 35.0741 94.5458 34.4347 92.7919 33.2582C90.5369 31.7365 87.5094 30.8925 84.2522 30.8925C81.0159 30.8925 77.9883 31.7365 75.7125 33.2582C73.9795 34.4347 71.6619 35.0741 69.1981 35.0741C66.7343 35.0741 64.4167 34.4347 62.6628 33.2582C60.4078 31.7365 57.3803 30.8925 54.1231 30.8925C50.8868 30.8925 47.8593 31.7365 45.5834 33.2582C42.0966 35.6112 36.0207 35.6112 32.5129 33.2582C30.2579 31.7365 27.2095 30.8925 23.9732 30.8925C20.7369 30.8925 17.7094 31.7365 15.4335 33.2582C13.7005 34.4347 11.362 35.0741 8.89822 35.0741C6.43444 35.0741 4.11681 34.4347 2.36294 33.2582C1.86183 32.9257 1.00578 32.9001 0.442031 33.207C-0.121715 33.514 -0.14258 34.0383 0.358527 34.3835C2.65527 35.9053 5.68279 36.7493 8.93999 36.7493C12.1763 36.7493 15.2038 35.9053 17.4797 34.3835C19.2127 33.207 21.5303 32.5677 24.015 32.5677C26.4787 32.5677 28.7964 33.207 30.5502 34.3835C35.0811 37.427 43.0988 37.427 47.6296 34.3835C49.3835 33.207 51.7011 32.5677 54.1649 32.5677C56.6287 32.5677 58.9463 33.207 60.7002 34.3835C62.9343 35.9053 65.9618 36.7493 69.1981 36.7493Z" fill="white"/>
</svg>
