<svg width="56" height="56" viewBox="0 0 56 56" fill="none" xmlns="http://www.w3.org/2000/svg">
<path d="M50.4001 47.6001H5.6001V50.4001H50.4001V47.6001Z" fill="#3F87F5"/>
<path d="M50.4001 28.0001H47.6001C47.6001 17.1921 38.8081 8.4001 28.0001 8.4001C17.1921 8.4001 8.4001 17.1921 8.4001 28.0001H5.6001C5.6001 15.6493 15.6493 5.6001 28.0001 5.6001C40.3509 5.6001 50.4001 15.6493 50.4001 28.0001Z" fill="#3F87F5"/>
<path d="M50.4001 26.6001H5.6001V29.4001H50.4001V26.6001Z" fill="#3F87F5"/>
<path d="M28 42C20.2804 42 14 35.7196 14 28H16.8C16.8 34.1754 21.8246 39.2 28 39.2C34.1754 39.2 39.2 34.1754 39.2 28H42C42 35.7196 35.7196 42 28 42Z" fill="#3F87F5"/>
<path d="M27.9999 34.9999C24.9115 34.9999 22.3999 32.4883 22.3999 29.3999H25.1999C25.1999 30.9441 26.4557 32.1999 27.9999 32.1999C29.5441 32.1999 30.7999 30.9441 30.7999 29.3999H33.5999C33.5999 32.4883 31.0883 34.9999 27.9999 34.9999Z" fill="#3F87F5"/>
<path d="M15.2714 22.1551L12.729 20.9861C14.787 16.5047 18.6846 13.1685 23.4208 11.8315L24.181 14.5265C20.2344 15.6395 16.9878 18.4199 15.2714 22.1551Z" fill="#3F87F5"/>
<path d="M43.2665 35.1801L39.6289 33.0806L38.2292 35.5056L41.8668 37.6052L43.2665 35.1801Z" fill="#3F87F5"/>
<path d="M37.6322 41.8589L35.5317 38.2217L33.1069 39.622L35.2074 43.2592L37.6322 41.8589Z" fill="#3F87F5"/>
<path d="M29.4001 40.6001H26.6001V44.8001H29.4001V40.6001Z" fill="#3F87F5"/>
<path d="M22.9295 39.6053L20.5044 38.2056L18.4048 41.8432L20.8299 43.2429L22.9295 39.6053Z" fill="#3F87F5"/>
<path d="M17.7757 35.5242L16.376 33.0991L12.7384 35.1987L14.1381 37.6238L17.7757 35.5242Z" fill="#3F87F5"/>
<path d="M44.8001 26.6001H40.6001V29.4001H44.8001V26.6001Z" fill="#3F87F5"/>
<path d="M15.4002 26.6001H11.2002V29.4001H15.4002V26.6001Z" fill="#3F87F5"/>
</svg>
