<svg width="56" height="56" viewBox="0 0 56 56" fill="none" xmlns="http://www.w3.org/2000/svg">
<path d="M39.1999 50.4001H5.59985V5.6001H29.9795L39.1999 14.8205V50.4001ZM8.39985 47.6001H36.3999V15.9797L28.8203 8.4001H8.39985V47.6001Z" fill="#3F87F5"/>
<path d="M37.8 16.8H28V7H30.8V14H37.8V16.8Z" fill="#3F87F5"/>
<path d="M18.1997 14H11.1997V16.8H18.1997V14Z" fill="#3F87F5"/>
<path d="M33.5997 22.3999H11.1997V25.1999H33.5997V22.3999Z" fill="#3F87F5"/>
<path d="M33.5997 28H11.1997V30.8H33.5997V28Z" fill="#3F87F5"/>
<path d="M29.3997 42.0001C27.0841 42.0001 25.1997 40.1157 25.1997 37.8001C25.1997 35.4845 27.0841 33.6001 29.3997 33.6001C31.7153 33.6001 33.5997 35.4845 33.5997 37.8001C33.5997 40.1157 31.7153 42.0001 29.3997 42.0001ZM29.3997 36.4001C28.6269 36.4001 27.9997 37.0287 27.9997 37.8001C27.9997 38.5715 28.6269 39.2001 29.3997 39.2001C30.1725 39.2001 30.7997 38.5715 30.7997 37.8001C30.7997 37.0287 30.1725 36.4001 29.3997 36.4001Z" fill="#3F87F5"/>
<path d="M47.6 8.4001V45.0395L46.2 46.4395L44.8 45.0395V8.4001H47.6ZM50.4 5.6001H42V46.2001L46.2 50.4001L50.4 46.2001V5.6001Z" fill="#3F87F5"/>
<path d="M48.9999 14H43.3999V16.8H48.9999V14Z" fill="#3F87F5"/>
</svg>
