<svg width="56" height="56" viewBox="0 0 56 56" fill="none" xmlns="http://www.w3.org/2000/svg">
<path d="M8.39985 9.8001H5.59985C5.59985 7.4845 7.48425 5.6001 9.79985 5.6001V8.4001C9.02705 8.4001 8.39985 9.0287 8.39985 9.8001Z" fill="#3F87F5"/>
<path d="M39.2 9.8001H36.4C36.4 9.0287 35.7728 8.4001 35 8.4001V5.6001C37.3156 5.6001 39.2 7.4845 39.2 9.8001Z" fill="#3F87F5"/>
<path d="M34.9998 5.6001H9.7998V8.4001H34.9998V5.6001Z" fill="#3F87F5"/>
<path d="M39.1999 9.80029H36.3999V46.2003H39.1999V9.80029Z" fill="#3F87F5"/>
<path d="M8.39985 9.80029H5.59985V46.2003H8.39985V9.80029Z" fill="#3F87F5"/>
<path d="M9.79985 50.4002C7.48425 50.4002 5.59985 48.5158 5.59985 46.2002H8.39985C8.39985 46.9716 9.02705 47.6002 9.79985 47.6002V50.4002Z" fill="#3F87F5"/>
<path d="M35 50.4002V47.6002C35.7728 47.6002 36.4 46.9716 36.4 46.2002H39.2C39.2 48.5158 37.3156 50.4002 35 50.4002Z" fill="#3F87F5"/>
<path d="M34.9998 47.6001H9.7998V50.4001H34.9998V47.6001Z" fill="#3F87F5"/>
<path d="M37.8 19.6001H7V22.4001H37.8V19.6001Z" fill="#3F87F5"/>
<path d="M16.7997 25.2002H11.1997V28.0002H16.7997V25.2002Z" fill="#3F87F5"/>
<path d="M25.1999 25.2002H19.5999V28.0002H25.1999V25.2002Z" fill="#3F87F5"/>
<path d="M33.6 25.2002H28V28.0002H33.6V25.2002Z" fill="#3F87F5"/>
<path d="M16.7997 30.8003H11.1997V33.6003H16.7997V30.8003Z" fill="#3F87F5"/>
<path d="M25.1999 30.8003H19.5999V33.6003H25.1999V30.8003Z" fill="#3F87F5"/>
<path d="M33.6 30.8003H28V33.6003H33.6V30.8003Z" fill="#3F87F5"/>
<path d="M16.7997 36.3999H11.1997V39.1999H16.7997V36.3999Z" fill="#3F87F5"/>
<path d="M25.1999 36.3999H19.5999V39.1999H25.1999V36.3999Z" fill="#3F87F5"/>
<path d="M33.6 36.3999H28V39.1999H33.6V36.3999Z" fill="#3F87F5"/>
<path d="M16.7997 42H11.1997V44.8H16.7997V42Z" fill="#3F87F5"/>
<path d="M25.1999 42H19.5999V44.8H25.1999V42Z" fill="#3F87F5"/>
<path d="M33.6 42H28V44.8H33.6V42Z" fill="#3F87F5"/>
<path d="M47.6 8.4001V45.0395L46.2 46.4395L44.8 45.0395V8.4001H47.6ZM50.4 5.6001H42V46.2001L46.2 50.4001L50.4 46.2001V5.6001Z" fill="#3F87F5"/>
<path d="M48.9999 14H43.3999V16.8H48.9999V14Z" fill="#3F87F5"/>
</svg>
