<svg width="56" height="56" viewBox="0 0 56 56" fill="none" xmlns="http://www.w3.org/2000/svg">
<path d="M27.9999 8.4001C38.8078 8.4001 47.5998 17.1921 47.5998 28.0001C47.5998 31.9635 46.4182 35.7855 44.1824 39.0517L43.3382 40.2851L43.8926 41.6725L45.3724 45.3741L41.6708 43.8929L40.2834 43.3385L39.05 44.1827C35.7838 46.4185 31.9619 47.6001 27.9985 47.6001C17.1905 47.6001 8.39845 38.8081 8.39845 28.0001C8.39845 17.1921 17.1933 8.4001 27.9999 8.4001ZM27.9999 5.6001C15.6295 5.6001 5.59985 15.6297 5.59985 28.0001C5.59985 40.3705 15.6295 50.4001 27.9999 50.4001C32.6884 50.4001 37.0354 48.9553 40.632 46.4927L50.3998 50.4001L46.4925 40.6323C48.9536 37.0357 50.3998 32.6873 50.3998 28.0001C50.3998 15.6297 40.3717 5.6001 27.9999 5.6001Z" fill="#3F87F5"/>
<path d="M27.9999 36.4C23.3673 36.4 19.5999 32.6326 19.5999 28H22.3999C22.3999 31.0884 24.9115 33.6 27.9999 33.6C31.0883 33.6 33.5999 31.0884 33.5999 28H36.3999C36.3999 32.6326 32.6325 36.4 27.9999 36.4Z" fill="#3F87F5"/>
<path d="M25.1999 19.6001H22.3999V23.8001H25.1999V19.6001Z" fill="#3F87F5"/>
<path d="M33.5998 19.6001H30.7998V23.8001H33.5998V19.6001Z" fill="#3F87F5"/>
</svg>
