<svg width="56" height="56" viewBox="0 0 56 56" fill="none" xmlns="http://www.w3.org/2000/svg">
<path d="M39.1998 42H16.7998V44.8H39.1998V42Z" fill="#3F87F5"/>
<path d="M41.9998 47.5997C39.6842 47.5997 37.7998 45.7153 37.7998 43.3997C37.7998 41.0841 39.6842 39.1997 41.9998 39.1997C44.3154 39.1997 46.1998 41.0841 46.1998 43.3997C46.1998 45.7153 44.3168 47.5997 41.9998 47.5997ZM41.9998 41.9997C41.227 41.9997 40.5998 42.6269 40.5998 43.3997C40.5998 44.1725 41.227 44.7997 41.9998 44.7997C42.7712 44.7997 43.3998 44.1725 43.3998 43.3997C43.3998 42.6269 42.7712 41.9997 41.9998 41.9997Z" fill="#3F87F5"/>
<path d="M13.9998 47.5997C11.6842 47.5997 9.7998 45.7153 9.7998 43.3997C9.7998 41.0841 11.6842 39.1997 13.9998 39.1997C16.3154 39.1997 18.1998 41.0841 18.1998 43.3997C18.1998 45.7153 16.3168 47.5997 13.9998 47.5997ZM13.9998 41.9997C13.227 41.9997 12.5998 42.6269 12.5998 43.3997C12.5998 44.1725 13.227 44.7997 13.9998 44.7997C14.7712 44.7997 15.3998 44.1725 15.3998 43.3997C15.3998 42.6269 14.7712 41.9997 13.9998 41.9997Z" fill="#3F87F5"/>
<path d="M42.0069 30.9399L40.6069 16.9399C40.6055 16.8951 40.6041 16.8559 40.6027 16.8251C40.3395 16.7929 39.8985 16.7957 39.5835 16.7985L29.3999 16.7999V13.9999L39.5611 13.9985C40.6825 13.9873 41.8263 13.9803 42.6565 14.8035C43.1507 15.2935 43.3999 15.9641 43.3999 16.7999L44.7929 30.6599L42.0069 30.9399Z" fill="#3F87F5"/>
<path d="M11.1999 44.7999H5.59985V12.5999C5.59985 10.2843 7.48425 8.3999 9.79985 8.3999H27.9999C30.3155 8.3999 32.1999 10.2843 32.1999 12.5999V13.9999H29.3999V12.5999C29.3999 11.8271 28.7713 11.1999 27.9999 11.1999H9.79985C9.02705 11.1999 8.39985 11.8271 8.39985 12.5999V41.9999H11.1999V44.7999Z" fill="#3F87F5"/>
<path d="M50.4 44.8001H44.8V42.0001H47.6V33.6001C47.6 32.8273 46.9714 32.2001 46.2 32.2001H37.8C36.2544 32.2001 35 30.9443 35 29.4001V22.4001C35 20.8559 36.2544 19.6001 37.8 19.6001H42V22.4001H37.8V29.4001H46.2C48.5156 29.4001 50.4 31.2845 50.4 33.6001V44.8001Z" fill="#3F87F5"/>
<path d="M32.1999 15.3999H29.3999V43.3999H32.1999V15.3999Z" fill="#3F87F5"/>
</svg>
