<svg width="56" height="56" viewBox="0 0 56 56" fill="none" xmlns="http://www.w3.org/2000/svg">
<path d="M44.8001 30.8001H33.6001V26.0205L35.0001 24.6205V22.9797L33.6001 21.5797V9.8001C33.6001 7.4845 35.4845 5.6001 37.8001 5.6001H40.6001C42.9157 5.6001 44.8001 7.4845 44.8001 9.8001V21.5797L43.4001 22.9797V24.6205L44.8001 26.0205V30.8001ZM36.4001 28.0001H42.0001V27.1797L40.6001 25.7797V21.8205L42.0001 20.4205V9.8001C42.0001 9.0287 41.3715 8.4001 40.6001 8.4001H37.8001C37.0287 8.4001 36.4001 9.0287 36.4001 9.8001V20.4205L37.8001 21.8205V25.7797L36.4001 27.1797V28.0001Z" fill="#3F87F5"/>
<path d="M40.6003 29.3999H37.8003V50.3999H40.6003V29.3999Z" fill="#3F87F5"/>
<path d="M43.4 16.8003H35V19.6003H43.4V16.8003Z" fill="#3F87F5"/>
<path d="M19.6002 14.0001H16.8002V8.7207C15.1706 9.4907 14.0002 11.5669 14.0002 14.0001H11.2002C11.2002 9.3675 14.3404 5.6001 18.2002 5.6001H19.6002V14.0001Z" fill="#3F87F5"/>
<path d="M30.8004 14.0001H28.0004C28.0004 11.5669 26.83 9.4907 25.2004 8.7207V14.0001H22.4004V5.6001H23.8004C27.6602 5.6001 30.8004 9.3675 30.8004 14.0001Z" fill="#3F87F5"/>
<path d="M21.0003 18.2C18.6847 18.2 16.8003 16.3156 16.8003 14H19.6003C19.6003 14.7714 20.2289 15.4 21.0003 15.4C21.7717 15.4 22.4003 14.7714 22.4003 14H25.2003C25.2003 16.3156 23.3159 18.2 21.0003 18.2Z" fill="#3F87F5"/>
<path d="M21.0002 23.8C15.5976 23.8 11.2002 19.404 11.2002 14H14.0002C14.0002 17.8598 17.1404 21 21.0002 21V23.8Z" fill="#3F87F5"/>
<path d="M21 23.8V21C24.8598 21 28 17.8598 28 14H30.8C30.8 19.404 26.4026 23.8 21 23.8Z" fill="#3F87F5"/>
<path d="M18.2004 21H15.4004V44.8H18.2004V21Z" fill="#3F87F5"/>
<path d="M26.6003 22.3999H23.8003V44.7999H26.6003V22.3999Z" fill="#3F87F5"/>
<path d="M21.0004 50.4003C17.9134 50.4003 15.4004 47.8887 15.4004 44.8003H18.2004C18.2004 46.3445 19.4548 47.6003 21.0004 47.6003C22.546 47.6003 23.8004 46.3445 23.8004 44.8003H26.6004C26.6004 47.8887 24.0874 50.4003 21.0004 50.4003Z" fill="#3F87F5"/>
</svg>
