<svg width="40" height="40" viewBox="0 0 40 40" fill="none" xmlns="http://www.w3.org/2000/svg">
<path d="M36.361 35.999H4L6.33301 21.999H10.181V23.999H8.028L6.36101 33.999H34L32.333 23.999H30.181V21.999H34.028L36.361 35.999Z" fill="#3F87F5"/>
<path d="M20.181 17.999C17.975 17.999 16.181 16.204 16.181 13.999C16.181 11.793 17.975 9.99902 20.181 9.99902C22.387 9.99902 24.181 11.793 24.181 13.999C24.181 16.204 22.386 17.999 20.181 17.999ZM20.181 11.999C19.078 11.999 18.181 12.895 18.181 13.999C18.181 15.102 19.078 15.999 20.181 15.999C21.284 15.999 22.181 15.102 22.181 13.999C22.181 12.896 21.284 11.999 20.181 11.999Z" fill="#3F87F5"/>
<path d="M20.1801 31.814L11.3951 18.501C10.5881 17.09 10.1801 15.553 10.1801 14C10.1801 8.485 14.6661 4 20.1801 4C25.6941 4 30.1801 8.485 30.1801 14C30.1801 15.574 29.6931 17.381 28.9691 18.495C28.3781 19.404 21.0141 30.551 21.0141 30.551L20.1801 31.814ZM20.181 5.99899C15.77 5.99899 12.181 9.58699 12.181 13.999C12.181 15.205 12.498 16.4 13.099 17.454L20.1821 28.183C22.1261 25.241 26.8271 18.122 27.2941 17.404C27.7351 16.725 28.1821 15.337 28.1821 13.999C28.1811 9.58699 24.592 5.99899 20.181 5.99899Z" fill="#3F87F5"/>
</svg>
