<svg width="924" height="967" viewBox="0 0 924 967" fill="none" xmlns="http://www.w3.org/2000/svg">
    <path fill-rule="evenodd" clip-rule="evenodd" d="M313.168 706.936C254.969 668.634 184.864 655.277 110.462 668.293C83.6058 673.001 42.7191 681.962 -2.27729e-05 697.984L-2.26593e-05 695.385C42.5414 679.551 83.1449 670.657 109.894 665.968C185.137 652.791 256.013 666.318 314.904 705.055C335.972 718.922 356.496 735.549 378.242 753.15C444.672 806.964 513.366 862.602 606.76 846.911C700.076 831.219 727.95 740.767 741.805 663.709C746.562 637.26 749.939 610.188 753.218 584.004C755.062 569.334 756.961 554.181 759.077 539.297C761.395 522.983 763.833 506.631 766.288 490.28C774.545 435.136 783.086 378.123 786.542 321.917C791.395 243.29 768.267 197.067 717.848 184.523C684.417 176.205 647.121 179.54 611.806 183.671C607.208 184.211 600.769 184.304 593.312 184.408C575.282 184.674 550.581 185.043 543.207 192.901L542.758 193.212C533.511 197.344 522.789 198.371 512.419 199.353C508.378 199.733 504.569 200.101 500.827 200.633C484.639 202.951 468.467 207.463 452.822 211.825L447.452 213.314C417.029 221.736 386.716 231.73 357.379 241.4C344.541 245.623 331.256 250.006 318.144 254.197C238.293 279.685 157.616 292.978 78.3338 293.695C52.3313 293.936 25.8936 292.678 -4.99292e-06 291.225L-4.889e-06 288.847C25.8936 290.3 52.3447 291.558 78.3049 291.317C157.249 290.601 237.616 277.353 317.142 251.968C330.249 247.78 343.524 243.407 356.363 239.183C385.727 229.502 416.08 219.498 446.571 211.064L451.939 209.563C467.678 205.177 483.963 200.633 500.352 198.289C504.175 197.747 508.201 197.355 512.104 196.987C522.125 196.039 532.467 195.047 541.2 191.216C549.577 182.677 573.777 182.321 593.259 182.032C600.633 181.928 606.992 181.837 611.426 181.317C647.04 177.15 684.676 173.78 718.634 182.239C766.042 194.033 789.985 234.36 789.985 302.232C789.985 308.589 789.781 315.201 789.363 322.034C785.892 378.331 777.352 435.39 769.081 490.581C766.627 506.932 764.185 523.259 761.868 539.574C759.754 554.446 757.855 569.598 756.025 584.25C752.744 610.472 749.342 637.572 744.583 664.068C731.676 735.823 703.41 833.091 607.302 849.245C512.485 865.182 443.251 809.1 376.289 754.87C354.614 737.307 334.129 720.727 313.168 706.936Z" fill="black" fill-opacity="0.1"/>
    <path fill-rule="evenodd" clip-rule="evenodd" d="M353.172 850.896C325.244 821.636 296.37 791.385 259.294 769.397C202.126 735.51 122.833 733.885 57.3038 765.251C34.3378 776.245 15.0345 790.261 -3.52494e-05 806.411L-3.50842e-05 802.633C14.9256 787.219 33.7271 773.808 55.9212 763.183C122.387 731.373 202.857 733.044 260.908 767.442C298.321 789.618 327.32 820.021 355.353 849.404C372.692 867.566 390.612 886.361 410.298 902.936C460.891 945.57 531.329 967.916 603.532 964.242C677.657 960.455 746.401 930.109 792.129 880.977C861.049 806.902 855.612 715.921 850.379 627.934C847.558 580.55 844.632 531.548 853.346 485.729C855.952 472.022 858.04 458.165 860.044 444.755C862.323 429.547 864.679 413.81 867.826 398.247C873.356 370.864 880.297 343.274 887.021 316.598C889.381 307.177 891.767 297.757 894.07 288.327L895.4 282.907C910.04 223.347 926.662 155.834 919.449 93.9211C915.165 57.1763 899.737 28.861 876.013 14.1839C857.916 3.00131 835.304 -0.261848 808.8 4.50113C762.194 12.8597 721.268 36.1032 681.683 58.5722C660.129 70.8173 637.842 83.4638 615.054 93.4375C572.797 111.918 527.262 126.283 483.231 140.165C472.237 143.636 461.257 147.093 450.344 150.611C432.746 156.294 414.948 162.277 397.732 168.065C362.647 179.871 326.371 192.08 289.849 202.283C187.459 230.889 94.1349 237.517 -9.72759e-06 222.541L-9.6217e-06 220.119C93.8384 235.132 186.863 228.549 288.968 200.023C325.394 189.845 361.644 177.658 396.688 165.864C413.917 160.065 431.717 154.079 449.341 148.396C460.252 144.869 471.246 141.409 482.241 137.941C526.205 124.069 571.658 109.739 613.764 91.3266C636.406 81.4238 658.624 68.7981 680.111 56.6002C719.927 34.0037 761.084 10.6327 808.217 2.173C835.533 -2.72881 858.905 0.673182 877.668 12.2713C902.069 27.3527 917.902 56.2677 922.242 93.6774C929.507 155.959 912.834 223.671 898.166 283.392L896.835 288.81C894.506 298.242 892.147 307.672 889.761 317.094C883.062 343.749 876.121 371.313 870.619 398.639C867.474 414.157 865.116 429.87 862.836 445.056C860.832 458.486 858.745 472.367 856.126 486.1C847.464 531.673 850.379 580.55 853.186 627.811C858.458 716.242 863.894 807.677 794.336 882.441C748.109 932.111 678.634 962.788 603.706 966.603C530.691 970.325 459.466 947.723 408.304 904.627C388.513 887.948 370.55 869.115 353.172 850.896Z" fill="black" fill-opacity="0.05"/>
    <path fill-rule="evenodd" clip-rule="evenodd" d="M376.402 805.769C357.738 788.905 338.44 771.474 317.844 755.97C254.449 708.249 183.787 691.337 107.853 705.707C67.82 713.284 30.8913 726.322 -2.8028e-05 743.206L-2.79049e-05 740.39C30.8636 723.743 67.5493 710.894 107.229 703.392C184.111 688.833 255.601 705.925 319.711 754.194C340.404 769.764 359.744 787.242 378.445 804.144C409.092 831.836 440.782 860.472 479.176 881.399C542.487 915.922 616.509 917.698 677.194 886.142C750.323 848.133 776.568 784.087 785.71 737.055C794.662 691.006 796.72 643.153 798.698 596.887C799.78 571.652 800.892 545.573 803.125 520.142C807.257 472.846 815.788 425.354 824.02 379.417C828.735 353.203 833.598 326.112 837.591 299.332L837.633 299.032C844.459 253.34 851.526 206.089 839.243 161.79C833.137 139.727 822.315 123.753 807.107 114.296C779.006 96.8365 741.279 105.346 705.05 115.576C669.663 125.565 633.477 135.194 598.484 144.501C550.719 157.21 501.317 170.347 453.269 184.59C429.609 191.603 405.64 199.34 382.456 206.814C326.414 224.897 268.468 243.604 209.028 254.053C141.857 265.863 71.5864 267.627 -6.87781e-06 259.346L-6.77304e-06 256.949C71.3956 265.241 141.479 263.511 208.459 251.724C267.668 241.31 325.508 222.649 381.452 204.6C404.649 197.104 428.648 189.366 452.335 182.353C500.437 168.099 549.853 154.95 597.644 142.229C632.626 132.923 668.798 123.304 704.157 113.315C731.457 105.623 777.137 92.7286 808.772 112.383C824.536 122.185 835.708 138.619 841.978 161.247C846.921 179.054 848.763 197.3 848.763 215.706C848.763 243.524 844.553 271.711 840.423 299.332L840.382 299.632C836.373 326.435 831.512 353.548 826.81 379.775C818.564 425.664 810.058 473.11 805.915 520.317C803.694 545.701 802.584 571.765 801.499 596.963C799.522 643.314 797.463 691.243 788.486 737.442C779.25 784.965 752.693 849.673 678.67 888.173C617.039 920.211 541.891 918.435 477.659 883.412C438.966 862.315 407.156 833.565 376.402 805.769Z" fill="black" fill-opacity="0.07"/>
    <path fill-rule="evenodd" clip-rule="evenodd" d="M376.193 710.234C338.193 683.543 298.892 655.945 252.466 640.941C184.451 618.955 109.632 633.628 38.9184 652.761C26.2494 656.19 13.2274 659.724 -1.9161e-05 663.352L-1.87236e-05 653.347C12.0473 650.049 23.9181 646.837 35.4913 643.709C108.156 624.048 185.222 609.025 256.49 632.06C304.655 647.63 344.67 675.739 383.374 702.921C391.41 708.562 399.73 714.401 407.918 719.975C472.558 764.042 527.361 783.779 570.793 778.677C598.128 775.455 621.693 762.218 640.839 739.325C689.125 681.587 701.24 602.988 711.92 533.635L712.855 527.626C714.44 517.373 716.188 506.89 717.881 496.762C724.1 459.554 730.54 421.091 730.54 383.366C730.54 366.331 729.266 350.76 726.649 335.754C720.185 298.619 704.874 272.078 681.13 256.867C656.927 241.355 625.162 237.432 591.987 234.527C519.04 236.671 449.535 248.689 379.511 271.261C372.6 273.498 365.715 275.735 358.847 277.971C299.87 297.163 238.887 317.013 173.555 324.164C125.149 329.469 75.8341 329.965 28.1477 330.45C18.8647 330.553 9.44401 330.656 -4.62401e-06 330.785L-4.20853e-06 321.28C9.40626 321.143 18.7703 321.039 28.0112 320.946C75.3733 320.463 124.364 319.966 172.119 314.73C236.109 307.728 293.758 288.964 354.808 269.093C361.691 266.854 368.576 264.605 375.501 262.38C446.836 239.382 517.644 227.157 591.987 225.011L592.368 225L592.746 225.033C627.723 228.078 661.303 232.231 687.918 249.289C714.101 266.048 730.864 294.685 737.775 334.371C740.473 349.837 741.786 365.868 741.786 383.366C741.786 421.762 735.296 460.569 729.022 498.088C727.326 508.191 725.58 518.653 724.006 528.859L723.085 534.856C712.231 605.302 699.925 685.149 650.029 744.815C629.012 769.937 602.87 784.497 572.339 788.087C525.057 793.652 468.953 773.811 400.857 727.383C392.603 721.752 384.255 715.894 376.193 710.234Z" fill="black" fill-opacity="0.1"/>
    <path d="M377.403 656.454L377.424 656.468C388.53 663.9 400.003 671.567 411.326 678.707C485.625 725.513 546.19 733.52 591.333 702.473C635.242 672.294 650.77 618.461 662.092 579.143C674.759 535.211 687.71 483.303 687.71 431.345L687.71 431.335C687.71 412.224 685.921 393.826 682.394 376.65C669.363 313.297 619.595 278.081 534.472 272.001C465.681 271.864 401.713 294.352 339.847 316.1L339.767 316.128L338.296 316.646C332.17 318.8 326.056 320.951 319.954 323.072C247.635 348.18 181.688 360.292 112.42 361.178L101 361.315L100.951 361.316C68.4746 361.707 33.9521 362.123 -4.05402e-06 364.745L-1.51253e-05 618.027C17.7767 614.151 35.8688 609.445 53.4422 604.815L53.5442 604.788C109.735 590.008 167.837 574.726 226.302 584.481C284.227 594.166 331.588 625.827 377.403 656.454Z" fill="black" fill-opacity="0.1"/>
    <path d="M302.01 537.649C319.224 548.696 335.963 561.707 352.147 574.298C385.611 600.32 420.214 627.223 462.928 640.504C527.733 660.658 574.402 622.026 596.45 579.163C614.856 543.414 625.404 500.82 625.404 462.296L625.404 462.283C625.404 421.146 612.512 349.132 526.161 329.177C478.125 324.439 426.823 334.019 373.462 357.604C357.203 364.792 341.01 373.352 325.362 381.624L325.074 381.776L325.031 381.799C296.293 396.999 266.579 412.716 234.485 421.17C195.13 431.547 152.995 427.294 112.273 423.181L112.163 423.17C80.7229 419.995 48.2299 416.713 16.8747 420.072C11.4717 420.649 5.81017 421.562 -4.1418e-06 422.753L-9.98024e-06 556.321C-9.98024e-06 556.321 78.9838 538.884 102.751 530.864C109.727 528.519 116.864 525.908 123.756 523.376C152.009 513.034 181.206 502.347 212.259 504.183C240.539 505.859 269.061 516.489 302.01 537.649Z" fill="black" fill-opacity="0.1"/>
    <path fill-rule="evenodd" clip-rule="evenodd" d="M392.045 475.124C392.045 456.474 402.815 438.101 421.597 424.694C441.395 410.564 467.441 404.166 491.248 407.566C527.861 416.546 544.326 451.575 544.326 482.292C544.326 482.305 544.326 482.305 544.326 482.305C544.326 513.784 528.255 539.721 502.372 549.99C488.104 555.646 472.602 555.637 456.314 549.933C426.694 539.581 404.456 514.407 396.314 495.388C393.48 488.773 392.045 481.948 392.045 475.124Z" fill="black" fill-opacity="0.1"/>
</svg>