<svg width="45" height="34" viewBox="0 0 45 34" fill="none" xmlns="http://www.w3.org/2000/svg">
<path d="M0.16 21.4V33.76H16.84V18.28H7.6C7.48 16.6 7.84 14.92 8.56 13.36C9.88 10.36 12.52 8.08 16.6 6.87999V0.759993C11.2 1.83999 7.12 4.11999 4.36 7.48C1.6 10.84 0.16 15.52 0.16 21.4ZM27.88 21.4V33.76H44.56V18.28H35.44C35.2 16.72 35.56 15.16 36.4 13.48C37.72 10.36 40.36 8.08 44.32 6.87999V0.759993C39.16 1.83999 35.08 4.11999 32.2 7.48C29.44 10.72 27.88 15.52 27.88 21.4Z" fill="white" fill-opacity="0.25"/>
</svg>
