<svg width="44" height="37" viewBox="0 0 44 37" fill="none" xmlns="http://www.w3.org/2000/svg">
<path d="M0.88 30.32V36.8C4.6 35.6 7.36 34.52 9.28 33.32C12.28 31.28 14.68 28.4 16.12 24.56C16.96 22.04 17.44 18.44 17.56 14V0.0799997H0.52V17H9.76C9.76 21.2 9.16 24.2 7.72 26C6.4 27.8 4.12 29.24 0.88 30.32ZM27.04 30.32V36.8C30.88 35.96 34.24 34.4 37 32.24C39.64 29.96 41.44 27.56 42.4 24.8C43.12 22.4 43.6 18.8 43.84 14V0.0799997H26.8V17H36.04C36.04 20.12 35.68 22.52 34.84 24.2C33.52 27.2 31 29.24 27.04 30.32Z" fill="white" fill-opacity="0.25"/>
</svg>
