<svg width="1049" height="1519" viewBox="0 0 1049 1519" fill="none" xmlns="http://www.w3.org/2000/svg">
    <path fill-rule="evenodd" clip-rule="evenodd" d="M324.844 906.902C303.858 887.759 307.444 861.78 317.81 843.825C320.797 838.652 324.476 833.825 328.73 829.457C345.705 812.107 382.703 791.438 408.157 802.163C415.885 805.415 421.214 811.079 424.011 818.994C431.174 839.247 420.217 868.18 413.411 880.637C413.054 881.281 412.701 881.919 412.338 882.548C402.703 899.237 389.028 910.961 372.77 916.458C355.302 922.373 341.703 915.47 325.96 907.472L324.844 906.902Z" fill="black" fill-opacity="0.1"/>
    <path fill-rule="evenodd" clip-rule="evenodd" d="M980.447 610.687C966.432 599.638 951.618 589.202 937.285 579.119C921.41 567.965 905.002 556.419 889.753 544.068C874.699 531.875 850.979 506.487 861.208 473.464C862.9 468.005 865.277 462.578 868.284 457.37C891.144 417.776 950.428 390.589 997.741 397.999C1059.47 407.678 1079.71 486.907 1081.94 532.199C1082.88 551.208 1081.24 578.641 1068.09 601.41C1063.19 609.896 1056.99 617.102 1049.69 622.803C1028.96 638.989 1003.09 625.069 980.447 610.687ZM862.546 454.035C862.536 454.052 862.536 454.052 862.536 454.052C859.281 459.691 856.711 465.551 854.879 471.474C843.486 508.22 869.235 535.936 885.597 549.187C901.025 561.679 917.521 573.29 933.477 584.515C947.782 594.581 962.578 604.984 976.489 615.958L976.763 616.154C995.777 628.236 1027.6 648.475 1053.8 628.015C1061.77 621.781 1068.51 613.952 1073.84 604.729C1087.78 580.586 1089.54 551.804 1088.56 531.92C1086.23 484.614 1064.69 401.809 998.725 391.48C948.984 383.683 886.618 412.342 862.546 454.035Z" fill="black" fill-opacity="0.1"/>
    <path fill-rule="evenodd" clip-rule="evenodd" d="M540.919 962.665C536.87 969.678 532.649 976.446 528.344 982.751C499.085 1025.79 462.303 1061.86 430.178 1091.47C419.968 1100.87 409.763 1110.87 399.884 1120.53C376.127 1143.8 351.549 1167.85 324.13 1186.72C301.256 1202.44 266.502 1215.98 230.824 1191.1C173.436 1144.68 105.361 1067.86 107.174 965.603C108.136 911.668 117.949 865.353 136.318 827.93C137.665 825.191 139.116 822.455 140.643 819.81C158.717 788.505 188.989 764.028 235.912 742.78C245.86 738.283 255.992 733.846 265.767 729.544C299.314 714.839 333.998 699.634 366.019 679.843C383.084 669.282 399.832 657.381 416.02 645.875C439.004 629.541 462.758 612.647 487.88 599.318C499.15 593.33 511.046 587.855 522.536 582.561C552.036 568.984 582.541 554.951 605.862 530.802C617.823 518.429 628.517 503.811 639.478 484.825C647.915 470.213 655.492 454.757 662.814 439.795C668.173 428.889 673.689 417.606 679.456 406.883C681.905 402.314 684.244 398.105 686.602 394.021C702.306 366.821 728.065 328.545 770.187 310.268C797.762 298.309 828.185 294.319 857.625 290.471C868.989 288.985 880.737 287.44 892.128 285.462C903.994 283.396 916.037 281.023 927.688 278.72C960.46 272.235 994.356 265.53 1028.37 265.147C1073.35 264.662 1113.4 284.253 1147.38 323.389C1178.02 358.681 1207.82 399.611 1235.96 445.05C1259.46 483.029 1268.92 520.465 1264.03 556.354C1259.9 586.726 1248.83 616.707 1229.2 650.709C1216.41 672.854 1201.3 694.485 1186.66 715.413C1172.1 736.254 1157.04 757.803 1144.36 779.767C1139.79 787.674 1135.83 795.097 1132.22 802.493C1121.65 824.229 1115.44 843.985 1113.27 862.863C1111.62 877.183 1112.88 891.646 1114.1 905.638C1114.88 914.666 1115.69 924.006 1115.71 933.2C1115.76 951.082 1112.76 964.985 1106.57 975.707C1103.95 980.239 1100.72 984.257 1096.95 987.644C1081.52 1001.5 1061.03 1001.38 1045.96 987.307C1027.38 969.967 1027.31 940.664 1027.27 914.802C1027.25 909.392 1027.24 904.286 1027.06 899.447C1025.78 865.213 1007.14 831.668 970.075 796.891C938.624 767.365 895.864 731.597 843.981 716.86C799.48 704.229 751.066 703.536 711.162 714.971C673.908 725.637 643.167 752.687 617.193 797.676C601.994 824.002 590.204 853.091 580.715 876.467C569.108 905.079 557.087 934.662 540.919 962.665ZM139.217 818.978C139.217 818.978 139.217 818.978 139.214 818.985C137.667 821.664 136.188 824.422 134.827 827.198C116.344 864.833 106.489 911.39 105.519 965.561C103.692 1068.48 172.109 1145.74 229.834 1192.42C266.342 1217.88 301.777 1204.1 325.08 1188.08C352.615 1169.14 377.242 1145.03 401.048 1121.71C410.921 1112.06 421.12 1102.07 431.306 1092.68C463.489 1063 500.367 1026.86 529.725 983.687C534.035 977.339 538.29 970.546 542.36 963.497C558.583 935.397 570.62 905.755 582.259 877.086C591.716 853.767 603.49 824.737 618.634 798.508C644.386 753.904 674.797 727.103 711.627 716.563C751.248 705.206 799.321 705.892 843.535 718.448C895.071 733.083 937.628 768.689 968.944 798.083C1005.67 832.552 1024.14 865.724 1025.4 899.499C1025.58 904.312 1025.59 909.403 1025.61 914.797C1025.66 940.991 1025.72 970.681 1044.83 988.514C1060.58 1003.19 1081.96 1003.34 1098.06 988.873C1101.96 985.367 1105.31 981.218 1108.01 976.539C1114.35 965.562 1117.41 951.386 1117.37 933.21C1117.36 923.939 1116.54 914.563 1115.75 905.507C1114.54 891.595 1113.29 877.223 1114.91 863.072C1117.07 844.371 1123.21 824.805 1133.71 803.225C1137.29 795.874 1141.25 788.462 1145.79 780.594C1158.44 758.687 1173.49 737.166 1188.04 716.349C1202.67 695.409 1217.82 673.743 1230.64 651.54C1250.38 617.346 1261.52 587.175 1265.67 556.582C1270.6 520.321 1261.08 482.502 1237.37 444.181C1209.19 398.662 1179.33 357.66 1148.63 322.305C1114.31 282.789 1073.84 263.001 1028.34 263.503C994.183 263.88 960.209 270.593 927.356 277.091C915.72 279.396 903.675 281.775 891.832 283.832C880.48 285.81 868.737 287.342 857.393 288.825C827.844 292.7 797.305 296.692 769.529 308.761C726.941 327.231 700.993 365.806 685.178 393.199C682.814 397.295 680.453 401.514 677.993 406.091C672.226 416.852 666.683 428.143 661.334 439.07C654.012 453.993 646.441 469.438 638.037 483.993C627.141 502.866 616.537 517.369 604.671 529.668C581.552 553.585 551.203 567.558 521.833 581.066C510.317 586.367 498.402 591.847 487.084 597.852C461.879 611.247 438.08 628.168 415.045 644.525C398.878 656.021 382.166 667.897 365.133 678.431C333.203 698.169 298.585 713.352 265.106 728.043C255.297 732.326 245.175 736.783 235.224 741.286C187.976 762.678 157.468 787.368 139.217 818.978Z" fill="black" fill-opacity="0.1"/>
    <path fill-rule="evenodd" clip-rule="evenodd" d="M245.42 1127.73C184.227 1073.71 147.452 988.969 151.757 911.795C153.382 882.792 161.342 855.119 174.807 831.797C183.17 817.311 193.647 804.406 205.949 793.459C233.272 769.099 267.938 753.23 301.457 737.867C311.119 733.446 321.113 728.869 330.678 724.197C360.846 709.462 390.511 692.614 419.2 676.315C434.937 667.385 451.204 658.14 467.326 649.38C486.589 638.915 507.733 631.14 530.164 626.257C542.477 623.571 555.37 622.514 567.84 621.484C579.259 620.544 591.065 619.562 602.609 617.355C622.503 613.54 638.094 601.433 650.268 580.348C658.311 566.416 663.904 550.555 669.317 535.233C671.337 529.494 673.264 524.087 675.256 518.869C687.468 487.104 700.081 454.255 717.268 424.485C725.688 409.901 734.455 397.31 744.053 385.993C759.606 367.661 777.121 353.215 796.135 343.053C809.622 335.841 824.573 331.472 839.01 327.252C846.254 325.134 853.727 322.936 861 320.412C873.798 315.964 887.597 313.463 900.959 311.043C908.371 309.688 916.04 308.299 923.472 306.592C926.25 305.935 929.038 305.298 931.828 304.655C952.521 299.834 973.936 294.855 995.321 292.468C1028.1 288.795 1075.04 291.426 1112.47 324.797C1140.38 349.683 1160.52 383.193 1179.99 415.6C1183.68 421.736 1187.5 428.093 1191.27 434.204C1211.15 466.498 1231.18 505.105 1228.78 546.782C1226.98 578.483 1216.01 610.21 1193.24 649.651C1189.37 656.356 1185.01 663.562 1179.88 671.706L1177.15 676.051C1152.89 714.618 1127.81 754.505 1091.84 782.608C1054.81 811.549 1018.01 788.861 983.489 763.15C976.735 758.124 969.784 752.78 963.056 747.625C932.174 723.941 900.251 699.452 864.615 685.359C829.163 671.335 790.007 666.714 752.135 662.267C745.551 661.484 738.982 660.709 732.495 659.89C729.57 659.518 726.621 659.124 723.639 658.725C707.281 656.512 690.374 654.231 674.003 656.359C651.288 659.308 637.495 675.2 627.007 690.36C623.676 695.168 620.407 700.353 617.279 705.77C603.213 730.133 593.149 757.224 583.422 783.412C580.594 791.029 577.669 798.908 574.711 806.495C569.826 819.081 565.073 832.047 560.466 844.567C548.773 876.464 536.671 909.419 521.112 939.853C518.796 944.406 516.304 948.978 513.725 953.445C494.68 986.433 469.08 1016.89 435.489 1046.58C399.052 1078.76 365.372 1103.84 332.526 1123.24C298.249 1143.5 268.94 1145.01 245.42 1127.73ZM169.064 828.473L169.061 828.48C155.084 852.688 146.817 881.366 145.139 911.389C142.93 951.136 150.963 993.028 168.405 1032.55C185.424 1071.15 210.585 1105.81 241.168 1132.76L241.393 1132.95C267.271 1152.05 299.08 1150.7 335.929 1128.93C369.137 1109.31 403.146 1083.99 439.892 1051.52C474.03 1021.37 500.067 990.376 519.473 956.764C522.107 952.201 524.642 947.524 527.027 942.881C542.753 912.092 554.929 878.945 566.705 846.876C571.284 834.37 576.032 821.447 580.904 808.914C583.871 801.279 586.791 793.375 589.633 785.735C599.271 759.798 609.236 732.976 623.027 709.089C626.066 703.825 629.244 698.799 632.471 694.136C642.132 680.154 654.75 665.528 674.894 662.909C690.404 660.897 706.865 663.117 722.781 665.264C725.781 665.666 728.761 666.07 731.705 666.439C738.21 667.26 744.78 668.035 751.4 668.816C788.841 673.226 827.566 677.78 862.199 691.498C896.966 705.255 928.513 729.451 959.03 752.856C965.779 758.023 972.75 763.379 979.547 768.431C1014.52 794.493 1055.24 819.628 1095.94 787.824C1132.82 759.001 1158.21 718.634 1182.76 679.587L1185.5 675.245C1190.67 667.034 1195.08 659.742 1198.99 652.969C1222.3 612.598 1233.53 579.981 1235.41 547.195C1237.89 503.701 1217.34 463.938 1196.92 430.778C1193.16 424.678 1189.36 418.351 1185.67 412.229C1165.94 379.403 1145.54 345.447 1116.87 319.884C1085.79 292.172 1043.48 280.428 994.539 285.906C972.77 288.336 951.176 293.37 930.278 298.224C927.512 298.858 924.722 299.501 921.945 300.152C914.667 301.819 907.076 303.2 899.731 304.533C886.135 307.007 872.061 309.569 858.79 314.167C851.668 316.65 844.266 318.821 837.112 320.915C822.339 325.236 807.067 329.715 792.981 337.224C773.239 347.782 755.056 362.743 738.979 381.695C729.115 393.343 720.13 406.246 711.516 421.165C694.07 451.383 681.362 484.464 669.066 516.476C667.037 521.786 665.111 527.231 663.068 533.01C657.743 548.05 652.248 563.619 644.509 577.023C633.19 596.628 619.463 607.383 601.315 610.86C590.12 613.011 578.485 613.971 567.24 614.898C554.565 615.945 541.453 617.028 528.703 619.801C505.659 624.816 483.938 632.817 464.133 643.581C447.946 652.373 431.653 661.624 415.891 670.571C387.284 686.819 357.702 703.616 327.733 718.268C318.243 722.902 308.277 727.457 298.665 731.869C264.694 747.425 229.577 763.513 201.509 788.522C188.693 799.939 177.776 813.384 169.064 828.473Z" fill="black" fill-opacity="0.1"/>
    <path fill-rule="evenodd" clip-rule="evenodd" d="M1157.25 653.598C1150.85 664.694 1143.5 676.093 1134.81 688.432C1111.42 721.623 1086.83 739.776 1059.63 743.924C1026.22 749.008 995.424 730.47 972.324 713.76C966.249 709.345 960.172 704.838 954.294 700.469C929.366 681.917 905.82 664.413 877.458 651.6C863.293 645.192 848.317 639.979 833.831 634.944C807.395 625.754 780.06 616.235 756.89 599.182C702.995 548.544 744.124 466.078 758.02 442.009C759.651 439.184 761.344 436.38 763.064 433.659C810.069 359.313 901.309 334.231 965.851 321.826C1020.62 311.309 1061.04 319.24 1093.06 346.783C1125.15 374.351 1148.81 417.135 1167.74 455.348C1188 496.283 1194.54 539.318 1186.64 579.772C1182.08 603.099 1172.47 627.244 1157.25 653.598ZM756.581 441.178C740.893 468.35 731.055 497.257 728.886 522.537C726.11 554.818 735.171 581.023 755.834 600.433C779.277 617.719 806.738 627.258 833.296 636.495C847.744 641.531 862.687 646.725 876.789 653.097C904.974 665.845 928.459 683.299 953.312 701.785C959.191 706.155 965.268 710.677 971.355 715.084C994.717 731.983 1025.88 750.733 1059.89 745.549C1087.55 741.341 1112.5 722.97 1136.16 689.396C1144.9 677.004 1152.26 665.582 1158.69 654.43C1174.01 627.911 1183.68 603.596 1188.27 580.1C1196.24 539.279 1189.65 495.889 1169.22 454.617C1150.22 416.268 1126.44 373.307 1094.15 345.526C1061.7 317.632 1020.83 309.579 965.526 320.216C900.681 332.666 809.007 357.89 761.656 432.771C759.921 435.521 758.222 438.336 756.581 441.178Z" fill="black" fill-opacity="0.1"/>
    <path fill-rule="evenodd" clip-rule="evenodd" d="M1123.15 642.699C1109.6 666.172 1093.18 682.952 1074.33 692.589C1049.54 705.245 1021.01 701.185 989.54 680.519C985.654 677.686 981.748 674.841 977.849 671.985C940.585 644.783 902.048 616.641 859.256 595.831C816.508 575.045 794.146 550.003 790.898 519.266C788.332 495.147 793.195 472.27 805.332 451.247C841.41 388.759 927.423 362.883 952.944 356.433C1003.91 343.556 1041.05 348.23 1069.81 371.134C1098.66 394.109 1123.92 434.45 1139.1 481.806C1152.94 524.935 1152.86 568.672 1138.88 608.276C1134.54 620.562 1129.25 632.148 1123.15 642.699ZM803.902 450.4C803.893 450.417 803.902 450.4 803.893 450.417C791.578 471.745 786.652 494.957 789.239 519.42C792.565 550.792 815.23 576.267 858.535 597.321C901.195 618.071 937.957 644.907 976.874 673.321C980.78 676.166 984.687 679.011 988.604 681.87C1020.64 702.91 1049.74 707.011 1075.11 694.05C1094.23 684.276 1110.88 667.282 1124.6 643.531C1130.74 632.884 1136.07 621.205 1140.44 608.842C1154.54 568.889 1154.63 524.782 1140.68 481.316C1125.41 433.647 1099.95 393.02 1070.84 369.847C1041.64 346.595 1004.04 341.825 952.522 354.828C926.866 361.321 840.288 387.378 803.902 450.4Z" fill="black" fill-opacity="0.1"/>
    <path fill-rule="evenodd" clip-rule="evenodd" d="M486.349 942.846C485.653 944.051 484.949 945.242 484.239 946.438C461.757 984.165 427.702 1016.06 383.033 1041.23C332.036 1069.98 292.283 1071.89 264.901 1046.94C229.09 1007.26 173.61 929.056 204.991 851.7C206.974 846.824 209.323 842.022 211.969 837.438C231.431 803.729 266.319 782.484 301.124 764.54C312.634 758.607 324.28 752.322 335.526 746.245C364.439 730.619 394.317 714.462 425.383 702.575C427.512 701.77 429.712 700.907 431.996 700.017C460.33 688.997 499.136 673.895 525.833 690.102C559.945 710.825 546.793 763.732 538.1 798.746C537.337 801.761 536.622 804.631 535.985 807.304C527.351 843.524 512.827 896.984 486.349 942.846Z" fill="black" fill-opacity="0.1"/>
    <path fill-rule="evenodd" clip-rule="evenodd" d="M459.674 919.007C437.459 957.485 396.056 999.549 346.479 1002.21C328.972 1003.13 311.238 997.509 296.571 986.363C266.705 962.714 247.774 930.096 244.638 896.894C242.827 877.826 246.873 859.592 256.636 842.682C256.639 842.676 256.639 842.676 256.639 842.676C265.223 827.809 278.069 814.165 294.808 802.124C326.683 779.22 369.112 758.366 411.255 744.926C450.106 732.55 475.75 736.434 487.497 756.475C499.225 776.497 496.315 803.414 491.91 827.093C487.41 851.353 479.854 875.768 469.449 899.676C466.657 906.113 463.365 912.616 459.674 919.007Z" fill="black" fill-opacity="0.1"/>
</svg>