<svg width="40" height="40" viewBox="0 0 40 40" fill="none" xmlns="http://www.w3.org/2000/svg">
<path d="M26.7487 28.0398C26.6034 28.185 26.5198 28.3866 26.5198 28.592C26.5198 28.7975 26.6033 28.9991 26.7487 29.1452C26.8948 29.2905 27.0955 29.3733 27.301 29.3733C27.5073 29.3733 27.7081 29.2905 27.8533 29.1452C27.9994 28.9991 28.0823 28.7975 28.0823 28.592C28.0823 28.3866 27.9994 28.185 27.8533 28.0398C27.7081 27.8945 27.5072 27.8108 27.301 27.8108C27.0955 27.8108 26.8948 27.8945 26.7487 28.0398Z" fill="black"/>
<path d="M35.7812 30.3906C35.5758 30.3906 35.3742 30.4741 35.2289 30.6195C35.0836 30.7649 35 30.9664 35 31.1719C35 31.3773 35.0835 31.5789 35.2289 31.7241C35.3742 31.8695 35.5758 31.9531 35.7812 31.9531C35.9867 31.9531 36.1883 31.8695 36.3335 31.7241C36.4789 31.5789 36.5625 31.3773 36.5625 31.1719C36.5625 30.9664 36.4789 30.7648 36.3335 30.6195C36.1883 30.4741 35.9867 30.3906 35.7812 30.3906Z" fill="black"/>
<path d="M3.40397 20C3.40397 18.363 4.73577 17.0312 6.37273 17.0312C8.00968 17.0312 9.34148 18.363 9.34148 20C9.34148 20.4314 9.69132 20.7812 10.1227 20.7812C10.5541 20.7812 10.904 20.4314 10.904 20C10.904 17.768 9.28132 15.909 7.15398 15.5376V15.2084C7.15398 15.204 7.15343 15.1997 7.15335 15.1953H7.18765C7.61905 15.1953 7.9689 14.8455 7.9689 14.4141C7.9689 13.9826 7.61905 13.6328 7.18765 13.6328H5.5578C5.1264 13.6328 4.77655 13.9826 4.77655 14.4141C4.77655 14.8455 5.1264 15.1953 5.5578 15.1953H5.59218C5.5921 15.1997 5.59155 15.2039 5.59155 15.2084V15.5376C3.46421 15.9091 1.84155 17.768 1.84155 20C1.84155 20.4314 2.1914 20.7812 2.6228 20.7812C3.05421 20.7812 3.40397 20.4314 3.40397 20Z" fill="black"/>
<path d="M39.2188 20.7812H35.9375V14.7082C35.9375 13.1289 34.8712 11.7441 33.3443 11.3405L30.4398 10.5728V8.76711C30.4398 8.72414 30.4355 8.68227 30.4288 8.64109C30.8419 8.04039 31.0843 7.31383 31.0843 6.53156V4.56906V3.97719V0.78125C31.0843 0.349766 30.7345 0 30.303 0H24.3845C23.953 0 23.6032 0.349766 23.6032 0.78125V3.97727V4.56914V6.53164C23.6032 7.31391 23.8456 8.04039 24.2587 8.64117C24.2521 8.68227 24.2477 8.72414 24.2477 8.76719V10.5729L21.3432 11.3405C19.8163 11.7441 18.75 13.1289 18.75 14.7082V20.7812H10.1226H2.62258H0.78125C0.349844 20.7812 0 21.1311 0 21.5625V25.3125C0 25.7439 0.349844 26.0938 0.78125 26.0938H3.4375V39.2188C3.4375 39.6502 3.78734 40 4.21875 40H35.7812C36.2127 40 36.5625 39.6502 36.5625 39.2188V34.1473C36.5625 33.7159 36.2127 33.3661 35.7812 33.3661C35.3498 33.3661 35 33.7159 35 34.1473V38.4375H5V29.3737H24.3845C24.8159 29.3737 25.1657 29.0238 25.1657 28.5924C25.1657 28.161 24.8159 27.8112 24.3845 27.8112H5V26.0938H35V27.8906C35 28.322 35.3498 28.6719 35.7812 28.6719C36.2127 28.6719 36.5625 28.322 36.5625 27.8906V26.0938H39.2188C39.6502 26.0938 40 25.7439 40 25.3125V21.5625C40 21.1311 39.6502 20.7812 39.2188 20.7812ZM34.375 14.7082V20.7812H32.8125V15.7812C32.8125 15.3498 32.4627 15 32.0312 15C31.5998 15 31.25 15.3498 31.25 15.7812V20.7812H28.125V12.7498L29.784 12.0156L32.9449 12.8511C33.787 13.0737 34.375 13.8373 34.375 14.7082ZM28.125 10.1849C28.387 10.1291 28.6387 10.0454 28.8773 9.93773V10.7083L28.125 11.0412V10.1849ZM29.5218 6.53164C29.5218 7.73 28.5447 8.705 27.3438 8.705C26.1428 8.705 25.1657 7.73008 25.1657 6.53164V5.35039H29.5218V6.53164ZM25.8102 9.93773C26.0488 10.0454 26.3005 10.1291 26.5625 10.1849V11.0412L25.8102 10.7083V9.93773ZM25.1657 1.5625H29.5218V3.78789H25.1657V1.5625ZM20.3125 14.7082C20.3125 13.8373 20.9005 13.0737 21.7426 12.8511L24.9035 12.0156L26.5625 12.7498V20.7812H23.5927V15.7812C23.5927 15.3498 23.2429 15 22.8115 15C22.3801 15 22.0302 15.3498 22.0302 15.7812V20.7812H20.3125V14.7082ZM38.4375 24.5312H1.5625V22.3438H38.4375V24.5312Z" fill="black"/>
<path d="M29.4477 14.6554C29.3023 14.8015 29.2188 15.0022 29.2188 15.2085C29.2188 15.414 29.3023 15.6155 29.4477 15.7608C29.593 15.9062 29.7945 15.9897 30 15.9897C30.2055 15.9897 30.407 15.9062 30.5523 15.7608C30.6976 15.6155 30.7812 15.414 30.7812 15.2085C30.7812 15.0022 30.6977 14.8015 30.5523 14.6554C30.407 14.5101 30.2055 14.4272 30 14.4272C29.7937 14.4272 29.593 14.5101 29.4477 14.6554Z" fill="black"/>
</svg>
