<svg width="40" height="40" viewBox="0 0 40 40" fill="none" xmlns="http://www.w3.org/2000/svg">
<path d="M12.0718 11.3855H8.32178C7.89029 11.3855 7.54053 11.7353 7.54053 12.1667V16.5417C7.54053 16.9732 7.89029 17.323 8.32178 17.323H12.0718C12.5033 17.323 12.853 16.9732 12.853 16.5417V12.1667C12.853 11.7353 12.5033 11.3855 12.0718 11.3855ZM11.2905 15.7605H9.10303V12.948H11.2905V15.7605Z" fill="black"/>
<path d="M12.0718 20.1353H8.32178C7.89029 20.1353 7.54053 20.485 7.54053 20.9165V25.2915C7.54053 25.723 7.89029 26.0728 8.32178 26.0728H12.0718C12.5033 26.0728 12.853 25.723 12.853 25.2915V20.9165C12.853 20.485 12.5033 20.1353 12.0718 20.1353ZM11.2905 24.5103H9.10303V21.6978H11.2905V24.5103Z" fill="black"/>
<path d="M12.0718 28.8853H8.32178C7.89029 28.8853 7.54053 29.235 7.54053 29.6665V34.0415C7.54053 34.473 7.89029 34.8228 8.32178 34.8228H12.0718C12.5033 34.8228 12.853 34.473 12.853 34.0415V29.6665C12.853 29.235 12.5033 28.8853 12.0718 28.8853ZM11.2905 33.2603H9.10303V30.4478H11.2905V33.2603Z" fill="black"/>
<path d="M33.2422 34.0415V29.6665C33.2422 29.235 32.8924 28.8853 32.4609 28.8853H28.7109C28.2795 28.8853 27.9297 29.235 27.9297 29.6665V34.0415C27.9297 34.473 28.2795 34.8228 28.7109 34.8228H32.4609C32.8924 34.8228 33.2422 34.473 33.2422 34.0415ZM31.6797 33.2603H29.4922V30.4478H31.6797V33.2603Z" fill="black"/>
<path d="M18.8677 11.3855H15.1177C14.6862 11.3855 14.3364 11.7353 14.3364 12.1667V16.5417C14.3364 16.9732 14.6862 17.323 15.1177 17.323H18.8677C19.2992 17.323 19.6489 16.9732 19.6489 16.5417V12.1667C19.6489 11.7353 19.2992 11.3855 18.8677 11.3855ZM18.0864 15.7605H15.8989V12.948H18.0864V15.7605Z" fill="black"/>
<path d="M25.6641 11.3855H21.9141C21.4826 11.3855 21.1328 11.7353 21.1328 12.1667V16.5417C21.1328 16.9732 21.4826 17.323 21.9141 17.323H25.6641C26.0955 17.323 26.4453 16.9732 26.4453 16.5417V12.1667C26.4453 11.7353 26.0955 11.3855 25.6641 11.3855ZM24.8828 15.7605H22.6953V12.948H24.8828V15.7605Z" fill="black"/>
<path d="M18.8677 20.1353H15.1177C14.6862 20.1353 14.3364 20.485 14.3364 20.9165V25.2915C14.3364 25.723 14.6862 26.0728 15.1177 26.0728H18.8677C19.2992 26.0728 19.6489 25.723 19.6489 25.2915V20.9165C19.6489 20.485 19.2992 20.1353 18.8677 20.1353ZM18.0864 24.5103H15.8989V21.6978H18.0864V24.5103Z" fill="black"/>
<path d="M25.6641 20.1353H21.9141C21.4826 20.1353 21.1328 20.485 21.1328 20.9165V25.2915C21.1328 25.723 21.4826 26.0728 21.9141 26.0728H25.6641C26.0955 26.0728 26.4453 25.723 26.4453 25.2915V20.9165C26.4453 20.485 26.0955 20.1353 25.6641 20.1353ZM24.8828 24.5103H22.6953V21.6978H24.8828V24.5103Z" fill="black"/>
<path d="M28.7109 17.323H32.4609C32.8924 17.323 33.2422 16.9732 33.2422 16.5417V12.1667C33.2422 11.7353 32.8924 11.3855 32.4609 11.3855H28.7109C28.2795 11.3855 27.9297 11.7353 27.9297 12.1667V16.5417C27.9297 16.9732 28.2795 17.323 28.7109 17.323ZM29.4922 12.948H31.6797V15.7605H29.4922V12.948Z" fill="black"/>
<path d="M28.7109 26.0728H32.4609C32.8924 26.0728 33.2422 25.723 33.2422 25.2915V20.9165C33.2422 20.485 32.8924 20.1353 32.4609 20.1353H28.7109C28.2795 20.1353 27.9297 20.485 27.9297 20.9165V25.2915C27.9297 25.723 28.2795 26.0728 28.7109 26.0728ZM29.4922 21.6978H31.6797V24.5103H29.4922V21.6978Z" fill="black"/>
<path d="M39.2188 38.4375H36.2882V8.12992C36.2882 7.69844 35.9384 7.34867 35.507 7.34867H31.1709V4.53125C31.1709 4.09977 30.8211 3.75 30.3896 3.75H26.0938V0.78125C26.0938 0.349766 25.744 0 25.3125 0H14.6875C14.256 0 13.9062 0.349766 13.9062 0.78125V3.75H9.61047C9.17898 3.75 8.82922 4.09977 8.82922 4.53125V7.34867H4.49305C4.06156 7.34867 3.7118 7.69844 3.7118 8.12992V38.4375H0.78125C0.349766 38.4375 0 38.7873 0 39.2188C0 39.6502 0.349766 40 0.78125 40H39.2188C39.6502 40 40 39.6502 40 39.2188C40 38.7873 39.6502 38.4375 39.2188 38.4375ZM15.4688 1.5625H24.5312V3.75H15.4688V1.5625ZM23.2812 30.8271C23.2638 30.8417 23.2466 30.8568 23.2302 30.8732L16.7188 37.3847V34.0736L21.7299 29.0625H23.2812V30.8271ZM16.7188 31.8638V29.0625H19.5201L16.7188 31.8638ZM17.8757 38.4375L23.2812 33.032V38.4375H17.8757ZM24.8438 38.4375V29.0625H25.1172C25.5487 29.0625 25.8984 28.7127 25.8984 28.2812C25.8984 27.8498 25.5487 27.5 25.1172 27.5H14.8828C14.4513 27.5 14.1016 27.8498 14.1016 28.2812C14.1016 28.7127 14.4513 29.0625 14.8828 29.0625H15.1562V38.4375H5.2743V8.91117H13.9467C14.3782 8.91117 14.728 8.56141 14.728 8.12992C14.728 7.69844 14.3782 7.34867 13.9467 7.34867H10.3917V5.3125H29.6084V7.34867H20.1191C19.6876 7.34867 19.3378 7.69844 19.3378 8.12992C19.3378 8.56141 19.6876 8.91117 20.1191 8.91117H34.7257V38.4375H29.493H24.8438Z" fill="black"/>
<path d="M16.9932 8.91089C17.1986 8.91089 17.4002 8.82808 17.5455 8.68198C17.6908 8.53667 17.7744 8.33511 17.7744 8.12964C17.7744 7.92417 17.6908 7.72261 17.5455 7.57729C17.4002 7.43198 17.1986 7.34839 16.9932 7.34839C16.7877 7.34839 16.5861 7.43198 16.4408 7.57729C16.2955 7.72261 16.2119 7.92417 16.2119 8.12964C16.2119 8.33511 16.2955 8.53667 16.4408 8.68198C16.5861 8.82808 16.7877 8.91089 16.9932 8.91089Z" fill="black"/>
</svg>
