<svg width="40" height="40" viewBox="0 0 40 40" fill="none" xmlns="http://www.w3.org/2000/svg">
<path d="M20 10.4095L24.7496 6.45161H30.9678V0H15.4839V6.45161H20V10.4095ZM16.7742 5.16129V1.29032H29.6774V5.16129H24.2827L21.2903 7.65499V5.16129H16.7742Z" fill="black"/>
<path d="M18.0647 2.58057H19.355V3.87089H18.0647V2.58057Z" fill="black"/>
<path d="M20.645 2.58057H25.8063V3.87089H20.645V2.58057Z" fill="black"/>
<path d="M27.0967 2.58057H28.387V3.87089H27.0967V2.58057Z" fill="black"/>
<path d="M32.8418 38.7097L32.3201 33.487C34.4742 33.1465 36.129 31.2813 36.129 29.0323V20.6452H33.5484V19.7537C33.5484 18.8767 33.0664 18.0892 32.2915 17.6853C33.062 16.9775 33.5484 15.9653 33.5484 14.8388V13.5485C33.5484 11.4136 31.8123 9.67749 29.6774 9.67749C27.5425 9.67749 25.8064 11.4136 25.8064 13.5485V14.8388C25.8064 16.509 26.8715 17.931 28.3569 18.4729L24.8942 21.9356H21.2761C21.204 20.8601 20.4653 19.9226 19.4188 19.6233L16.7742 18.8685V17.7162C17.5639 17.0071 18.0645 15.982 18.0645 14.8388V13.5485C18.0645 11.4136 16.3284 9.67749 14.1935 9.67749C12.0587 9.67749 10.3226 11.4136 10.3226 13.5485V14.8388C10.3226 15.9814 10.8231 17.0064 11.6129 17.7162V18.8691L8.96831 19.6239C7.86637 19.938 7.09677 20.9587 7.09677 22.1054V24.5162H4.51613V28.3872H5.80645V38.7097H0V40.0001H40V38.7097H32.8418ZM27.0968 28.3872V25.4285L31.6683 20.8569C31.9988 20.5265 32.1954 20.0826 32.2395 19.6195C32.2451 19.6646 32.2581 19.7071 32.2581 19.7537V27.742C32.2581 28.809 31.3896 29.6775 30.3226 29.6775H25.1613V28.3872H27.0968ZM25.1613 33.5485H28.4485L28.9645 38.7097H25.1613V33.5485ZM29.7451 33.5485H31.0292L31.5452 38.7097H30.2612L29.7451 33.5485ZM33.5484 27.742V21.9356H34.8387V29.0323C34.8387 30.8109 33.3915 32.2581 31.6129 32.2581H25.1613V30.9678H30.3226C32.1012 30.9678 33.5484 29.5206 33.5484 27.742ZM27.0968 14.8388V13.5485C27.0968 12.1252 28.2542 10.9678 29.6774 10.9678C31.1007 10.9678 32.2581 12.1252 32.2581 13.5485V14.8388C32.2581 16.262 31.1007 17.4194 29.6774 17.4194C28.2542 17.4194 27.0968 16.262 27.0968 14.8388ZM25.4284 23.2259L29.7329 18.9214C29.8677 18.7866 30.0542 18.7097 30.2445 18.7097C30.6433 18.7097 30.9677 19.0342 30.9677 19.433C30.9677 19.6233 30.8909 19.8098 30.756 19.9446L26.1845 24.5162H19.3548C18.9989 24.5162 18.7097 24.227 18.7097 23.871C18.7097 23.5151 18.9989 23.2259 19.3548 23.2259H25.4284ZM11.6129 13.5485C11.6129 12.1252 12.7703 10.9678 14.1935 10.9678C15.6168 10.9678 16.7742 12.1252 16.7742 13.5485V14.8388C16.7742 16.262 15.6168 17.4194 14.1935 17.4194C12.7703 17.4194 11.6129 16.262 11.6129 14.8388V13.5485ZM14.1935 18.7097C14.6465 18.7097 15.0794 18.6272 15.4839 18.4839V19.1769C15.3238 19.4239 14.8793 20.0001 14.1935 20.0001C13.5077 20.0001 13.0633 19.4239 12.9032 19.1769V18.4839C13.3077 18.6272 13.7405 18.7097 14.1935 18.7097ZM8.3871 22.1054C8.3871 21.5317 8.77237 21.022 9.32271 20.8645L11.9805 20.1053C12.3548 20.5929 13.0831 21.2904 14.1935 21.2904C15.304 21.2904 16.0323 20.5929 16.4066 20.1047L19.0644 20.8639C19.5587 21.0053 19.9033 21.435 19.9723 21.9349H19.3548C18.2879 21.9349 17.4194 22.8034 17.4194 23.8704C17.4194 24.0975 17.4657 24.313 17.5381 24.5156H8.3871V22.1054ZM5.80645 25.8065H25.8064V27.0968H5.80645V25.8065ZM7.09677 30.9678H9.03226V29.6775H7.09677V28.3872H23.871V29.6775H10.3226V30.9678H23.871V38.7097H22.3343L21.044 36.1291H9.92377L8.63344 38.7097H7.09677V30.9678ZM20.8915 38.7097H10.0762L10.7214 37.4194H20.2463L20.8915 38.7097Z" fill="black"/>
</svg>
