<svg width="38" height="40" viewBox="0 0 38 40" fill="none" xmlns="http://www.w3.org/2000/svg">
<path d="M4.74987 15.8189H3.1665V9.14824C3.1665 7.7667 4.22983 6.64673 5.54149 6.64673H24.5413V8.31438H5.54149C5.10427 8.31438 4.7498 8.68773 4.7498 9.14824V15.8189H4.74987Z" fill="#0C0000"/>
<path d="M13.4581 33.3294H5.54149C4.22983 33.3294 3.1665 32.2094 3.1665 30.8279V22.4895H4.7498V30.8279C4.7498 31.2884 5.10427 31.6618 5.54149 31.6618H13.4581V33.3294Z" fill="#0C0000"/>
<path d="M20.0177 40C19.8078 39.9999 19.6065 39.912 19.4581 39.7557L0.231783 19.5051C-0.0772611 19.1795 -0.0772611 18.6517 0.231783 18.326L4.75531 13.5615C5.06442 13.236 5.56555 13.236 5.87474 13.5615L25.101 33.8121C25.4101 34.1377 25.4101 34.6655 25.101 34.9912L20.5775 39.7557C20.429 39.912 20.2277 40 20.0177 40ZM1.91089 18.9156L20.0177 37.9871L23.4219 34.4016L5.31506 15.3301L1.91089 18.9156Z" fill="#0C0000"/>
<path d="M34.8329 38.3325H32.4579C32.0207 38.3325 31.6662 37.9592 31.6662 37.4987V33.3295H22.958V31.6619H34.8329C36.5818 31.6619 37.9996 33.1552 37.9996 34.9972C37.9996 36.8392 36.5818 38.3325 34.8329 38.3325ZM33.2496 36.6649H34.8329C35.7074 36.6649 36.4162 35.9183 36.4162 34.9972C36.4162 34.0762 35.7074 33.3296 34.8329 33.3296H33.2496V36.6649Z" fill="#0C0000"/>
<path d="M37.9999 34.9971H36.4166V9.98202C36.4166 9.061 35.7077 8.31438 34.8333 8.31438H30.875V6.64673H34.8333C36.5822 6.64673 37.9999 8.14005 37.9999 9.9821V34.9971H37.9999Z" fill="#0C0000"/>
<path d="M14.4816 23.5674L12.1064 26.0691L13.226 27.2483L15.6012 24.7466L14.4816 23.5674Z" fill="#0C0000"/>
<path d="M11.3156 20.2322L8.94043 22.7339L10.06 23.9131L12.4352 21.4114L11.3156 20.2322Z" fill="#0C0000"/>
<path d="M17.6467 26.9028L15.2715 29.4045L16.391 30.5837L18.7662 28.082L17.6467 26.9028Z" fill="#0C0000"/>
<path d="M20.8151 30.2397L18.4399 32.7415L19.5595 33.9206L21.9347 31.4189L20.8151 30.2397Z" fill="#0C0000"/>
<path d="M8.14666 16.8967L5.77148 19.3984L6.89103 20.5776L9.26621 18.0759L8.14666 16.8967Z" fill="#0C0000"/>
<path d="M21.5496 18.2587C21.3396 18.2593 21.138 18.1713 20.9899 18.0144L17.7069 14.5565C17.3978 14.2309 17.3978 13.7031 17.7069 13.3774L29.7448 0.698097C30.6706 -0.232699 32.1275 -0.232699 33.0532 0.698097L34.1472 1.85043C35.0608 2.81203 35.0613 4.37164 34.1483 5.33386C34.148 5.33425 34.1476 5.33465 34.1472 5.33504L22.1093 18.0143C21.9608 18.1708 21.7596 18.2586 21.5496 18.2587ZM19.386 13.9669L21.5496 16.2458L33.0287 4.15518C33.324 3.84429 33.3242 3.34008 33.0291 3.02904C33.0289 3.02888 33.0288 3.0288 33.0287 3.02864L31.9338 1.87709C31.6349 1.57621 31.164 1.57621 30.8651 1.87709L19.386 13.9669Z" fill="#0C0000"/>
<path d="M16.6248 19.9879C16.1876 19.988 15.8331 19.6148 15.833 19.1543C15.833 19.0647 15.8467 18.9756 15.8736 18.8906L17.5155 13.7034L19.0197 14.2312L17.8789 17.8359L21.2957 16.6343L21.7968 18.2186L16.8719 19.948C16.792 19.9748 16.7086 19.9883 16.6248 19.9879Z" fill="#0C0000"/>
<path d="M28.6752 3.00269L27.5557 4.18188L30.8388 7.63992L31.9583 6.46073L28.6752 3.00269Z" fill="#0C0000"/>
<path d="M28.4994 18.3203H16.6245V19.988H28.4994V18.3203Z" fill="#0C0000"/>
<path d="M31.6663 18.3203H30.083V19.988H31.6663V18.3203Z" fill="#0C0000"/>
<path d="M34.8328 18.3203H33.2495V19.988H34.8328V18.3203Z" fill="#0C0000"/>
</svg>
