<svg width="89" height="89" viewBox="0 0 89 89" fill="none" xmlns="http://www.w3.org/2000/svg">
    <g clip-path="url(#clip0)">
        <path d="M78.0301 17.1768H63.842V19.3754H78.0301C80.3819 19.3783 82.2871 21.2835 82.29 23.6346V61.1912H6.91691V23.6346C6.91977 21.2835 8.82569 19.3783 11.1768 19.3754H25.3656V17.1768H11.1768C7.61186 17.1811 4.72256 20.0696 4.71826 23.6346V67.1824C4.72256 70.7473 7.61186 73.6366 11.1768 73.6402H33.2534V86.8013H28.134C27.5271 86.8013 27.0347 87.2937 27.0347 87.9006C27.0347 88.5075 27.5271 89 28.134 89H62.037C62.6446 89 63.1363 88.5075 63.1363 87.9006C63.1363 87.2937 62.6446 86.8013 62.037 86.8013H55.9542V73.6402H78.0301C81.5957 73.6366 84.4843 70.7473 84.4886 67.1824V23.6346C84.4843 20.0696 81.595 17.1811 78.0301 17.1768ZM53.7555 86.8006H35.4514V73.6402H53.7555V86.8006ZM78.0301 71.4416H11.1768C8.82569 71.4387 6.92049 69.5335 6.91691 67.1824V63.3899H82.29V67.1824C82.2871 69.5335 80.3812 71.4387 78.0301 71.4416Z" fill="white"/>
        <path d="M44.0407 49.0605C43.4331 49.0605 42.9414 49.5522 42.9414 50.1599V56.4481C42.9414 57.055 43.4331 57.5474 44.0407 57.5474C44.6476 57.5474 45.14 57.055 45.14 56.4481V50.1599C45.14 49.5522 44.6476 49.0605 44.0407 49.0605Z" fill="#3DD598"/>
        <path d="M44.0407 44.459C43.4331 44.459 42.9414 44.9514 42.9414 45.5583V46.2754C42.9414 46.8831 43.4331 47.3748 44.0407 47.3748C44.6476 47.3748 45.14 46.8831 45.14 46.2754V45.5583C45.14 44.9514 44.6476 44.459 44.0407 44.459Z" fill="#3DD598"/>
        <path d="M35.1608 50.6963C34.5539 50.6963 34.0615 51.1887 34.0615 51.7956V54.6162C34.0615 55.2231 34.5539 55.7156 35.1608 55.7156C35.7678 55.7156 36.2602 55.2231 36.2602 54.6162V51.7956C36.2602 51.1887 35.7678 50.6963 35.1608 50.6963Z" fill="#3DD598"/>
        <path d="M35.1608 42.627C34.5539 42.627 34.0615 43.1194 34.0615 43.7263V47.8888C34.0615 48.4957 34.5539 48.9881 35.1608 48.9881C35.7678 48.9881 36.2602 48.4957 36.2602 47.8888V43.7263C36.2602 43.1194 35.7678 42.627 35.1608 42.627Z" fill="#3DD598"/>
        <path d="M52.9196 48.9873C52.3127 48.9873 51.8203 49.4797 51.8203 50.0866V56.4478C51.8203 57.0548 52.3127 57.5472 52.9196 57.5472C53.5266 57.5472 54.019 57.0548 54.019 56.4478V50.0866C54.019 49.4797 53.5266 48.9873 52.9196 48.9873Z" fill="#3DD598"/>
        <path d="M52.9196 42.627C52.3127 42.627 51.8203 43.1194 51.8203 43.7263V46.2398C51.8203 46.8468 52.3127 47.3392 52.9196 47.3392C53.5266 47.3392 54.019 46.8468 54.019 46.2398V43.7263C54.019 43.1194 53.5266 42.627 52.9196 42.627Z" fill="#3DD598"/>
        <path d="M61.7995 44.2119C61.1919 44.2119 60.7002 44.7036 60.7002 45.3112V49.9247C60.7002 50.5316 61.1919 51.024 61.7995 51.024C62.4064 51.024 62.8988 50.5316 62.8988 49.9247V45.3112C62.8988 44.7036 62.4064 44.2119 61.7995 44.2119Z" fill="#3DD598"/>
        <path d="M61.7995 38.9619C61.1919 38.9619 60.7002 39.4543 60.7002 40.0612V41.8154C60.7002 42.4231 61.1919 42.9148 61.7995 42.9148C62.4064 42.9148 62.8988 42.4231 62.8988 41.8154V40.0612C62.8988 39.4543 62.4064 38.9619 61.7995 38.9619Z" fill="#3DD598"/>
        <path d="M26.2819 45.6377C25.6743 45.6377 25.1826 46.1301 25.1826 46.737V50.9511C25.1826 51.558 25.6743 52.0504 26.2819 52.0504C26.8889 52.0504 27.3813 51.558 27.3813 50.9511V46.737C27.3813 46.1301 26.8889 45.6377 26.2819 45.6377Z" fill="#3DD598"/>
        <path d="M26.2819 38.9619C25.6743 38.9619 25.1826 39.4543 25.1826 40.0612V42.7702C25.1826 43.3778 25.6743 43.8695 26.2819 43.8695C26.8889 43.8695 27.3813 43.3778 27.3813 42.7702V40.0612C27.3813 39.4543 26.8889 38.9619 26.2819 38.9619Z" fill="#3DD598"/>
        <path d="M44.6036 5.49707C36.4066 5.49707 29.7627 12.1417 29.7627 20.3379C29.7627 28.5349 36.4066 35.1788 44.6036 35.1788C52.7998 35.1788 59.4444 28.5349 59.4444 20.3379C59.4351 12.146 52.7955 5.50637 44.6036 5.49707ZM44.6036 32.9802C37.6211 32.9802 31.9613 27.3204 31.9613 20.3379C31.9613 13.3562 37.6211 7.69572 44.6036 7.69572C51.5853 7.69572 57.2458 13.3562 57.2458 20.3379C57.2379 27.3168 51.5824 32.9723 44.6036 32.9802Z" fill="#3DD598"/>
        <path d="M58.9845 5.95682C58.958 5.9332 58.9301 5.91029 58.9015 5.88954C50.9872 -1.96318 38.2205 -1.96318 30.3055 5.88954C30.2768 5.91029 30.2489 5.9332 30.2224 5.95682C30.1974 5.98258 30.1781 6.01192 30.1552 6.03984C22.3024 13.9541 22.3024 26.7209 30.1552 34.6358C30.1781 34.663 30.1974 34.6924 30.2224 34.7181C30.2489 34.7425 30.2768 34.7647 30.3055 34.7861C38.2205 42.6389 50.9872 42.6389 58.9015 34.7861C58.9301 34.7647 58.958 34.7425 58.9845 34.7181C59.0103 34.6924 59.0289 34.663 59.0518 34.6358C66.9045 26.7209 66.9045 13.9541 59.0518 6.03984C59.0289 6.01192 59.0103 5.98258 58.9845 5.95682ZM61.8423 21.4368H62.7076C62.465 25.482 60.869 29.3282 58.1765 32.357L57.5703 31.7515C57.1394 31.3321 56.4516 31.3364 56.0265 31.7616C55.6014 32.1867 55.5963 32.8745 56.0158 33.3061L56.622 33.9115C53.5931 36.6033 49.7476 38.1993 45.7032 38.442V37.5774C45.7032 36.9698 45.2107 36.4781 44.6038 36.4781C43.9962 36.4781 43.5045 36.9698 43.5045 37.5774V38.442C39.4593 38.1993 35.6131 36.6033 32.5843 33.9108L33.1898 33.3046C33.4739 33.0284 33.587 32.6204 33.4861 32.2375C33.3851 31.8539 33.086 31.5547 32.7031 31.4538C32.3195 31.3529 31.9115 31.4667 31.6352 31.7508L31.0298 32.3563C28.3373 29.3275 26.7413 25.4813 26.4979 21.4361H27.3632C27.9708 21.4361 28.4625 20.9444 28.4625 20.3368C28.4625 19.7298 27.9708 19.2374 27.3632 19.2374H26.4979C26.7413 15.1923 28.3373 11.3468 31.0298 8.31793L31.6352 8.92341C31.9115 9.20755 32.3195 9.32063 32.7031 9.21972C33.086 9.1188 33.3851 8.81964 33.4861 8.43673C33.587 8.05312 33.4739 7.64516 33.1898 7.3689L32.5843 6.76485C35.6131 4.07236 39.4593 2.47634 43.5045 2.233V3.09829C43.5045 3.70521 43.9962 4.19761 44.6038 4.19761C45.2107 4.19761 45.7032 3.70521 45.7032 3.09829V2.233C49.7483 2.47634 53.5938 4.07236 56.6227 6.76485L56.0172 7.37033C55.733 7.6466 55.62 8.05455 55.7209 8.43817C55.8218 8.82107 56.121 9.12095 56.5039 9.22115C56.8875 9.32206 57.2954 9.20898 57.5717 8.92484L58.1772 8.31936C60.8697 11.3482 62.4657 15.1937 62.709 19.2389H61.8437C61.2368 19.2389 60.7444 19.7313 60.7444 20.3382C60.7444 20.9458 61.2368 21.4375 61.8437 21.4375L61.8423 21.4368Z" fill="#3DD598"/>
        <path d="M47.133 12.0681V10.4392C47.133 9.83225 46.6413 9.33984 46.0337 9.33984C45.4267 9.33984 44.9343 9.83225 44.9343 10.4392V11.8956H43.631V10.4392C43.631 9.83225 43.1386 9.33984 42.5317 9.33984C41.9241 9.33984 41.4324 9.83225 41.4324 10.4392V11.8956H39.7941C39.1865 11.8956 38.6948 12.388 38.6948 12.995V27.7936C38.6948 28.4012 39.1865 28.8929 39.7941 28.8929H41.4324V30.2349C41.4324 30.8425 41.9241 31.3342 42.5317 31.3342C43.1386 31.3342 43.631 30.8425 43.631 30.2349V28.8929H44.9343V30.2349C44.9343 30.8425 45.4267 31.3342 46.0337 31.3342C46.6413 31.3342 47.133 30.8425 47.133 30.2349V28.7219C49.1291 28.1615 50.5097 26.3429 50.5126 24.2695V23.9173C50.5126 22.5589 49.9142 21.2699 48.8772 20.3932C49.9142 19.5172 50.5126 18.2282 50.5126 16.8705V16.5177C50.509 14.4457 49.1284 12.6278 47.133 12.0681ZM48.3139 23.9188V24.2709C48.3118 25.6093 47.2275 26.6936 45.8891 26.695H40.8935V21.494H45.8891C47.2275 21.4961 48.3118 22.5804 48.3139 23.9188ZM40.8935 19.2953V14.095H45.8891C47.2275 14.0964 48.3118 15.1814 48.3139 16.5191V16.8719C48.3118 18.2096 47.2275 19.2939 45.8891 19.2953H40.8935Z" fill="#3DD598"/>
    </g>
    <defs>
        <clipPath id="clip0">
            <rect width="89" height="89" fill="white"/>
        </clipPath>
    </defs>
</svg>