<svg width="89" height="89" viewBox="0 0 89 89" fill="none" xmlns="http://www.w3.org/2000/svg">
    <g clip-path="url(#clip0)">
        <path d="M35.1055 45.7818V31.4764C35.1047 31.0389 34.8561 30.6402 34.4642 30.4469L19.1749 22.9373C18.8561 22.7813 18.4836 22.7813 18.1648 22.9373L2.87543 30.426C2.482 30.6186 2.23265 31.018 2.2334 31.4555V45.7818C2.2334 49.578 4.69179 54.2275 7.83028 56.3678L18.0229 63.319C18.4126 63.5847 18.9255 63.5847 19.3152 63.319L29.5079 56.3678C32.6463 54.2275 35.1055 49.5772 35.1055 45.7818ZM28.2163 54.4723L18.6694 60.9838L9.12256 54.4723C6.63133 52.7739 4.5268 48.7941 4.5268 45.7818V32.1699L18.6694 25.2442L32.8121 32.1908V45.7818C32.8121 48.7941 30.7076 52.7739 28.2163 54.4723Z" fill="#3DD598"/>
        <path d="M24.3376 38.2875L16.8184 45.6283L13.0013 41.9015C12.5474 41.4641 11.8254 41.4753 11.385 41.9262C10.9445 42.3778 10.9505 43.0998 11.3992 43.5425L16.0173 48.0516C16.463 48.4869 17.1737 48.4869 17.6194 48.0516L25.9405 39.9292C26.3936 39.4872 26.4018 38.7608 25.9599 38.3077C25.5172 37.8545 24.7915 37.8455 24.3376 38.2882V38.2875Z" fill="#3DD598"/>
        <path d="M87.0545 35.2096C87.0485 30.8244 83.9645 27.0469 79.6696 26.1629V21.5381C79.6696 20.905 79.156 20.3914 78.5229 20.3914C77.8899 20.3914 77.3762 20.905 77.3762 21.5381V25.9771H72.0153V21.5373C72.0153 20.9043 71.5016 20.3906 70.8686 20.3906C70.2348 20.3906 69.7219 20.9043 69.7219 21.5373V25.9771H64.885C64.2512 25.9771 63.7383 26.4907 63.7383 27.1238V59.4665C63.7383 60.0996 64.2512 60.6132 64.885 60.6132H69.7219V64.8021C69.7219 65.4352 70.2348 65.9488 70.8686 65.9488C71.5016 65.9488 72.0153 65.4352 72.0153 64.8021V60.6132H77.3762V64.8021C77.3762 65.4352 77.8899 65.9488 78.5229 65.9488C79.156 65.9488 79.6696 65.4352 79.6696 64.8021V60.4273C83.4606 59.6532 86.3669 56.5953 86.9478 52.77C87.5293 48.9439 85.6629 45.1619 82.2721 43.2963C85.2202 41.6725 87.0523 38.5751 87.0545 35.2096ZM84.7611 51.3806C84.7566 55.2112 81.6525 58.3153 77.8219 58.3198H66.0317V44.443H77.8219C81.6517 44.4467 84.7559 47.5501 84.7611 51.3806ZM77.8219 42.1496H66.0317V28.2705H77.8219C81.654 28.2705 84.7611 31.3769 84.7611 35.2096C84.7611 39.0417 81.654 42.1488 77.8219 42.1488V42.1496Z" fill="#3DD598"/>
        <path d="M25.3359 12.4904C25.3359 13.1234 25.8488 13.6371 26.4826 13.6371H36.0683C36.5327 13.6371 36.9508 13.3579 37.1277 12.9293C37.3054 12.5008 37.2076 12.0074 36.8791 11.6796L33.0097 7.8095C38.4148 3.46981 45.3771 1.56386 52.2386 2.54558C59.1009 3.52729 65.2495 7.30857 69.2211 12.9898C69.5862 13.5027 70.2969 13.6251 70.8128 13.2638C71.3287 12.9032 71.4571 12.1932 71.0995 11.6744C66.7396 5.43771 59.9774 1.30033 52.4394 0.258148C44.9015 -0.784782 37.2695 1.3608 31.38 6.17978L27.2934 2.09317C26.9649 1.76543 26.4722 1.66689 26.0437 1.84457C25.6151 2.02225 25.3359 2.44031 25.3359 2.90392V12.4904ZM27.6293 5.67213L30.4513 8.49483L30.4565 8.50081C30.4871 8.53515 30.52 8.568 30.5543 8.59786L33.3001 11.3437H27.6293V5.67213Z" fill="white"/>
        <path d="M65.2473 82.8196L69.3332 86.9062C69.6617 87.2339 70.1544 87.3325 70.5829 87.1548C71.0114 86.9771 71.2906 86.559 71.2906 86.0954V76.509C71.2906 75.8759 70.7778 75.3623 70.1439 75.3623H60.5583C60.0939 75.3623 59.6758 75.6423 59.4989 76.0708C59.3212 76.4986 59.419 76.992 59.7475 77.3198L63.6169 81.1899C58.2118 85.5296 51.2495 87.4355 44.388 86.4538C37.5257 85.4721 31.3779 81.6908 27.4062 76.0096C27.1733 75.6676 26.7746 75.4773 26.3625 75.5109C25.9504 75.5452 25.5891 75.7983 25.4159 76.1746C25.2427 76.5501 25.2853 76.9898 25.5271 77.325C29.8877 83.5617 36.65 87.699 44.1879 88.742C51.7258 89.7841 59.3571 87.6386 65.2473 82.8196ZM68.9972 77.6557V83.3272L66.1745 80.5045C66.173 80.5023 66.1716 80.5001 66.1701 80.4986C66.1395 80.4642 66.1066 80.4314 66.0715 80.4015L63.3265 77.6557H68.9972Z" fill="white"/>
    </g>
    <defs>
        <clipPath id="clip0">
            <rect width="89" height="89" fill="white"/>
        </clipPath>
    </defs>
</svg>