<svg width="89" height="89" viewBox="0 0 89 89" fill="none" xmlns="http://www.w3.org/2000/svg">
    <g clip-path="url(#clip0)">
        <path d="M63.7687 23.1846C63.3992 22.7101 62.7148 22.625 62.2396 22.9945C61.7652 23.364 61.6801 24.0484 62.0496 24.5236C64.9978 28.2867 66.6523 32.9008 66.7672 37.6795C66.9325 44.1106 64.3339 50.3042 59.6297 54.6921C56.2418 57.8318 54.1815 62.1473 53.8702 66.7565H34.803C34.537 62.192 32.5151 57.9084 29.1612 54.802C22.3478 48.546 20.0712 38.7504 23.4272 30.1313C26.7832 21.5123 35.0846 15.8357 44.3341 15.8343C44.4043 15.8343 44.4745 15.8343 44.5448 15.835C49.3163 15.8705 53.9503 17.4407 57.7609 20.3137C58.2418 20.6747 58.9248 20.5775 59.2858 20.096C59.6467 19.6144 59.5496 18.9314 59.068 18.5704C51.6099 12.9875 41.6384 12.096 33.3073 16.2669C24.9769 20.4378 19.7166 28.9562 19.7188 38.2724C19.7266 45.1645 22.6159 51.7396 27.6875 56.407C30.8697 59.3587 32.6725 63.5069 32.6598 67.8466V79.5919C32.6626 82.1918 34.769 84.2982 37.3689 84.301H43.2469V87.9102C43.2469 88.5123 43.7348 88.9996 44.3362 88.9996C44.9384 88.9996 45.4256 88.5123 45.4256 87.9102V84.301H51.3043C53.9042 84.2982 56.0106 82.1911 56.0134 79.5919V67.8303C56.0454 63.4431 57.8921 59.2644 61.1155 56.2878C66.2772 51.4751 69.1282 44.6801 68.9459 37.6249C68.8204 32.3795 67.0041 27.315 63.7687 23.1846ZM51.3043 82.1223H37.3682C35.9718 82.1202 34.8399 80.9883 34.8385 79.5919V79.1252H47.3206C47.922 79.1252 48.41 78.6372 48.41 78.0358C48.41 77.4344 47.922 76.9465 47.3206 76.9465H34.8385V73.9486H37.9094C38.5108 73.9486 38.9987 73.4607 38.9987 72.8593C38.9987 72.2572 38.5108 71.7699 37.9094 71.7699H34.8385V68.9359H53.834V71.7699H41.6554C41.054 71.7699 40.5661 72.2572 40.5661 72.8593C40.5661 73.4607 41.054 73.9486 41.6554 73.9486H53.834V76.9458H51.0667C50.4653 76.9458 49.9773 77.4337 49.9773 78.0351C49.9773 78.6372 50.4653 79.1245 51.0667 79.1245H53.834V79.5919C53.8333 80.989 52.7007 82.1209 51.3043 82.1223Z" fill="white"/>
        <path d="M44.1064 1.08935V8.32829C44.1064 8.93041 44.5937 9.41764 45.1958 9.41764C45.7972 9.41764 46.2852 8.93041 46.2852 8.32829V1.08935C46.2852 0.487939 45.7972 0 45.1958 0C44.5937 0 44.1064 0.487939 44.1064 1.08935Z" fill="white"/>
        <path d="M78.8329 34.4961H71.5933C70.9918 34.4961 70.5039 34.984 70.5039 35.5854C70.5039 36.1869 70.9918 36.6748 71.5933 36.6748H78.8329C79.4343 36.6748 79.9223 36.1869 79.9223 35.5854C79.9223 34.984 79.4343 34.4961 78.8329 34.4961Z" fill="white"/>
        <path d="M17.0793 34.4961H9.84033C9.23821 34.4961 8.75098 34.984 8.75098 35.5854C8.75098 36.1869 9.23821 36.6748 9.84033 36.6748H17.0793C17.6814 36.6748 18.1686 36.1869 18.1686 35.5854C18.1686 34.984 17.6814 34.4961 17.0793 34.4961Z" fill="white"/>
        <path d="M18.1131 9.36211C17.6876 9.78764 17.6876 10.477 18.1131 10.9025L23.762 16.5514C24.1875 16.9769 24.8776 16.9769 25.3031 16.5514C25.7286 16.1259 25.7286 15.4365 25.3031 15.011L19.6535 9.36211C19.228 8.93659 18.5386 8.93659 18.1131 9.36211Z" fill="white"/>
        <path d="M79.262 10.7442L72.2926 10.0541L71.6032 3.08467C71.5614 2.66553 71.2819 2.30809 70.8855 2.16624C70.489 2.0244 70.0465 2.12369 69.7486 2.42156L60.2501 11.9215C59.9792 12.1924 59.8707 12.5853 59.9636 12.9562L61.5409 19.2661L51.3679 29.439C51.0892 29.7135 50.9793 30.1163 51.0793 30.495C51.18 30.8731 51.475 31.1681 51.8537 31.2688C52.2317 31.3688 52.6346 31.2582 52.909 30.9794L63.082 20.8072L69.3919 22.3845C69.7635 22.4774 70.1557 22.3682 70.4266 22.098L79.9251 12.5981C80.223 12.3002 80.3223 11.8576 80.1804 11.4612C80.0386 11.0647 79.6811 10.7853 79.262 10.7442ZM62.2267 13.0257L69.6621 5.59032L70.1614 10.6449L63.3373 17.4689L62.2267 13.0257ZM69.3217 20.1207L64.8784 19.0093L71.7025 12.1853L76.7571 12.6853L69.3217 20.1207Z" fill="#3DD598"/>
        <path d="M56.7358 28.0702C56.2641 28.4432 56.184 29.1283 56.557 29.5999C58.6946 32.2864 59.852 35.6212 59.8393 39.0537C59.8364 45.9955 55.1443 52.0593 48.4245 53.804C41.7054 55.5479 34.6558 52.5323 31.2764 46.4679C27.8978 40.4034 29.0424 32.8219 34.0615 28.0262C39.0806 23.2298 46.7061 22.4298 52.611 26.0808C53.1223 26.3978 53.794 26.2397 54.111 25.7283C54.428 25.217 54.2705 24.5454 53.7585 24.2284C46.0699 19.4688 36.0182 21.3766 30.6077 28.6226C25.1978 35.8694 26.2247 46.0487 32.9736 52.0678C39.7218 58.0876 49.9521 57.9493 56.5358 51.7494C63.1187 45.5494 63.8697 35.346 58.2655 28.2489C57.8925 27.7765 57.2074 27.6971 56.7358 28.0702Z" fill="#3DD598"/>
        <path d="M51.1249 35.007V34.8489C51.1214 32.2397 49.1874 30.0361 46.6009 29.6943V27.8433C46.6009 27.2418 46.1129 26.7539 45.5115 26.7539C44.9101 26.7539 44.4222 27.2418 44.4222 27.8433V29.6482H42.9981V27.8433C42.9981 27.2418 42.5101 26.7539 41.9087 26.7539C41.3066 26.7539 40.8194 27.2418 40.8194 27.8433V29.6482H39.1421C38.5407 29.6482 38.0527 30.1354 38.0527 30.7376V47.497C38.0527 48.0984 38.5407 48.5863 39.1421 48.5863H40.8194V50.2615C40.8194 50.8629 41.3066 51.3508 41.9087 51.3508C42.5101 51.3508 42.9981 50.8629 42.9981 50.2615V48.5863H44.4222V50.2615C44.4222 50.8629 44.9101 51.3508 45.5115 51.3508C46.1129 51.3508 46.6009 50.8629 46.6009 50.2615V48.5409C49.1874 48.1991 51.1207 45.9956 51.1249 43.3871V43.2289C51.1249 41.619 50.3781 40.1013 49.1044 39.1183C50.3781 38.1347 51.1249 36.6169 51.1249 35.007ZM48.9462 43.2289V43.3871C48.9441 45.0552 47.5931 46.4069 45.925 46.4083H40.2314V40.207H45.925C47.5931 40.2091 48.9441 41.5609 48.9462 43.2289ZM40.2314 38.029V31.8269H45.925C47.5931 31.8283 48.9448 33.1808 48.9462 34.8489V35.007C48.9441 36.6751 47.5923 38.0268 45.925 38.0283L40.2314 38.029Z" fill="#3DD598"/>
    </g>
    <defs>
        <clipPath id="clip0">
            <rect width="89" height="89" fill="white"/>
        </clipPath>
    </defs>
</svg>