<svg width="407" height="375" viewBox="0 0 407 375" fill="none" xmlns="http://www.w3.org/2000/svg">
    <path d="M219.727 0C175.351 0 132.3 15.9081 98.3556 44.5758L104.813 52.1984C136.771 25.0221 177.669 9.94255 219.727 9.94255C317.586 9.94255 397.065 89.6487 397.065 187.417C397.065 285.351 317.42 364.892 219.727 364.892C170.384 364.892 122.365 343.681 88.9174 307.225H9.93491V265.466H60.9341V132.567H16.0614V101.911C40.0708 96.9399 56.9601 90.4772 74.6774 79.5404H115.576V265.466H163.264V255.524H125.511V69.5979H71.8625L70.7034 70.4264C52.655 81.6946 35.6001 87.9916 10.1005 92.9629L6.12652 93.7914V142.676H51.1648V255.689H0V317.333H84.6123C119.881 353.955 168.893 375 219.727 375C323.05 375 407 290.985 407 187.583C407 84.0146 323.05 0 219.727 0Z" fill="#3DD598" fill-opacity="0.1"/>
</svg>