<svg width="418" height="375" viewBox="0 0 418 375" fill="none" xmlns="http://www.w3.org/2000/svg">
    <path d="M229.95 0C188.216 0 148.644 13.4403 115.557 38.6615L121.709 46.6261C152.967 22.7323 190.378 9.95575 229.95 9.95575C328.215 9.95575 408.024 89.7677 408.024 187.666C408.024 285.73 328.048 365.376 229.95 365.376C180.734 365.376 132.017 343.473 98.4312 307.633H14.9642V277.931C73.1583 224.502 115.058 186.007 115.058 151.825C115.058 128.927 102.255 115.321 80.6404 115.321C64.1798 115.321 51.2108 126.272 41.5672 135.73L13.9666 108.186C37.9093 83.9602 58.8592 75 89.7852 75C135.842 75 166.768 104.369 166.768 148.175C166.768 184.845 130.854 226.162 99.7613 258.02L89.7852 268.142L103.918 266.316C115.391 264.823 132.516 263.33 143.157 263.33H178.074V312.445H188.05V253.374H143.157C135.842 253.374 125.865 254.038 116.388 254.867C146.317 223.175 176.744 184.347 176.744 147.843C176.744 123.451 168.264 102.544 152.302 87.4447C136.507 72.677 114.892 64.7124 89.7852 64.7124C54.7024 64.7124 30.4272 75.8296 3.32538 104.535L0 108.02L41.5672 149.502L45.0589 146.018C56.5314 134.569 67.3389 124.945 80.6404 124.945C96.6022 124.945 105.082 134.071 105.082 151.493C105.082 181.361 62.1846 220.686 7.98093 270.465L4.98806 273.285V317.257H94.2744C129.69 353.927 178.905 375 229.95 375C333.702 375 418 290.874 418 187.334C418.166 84.1261 333.702 0 229.95 0Z" fill="#3DD598" fill-opacity="0.1"/>
</svg>