<svg width="410" height="375" viewBox="0 0 410 375" fill="none" xmlns="http://www.w3.org/2000/svg">
    <path d="M222.883 0C181.32 0 141.91 13.4403 108.958 38.6615L115.085 46.6261C146.215 22.7323 183.638 9.95575 222.883 9.95575C320.746 9.95575 400.229 89.7677 400.229 187.666C400.229 285.73 320.581 365.376 222.883 365.376C176.021 365.376 129.988 345.133 96.5385 312.113H91.0741C57.7907 312.113 30.7996 301.991 12.7504 282.909L36.4296 250.055C51.995 263.164 68.7195 270.133 84.2849 270.133C108.958 270.133 123.695 259.845 123.695 242.588C123.695 219.027 107.467 209.735 64.4142 209.071V173.894C87.9278 173.396 116.078 168.75 116.078 141.869C116.078 124.945 105.315 115.155 86.4376 115.155C70.5411 115.155 58.7842 121.46 45.0403 132.577L19.2083 101.217C41.894 83.1305 64.4142 74.6681 89.4182 74.6681C140.254 74.6681 170.723 97.8982 170.723 136.892C170.723 157.965 159.131 173.23 135.452 183.85L132.471 185.177V193.639L135.949 194.635C163.105 202.931 178.174 221.515 178.174 246.903H188.109C188.109 219.856 174.034 199.447 148.202 188.496C169.729 176.383 180.492 159.126 180.492 136.892C180.492 114.325 171.716 95.7412 155.157 83.1305C139.261 71.0177 116.575 64.7124 89.4182 64.7124C60.9369 64.7124 34.6082 75.1659 9.10741 96.7367L5.29888 99.8894L43.8812 146.681L47.6897 143.363C61.5992 131.416 72.0314 124.945 86.4376 124.945C94.8827 124.945 106.143 126.604 106.143 141.704C106.143 152.655 100.513 163.772 59.4465 163.772H54.4788V218.861H59.4465C113.76 218.861 113.76 231.969 113.76 242.423C113.76 257.688 95.2138 260.011 84.2849 260.011C69.8786 260.011 53.6509 252.544 38.9135 238.772L34.7738 234.956L0 283.241L2.48384 286.228C22.3546 309.458 52.9885 321.737 90.9085 321.737H92.0676C127.173 356.084 173.538 375 222.718 375C326.045 375 409.999 290.874 409.999 187.334C410.33 84.1261 326.211 0 222.883 0Z" fill="#3DD598" fill-opacity="0.1"/>
</svg>