<svg width="266" height="497" viewBox="0 0 266 497" fill="none" xmlns="http://www.w3.org/2000/svg">
    <path fill-rule="evenodd" clip-rule="evenodd" d="M-158.228 158.514C-164.868 167.02 -171.448 176.358 -178.337 187.043C-196.865 215.792 -203.273 240.725 -197.92 263.276C-191.338 290.965 -167.135 309.157 -146.791 321.916C-141.424 325.265 -135.986 328.587 -130.717 331.796C-108.357 345.401 -87.2521 358.257 -68.2888 376.356C-58.8108 385.392 -50.0101 395.439 -41.5023 405.16C-25.9763 422.899 -9.9089 441.237 10.7254 453.942C67.2885 480.03 118.689 421.866 133.093 403.413C134.784 401.248 136.439 399.04 138.02 396.838C181.225 336.65 171.99 257.485 161.289 203.17C152.202 157.085 133.241 128.028 101.619 111.722C69.9589 95.3789 29.0759 90.4122 -6.73911 87.7077C-45.104 84.8116 -80.7719 93.3013 -109.864 112.251C-126.638 123.177 -142.456 138.308 -158.228 158.514ZM134.197 404.275C117.936 425.107 98.4719 441.92 79.4175 451.598C55.0879 463.963 31.7646 465.165 10.0816 455.161C-10.7932 442.334 -26.9011 423.936 -42.4835 406.138L-42.5448 406.068L-42.8088 405.767L-42.8089 405.767C-51.2229 396.17 -59.9138 386.257 -69.2459 377.351C-88.1035 359.37 -109.15 346.546 -131.435 332.979L-132.036 332.612C-137.118 329.517 -142.358 326.324 -147.519 323.091C-168.093 310.187 -192.577 291.775 -199.271 263.586C-204.723 240.657 -198.26 215.368 -179.518 186.29C-172.6 175.557 -166.007 166.202 -159.333 157.651C-143.462 137.32 -127.531 122.088 -110.635 111.082C-81.2786 91.9609 -45.3173 83.3992 -6.63719 86.3174C29.3086 89.04 70.3647 94.0368 102.258 110.477C134.289 127.005 153.485 156.372 162.649 202.916C173.41 257.481 182.671 337.03 139.159 397.656C137.559 399.879 135.898 402.096 134.197 404.275ZM-138.947 181.697C-152.994 199.694 -160.911 217.814 -162.482 235.577C-164.532 258.934 -152.351 279.929 -126.273 297.975L-124.585 299.024C-121.704 300.817 -118.812 302.615 -115.917 304.407L-115.824 304.465C-82.8424 324.951 -48.7315 346.139 -18.9932 372.954C10.7398 399.767 37.3571 409.318 62.3837 402.145C82.0266 396.53 98.3541 385.507 110.935 369.389C148.332 321.481 141.368 246.146 138.343 224.18C132.299 180.317 116.918 152.794 89.9507 137.573C62.8959 122.299 23.4193 115.322 -18.3534 118.424C-56.4019 121.241 -90.5267 135.121 -117.037 158.542C-125.258 165.814 -132.632 173.608 -138.947 181.697ZM112.049 370.238L112.039 370.251C99.2746 386.603 82.7064 397.782 62.7871 403.489C37.2404 410.802 10.1903 401.151 -19.9283 373.987C-49.6054 347.231 -82.1727 327.003 -116.651 305.59C-120.107 303.439 -123.563 301.287 -127.032 299.132C-153.581 280.76 -165.974 259.335 -163.866 235.434C-162.275 217.415 -154.265 199.044 -140.051 180.835C-133.679 172.672 -126.244 164.821 -117.97 157.505C-91.2275 133.874 -56.8146 119.876 -18.4682 117.04C23.5764 113.905 63.3417 120.953 90.6304 136.361C118.011 151.82 133.609 179.667 139.73 224.003C142.764 246.087 149.766 321.92 112.049 370.238ZM-34.8484 298.993C-47.2487 290.986 -60.0769 282.715 -73.1314 275.262C-91.5137 262.124 -110.553 246.324 -104.465 225.019C-102.318 217.519 -98.6504 210.402 -93.5718 203.895C-79.945 186.438 -59.0424 176.495 -43.9047 171.219C-7.83398 158.656 60.4248 149.437 87.4802 194.576C108.211 229.18 105.708 284.058 82.0126 314.414C78.8962 318.407 75.4093 321.977 71.681 325.023C49.127 343.441 21.8107 332.939 7.53451 325.036C-6.92645 317.03 -21.1238 307.866 -34.8484 298.993ZM86.419 317.854L86.4292 317.841C111.381 285.876 114.059 228.125 92.259 191.749C63.3565 143.501 -8.10382 152.839 -45.7758 165.965C-61.6124 171.479 -83.5304 181.946 -97.9787 200.455C-103.499 207.527 -107.481 215.267 -109.83 223.463C-117.526 250.367 -91.7046 268.815 -76.2615 279.847L-76.2362 279.865L-75.9966 280.017C-63.131 287.358 -50.4296 295.556 -38.1374 303.49L-37.8585 303.67C-24.054 312.584 -9.77683 321.797 4.85027 329.897C20.366 338.488 50.1405 349.839 75.234 329.336C79.2807 326.035 83.0446 322.177 86.419 317.854Z" fill="black" fill-opacity="0.1"/>
</svg>