<svg width="1829" height="1192" viewBox="0 0 1829 1192" fill="none" xmlns="http://www.w3.org/2000/svg">
    <path fill-rule="evenodd" clip-rule="evenodd" d="M475.361 4.43581C494.698 -10.0102 515.138 -23.6549 534.914 -36.8374C556.818 -51.4217 579.455 -66.5162 600.495 -82.6647C621.266 -98.6069 653.994 -131.8 639.88 -174.975C637.545 -182.113 634.266 -189.209 630.117 -196.017C598.577 -247.784 516.78 -283.329 451.5 -273.642C366.335 -260.986 338.403 -157.399 335.324 -98.1824C334.036 -73.3295 336.295 -37.4635 354.433 -7.69377C361.193 3.4013 369.748 12.8224 379.818 20.2768C408.43 41.439 444.118 23.2392 475.361 4.43581ZM638.034 -200.378C638.048 -200.355 638.048 -200.355 638.048 -200.355C642.539 -192.983 646.085 -185.322 648.613 -177.577C664.331 -129.534 628.806 -93.2977 606.229 -75.9721C584.943 -59.6397 562.183 -44.4584 540.168 -29.7833C520.43 -16.6218 500.016 -3.02077 480.822 11.3269L480.444 11.5832C454.209 27.38 410.307 53.8414 374.16 27.091C363.158 18.9398 353.85 8.70445 346.503 -3.35475C327.271 -34.9193 324.841 -72.5508 326.196 -98.5482C329.405 -160.397 359.123 -268.659 450.142 -282.164C518.771 -292.359 604.822 -254.889 638.034 -200.378Z" fill="black" fill-opacity="0.1"/>
    <path fill-rule="evenodd" clip-rule="evenodd" d="M1081.8 464.626C1087.38 473.795 1093.21 482.644 1099.15 490.888C1139.52 547.154 1190.26 594.316 1234.59 633.027C1248.68 645.321 1262.76 658.394 1276.39 671.024C1309.17 701.447 1343.08 732.893 1380.91 757.558C1412.47 778.122 1460.42 795.816 1509.65 763.295C1588.83 702.604 1682.75 602.162 1680.25 468.467C1678.92 397.95 1665.38 337.396 1640.04 288.469C1638.18 284.887 1636.18 281.31 1634.07 277.852C1609.14 236.922 1567.37 204.921 1502.63 177.14C1488.9 171.26 1474.92 165.459 1461.43 159.835C1415.15 140.609 1367.29 120.729 1323.11 94.8536C1299.57 81.0452 1276.46 65.4855 1254.12 50.4421C1222.41 29.0871 1189.64 6.99847 1154.98 -10.4287C1139.43 -18.2575 1123.01 -25.4157 1107.16 -32.3372C1066.46 -50.0883 1024.37 -68.4357 992.192 -100.008C975.688 -116.185 960.934 -135.297 945.809 -160.12C934.169 -179.225 923.714 -199.433 913.612 -218.994C906.219 -233.253 898.608 -248.006 890.65 -262.025C887.272 -267.999 884.044 -273.502 880.791 -278.841C859.124 -314.403 823.582 -364.447 765.465 -388.344C727.419 -403.978 685.443 -409.196 644.823 -414.226C629.144 -416.17 612.934 -418.189 597.218 -420.775C580.846 -423.476 564.23 -426.579 548.154 -429.591C502.937 -438.069 456.17 -446.835 409.241 -447.336C347.174 -447.97 291.914 -422.356 245.04 -371.189C202.76 -325.047 161.646 -271.533 122.825 -212.124C90.3917 -162.469 77.3473 -113.523 84.089 -66.6014C89.7868 -26.8909 105.06 12.3075 132.145 56.762C149.786 85.7159 170.647 113.997 190.835 141.359C210.926 168.607 231.709 196.781 249.205 225.498C255.504 235.836 260.973 245.542 265.947 255.211C280.535 283.63 289.101 309.46 292.102 334.141C294.375 352.863 292.636 371.773 290.954 390.067C289.878 401.87 288.758 414.082 288.73 426.102C288.67 449.481 292.804 467.66 301.344 481.677C304.954 487.603 309.415 492.856 314.623 497.284C335.907 515.405 364.174 515.238 384.963 496.843C410.604 474.173 410.7 435.861 410.761 402.048C410.783 394.976 410.803 388.3 411.053 381.973C412.812 337.213 438.535 293.356 489.672 247.886C533.066 209.283 592.063 162.519 663.648 143.251C725.049 126.737 791.847 125.83 846.904 140.781C898.306 154.726 940.719 190.092 976.557 248.912C997.528 283.332 1013.8 321.364 1026.89 351.927C1042.9 389.335 1059.49 428.013 1081.8 464.626ZM1636.04 276.764C1636.04 276.764 1636.04 276.764 1636.05 276.773C1638.18 280.276 1640.22 283.881 1642.1 287.511C1667.6 336.716 1681.2 397.587 1682.53 468.412C1685.06 602.979 1590.66 703.981 1511.01 765.023C1460.64 798.302 1411.75 780.291 1379.6 759.338C1341.61 734.578 1307.63 703.062 1274.78 672.565C1261.16 659.956 1247.09 646.891 1233.03 634.615C1188.63 595.814 1137.75 548.557 1097.24 492.11C1091.29 483.811 1085.42 474.93 1079.81 465.713C1057.42 428.975 1040.82 390.219 1024.76 352.737C1011.71 322.249 995.464 284.294 974.569 250C939.039 191.684 897.079 156.643 846.262 142.863C791.597 128.014 725.267 128.911 664.264 145.327C593.158 164.461 534.439 211.014 491.232 249.445C440.563 294.511 415.078 337.882 413.334 382.04C413.093 388.332 413.072 394.989 413.05 402.042C412.972 436.289 412.893 475.106 386.525 498.422C364.803 517.613 335.293 517.808 313.079 498.891C307.701 494.308 303.084 488.883 299.356 482.765C290.612 468.414 286.389 449.879 286.445 426.116C286.461 413.993 287.591 401.736 288.683 389.895C290.352 371.707 292.074 352.915 289.833 334.414C286.861 309.963 278.382 284.383 263.892 256.167C258.955 246.557 253.496 236.866 247.228 226.579C229.777 197.937 209.016 169.8 188.942 142.582C168.745 115.205 147.844 86.8776 130.157 57.8495C102.919 13.1429 87.5582 -26.3045 81.826 -66.3028C75.0178 -113.712 88.164 -163.159 120.872 -213.26C159.758 -272.774 200.953 -326.382 243.31 -372.605C290.659 -424.27 346.499 -450.142 409.283 -449.485C456.409 -448.994 503.284 -440.217 548.612 -431.72C564.667 -428.707 581.286 -425.596 597.626 -422.907C613.289 -420.321 629.492 -418.318 645.143 -416.379C685.913 -411.312 728.05 -406.094 766.372 -390.314C825.134 -366.166 860.934 -315.73 882.755 -279.916C886.018 -274.561 889.274 -269.045 892.67 -263.061C900.626 -248.992 908.274 -234.229 915.654 -219.943C925.757 -200.432 936.203 -180.239 947.797 -161.208C962.831 -136.533 977.463 -117.572 993.835 -101.491C1025.73 -70.2208 1067.61 -51.9531 1108.13 -34.2915C1124.02 -27.3606 1140.46 -20.1962 1156.07 -12.3443C1190.85 5.16834 1223.69 27.2919 1255.47 48.6773C1277.78 63.7071 1300.83 79.2351 1324.34 93.0075C1368.39 118.813 1416.15 138.664 1462.35 157.872C1475.88 163.471 1489.85 169.299 1503.58 175.186C1568.77 203.155 1610.86 235.435 1636.04 276.764Z" fill="#3DD598" fill-opacity="0.05"/>
    <path fill-rule="evenodd" clip-rule="evenodd" d="M1487.64 681.485C1572.79 610.525 1624.28 499.529 1618.76 398.655C1616.67 360.745 1605.8 324.609 1587.27 294.193C1575.76 275.3 1561.31 258.486 1544.31 244.242C1506.57 212.545 1458.61 191.99 1412.22 172.089C1398.85 166.363 1385.02 160.435 1371.79 154.378C1330.05 135.282 1289.02 113.419 1249.34 92.2684C1227.57 80.6802 1205.07 68.6837 1182.77 57.3197C1156.12 43.7448 1126.85 33.6966 1095.78 27.4359C1078.73 23.993 1060.86 22.6821 1043.57 21.4047C1027.75 20.2384 1011.39 19.0204 995.392 16.1997C967.833 11.3218 946.287 -4.4214 929.532 -31.9204C918.462 -50.0902 910.8 -70.7957 903.385 -90.798C900.618 -98.29 897.978 -105.349 895.247 -112.16C878.5 -153.621 861.206 -196.499 837.55 -235.325C825.961 -254.345 813.88 -270.759 800.639 -285.502C779.183 -309.383 754.984 -328.173 728.681 -341.353C710.024 -350.707 689.32 -356.337 669.328 -361.774C659.298 -364.503 648.95 -367.335 638.881 -370.595C621.163 -376.339 602.046 -379.533 583.534 -382.623C573.265 -384.354 562.64 -386.127 552.347 -388.318C548.499 -389.162 544.637 -389.979 540.773 -390.804C512.111 -396.992 482.449 -403.383 452.814 -406.385C407.385 -411.005 342.296 -407.307 290.207 -363.47C251.367 -330.778 223.246 -286.856 196.054 -244.379C190.908 -236.336 185.577 -228.004 180.31 -219.993C152.555 -177.662 124.567 -127.076 127.641 -72.6003C129.955 -31.1644 144.976 10.2543 176.317 61.6937C181.645 70.4384 187.655 79.836 194.713 90.4549L198.475 96.1205C231.885 146.409 266.421 198.418 316.136 234.962C367.306 272.593 418.451 242.728 466.468 208.922C475.861 202.313 485.53 195.287 494.888 188.511C537.843 157.375 582.246 125.181 631.735 106.559C680.971 88.0272 735.285 81.7692 787.819 75.7453C796.952 74.6846 806.065 73.6351 815.064 72.5292C819.121 72.026 823.212 71.4943 827.349 70.9572C850.041 67.9727 873.495 64.8968 896.18 67.5879C927.657 71.3186 946.687 92.0193 961.14 111.781C965.729 118.049 970.232 124.809 974.536 131.875C993.896 163.65 1007.69 199.012 1021.02 233.196C1024.9 243.139 1028.91 253.424 1032.97 263.328C1039.67 279.756 1046.18 296.68 1052.49 313.024C1068.52 354.662 1085.11 397.68 1106.5 437.383C1109.68 443.324 1113.11 449.287 1116.66 455.113C1142.87 498.136 1178.19 537.818 1224.59 576.444C1274.92 618.316 1321.47 650.912 1366.89 676.104C1414.3 702.402 1454.93 704.21 1487.64 681.485ZM1595.25 289.815L1595.25 289.824C1614.49 321.396 1625.79 358.844 1627.94 398.088C1630.77 450.041 1619.38 504.854 1594.97 556.622C1571.15 607.188 1536.06 652.633 1493.5 688.042L1493.19 688.285C1457.2 713.409 1413.1 711.81 1362.14 683.554C1316.22 658.085 1269.21 625.169 1218.46 582.933C1171.3 543.696 1135.38 503.32 1108.67 459.484C1105.05 453.532 1101.56 447.433 1098.28 441.375C1076.66 401.208 1059.97 357.939 1043.83 316.077C1037.56 299.752 1031.05 282.883 1024.37 266.524C1020.3 256.558 1016.29 246.241 1012.4 236.268C999.188 202.412 985.529 167.399 966.548 136.245C962.365 129.38 957.989 122.827 953.541 116.748C940.228 98.5221 922.82 79.4693 894.906 76.1567C873.415 73.6116 850.579 76.6059 828.5 79.5015C824.338 80.0424 820.204 80.5874 816.12 81.0862C807.096 82.1955 797.983 83.2454 788.8 84.3038C736.864 90.2769 683.147 96.4445 635.05 114.571C586.766 132.75 542.887 164.559 500.439 195.328C491.052 202.121 481.356 209.162 471.903 215.803C423.259 250.071 366.658 283.158 310.41 241.804C259.448 204.324 224.49 151.688 190.673 100.774L186.903 95.1131C179.788 84.4067 173.713 74.8967 168.331 66.0634C136.251 13.4107 120.866 -29.1704 118.458 -72.0248C115.271 -128.875 143.989 -180.975 172.503 -224.442C177.744 -232.438 183.058 -240.731 188.204 -248.755C215.753 -291.782 244.238 -336.288 284.126 -369.869C327.388 -406.272 386.117 -421.86 453.936 -414.969C484.104 -411.913 514.013 -405.45 542.959 -399.22C546.791 -398.407 550.655 -397.581 554.502 -396.746C564.583 -394.607 575.099 -392.844 585.274 -391.141C604.11 -387.981 623.608 -384.71 641.981 -378.772C651.841 -375.565 662.091 -372.768 671.997 -370.07C692.454 -364.502 713.602 -358.731 733.088 -348.992C760.398 -335.297 785.52 -315.838 807.699 -291.15C821.307 -275.976 833.689 -259.155 845.544 -239.698C869.556 -200.288 886.982 -157.107 903.842 -115.323C906.625 -108.392 909.264 -101.284 912.062 -93.7397C919.357 -74.1061 926.885 -53.7807 937.536 -36.2988C953.114 -10.7307 972.084 3.25538 997.225 7.70058C1012.73 10.4509 1028.86 11.6411 1044.44 12.7912C1062.01 14.0897 1080.19 15.4321 1097.85 18.988C1129.77 25.416 1159.83 35.7571 1187.23 49.7199C1209.62 61.1246 1232.16 73.1303 1253.96 84.7395C1293.52 105.824 1334.44 127.621 1375.91 146.612C1389.04 152.617 1402.83 158.517 1416.13 164.231C1463.14 184.382 1511.73 205.221 1550.5 237.763C1568.2 252.618 1583.26 270.136 1595.25 289.815Z" fill="#3DD598" fill-opacity="0.1"/>
    <path fill-rule="evenodd" clip-rule="evenodd" d="M231.414 60.5394C240.253 75.0461 250.39 89.9496 262.384 106.082C294.658 149.478 328.583 173.211 366.116 178.635C412.205 185.281 454.697 161.045 486.569 139.198C494.951 133.425 503.336 127.533 511.446 121.82C545.84 97.5645 578.327 74.6787 617.459 57.927C637.003 49.5486 657.666 42.7333 677.654 36.1494C714.129 24.1345 751.844 11.6884 783.813 -10.6074C858.174 -76.8126 801.426 -184.632 782.253 -216.101C780.003 -219.794 777.667 -223.46 775.294 -227.017C710.439 -324.221 584.552 -357.014 495.499 -373.233C419.937 -386.983 364.166 -376.614 319.98 -340.603C275.715 -304.559 243.059 -248.622 216.951 -198.66C188.987 -145.141 179.968 -88.8753 190.872 -35.9835C197.16 -5.48606 210.42 26.0824 231.414 60.5394ZM784.239 -217.187C805.883 -181.662 819.458 -143.868 822.45 -110.816C826.28 -68.6097 813.779 -34.349 785.269 -8.97136C752.924 13.629 715.035 26.101 678.392 38.178C658.457 44.7627 637.84 51.5528 618.383 59.8836C579.494 76.5517 547.092 99.3713 512.801 123.541C504.69 129.254 496.305 135.167 487.905 140.929C455.673 163.023 412.673 187.537 365.756 180.76C327.589 175.258 293.157 151.238 260.514 107.342C248.465 91.141 238.31 76.2078 229.426 61.627C208.301 26.9549 194.958 -4.83527 188.624 -35.5546C177.621 -88.9264 186.711 -145.656 214.903 -199.616C241.118 -249.755 273.926 -305.924 318.483 -342.246C363.256 -378.717 419.642 -389.244 495.949 -375.338C585.418 -359.061 711.904 -326.081 777.237 -228.179C779.63 -224.584 781.975 -220.903 784.239 -217.187Z" fill="black" fill-opacity="0.1"/>
    <path fill-rule="evenodd" clip-rule="evenodd" d="M278.462 46.2891C297.161 76.9785 319.814 98.9185 345.822 111.517C380.031 128.065 419.395 122.757 462.816 95.7374C468.177 92.0331 473.567 88.313 478.947 84.5789C530.361 49.0142 583.533 12.2207 642.574 -14.9878C701.556 -42.1638 732.409 -74.905 736.891 -115.092C740.431 -146.625 733.721 -176.536 716.975 -204.022C667.197 -285.722 548.522 -319.553 513.309 -327.986C442.988 -344.821 391.746 -338.71 352.068 -308.765C312.254 -278.726 277.41 -225.983 256.459 -164.069C237.365 -107.679 237.479 -50.4965 256.76 1.283C262.752 17.347 270.058 32.4944 278.462 46.2891ZM718.948 -205.13C718.962 -205.108 718.948 -205.13 718.962 -205.108C735.952 -177.222 742.749 -146.874 739.18 -114.89C734.591 -73.8728 703.319 -40.5668 643.57 -13.0398C584.71 14.0893 533.987 49.1769 480.292 86.3254C474.902 90.0456 469.512 93.7657 464.108 97.5035C419.902 125.011 379.754 130.373 344.754 113.427C318.37 100.648 295.394 78.4302 276.475 47.3774C267.993 33.4566 260.638 18.1876 254.612 2.02354C235.155 -50.2132 235.038 -107.88 254.287 -164.709C275.355 -227.033 310.484 -280.15 350.645 -310.448C390.938 -340.849 442.806 -347.084 513.891 -330.084C549.29 -321.595 668.745 -287.527 718.948 -205.13Z" fill="black" fill-opacity="0.1"/>
    <path fill-rule="evenodd" clip-rule="evenodd" d="M1154.03 433.424C1154.97 434.962 1155.92 436.481 1156.87 438.007C1187.13 486.137 1232.8 526.917 1292.59 559.218C1360.85 596.105 1413.93 598.782 1450.32 567.213C1497.87 516.953 1571.42 417.814 1529.02 319.216C1526.34 313.002 1523.18 306.878 1519.61 301.031C1493.41 258.031 1446.7 230.789 1400.13 207.748C1384.72 200.13 1369.13 192.063 1354.08 184.263C1315.38 164.207 1275.4 143.47 1233.85 128.157C1231 127.119 1228.06 126.008 1225 124.862C1187.11 110.668 1135.21 91.2172 1099.68 111.67C1054.28 137.82 1072.18 205.203 1084.01 249.797C1085.05 253.638 1086.02 257.293 1086.89 260.697C1098.65 306.826 1118.39 374.921 1154.03 433.424Z" fill="#3DD598" fill-opacity="0.29"/>
    <path fill-rule="evenodd" clip-rule="evenodd" d="M1205.87 424.468C1242.01 471.721 1304.45 521.4 1371.33 519.115C1394.95 518.291 1417.78 508.963 1435.59 492.839C1471.71 458.77 1491.68 414.352 1490.39 371.003C1489.66 346.106 1481.23 322.965 1465.35 302.199C1465.34 302.192 1465.34 302.192 1465.34 302.192C1451.38 283.934 1431.9 267.753 1407.48 254.096C1360.97 228.123 1300.66 206.024 1241.96 193.489C1187.85 181.952 1154.13 189.943 1141.7 217.247C1129.3 244.524 1137.65 279.038 1147.47 309.187C1157.51 340.077 1171.68 370.816 1189.58 400.569C1194.38 408.58 1199.87 416.619 1205.87 424.468Z" fill="#3DD598"/>
    <path fill-rule="evenodd" clip-rule="evenodd" d="M1379.92 391.719C1408.88 366.691 1403.93 332.725 1389.63 309.25C1385.51 302.486 1380.43 296.176 1374.56 290.465C1351.14 267.781 1300.09 240.758 1264.97 254.779C1254.31 259.031 1246.96 266.436 1243.1 276.784C1233.22 303.264 1248.33 341.092 1257.73 357.38C1258.22 358.221 1258.7 359.055 1259.21 359.878C1272.5 381.697 1291.37 397.026 1313.8 404.212C1337.9 411.946 1356.66 402.922 1378.39 392.465L1379.92 391.719Z" fill="black" fill-opacity="0.1"/>
    <path d="M1207.22 605.783C1202.4 605.783 1197.57 604.855 1194.23 602.815L1023.38 504.124C1020.04 502.083 1018 499.486 1018 496.332C1018 492.622 1020.78 489.097 1025.42 486.315L1351.17 298.394C1360.08 293.2 1373.44 292.643 1381.23 297.095L1552.08 395.786C1555.42 397.827 1557.46 400.424 1557.46 403.578C1557.46 407.288 1554.68 410.812 1550.04 413.595L1224.29 601.516C1219.28 604.299 1213.16 605.783 1207.22 605.783ZM1194.6 602.073C1202.03 606.339 1215.2 605.783 1223.92 600.774L1549.67 412.668C1554.12 410.07 1556.72 406.731 1556.72 403.392C1556.72 400.609 1555.05 398.198 1551.71 396.343L1380.86 297.652C1373.44 293.385 1360.26 293.942 1351.55 298.95L1025.98 487.057C1021.52 489.654 1018.93 492.993 1018.93 496.332C1018.93 499.115 1020.6 501.527 1023.94 503.382L1194.6 602.073Z" fill="#3DD598"/>
    <path d="M1207.22 632.783C1202.4 632.783 1197.57 631.855 1194.23 629.815L1023.38 531.124C1020.04 529.083 1018 526.486 1018 523.332C1018 519.622 1020.78 516.097 1025.42 513.315L1351.17 325.394C1360.08 320.2 1373.44 319.643 1381.23 324.095L1552.08 422.786C1555.42 424.827 1557.46 427.424 1557.46 430.578C1557.46 434.288 1554.68 437.812 1550.04 440.595L1224.29 628.516C1219.28 631.299 1213.16 632.783 1207.22 632.783ZM1194.6 629.073C1202.03 633.339 1215.2 632.783 1223.92 627.774L1549.67 439.668C1554.12 437.07 1556.72 433.731 1556.72 430.392C1556.72 427.609 1555.05 425.198 1551.71 423.343L1380.86 324.652C1373.44 320.385 1360.26 320.942 1351.55 325.95L1025.98 514.057C1021.52 516.654 1018.93 519.993 1018.93 523.332C1018.93 526.115 1020.6 528.527 1023.94 530.382L1194.6 629.073Z" fill="#3DD598" fill-opacity="0.21"/>
    <path d="M1556.78 357.227L1532.29 361.494L1380.92 274.119C1373.31 269.667 1360.14 270.223 1351.23 275.417L1061.65 442.376L1018.25 449.796V465.193C1018.25 467.976 1019.91 470.759 1023.44 472.614L1194.29 571.305C1201.9 575.757 1215.07 575.2 1223.97 570.006L1549.73 381.9C1554.37 379.117 1556.96 375.778 1556.96 372.439V357.227H1556.78Z" fill="url(#paint0_linear)"/>
    <path d="M1194.29 555.907L1023.44 457.216C1015.83 452.764 1016.76 445.158 1025.48 440.15L1351.23 252.229C1359.95 247.22 1373.31 246.663 1380.92 250.93L1551.77 349.621C1559.38 354.073 1558.45 361.679 1549.73 366.688L1223.97 554.609C1215.07 559.803 1201.9 560.36 1194.29 555.907Z" fill="#053622"/>
    <path d="M1549.54 366.689L1223.97 554.61C1215.26 559.618 1201.9 560.175 1194.29 555.908L1023.44 457.217C1020.47 455.548 1018.8 453.136 1018.43 450.724C1017.87 453.878 1019.54 457.032 1023.44 459.258L1194.29 557.949C1201.9 562.401 1215.07 561.844 1223.97 556.65L1549.73 368.544C1554.92 365.576 1557.33 361.494 1556.96 357.97C1556.41 361.123 1554 364.092 1549.54 366.689Z" fill="white"/>
    <path opacity="0.51" d="M1194.72 550.843L1029.99 455.677C1022.57 451.41 1023.5 443.99 1032.03 439.166L1351.66 254.585C1360.2 249.762 1373 249.205 1380.42 253.472L1545.15 348.638C1552.57 352.905 1551.64 360.325 1543.11 365.148L1223.48 549.73C1214.76 554.553 1201.96 555.11 1194.72 550.843Z" fill="#3DD598"/>
    <g opacity="0.3">
        <g opacity="0.3">
            <path opacity="0.3" d="M1435.58 455.89L1433.17 455.519C1432.98 455.334 1432.61 455.148 1432.43 454.963L1249.14 349.222C1244.32 346.44 1236.16 346.811 1230.59 349.964L1123.74 411.739C1122.26 412.481 1121.14 413.408 1120.4 414.522L1119.1 414.15V417.861C1119.1 419.53 1120.22 421.2 1122.26 422.498L1305.54 528.239C1310.36 531.021 1318.52 530.65 1324.09 527.497L1430.94 465.722C1433.91 463.867 1435.58 461.641 1435.4 459.6V455.89H1435.58Z" fill="#9FFFF8"/>
            <path opacity="0.3" d="M1305.72 524.343L1122.44 418.603C1117.62 415.82 1118.36 411.183 1123.74 408.029L1230.59 346.254C1235.97 343.101 1244.32 342.73 1249.14 345.512L1432.43 451.253C1437.25 454.035 1436.51 458.673 1431.13 461.827L1324.09 523.601C1318.71 526.755 1310.36 527.126 1305.72 524.343Z" fill="#42E8E0"/>
        </g>
        <g opacity="0.3">
            <path opacity="0.3" d="M1184.77 428.064L1162.14 415.078C1160.1 413.78 1160.29 411.739 1162.7 410.255C1165.11 408.771 1168.82 408.771 1170.86 409.884L1193.49 422.87C1195.53 424.168 1195.35 426.209 1192.93 427.693C1190.52 429.177 1187 429.177 1184.77 428.064Z" fill="white"/>
            <path opacity="0.3" d="M1226.51 452.18L1203.88 439.195C1201.84 437.896 1202.02 435.856 1204.44 434.371C1206.85 432.887 1210.56 432.887 1212.6 434L1235.23 446.986C1237.27 448.285 1237.09 450.325 1234.67 451.809C1232.45 453.293 1228.74 453.293 1226.51 452.18Z" fill="white"/>
            <path opacity="0.3" d="M1268.25 476.297L1245.62 463.311C1243.58 462.012 1243.76 459.972 1246.18 458.488C1248.59 457.004 1252.3 457.004 1254.34 458.117L1276.97 471.102C1279.01 472.401 1278.83 474.441 1276.41 475.926C1274.19 477.224 1270.48 477.41 1268.25 476.297Z" fill="white"/>
            <path opacity="0.3" d="M1310.18 500.413L1287.54 487.427C1285.5 486.129 1285.69 484.088 1288.1 482.604C1290.51 481.12 1294.22 481.12 1296.26 482.233L1318.9 495.219C1320.94 496.517 1320.75 498.558 1318.34 500.042C1315.93 501.34 1312.22 501.526 1310.18 500.413Z" fill="white"/>
        </g>
    </g>
    <path opacity="0.4" d="M1509.97 362.023C1507.37 363.507 1503.29 363.507 1500.88 362.023C1498.28 360.539 1498.28 358.127 1500.88 356.829C1503.48 355.345 1507.56 355.345 1509.97 356.829C1512.38 358.313 1512.38 360.725 1509.97 362.023Z" fill="#24126A"/>
    <path opacity="0.4" d="M1475.28 336.794L1493.09 346.997C1495.31 348.296 1494.94 350.522 1492.53 351.82C1489.93 353.305 1486.22 353.49 1484 352.191L1466.19 341.988C1463.96 340.69 1464.33 338.464 1466.74 337.165C1469.16 335.681 1473.05 335.496 1475.28 336.794Z" fill="#24126A"/>
    <path opacity="0.4" d="M1375.1 277.802L1392.91 288.005C1395.14 289.303 1394.77 291.529 1392.36 292.828C1389.76 294.312 1386.05 294.497 1383.82 293.199L1366.01 282.996C1363.79 281.697 1364.16 279.471 1366.57 278.173C1368.98 276.688 1372.88 276.503 1375.1 277.802Z" fill="#24126A"/>
    <path d="M1509.97 355.715C1507.37 357.2 1503.29 357.2 1500.88 355.715C1498.28 354.231 1498.28 351.82 1500.88 350.521C1503.48 349.037 1507.56 349.037 1509.97 350.521C1512.38 351.82 1512.38 354.231 1509.97 355.715Z" fill="#3DD598"/>
    <path d="M1475.28 330.301L1493.09 340.504C1495.31 341.803 1494.94 344.029 1492.53 345.327C1489.93 346.812 1486.22 346.997 1484 345.698L1466.19 335.495C1463.96 334.197 1464.33 331.971 1466.74 330.672C1469.16 329.374 1473.05 329.188 1475.28 330.301Z" fill="#3DD598"/>
    <path d="M1375.1 271.309L1392.91 281.512C1395.14 282.81 1394.77 285.037 1392.36 286.335C1389.76 287.819 1386.05 288.005 1383.82 286.706L1366.01 276.503C1363.79 275.205 1364.16 272.978 1366.57 271.68C1368.98 270.196 1372.88 270.01 1375.1 271.309Z" fill="#3DD598"/>
    <g opacity="0.3">
        <path opacity="0.3" d="M1201.89 483.467V478.401L1200.54 477.613C1200.2 479.977 1197.38 481.553 1195.02 481.891L1179.04 491.234L1172.06 493.71L1149.88 482.229L1150.44 481.891C1148.53 480.99 1147.52 478.964 1146.5 477.163L1145.04 478.064L1144.14 478.289V483.467C1144.14 484.48 1144.82 485.493 1146.05 486.168L1168.34 499.001C1170.93 500.464 1175.21 500.464 1177.8 499.001L1200.09 486.168C1201.32 485.38 1202 484.48 1202 483.467C1201.89 483.579 1201.89 483.579 1201.89 483.467Z" fill="url(#paint1_linear)"/>
        <path opacity="0.3" d="M1194.91 482.004L1178.92 491.347L1172.84 493.486V500.352C1174.53 500.352 1176.22 500.015 1177.57 499.227L1199.86 486.394C1201.1 485.606 1201.77 484.705 1201.77 483.692V483.58V478.514L1200.54 477.839H1200.42C1200.09 480.09 1197.27 481.666 1194.91 482.004Z" fill="#0F054C"/>
        <g opacity="0.3">
            <path opacity="0.3" d="M1168.23 494.048L1145.94 481.215C1143.35 479.752 1143.35 477.276 1145.94 475.7L1168.23 462.867C1170.82 461.404 1175.1 461.404 1177.69 462.867L1199.97 475.7C1202.56 477.163 1202.56 479.639 1199.97 481.215L1177.69 494.048C1175.1 495.511 1170.82 495.511 1168.23 494.048Z" fill="url(#paint2_linear)"/>
        </g>
        <g opacity="0.3">
            <path opacity="0.3" d="M1168.23 494.048L1145.94 481.215C1143.35 479.752 1143.35 477.276 1145.94 475.7L1168.23 462.867C1170.82 461.404 1175.1 461.404 1177.69 462.867L1199.97 475.7C1202.56 477.163 1202.56 479.639 1199.97 481.215L1177.69 494.048C1175.1 495.511 1170.82 495.511 1168.23 494.048Z" fill="#0F054C"/>
        </g>
    </g>
    <path d="M1172.96 477.839C1171.38 477.839 1169.92 477.501 1168.79 476.826L1146.5 463.993C1145.38 463.318 1144.7 462.418 1144.7 461.404C1144.7 460.391 1145.38 459.491 1146.5 458.815L1168.79 445.983C1171.16 444.632 1174.87 444.632 1177.23 445.983L1199.52 458.815C1200.65 459.491 1201.32 460.391 1201.32 461.404C1201.32 462.418 1200.65 463.318 1199.52 463.993L1177.23 476.826C1176 477.501 1174.42 477.839 1172.96 477.839ZM1172.96 445.42C1171.49 445.42 1170.03 445.758 1168.9 446.321L1146.62 459.153C1145.6 459.716 1145.04 460.504 1145.04 461.404C1145.04 462.192 1145.6 462.98 1146.62 463.656L1168.9 476.488C1171.16 477.727 1174.65 477.727 1176.9 476.488L1199.19 463.656C1200.2 463.093 1200.76 462.305 1200.76 461.404C1200.76 460.616 1200.2 459.829 1199.19 459.153L1176.9 446.321C1175.77 445.758 1174.42 445.42 1172.96 445.42Z" fill="white" fill-opacity="0.43"/>
    <path opacity="0.4" d="M1201.89 457.451V449.909L1200.54 449.121C1200.2 451.485 1197.38 453.061 1195.02 453.399L1179.04 462.742L1172.06 465.218L1149.88 453.736L1150.44 453.399C1148.53 452.498 1147.52 450.472 1146.5 448.671L1145.04 449.571L1144.14 449.797V457.564C1144.14 458.577 1144.82 459.59 1146.05 460.265L1168.34 473.098C1170.93 474.561 1175.21 474.561 1177.8 473.098L1200.09 460.265C1201.32 459.477 1202 458.577 1202 457.564C1201.89 457.564 1201.89 457.564 1201.89 457.451Z" fill="#42E8C0"/>
    <path d="M1201.89 450.697V445.632L1200.54 444.844C1200.2 447.208 1197.38 448.784 1195.02 449.121L1179.04 458.464L1172.06 460.941L1149.88 449.459L1150.44 449.121C1148.53 448.221 1147.52 446.195 1146.5 444.394L1145.04 445.294L1144.14 445.519V450.697C1144.14 451.71 1144.82 452.723 1146.05 453.399L1168.34 466.231C1170.93 467.695 1175.21 467.695 1177.8 466.231L1200.09 453.399C1201.32 452.611 1202 451.71 1202 450.697C1201.89 450.81 1201.89 450.81 1201.89 450.697Z" fill="url(#paint3_linear)"/>
    <path opacity="0.3" d="M1194.91 449.234L1178.92 458.577L1172.84 460.716V467.583C1174.53 467.583 1176.22 467.245 1177.57 466.457L1199.86 453.624C1201.1 452.836 1201.77 451.936 1201.77 450.923V450.81V445.745L1200.54 445.069H1200.42C1200.09 447.321 1197.27 448.897 1194.91 449.234Z" fill="#0F054C"/>
    <path d="M1168.23 461.279L1145.94 448.446C1143.35 446.983 1143.35 444.506 1145.94 442.93L1168.23 430.098C1170.82 428.634 1175.1 428.634 1177.69 430.098L1199.97 442.93C1202.56 444.393 1202.56 446.87 1199.97 448.333L1177.69 461.279C1175.1 462.742 1170.82 462.742 1168.23 461.279Z" fill="url(#paint4_linear)"/>
    <path d="M1172.96 458.915C1171.61 458.915 1170.26 458.577 1169.13 458.014L1151.68 447.996C1150.67 447.433 1150.11 446.532 1150.11 445.744C1150.11 444.844 1150.67 444.056 1151.68 443.493L1169.13 433.475C1171.27 432.236 1174.65 432.236 1176.67 433.475L1194.12 443.493C1195.13 444.056 1195.7 444.956 1195.7 445.744C1195.7 446.645 1195.13 447.433 1194.12 447.996L1176.67 458.014C1175.66 458.69 1174.31 458.915 1172.96 458.915ZM1172.96 432.799C1171.61 432.799 1170.37 433.137 1169.36 433.7L1151.91 443.718C1151.01 444.281 1150.44 444.956 1150.44 445.632C1150.44 446.42 1151.01 447.095 1151.91 447.545L1169.36 457.564C1171.38 458.69 1174.53 458.69 1176.56 457.564L1194.01 447.545C1194.91 446.983 1195.47 446.307 1195.47 445.632C1195.47 444.844 1194.91 444.168 1194.01 443.718L1176.56 433.7C1175.55 433.137 1174.2 432.799 1172.96 432.799Z" fill="black"/>
    <path d="M1199.97 448.446L1177.69 461.279C1175.1 462.742 1170.82 462.742 1168.23 461.279L1145.94 448.446C1144.82 447.771 1144.14 446.87 1144.03 446.082C1143.92 447.208 1144.48 448.333 1145.94 449.121L1168.23 461.954C1170.82 463.417 1175.1 463.417 1177.69 461.954L1199.97 449.121C1201.44 448.333 1202.11 447.208 1201.89 446.082C1201.78 446.87 1201.1 447.771 1199.97 448.446Z" fill="white"/>
    <path opacity="0.4" d="M1299.42 474.442L1157.13 392.262C1153.42 390.221 1153.98 386.511 1158.24 383.914L1241.35 336.052C1245.62 333.641 1252.11 333.27 1255.64 335.496L1397.92 417.676C1401.63 419.717 1401.08 423.427 1396.81 426.024L1313.7 473.886C1309.43 476.297 1303.13 476.483 1299.42 474.442Z" fill="#094036"/>
    <path d="M1435.58 353.676L1433.17 353.305C1432.98 353.119 1432.61 352.934 1432.43 352.748L1249.14 247.008C1244.32 244.225 1236.16 244.596 1230.59 247.75L1123.74 309.525C1122.26 310.267 1121.14 311.194 1120.4 312.307L1119.1 311.936V315.646C1119.1 317.316 1120.22 318.986 1122.26 320.284L1305.54 426.024C1310.36 428.807 1318.52 428.436 1324.09 425.282L1430.94 363.508C1433.91 361.653 1435.58 359.427 1435.4 357.386V353.676H1435.58Z" fill="white"/>
    <path d="M1305.72 422.314L1122.44 316.574C1117.62 313.791 1118.36 309.153 1123.74 306L1230.59 244.225C1235.97 241.071 1244.32 240.7 1249.14 243.483L1432.43 349.223C1437.25 352.006 1436.51 356.644 1431.13 359.797L1324.09 421.386C1318.71 424.54 1310.36 424.911 1305.72 422.314Z" fill="url(#paint5_linear)"/>
    <path d="M1335.22 415.079L1134.87 299.321L1156.02 287.078L1356.55 402.835L1335.22 415.079Z" fill="url(#paint6_linear)"/>
    <g opacity="0.45" filter="url(#filter0_f)">
        <ellipse cx="1288.83" cy="329" rx="49.5" ry="25" fill="black" fill-opacity="0.42"/>
    </g>
    <path d="M1225.41 287.634C1218.73 294.312 1201.29 303.402 1195.91 298.208C1190.53 292.828 1199.25 275.204 1205.74 268.526C1212.42 261.848 1222.07 260.549 1227.63 265.929C1233.01 271.123 1232.09 280.955 1225.41 287.634Z" fill="url(#paint7_radial)"/>
    <path d="M1225.41 287.634C1218.73 294.312 1201.29 303.402 1195.91 298.208C1190.53 292.828 1199.25 275.204 1205.74 268.526C1212.42 261.848 1222.07 260.549 1227.63 265.929C1233.01 271.123 1232.09 280.955 1225.41 287.634Z" fill="url(#paint8_linear)"/>
    <path d="M1226.33 269.268C1225.96 269.268 1225.59 269.268 1225.04 269.083C1223.37 268.341 1222.62 266.486 1223.37 265.002L1233.2 241.442C1233.94 239.773 1235.79 239.03 1237.28 239.772C1238.95 240.515 1239.69 242.37 1238.95 243.854L1229.12 267.413C1228.75 268.526 1227.45 269.268 1226.33 269.268Z" fill="#222327"/>
    <path d="M1351.3 260.758L1345.46 263.125L1365.85 313.505L1371.7 311.139L1351.3 260.758Z" fill="#222327"/>
    <path d="M1242.66 250.346C1253.62 250.346 1262.51 241.459 1262.51 230.496C1262.51 219.534 1253.62 210.647 1242.66 210.647C1231.7 210.647 1222.81 219.534 1222.81 230.496C1222.81 241.459 1231.7 250.346 1242.66 250.346Z" fill="url(#paint9_radial)"/>
    <path d="M1253.23 213.801C1262.51 219.737 1265.11 231.981 1259.35 241.071C1253.42 250.346 1241.17 252.944 1232.08 247.193C1222.81 241.256 1220.21 229.013 1225.96 219.923C1231.71 210.647 1243.96 208.05 1253.23 213.801Z" fill="url(#paint10_linear)"/>
    <path d="M1341.35 266.486C1341.35 304.886 1318.53 336.051 1290.15 336.051C1261.95 336.051 1238.95 304.886 1238.95 266.486C1238.95 228.085 1261.77 216.583 1290.15 216.583C1318.35 216.583 1341.35 228.085 1341.35 266.486Z" fill="url(#paint11_radial)"/>
    <path d="M1341.35 266.486C1341.35 304.886 1318.53 336.051 1290.15 336.051C1261.95 336.051 1238.95 304.886 1238.95 266.486C1238.95 228.085 1261.77 216.583 1290.15 216.583C1318.35 216.583 1341.35 228.085 1341.35 266.486Z" fill="url(#paint12_linear)"/>
    <path d="M1290.15 257.396C1309.41 257.396 1325.02 248.343 1325.02 237.175C1325.02 226.008 1309.41 216.955 1290.15 216.955C1270.89 216.955 1255.27 226.008 1255.27 237.175C1255.27 248.343 1270.89 257.396 1290.15 257.396Z" fill="#222327"/>
    <path d="M1265.48 228.456C1279.02 220.665 1301.09 220.665 1314.82 228.456C1320.39 231.795 1323.73 235.877 1324.65 239.958C1325.95 234.022 1322.8 227.714 1314.82 223.076C1301.28 215.285 1279.02 215.285 1265.48 223.076C1257.5 227.714 1254.16 234.022 1255.64 239.958C1256.57 235.691 1259.91 231.61 1265.48 228.456Z" fill="#B1B1B1"/>
    <path d="M1270.69 177.351C1276.43 167.414 1276.41 156.659 1270.64 153.329C1264.87 150 1255.55 155.356 1249.81 165.293C1244.07 175.23 1244.1 185.985 1249.86 189.315C1255.63 192.645 1264.96 187.289 1270.69 177.351Z" fill="#BCBEFF"/>
    <path d="M1292.19 241.256C1320.98 241.256 1344.32 217.918 1344.32 189.128C1344.32 160.339 1320.98 137 1292.19 137C1263.4 137 1240.06 160.339 1240.06 189.128C1240.06 217.918 1263.4 241.256 1292.19 241.256Z" fill="url(#paint13_radial)"/>
    <path d="M1292.19 241.256C1320.98 241.256 1344.32 217.918 1344.32 189.128C1344.32 160.339 1320.98 137 1292.19 137C1263.4 137 1240.06 160.339 1240.06 189.128C1240.06 217.918 1263.4 241.256 1292.19 241.256Z" fill="url(#paint14_linear)"/>
    <path d="M1269.86 223.74C1276.57 220.945 1278.06 209.171 1273.18 197.442C1268.29 185.714 1258.89 178.472 1252.18 181.267C1245.46 184.063 1243.98 195.837 1248.86 207.566C1253.74 219.294 1263.14 226.536 1269.86 223.74Z" fill="#222327"/>
    <path d="M1269.19 205.082C1268.63 208.792 1265.85 209.905 1262.88 207.679C1259.91 205.453 1257.87 200.444 1258.43 196.734C1258.98 193.024 1261.77 191.911 1264.73 194.137C1267.7 196.363 1269.74 201.186 1269.19 205.082Z" fill="white"/>
    <path d="M1262.69 219.551C1254.53 213.244 1248.97 199.887 1250.27 189.684C1250.82 185.418 1252.49 182.449 1254.72 180.78C1250.45 181.151 1247.11 184.861 1246.37 191.168C1245.07 201.371 1250.64 214.913 1258.8 221.035C1263.62 224.745 1268.45 225.116 1271.6 222.705C1268.82 223.076 1265.85 221.963 1262.69 219.551Z" fill="#9A9A9A"/>
    <path d="M1259.36 220.664C1251.19 214.357 1245.63 201 1246.93 190.797C1247.48 185.974 1249.52 182.82 1252.31 181.336C1249.15 182.635 1246.93 185.974 1246.18 191.168C1244.89 201.371 1250.45 214.914 1258.61 221.035C1263.07 224.375 1267.33 225.117 1270.49 223.262C1267.52 224.56 1263.44 223.818 1259.36 220.664Z" fill="white"/>
    <path d="M1348.4 281.697C1359.36 281.697 1368.25 272.81 1368.25 261.848C1368.25 250.885 1359.36 241.998 1348.4 241.998C1337.44 241.998 1328.55 250.885 1328.55 261.848C1328.55 272.81 1337.44 281.697 1348.4 281.697Z" fill="url(#paint15_radial)"/>
    <path d="M1348.4 281.697C1359.36 281.697 1368.25 272.81 1368.25 261.848C1368.25 250.885 1359.36 241.998 1348.4 241.998C1337.44 241.998 1328.55 250.885 1328.55 261.848C1328.55 272.81 1337.44 281.697 1348.4 281.697Z" fill="url(#paint16_linear)"/>
    <path d="M1379.94 327.518C1378.82 336.979 1370.47 354.788 1363.05 353.86C1355.45 352.933 1351.74 333.64 1352.85 324.365C1353.96 314.904 1361.01 308.04 1368.43 308.967C1375.85 309.709 1381.05 318.057 1379.94 327.518Z" fill="url(#paint17_radial)"/>
    <path d="M1379.94 327.518C1378.82 336.979 1370.47 354.788 1363.05 353.86C1355.45 352.933 1351.74 333.64 1352.85 324.365C1353.96 314.904 1361.01 308.04 1368.43 308.967C1375.85 309.709 1381.05 318.057 1379.94 327.518Z" fill="url(#paint18_linear)"/>
    <path d="M1094.3 259.472C1104.54 245.132 1106.9 220.55 1099.5 204.635C1095.87 196.598 1090.51 192.344 1084.68 191.713L1078.7 191.241L1079.8 192.186C1075.54 193.289 1071.45 196.441 1067.82 201.641C1057.58 215.98 1055.22 240.563 1062.62 256.478C1065.14 261.993 1068.45 265.775 1072.08 267.666L1071.13 268.769L1077.28 269.242H1077.59C1083.27 269.714 1089.25 266.405 1094.3 259.472Z" fill="#E9E9E9"/>
    <path d="M1098.58 232.052C1100.64 210.655 1092.26 192.345 1079.87 191.155C1067.49 189.965 1055.78 206.346 1053.72 227.743C1051.67 249.14 1060.04 267.45 1072.43 268.64C1084.82 269.83 1096.53 253.449 1098.58 232.052Z" fill="#3DD598"/>
    <path fill-rule="evenodd" clip-rule="evenodd" d="M1079.13 196.319C1068.29 195.368 1058.09 210.075 1056.38 229.127C1054.67 248.179 1062.09 264.431 1072.93 265.381C1083.77 266.332 1093.97 251.625 1095.68 232.573C1097.39 213.521 1089.97 197.269 1079.13 196.319ZM1073.16 262.801C1063.11 261.92 1056.26 246.918 1057.85 229.255C1059.43 211.593 1068.85 198.017 1078.9 198.898C1088.95 199.78 1095.8 214.782 1094.21 232.444C1092.63 250.107 1083.21 263.683 1073.16 262.801ZM1078.72 200.883C1069.35 200.061 1060.46 212.883 1058.98 229.355C1057.5 245.826 1063.96 259.995 1073.34 260.817C1082.71 261.639 1091.6 248.817 1093.08 232.345C1094.56 215.874 1088.1 201.705 1078.72 200.883ZM1073.62 257.642C1065.27 256.909 1059.56 244.407 1060.88 229.721C1062.2 215.036 1070.04 203.722 1078.4 204.455C1086.76 205.188 1092.46 217.69 1091.15 232.376C1089.84 246.863 1081.98 258.375 1073.62 257.642ZM1077.47 228.776C1078.45 229.262 1079.2 229.728 1079.83 230.383C1080.47 230.839 1080.96 231.683 1081.2 232.903C1081.56 233.935 1081.66 235.344 1081.52 236.932C1081.34 238.916 1080.84 240.673 1079.81 241.983C1078.88 243.501 1077.56 244.186 1075.95 244.444L1075.57 248.612L1073.43 248.424L1073.78 244.454C1072.78 244.167 1071.79 243.879 1070.94 243.205C1070.09 242.53 1069.35 241.865 1068.86 241.022L1070.4 236.557C1070.89 237.4 1071.51 238.055 1072.15 238.511C1072.89 239.176 1073.55 239.434 1074.32 239.701L1074.88 233.549C1073.9 233.063 1073.03 232.587 1072.4 231.932C1071.78 231.278 1071.29 230.434 1070.92 229.402C1070.56 228.37 1070.46 226.961 1070.6 225.374C1070.8 223.191 1071.3 221.434 1072.33 220.124C1073.37 218.616 1074.69 217.931 1076.3 217.673L1076.68 213.505L1078.82 213.693L1078.47 217.662C1080.14 218.01 1081.54 218.932 1082.56 220.222L1081.14 224.697C1080.11 223.407 1079.15 222.723 1078.04 222.425L1077.47 228.776ZM1074.37 226.504C1074.56 226.921 1074.87 227.348 1075.41 227.596L1075.89 222.237C1075.31 222.386 1074.82 222.744 1074.56 223.121C1074.28 223.696 1074.12 224.282 1074.06 224.877C1074.01 225.472 1074.18 226.088 1074.37 226.504ZM1076.51 239.493C1076.98 239.334 1077.46 238.977 1077.72 238.599C1078 238.024 1078.15 237.637 1078.21 237.041C1078.26 236.446 1078.2 235.841 1078.01 235.424C1077.89 235.155 1077.66 234.96 1077.41 234.739C1077.27 234.617 1077.12 234.487 1076.97 234.333L1076.51 239.493Z" fill="#222327"/>
    <path d="M1178.14 134.163C1178.14 110.269 1161.5 81.4684 1140.8 69.5215C1130.56 63.548 1121.18 62.9079 1114.35 66.9614L1107.31 71.0148L1109.44 71.2281C1105.82 75.7083 1103.47 82.5351 1103.47 91.0686C1103.47 114.963 1120.11 143.763 1140.8 155.71C1147.84 159.764 1154.46 161.257 1160.22 160.617L1160 162.537L1167.26 158.27L1167.47 158.057C1174.08 154.217 1178.14 145.897 1178.14 134.163Z" fill="white"/>
    <path d="M1160.11 162.521C1174.71 154.096 1174.74 126.836 1160.19 101.633C1145.63 76.4307 1122.01 62.8292 1107.42 71.2536C1092.83 79.678 1092.8 106.938 1107.35 132.141C1121.9 157.344 1145.52 170.945 1160.11 162.521Z" fill="#3DD598"/>
    <path fill-rule="evenodd" clip-rule="evenodd" d="M1108.99 74.2398C1095.59 81.9622 1095.68 107.401 1109.21 130.989C1122.73 154.577 1144.61 167.467 1158.01 159.745C1171.41 152.023 1171.32 126.583 1157.79 102.996C1144.27 79.408 1122.39 66.5175 1108.99 74.2398ZM1156.18 156.551C1143.75 163.71 1123.56 151.811 1111.02 129.943C1098.48 108.076 1098.39 84.5932 1110.82 77.434C1123.25 70.2747 1143.44 82.1737 1155.98 104.041C1168.52 125.909 1168.61 149.392 1156.18 156.551ZM1112.23 79.891C1100.64 86.5676 1100.73 108.745 1112.42 129.139C1124.11 149.532 1143.18 160.77 1154.77 154.094C1166.36 147.417 1166.27 125.239 1154.58 104.846C1142.89 84.4523 1123.82 73.2144 1112.23 79.891ZM1152.52 150.163C1142.18 156.115 1125.36 146.199 1114.93 128.017C1104.51 109.835 1104.43 90.2664 1114.77 84.3137C1125.1 78.3611 1141.93 88.2769 1152.35 106.459C1162.63 124.395 1162.85 144.21 1152.52 150.163ZM1133.49 113.405C1135.02 113.172 1136.28 113.101 1137.54 113.355C1138.66 113.364 1139.93 113.945 1141.19 115.177C1142.45 116.084 1143.72 117.643 1144.84 119.609C1146.25 122.066 1147.1 124.519 1146.97 126.882C1147.12 129.411 1146.15 131.278 1144.48 132.896L1147.43 138.056L1144.78 139.584L1141.96 134.67L1141.96 134.67C1140.57 135.148 1139.17 135.627 1137.63 135.533C1136.09 135.439 1134.69 135.265 1133.43 134.685L1131.58 128.229C1132.85 128.81 1134.11 129.064 1135.23 129.073C1136.63 129.247 1137.6 129.01 1138.72 128.693L1134.36 121.076C1132.82 121.308 1131.42 121.461 1130.16 121.206C1128.9 120.952 1127.64 120.371 1126.37 119.464C1125.11 118.557 1123.85 116.998 1122.72 115.033C1121.17 112.33 1120.32 109.877 1120.45 107.514C1120.44 104.905 1121.41 103.037 1123.09 101.419L1120.13 96.2598L1122.78 94.7314L1125.6 99.6455C1127.83 98.6846 1130.21 98.6216 1132.45 99.2914L1134.44 105.667C1132.2 104.997 1130.52 104.984 1128.98 105.542L1133.49 113.405ZM1128.03 113.281C1128.59 113.611 1129.29 113.861 1130.13 113.705L1126.33 107.071C1125.77 107.719 1125.49 108.532 1125.49 109.184C1125.64 110.082 1125.92 110.9 1126.34 111.637C1126.77 112.374 1127.47 112.95 1128.03 113.281ZM1141.09 126.673C1141.51 126.106 1141.79 125.292 1141.78 124.64C1141.64 123.742 1141.5 123.17 1141.08 122.433C1140.65 121.696 1140.09 121.039 1139.53 120.709C1139.17 120.495 1138.75 120.451 1138.27 120.401C1138.01 120.374 1137.73 120.345 1137.43 120.285L1141.09 126.673Z" fill="#222327"/>
    <path d="M1530.34 527.722C1530.34 557.155 1550.84 592.633 1576.33 607.35C1588.95 614.708 1600.51 615.497 1608.92 610.503L1617.59 605.51L1614.96 605.247C1619.43 599.729 1622.32 591.319 1622.32 580.807C1622.32 551.374 1601.82 515.896 1576.33 501.179C1567.66 496.186 1559.51 494.347 1552.42 495.135L1552.68 492.77L1543.74 498.026L1543.48 498.288C1535.34 503.019 1530.34 513.268 1530.34 527.722Z" fill="white"/>
    <path d="M1552.54 492.79C1534.57 503.167 1534.53 536.747 1552.46 567.793C1570.38 598.838 1599.48 615.593 1617.46 605.216C1635.43 594.838 1635.47 561.258 1617.54 530.213C1599.62 499.167 1570.52 482.412 1552.54 492.79Z" fill="#3DD598"/>
    <path fill-rule="evenodd" clip-rule="evenodd" d="M1615.52 601.538C1632.03 592.025 1631.91 560.688 1615.26 531.632C1598.6 502.576 1571.65 486.697 1555.14 496.209C1538.63 505.722 1538.74 537.059 1555.4 566.115C1572.06 595.171 1599.01 611.05 1615.52 601.538ZM1557.39 500.144C1572.7 491.325 1597.58 505.983 1613.02 532.92C1628.46 559.858 1628.57 588.784 1613.27 597.603C1597.96 606.422 1573.08 591.765 1557.64 564.827C1542.19 537.89 1542.08 508.963 1557.39 500.144ZM1611.53 594.576C1625.81 586.352 1625.7 559.032 1611.3 533.911C1596.9 508.79 1573.4 494.946 1559.13 503.171C1544.85 511.395 1544.96 538.715 1559.36 563.836C1573.76 588.958 1597.26 602.801 1611.53 594.576ZM1561.9 508.013C1574.63 500.681 1595.36 512.895 1608.2 535.293C1621.04 557.69 1621.13 581.796 1608.41 589.128C1595.68 596.461 1574.95 584.246 1562.11 561.849C1549.44 539.754 1549.18 515.346 1561.9 508.013ZM1585.35 553.293C1583.45 553.579 1581.9 553.668 1580.35 553.354C1578.97 553.343 1577.41 552.628 1575.86 551.109C1574.3 549.992 1572.74 548.072 1571.35 545.651C1569.62 542.624 1568.57 539.603 1568.73 536.691C1568.55 533.576 1569.75 531.276 1571.81 529.283L1568.17 522.927L1571.43 521.044L1574.9 527.098C1576.63 526.508 1578.35 525.919 1580.24 526.035C1582.14 526.15 1583.86 526.364 1585.42 527.079L1587.69 535.032C1586.14 534.316 1584.58 534.003 1583.2 533.992C1581.48 533.778 1580.27 534.07 1578.9 534.461L1584.28 543.843C1586.17 543.557 1587.89 543.37 1589.45 543.683C1591 543.996 1592.55 544.712 1594.11 545.829C1595.66 546.946 1597.22 548.866 1598.61 551.288C1600.52 554.617 1601.56 557.638 1601.4 560.549C1601.42 563.764 1600.22 566.064 1598.16 568.057L1601.8 574.413L1598.53 576.296L1595.06 570.242C1592.31 571.426 1589.38 571.503 1586.62 570.678L1584.18 562.825C1586.94 563.65 1589 563.666 1590.9 562.978L1585.35 553.293ZM1592.07 553.446C1591.38 553.039 1590.51 552.731 1589.48 552.923L1594.17 561.095C1594.85 560.297 1595.19 559.296 1595.19 558.492C1595.01 557.386 1594.67 556.379 1594.14 555.471C1593.62 554.563 1592.76 553.853 1592.07 553.446ZM1575.98 536.949C1575.46 537.648 1575.12 538.649 1575.12 539.453C1575.3 540.559 1575.47 541.264 1576 542.172C1576.52 543.08 1577.21 543.888 1577.9 544.296C1578.35 544.559 1578.86 544.613 1579.45 544.674C1579.78 544.708 1580.12 544.744 1580.49 544.818L1575.98 536.949Z" fill="#222327"/>
    <g opacity="0.3">
        <path opacity="0.3" d="M1037.4 635.409V627.061L1035.17 625.763C1034.62 629.658 1029.98 632.255 1026.08 632.812L999.739 648.209L988.238 652.29L951.692 633.368L952.62 632.812C949.466 631.328 947.797 627.989 946.127 625.021L943.716 626.505L942.231 626.876V635.409C942.231 637.079 943.344 638.748 945.385 639.861L982.116 661.009C986.383 663.421 993.432 663.421 997.699 661.009L1034.43 639.861C1036.47 638.563 1037.58 637.079 1037.58 635.409C1037.4 635.595 1037.4 635.595 1037.4 635.409Z" fill="url(#paint19_linear)"/>
        <path opacity="0.3" d="M1025.9 632.998L999.555 648.395L989.537 651.92V663.236C992.32 663.236 995.102 662.679 997.328 661.381L1034.06 640.233C1036.1 638.934 1037.21 637.45 1037.21 635.78V635.595V627.247L1035.17 626.134H1034.99C1034.43 629.844 1029.79 632.441 1025.9 632.998Z" fill="#0F054C"/>
        <g opacity="0.3">
            <path opacity="0.3" d="M981.931 652.847L945.2 631.699C940.933 629.287 940.933 625.206 945.2 622.609L981.931 601.461C986.198 599.049 993.247 599.049 997.514 601.461L1034.24 622.609C1038.51 625.021 1038.51 629.102 1034.24 631.699L997.514 652.847C993.247 655.259 986.198 655.259 981.931 652.847Z" fill="url(#paint20_linear)"/>
        </g>
        <g opacity="0.3">
            <path opacity="0.3" d="M981.931 652.847L945.2 631.699C940.933 629.287 940.933 625.206 945.2 622.609L981.931 601.461C986.198 599.049 993.247 599.049 997.514 601.461L1034.24 622.609C1038.51 625.021 1038.51 629.102 1034.24 631.699L997.514 652.847C993.247 655.259 986.198 655.259 981.931 652.847Z" fill="#0F054C"/>
        </g>
    </g>
    <path d="M989.722 626.135C987.125 626.135 984.713 625.578 982.858 624.465L946.127 603.317C944.272 602.204 943.159 600.72 943.159 599.05C943.159 597.381 944.272 595.897 946.127 594.783L982.858 573.635C986.754 571.409 992.876 571.409 996.771 573.635L1033.5 594.783C1035.36 595.897 1036.47 597.381 1036.47 599.05C1036.47 600.72 1035.36 602.204 1033.5 603.317L996.771 624.465C994.731 625.578 992.134 626.135 989.722 626.135ZM989.722 572.708C987.31 572.708 984.899 573.264 983.044 574.192L946.313 595.34C944.643 596.268 943.716 597.566 943.716 599.05C943.716 600.349 944.643 601.647 946.313 602.76L983.044 623.908C986.754 625.949 992.505 625.949 996.215 623.908L1032.95 602.76C1034.62 601.833 1035.54 600.534 1035.54 599.05C1035.54 597.752 1034.62 596.453 1032.95 595.34L996.215 574.192C994.36 573.264 992.134 572.708 989.722 572.708Z" fill="white" fill-opacity="0.43"/>
    <path opacity="0.4" d="M1037.4 590.888V578.459L1035.17 577.16C1034.62 581.056 1029.98 583.653 1026.08 584.209L999.739 599.607L988.238 603.688L951.692 584.766L952.62 584.209C949.466 582.725 947.797 579.386 946.127 576.418L943.716 577.902L942.231 578.273V591.073C942.231 592.743 943.344 594.412 945.385 595.525L982.116 616.673C986.383 619.085 993.432 619.085 997.699 616.673L1034.43 595.525C1036.47 594.227 1037.58 592.743 1037.58 591.073C1037.4 591.073 1037.4 591.073 1037.4 590.888Z" fill="#42E8C0"/>
    <path d="M1037.4 579.757V571.409L1035.17 570.11C1034.62 574.006 1029.98 576.603 1026.08 577.16L999.739 592.557L988.238 596.638L951.692 577.716L952.62 577.16C949.466 575.675 947.797 572.336 946.127 569.368L943.716 570.852L942.231 571.223V579.757C942.231 581.426 943.344 583.096 945.385 584.209L982.116 605.357C986.383 607.769 993.432 607.769 997.699 605.357L1034.43 584.209C1036.47 582.91 1037.58 581.426 1037.58 579.757C1037.4 579.942 1037.4 579.942 1037.4 579.757Z" fill="url(#paint21_linear)"/>
    <path opacity="0.3" d="M1025.9 577.345L999.555 592.743L989.537 596.267V607.583C992.32 607.583 995.102 607.027 997.328 605.728L1034.06 584.58C1036.1 583.282 1037.21 581.798 1037.21 580.128V579.942V571.595L1035.17 570.481H1034.99C1034.43 574.192 1029.79 576.789 1025.9 577.345Z" fill="#0F054C"/>
    <path d="M981.931 597.195L945.2 576.047C940.933 573.635 940.933 569.554 945.2 566.957L981.931 545.809C986.198 543.397 993.247 543.397 997.514 545.809L1034.24 566.957C1038.51 569.368 1038.51 573.45 1034.24 575.861L997.514 597.195C993.247 599.606 986.198 599.606 981.931 597.195Z" fill="url(#paint22_linear)"/>
    <path d="M989.722 593.299C987.496 593.299 985.27 592.743 983.415 591.815L954.661 575.305C952.991 574.377 952.063 572.893 952.063 571.595C952.063 570.111 952.991 568.812 954.661 567.885L983.415 551.374C986.939 549.334 992.505 549.334 995.844 551.374L1024.6 567.885C1026.27 568.812 1027.19 570.296 1027.19 571.595C1027.19 573.079 1026.27 574.377 1024.6 575.305L995.844 591.815C994.174 592.928 991.948 593.299 989.722 593.299ZM989.722 550.261C987.496 550.261 985.455 550.818 983.786 551.745L955.032 568.256C953.548 569.183 952.62 570.296 952.62 571.409C952.62 572.708 953.548 573.821 955.032 574.563L983.786 591.073C987.125 592.928 992.319 592.928 995.658 591.073L1024.41 574.563C1025.9 573.635 1026.82 572.522 1026.82 571.409C1026.82 570.111 1025.9 568.998 1024.41 568.256L995.658 551.745C993.989 550.818 991.762 550.261 989.722 550.261Z" fill="#FC5A5A"/>
    <path d="M1034.24 576.047L997.514 597.195C993.247 599.607 986.198 599.607 981.931 597.195L945.2 576.047C943.345 574.934 942.232 573.45 942.046 572.151C941.861 574.006 942.788 575.862 945.2 577.16L981.931 598.308C986.198 600.72 993.247 600.72 997.514 598.308L1034.24 577.16C1036.66 575.862 1037.77 574.006 1037.4 572.151C1037.21 573.45 1036.1 574.934 1034.24 576.047Z" fill="white"/>
    <g opacity="0.3">
        <path opacity="0.3" d="M1018 420.443V413.006L1016.01 411.849C1015.52 415.32 1011.39 417.634 1007.92 418.129L984.445 431.848L974.197 435.484L941.637 418.625L942.463 418.129C939.653 416.807 938.166 413.832 936.678 411.188L934.529 412.51L933.207 412.84V420.443C933.207 421.931 934.199 423.418 936.017 424.41L968.743 443.253C972.545 445.401 978.825 445.401 982.627 443.253L1015.35 424.41C1017.17 423.253 1018.16 421.931 1018.16 420.443C1018 420.609 1018 420.609 1018 420.443Z" fill="url(#paint23_linear)"/>
        <path opacity="0.3" d="M1007.75 418.294L984.279 432.013L975.354 435.153V445.235C977.833 445.235 980.312 444.74 982.295 443.583L1015.02 424.74C1016.84 423.583 1017.83 422.261 1017.83 420.773V420.608V413.17L1016.01 412.179H1015.85C1015.35 415.484 1011.22 417.798 1007.75 418.294Z" fill="#0F054C"/>
        <g opacity="0.3">
            <path opacity="0.3" d="M968.577 435.98L935.851 417.138C932.05 414.989 932.05 411.353 935.851 409.039L968.577 390.196C972.379 388.048 978.66 388.048 982.461 390.196L1015.19 409.039C1018.99 411.188 1018.99 414.824 1015.19 417.138L982.461 435.98C978.66 438.129 972.379 438.129 968.577 435.98Z" fill="url(#paint24_linear)"/>
        </g>
        <g opacity="0.3">
            <path opacity="0.3" d="M968.577 435.98L935.851 417.138C932.05 414.989 932.05 411.353 935.851 409.039L968.577 390.196C972.379 388.048 978.66 388.048 982.461 390.196L1015.19 409.039C1018.99 411.188 1018.99 414.824 1015.19 417.138L982.461 435.98C978.66 438.129 972.379 438.129 968.577 435.98Z" fill="#0F054C"/>
        </g>
    </g>
    <path d="M975.519 412.179C973.205 412.179 971.057 411.683 969.404 410.691L936.678 391.849C935.025 390.857 934.033 389.535 934.033 388.047C934.033 386.56 935.025 385.238 936.678 384.246L969.404 365.404C972.875 363.42 978.329 363.42 981.8 365.404L1014.53 384.246C1016.18 385.238 1017.17 386.56 1017.17 388.047C1017.17 389.535 1016.18 390.857 1014.53 391.849L981.8 410.691C979.982 411.683 977.668 412.179 975.519 412.179ZM975.519 364.577C973.371 364.577 971.222 365.073 969.569 365.899L936.843 384.742C935.355 385.568 934.529 386.725 934.529 388.047C934.529 389.204 935.355 390.361 936.843 391.353L969.569 410.195C972.875 412.014 977.999 412.014 981.304 410.195L1014.03 391.353C1015.52 390.527 1016.34 389.37 1016.34 388.047C1016.34 386.89 1015.52 385.733 1014.03 384.742L981.304 365.899C979.651 365.073 977.668 364.577 975.519 364.577Z" fill="white" fill-opacity="0.43"/>
    <path opacity="0.4" d="M1018 380.775V369.701L1016.01 368.544C1015.52 372.015 1011.39 374.329 1007.92 374.825L984.445 388.543L974.197 392.18L941.637 375.321L942.463 374.825C939.653 373.502 938.166 370.527 936.678 367.883L934.529 369.205L933.207 369.536V380.94C933.207 382.428 934.199 383.915 936.017 384.907L968.743 403.749C972.545 405.898 978.825 405.898 982.627 403.749L1015.35 384.907C1017.17 383.75 1018.16 382.428 1018.16 380.94C1018 380.94 1018 380.94 1018 380.775Z" fill="#42E8C0"/>
    <path d="M1018 370.858V363.421L1016.01 362.264C1015.52 365.735 1011.39 368.049 1007.92 368.544L984.445 382.263L974.197 385.899L941.637 369.04L942.463 368.544C939.653 367.222 938.166 364.247 936.678 361.603L934.529 362.925L933.207 363.255V370.858C933.207 372.346 934.199 373.834 936.017 374.825L968.743 393.668C972.545 395.816 978.825 395.816 982.627 393.668L1015.35 374.825C1017.17 373.668 1018.16 372.346 1018.16 370.858C1018 371.024 1018 371.024 1018 370.858Z" fill="url(#paint25_linear)"/>
    <path opacity="0.3" d="M1007.75 368.71L984.279 382.429L975.354 385.569V395.651C977.833 395.651 980.312 395.156 982.295 393.999L1015.02 375.156C1016.84 373.999 1017.83 372.677 1017.83 371.189V371.024V363.586L1016.01 362.595H1015.85C1015.35 365.9 1011.22 368.214 1007.75 368.71Z" fill="#0F054C"/>
    <path d="M968.577 386.395L935.851 367.553C932.05 365.404 932.05 361.768 935.851 359.454L968.577 340.612C972.379 338.463 978.66 338.463 982.461 340.612L1015.19 359.454C1018.99 361.603 1018.99 365.239 1015.19 367.387L982.461 386.395C978.66 388.544 972.379 388.544 968.577 386.395Z" fill="url(#paint26_linear)"/>
    <path d="M975.519 382.924C973.536 382.924 971.553 382.428 969.9 381.601L944.281 366.891C942.793 366.065 941.967 364.743 941.967 363.586C941.967 362.263 942.793 361.106 944.281 360.28L969.9 345.57C973.04 343.752 977.999 343.752 980.974 345.57L1006.59 360.28C1008.08 361.106 1008.91 362.429 1008.91 363.586C1008.91 364.908 1008.08 366.065 1006.59 366.891L980.974 381.601C979.486 382.593 977.503 382.924 975.519 382.924ZM975.519 344.578C973.536 344.578 971.718 345.074 970.23 345.9L944.611 360.61C943.289 361.437 942.463 362.429 942.463 363.42C942.463 364.577 943.289 365.569 944.611 366.23L970.23 380.94C973.205 382.593 977.833 382.593 980.808 380.94L1006.43 366.23C1007.75 365.404 1008.58 364.412 1008.58 363.42C1008.58 362.263 1007.75 361.272 1006.43 360.61L980.808 345.9C979.321 345.074 977.337 344.578 975.519 344.578Z" fill="#3DD598"/>
    <path d="M1015.19 367.553L982.461 386.395C978.659 388.544 972.378 388.544 968.577 386.395L935.851 367.553C934.198 366.561 933.206 365.239 933.041 364.082C932.876 365.735 933.702 367.388 935.851 368.545L968.577 387.387C972.378 389.536 978.659 389.536 982.461 387.387L1015.19 368.545C1017.34 367.388 1018.33 365.735 1018 364.082C1017.83 365.239 1016.84 366.561 1015.19 367.553Z" fill="white"/>
    <defs>
        <filter id="filter0_f" x="1214.33" y="279" width="149" height="100" filterUnits="userSpaceOnUse" color-interpolation-filters="sRGB">
            <feFlood flood-opacity="0" result="BackgroundImageFix"/>
            <feBlend mode="normal" in="SourceGraphic" in2="BackgroundImageFix" result="shape"/>
            <feGaussianBlur stdDeviation="12.5" result="effect1_foregroundBlur"/>
        </filter>
        <linearGradient id="paint0_linear" x1="1018.35" y1="422.712" x2="1556.86" y2="422.712" gradientUnits="userSpaceOnUse">
            <stop stop-color="#ECFFF7"/>
            <stop offset="0.151" stop-color="#E8FBF3"/>
            <stop offset="0.3866" stop-color="#82E8B1"/>
            <stop offset="0.6124" stop-color="#BDF1D2"/>
            <stop offset="0.8221" stop-color="#6EEFA1"/>
            <stop offset="1" stop-color="#57D78A"/>
        </linearGradient>
        <linearGradient id="paint1_linear" x1="1149.74" y1="468.429" x2="1195.67" y2="494.951" gradientUnits="userSpaceOnUse">
            <stop stop-color="#7FFDD0"/>
            <stop offset="0.2271" stop-color="#62FFA1"/>
            <stop offset="0.6802" stop-color="#1BCF63"/>
            <stop offset="1" stop-color="#52FFD5"/>
        </linearGradient>
        <linearGradient id="paint2_linear" x1="1143.98" y1="478.454" x2="1201.88" y2="478.454" gradientUnits="userSpaceOnUse">
            <stop stop-color="#F7F7F7"/>
            <stop offset="0.3601" stop-color="#E1E1E1"/>
            <stop offset="0.7062" stop-color="#DFDFDF"/>
            <stop offset="1" stop-color="#ACACAC"/>
        </linearGradient>
        <linearGradient id="paint3_linear" x1="1149.74" y1="435.66" x2="1195.67" y2="462.182" gradientUnits="userSpaceOnUse">
            <stop stop-color="#FDFDFD"/>
            <stop offset="0.2271" stop-color="#F1F1F1"/>
            <stop offset="0.6802" stop-color="#CFD1E8"/>
            <stop offset="1" stop-color="#E3E3E3"/>
        </linearGradient>
        <linearGradient id="paint4_linear" x1="1143.98" y1="445.685" x2="1201.88" y2="445.685" gradientUnits="userSpaceOnUse">
            <stop stop-color="white"/>
            <stop offset="0.3601" stop-color="white"/>
            <stop offset="0.7062" stop-color="#F3F2FA"/>
            <stop offset="1" stop-color="#BCFAE1"/>
        </linearGradient>
        <linearGradient id="paint5_linear" x1="1132" y1="311" x2="1427" y2="360" gradientUnits="userSpaceOnUse">
            <stop stop-color="#FB5B5B"/>
            <stop offset="0.5" stop-color="#F9D550"/>
            <stop offset="1" stop-color="#3DD598"/>
        </linearGradient>
        <linearGradient id="paint6_linear" x1="1339.33" y1="397" x2="1029.33" y2="216" gradientUnits="userSpaceOnUse">
            <stop stop-color="#222327"/>
            <stop offset="1" stop-color="#222327" stop-opacity="0"/>
        </linearGradient>
        <radialGradient id="paint7_radial" cx="0" cy="0" r="1" gradientUnits="userSpaceOnUse" gradientTransform="translate(1241.99 258.015) rotate(44.404) scale(35.1118 57.8396)">
            <stop stop-color="#C0BFF6"/>
            <stop offset="1" stop-color="#393091"/>
        </radialGradient>
        <linearGradient id="paint8_linear" x1="1230.39" y1="275.838" x2="1199.14" y2="277.184" gradientUnits="userSpaceOnUse">
            <stop stop-color="#F5F5F5"/>
            <stop offset="0.00467455" stop-color="#F4F4F4"/>
            <stop offset="0.1358" stop-color="#E5EDE9"/>
            <stop offset="0.2707" stop-color="#EAEAEA"/>
            <stop offset="0.4074" stop-color="#F9F4F4"/>
            <stop offset="0.5467" stop-color="white"/>
            <stop offset="0.6893" stop-color="white"/>
            <stop offset="0.8375" stop-color="#FCFCFC"/>
            <stop offset="1" stop-color="#F0F0F0"/>
        </linearGradient>
        <radialGradient id="paint9_radial" cx="0" cy="0" r="1" gradientUnits="userSpaceOnUse" gradientTransform="translate(1337.28 167.338) rotate(11.1976) scale(114.276)">
            <stop stop-color="#C0BFF6"/>
            <stop offset="1" stop-color="#393091"/>
        </radialGradient>
        <linearGradient id="paint10_linear" x1="1231.96" y1="247.283" x2="1253.23" y2="213.889" gradientUnits="userSpaceOnUse">
            <stop stop-color="#F7F7F7"/>
            <stop offset="0.00467455" stop-color="#F2F2F2"/>
            <stop offset="0.1358" stop-color="#F5F5F5"/>
            <stop offset="0.2707" stop-color="#F7F8F7"/>
            <stop offset="0.4074" stop-color="white"/>
            <stop offset="0.5467" stop-color="#FAFBFA"/>
            <stop offset="0.6893" stop-color="#E6E6E6"/>
            <stop offset="0.807292" stop-color="#D2D2D2"/>
            <stop offset="0.916667" stop-color="#D2D2D2"/>
        </linearGradient>
        <radialGradient id="paint11_radial" cx="0" cy="0" r="1" gradientUnits="userSpaceOnUse" gradientTransform="translate(1320.36 256.107) scale(87.8413 119.575)">
            <stop stop-color="#C0BFF6"/>
            <stop offset="1" stop-color="#393091"/>
        </radialGradient>
        <linearGradient id="paint12_linear" x1="1290.2" y1="336.116" x2="1290.2" y2="216.59" gradientUnits="userSpaceOnUse">
            <stop stop-color="#FDFDFD"/>
            <stop offset="0.00467455" stop-color="#E2E3E3"/>
            <stop offset="0.1358" stop-color="#F0F0F0"/>
            <stop offset="0.2707" stop-color="#F7FAF7"/>
            <stop offset="0.4074" stop-color="white"/>
            <stop offset="0.5467" stop-color="#FBFBFB"/>
            <stop offset="0.6893" stop-color="#F2F2F2"/>
            <stop offset="0.8375" stop-color="#ECECEC"/>
            <stop offset="1" stop-color="#CBCBCB"/>
        </linearGradient>
        <radialGradient id="paint13_radial" cx="0" cy="0" r="1" gradientUnits="userSpaceOnUse" gradientTransform="translate(1324.76 181.456) scale(88.1106)">
            <stop stop-color="#C0BFF6"/>
            <stop offset="1" stop-color="#393091"/>
        </radialGradient>
        <linearGradient id="paint14_linear" x1="1284.97" y1="240.809" x2="1299.49" y2="137.549" gradientUnits="userSpaceOnUse">
            <stop stop-color="white"/>
            <stop offset="0.00467455" stop-color="#CACACA"/>
            <stop offset="0.1358" stop-color="#EAEAEA"/>
            <stop offset="0.2707" stop-color="#EEEEEE"/>
            <stop offset="0.4074" stop-color="#FAFBFA"/>
            <stop offset="0.5467" stop-color="white"/>
            <stop offset="0.6893" stop-color="#F3F3F3"/>
            <stop offset="0.8375" stop-color="#EAEBEA"/>
            <stop offset="1" stop-color="#C8C8C8"/>
        </linearGradient>
        <radialGradient id="paint15_radial" cx="0" cy="0" r="1" gradientUnits="userSpaceOnUse" gradientTransform="translate(1360.09 249.011) rotate(11.1976) scale(41.302)">
            <stop stop-color="#C0BFF6"/>
            <stop offset="1" stop-color="#393091"/>
        </radialGradient>
        <linearGradient id="paint16_linear" x1="1332.34" y1="273.568" x2="1364.38" y2="250.294" gradientUnits="userSpaceOnUse">
            <stop stop-color="#F9F9F9"/>
            <stop offset="0.00467455" stop-color="#D3D3D3"/>
            <stop offset="0.1358" stop-color="#ECECEC"/>
            <stop offset="0.2707" stop-color="#ECF0EE"/>
            <stop offset="0.4074" stop-color="#F5F5F5"/>
            <stop offset="0.5467" stop-color="white"/>
            <stop offset="0.6893" stop-color="#F9F9F9"/>
            <stop offset="0.8375" stop-color="#F3F3F3"/>
            <stop offset="1" stop-color="#E3E3E3"/>
        </linearGradient>
        <radialGradient id="paint17_radial" cx="0" cy="0" r="1" gradientUnits="userSpaceOnUse" gradientTransform="translate(1385.09 311.925) rotate(6.80285) scale(35.1116 57.8387)">
            <stop stop-color="#C0BFF6"/>
            <stop offset="1" stop-color="#393091"/>
        </radialGradient>
        <linearGradient id="paint18_linear" x1="1352.05" y1="329.734" x2="1379.28" y2="332.982" gradientUnits="userSpaceOnUse">
            <stop stop-color="#FDFDFD"/>
            <stop offset="0.00467455" stop-color="#F0F0F0"/>
            <stop offset="0.1358" stop-color="#F4F4F4"/>
            <stop offset="0.2707" stop-color="white"/>
            <stop offset="0.4074" stop-color="white"/>
            <stop offset="0.5467" stop-color="#F9F6F6"/>
            <stop offset="0.6893" stop-color="#F2F2F2"/>
            <stop offset="0.8375" stop-color="#E4E4E4"/>
            <stop offset="1" stop-color="#E0E0E0"/>
        </linearGradient>
        <linearGradient id="paint19_linear" x1="951.453" y1="610.627" x2="1027.16" y2="654.336" gradientUnits="userSpaceOnUse">
            <stop stop-color="#7FFDD0"/>
            <stop offset="0.2271" stop-color="#62FFA1"/>
            <stop offset="0.6802" stop-color="#1BCF63"/>
            <stop offset="1" stop-color="#52FFD5"/>
        </linearGradient>
        <linearGradient id="paint20_linear" x1="941.961" y1="627.149" x2="1037.38" y2="627.149" gradientUnits="userSpaceOnUse">
            <stop stop-color="#F7F7F7"/>
            <stop offset="0.3601" stop-color="#E1E1E1"/>
            <stop offset="0.7062" stop-color="#DFDFDF"/>
            <stop offset="1" stop-color="#ACACAC"/>
        </linearGradient>
        <linearGradient id="paint21_linear" x1="951.453" y1="554.974" x2="1027.16" y2="598.683" gradientUnits="userSpaceOnUse">
            <stop stop-color="#FDFDFD"/>
            <stop offset="0.2271" stop-color="#F1F1F1"/>
            <stop offset="0.6802" stop-color="#CFD1E8"/>
            <stop offset="1" stop-color="#E3E3E3"/>
        </linearGradient>
        <linearGradient id="paint22_linear" x1="941.961" y1="571.496" x2="1037.38" y2="571.496" gradientUnits="userSpaceOnUse">
            <stop stop-color="white"/>
            <stop offset="0.3601" stop-color="white"/>
            <stop offset="0.7062" stop-color="#F3F2FA"/>
            <stop offset="1" stop-color="#BCFAE1"/>
        </linearGradient>
        <linearGradient id="paint23_linear" x1="941.423" y1="398.363" x2="1008.88" y2="437.306" gradientUnits="userSpaceOnUse">
            <stop stop-color="#7FFDD0"/>
            <stop offset="0.2271" stop-color="#62FFA1"/>
            <stop offset="0.6802" stop-color="#1BCF63"/>
            <stop offset="1" stop-color="#52FFD5"/>
        </linearGradient>
        <linearGradient id="paint24_linear" x1="932.965" y1="413.083" x2="1017.98" y2="413.083" gradientUnits="userSpaceOnUse">
            <stop stop-color="#F7F7F7"/>
            <stop offset="0.3601" stop-color="#E1E1E1"/>
            <stop offset="0.7062" stop-color="#DFDFDF"/>
            <stop offset="1" stop-color="#ACACAC"/>
        </linearGradient>
        <linearGradient id="paint25_linear" x1="941.423" y1="348.778" x2="1008.88" y2="387.721" gradientUnits="userSpaceOnUse">
            <stop stop-color="#FDFDFD"/>
            <stop offset="0.2271" stop-color="#F1F1F1"/>
            <stop offset="0.6802" stop-color="#CFD1E8"/>
            <stop offset="1" stop-color="#E3E3E3"/>
        </linearGradient>
        <linearGradient id="paint26_linear" x1="932.965" y1="363.499" x2="1017.98" y2="363.499" gradientUnits="userSpaceOnUse">
            <stop stop-color="white"/>
            <stop offset="0.3601" stop-color="white"/>
            <stop offset="0.7062" stop-color="#F3F2FA"/>
            <stop offset="1" stop-color="#BCFAE1"/>
        </linearGradient>
    </defs>
</svg>