<svg width="26" height="22" viewBox="0 0 26 22" fill="none" xmlns="http://www.w3.org/2000/svg">
    <path d="M26 2.45006C25.025 2.88563 23.9958 3.15786 22.9125 3.3212C23.9958 2.66785 24.8625 1.63338 25.2417 0.381121C24.2125 0.980026 23.075 1.41559 21.8292 1.68782C20.8542 0.653351 19.4458 0 17.9292 0C15.0042 0 12.6208 2.39562 12.6208 5.3357C12.6208 5.77126 12.675 6.15238 12.7833 6.5335C8.39583 6.31572 4.44167 4.19233 1.7875 0.92558C1.35417 1.74227 1.08333 2.6134 1.08333 3.59343C1.08333 5.44459 2.00417 7.07796 3.46667 8.05799C2.6 8.00354 1.7875 7.78576 1.02917 7.40464V7.45908C1.02917 10.0725 2.87083 12.2503 5.30833 12.7403C4.875 12.8492 4.3875 12.9037 3.9 12.9037C3.575 12.9037 3.19583 12.8492 2.87083 12.7948C3.575 14.9182 5.525 16.4971 7.85417 16.4971C6.0125 17.9127 3.7375 18.7838 1.24583 18.7838C0.8125 18.7838 0.379167 18.7838 0 18.7294C2.38333 20.2539 5.14583 21.125 8.17917 21.125C17.9833 21.125 23.3458 12.9581 23.3458 5.88015C23.3458 5.66237 23.3458 5.39014 23.3458 5.17236C24.375 4.46456 25.2958 3.53898 26 2.45006Z" fill="white"/>
</svg>