<svg width="40" height="40" viewBox="0 0 40 40" fill="none" xmlns="http://www.w3.org/2000/svg">
<path d="M20 36C11.178 36 4 28.822 4 20C4 11.178 11.178 4 20 4C28.822 4 36 11.178 36 20C36 28.822 28.823 36 20 36ZM20 6C12.28 6 6 12.28 6 20C6 27.72 12.28 34 20 34C27.72 34 34 27.72 34 20C34 12.28 27.72 6 20 6Z" fill="#3F87F5"/>
<path d="M21 7.99902H19V11.749H21V7.99902Z" fill="#3F87F5"/>
<path d="M25.832 21H19V13.999H21V19H25.832V21Z" fill="#3F87F5"/>
<path d="M31.999 19H28V21H31.999V19Z" fill="#3F87F5"/>
<path d="M12 19H8.25V21H12V19Z" fill="#3F87F5"/>
<path d="M21 27.999H19V32H21V27.999Z" fill="#3F87F5"/>
</svg>
